M48
;DRILL file {KiCad (5.0.2-5-10.14)} date Monday, October 07, 2019 at 05:27:28 PM
;FORMAT={-:-/ absolute / metric / decimal}
FMAT,2
METRIC,TZ
T1C0.400
T2C0.800
T3C1.000
%
G90
G05
T1
X178.181Y-66.04
X178.435Y-50.165
X179.451Y-45.847
X180.594Y-58.801
X182.245Y-55.245
X182.88Y-50.165
X183.388Y-63.119
X185.039Y-84.074
X186.055Y-84.074
X186.055Y-93.726
X186.944Y-55.499
X187.071Y-84.074
X189.865Y-94.615
X194.818Y-67.183
X194.818Y-91.44
X206.375Y-94.615
T2
X215.9Y-27.94
X215.9Y-30.44
X198.12Y-73.66
X198.12Y-76.2
X198.12Y-78.74
X198.12Y-81.28
X198.12Y-83.82
X198.12Y-86.36
X198.12Y-88.9
X198.12Y-91.44
X210.82Y-73.66
X210.82Y-76.2
X210.82Y-78.74
X210.82Y-81.28
X210.82Y-83.82
X210.82Y-86.36
X210.82Y-88.9
X210.82Y-91.44
X198.12Y-27.94
X198.12Y-30.48
X198.12Y-33.02
X198.12Y-35.56
X198.12Y-38.1
X198.12Y-40.64
X198.12Y-43.18
X198.12Y-45.72
X210.82Y-27.94
X210.82Y-30.48
X210.82Y-33.02
X210.82Y-35.56
X210.82Y-38.1
X210.82Y-40.64
X210.82Y-43.18
X210.82Y-45.72
X215.9Y-73.66
X215.9Y-76.16
X215.9Y-50.8
X215.9Y-53.3
X198.12Y-50.8
X198.12Y-53.34
X198.12Y-55.88
X198.12Y-58.42
X198.12Y-60.96
X198.12Y-63.5
X198.12Y-66.04
X198.12Y-68.58
X210.82Y-50.8
X210.82Y-53.34
X210.82Y-55.88
X210.82Y-58.42
X210.82Y-60.96
X210.82Y-63.5
X210.82Y-66.04
X210.82Y-68.58
T3
X215.9Y-80.01
X215.9Y-82.55
X215.9Y-85.09
X215.9Y-87.63
X215.9Y-57.15
X215.9Y-59.69
X215.9Y-62.23
X215.9Y-64.77
X181.102Y-36.703
X183.642Y-36.703
X186.182Y-36.703
X215.9Y-34.29
X215.9Y-36.83
X215.9Y-39.37
X215.9Y-41.91
X170.307Y-45.466
X170.307Y-48.006
X170.307Y-50.546
X170.307Y-53.086
X170.307Y-55.626
X170.307Y-58.166
X170.307Y-36.83
X170.307Y-39.37
X172.847Y-36.83
X172.847Y-39.37
X175.387Y-36.83
X175.387Y-39.37
T3
X174.34Y-82.185G85X174.34Y-84.185
G05
X176.34Y-87.885G85X178.34Y-87.885
G05
X180.34Y-82.185G85X180.34Y-84.185
G05
T0
M30
