G04 #@! TF.GenerationSoftware,KiCad,Pcbnew,(5.0.2-5-10.14)*
G04 #@! TF.CreationDate,2019-10-07T17:27:23-04:00*
G04 #@! TF.ProjectId,mobo,6d6f626f-2e6b-4696-9361-645f70636258,rev?*
G04 #@! TF.SameCoordinates,Original*
G04 #@! TF.FileFunction,Copper,L2,Inr*
G04 #@! TF.FilePolarity,Positive*
%FSLAX46Y46*%
G04 Gerber Fmt 4.6, Leading zero omitted, Abs format (unit mm)*
G04 Created by KiCad (PCBNEW (5.0.2-5-10.14)) date Monday, October 07, 2019 at 05:27:23 PM*
%MOMM*%
%LPD*%
G01*
G04 APERTURE LIST*
G04 #@! TA.AperFunction,ViaPad*
%ADD10R,1.600000X1.600000*%
G04 #@! TD*
G04 #@! TA.AperFunction,ViaPad*
%ADD11O,1.600000X1.600000*%
G04 #@! TD*
G04 #@! TA.AperFunction,ViaPad*
%ADD12C,1.600000*%
G04 #@! TD*
G04 #@! TA.AperFunction,ViaPad*
%ADD13R,1.700000X1.700000*%
G04 #@! TD*
G04 #@! TA.AperFunction,ViaPad*
%ADD14O,1.700000X1.700000*%
G04 #@! TD*
G04 #@! TA.AperFunction,ViaPad*
%ADD15R,3.500000X3.500000*%
G04 #@! TD*
G04 #@! TA.AperFunction,Conductor*
%ADD16C,0.100000*%
G04 #@! TD*
G04 #@! TA.AperFunction,ViaPad*
%ADD17C,3.000000*%
G04 #@! TD*
G04 #@! TA.AperFunction,ViaPad*
%ADD18C,3.500000*%
G04 #@! TD*
G04 #@! TA.AperFunction,ViaPad*
%ADD19C,0.800000*%
G04 #@! TD*
G04 #@! TA.AperFunction,Conductor*
%ADD20C,0.254000*%
G04 #@! TD*
G04 APERTURE END LIST*
D10*
G04 #@! TO.N,GND*
G04 #@! TO.C,A1*
X210820000Y-91440000D03*
D11*
G04 #@! TO.N,STP_EN*
X198120000Y-73660000D03*
G04 #@! TO.N,Net-(A1-Pad2)*
X210820000Y-88900000D03*
G04 #@! TO.N,Net-(A1-Pad10)*
X198120000Y-76200000D03*
G04 #@! TO.N,Net-(A1-Pad3)*
X210820000Y-86360000D03*
G04 #@! TO.N,Net-(A1-Pad11)*
X198120000Y-78740000D03*
G04 #@! TO.N,Net-(A1-Pad4)*
X210820000Y-83820000D03*
G04 #@! TO.N,Net-(A1-Pad12)*
X198120000Y-81280000D03*
G04 #@! TO.N,Net-(A1-Pad5)*
X210820000Y-81280000D03*
G04 #@! TO.N,+5V*
X198120000Y-83820000D03*
G04 #@! TO.N,Net-(A1-Pad6)*
X210820000Y-78740000D03*
G04 #@! TO.N,+5V*
X198120000Y-86360000D03*
G04 #@! TO.N,GND*
X210820000Y-76200000D03*
G04 #@! TO.N,V_STEP*
X198120000Y-88900000D03*
G04 #@! TO.N,+12V*
X210820000Y-73660000D03*
G04 #@! TO.N,V_DIR*
X198120000Y-91440000D03*
G04 #@! TD*
G04 #@! TO.N,U_DIR*
G04 #@! TO.C,A2*
X198120000Y-68580000D03*
G04 #@! TO.N,+12V*
X210820000Y-50800000D03*
G04 #@! TO.N,U_STEP*
X198120000Y-66040000D03*
G04 #@! TO.N,GND*
X210820000Y-53340000D03*
G04 #@! TO.N,+5V*
X198120000Y-63500000D03*
G04 #@! TO.N,Net-(A2-Pad6)*
X210820000Y-55880000D03*
G04 #@! TO.N,+5V*
X198120000Y-60960000D03*
G04 #@! TO.N,Net-(A2-Pad5)*
X210820000Y-58420000D03*
G04 #@! TO.N,Net-(A2-Pad12)*
X198120000Y-58420000D03*
G04 #@! TO.N,Net-(A2-Pad4)*
X210820000Y-60960000D03*
G04 #@! TO.N,Net-(A2-Pad11)*
X198120000Y-55880000D03*
G04 #@! TO.N,Net-(A2-Pad3)*
X210820000Y-63500000D03*
G04 #@! TO.N,Net-(A2-Pad10)*
X198120000Y-53340000D03*
G04 #@! TO.N,Net-(A2-Pad2)*
X210820000Y-66040000D03*
G04 #@! TO.N,STP_EN*
X198120000Y-50800000D03*
D10*
G04 #@! TO.N,GND*
X210820000Y-68580000D03*
G04 #@! TD*
G04 #@! TO.N,GND*
G04 #@! TO.C,A3*
X210820000Y-45720000D03*
D11*
G04 #@! TO.N,STP_EN*
X198120000Y-27940000D03*
G04 #@! TO.N,Net-(A3-Pad2)*
X210820000Y-43180000D03*
G04 #@! TO.N,Net-(A3-Pad10)*
X198120000Y-30480000D03*
G04 #@! TO.N,Net-(A3-Pad3)*
X210820000Y-40640000D03*
G04 #@! TO.N,Net-(A3-Pad11)*
X198120000Y-33020000D03*
G04 #@! TO.N,Net-(A3-Pad4)*
X210820000Y-38100000D03*
G04 #@! TO.N,Net-(A3-Pad12)*
X198120000Y-35560000D03*
G04 #@! TO.N,Net-(A3-Pad5)*
X210820000Y-35560000D03*
G04 #@! TO.N,+5V*
X198120000Y-38100000D03*
G04 #@! TO.N,Net-(A3-Pad6)*
X210820000Y-33020000D03*
G04 #@! TO.N,+5V*
X198120000Y-40640000D03*
G04 #@! TO.N,GND*
X210820000Y-30480000D03*
G04 #@! TO.N,X_STEP*
X198120000Y-43180000D03*
G04 #@! TO.N,+12V*
X210820000Y-27940000D03*
G04 #@! TO.N,X_DIR*
X198120000Y-45720000D03*
G04 #@! TD*
D10*
G04 #@! TO.N,+12V*
G04 #@! TO.C,C2*
X215900000Y-27940000D03*
D12*
G04 #@! TO.N,GND*
X215900000Y-30440000D03*
G04 #@! TD*
G04 #@! TO.N,GND*
G04 #@! TO.C,C3*
X215900000Y-76160000D03*
D10*
G04 #@! TO.N,+12V*
X215900000Y-73660000D03*
G04 #@! TD*
G04 #@! TO.N,+12V*
G04 #@! TO.C,C4*
X215900000Y-50800000D03*
D12*
G04 #@! TO.N,GND*
X215900000Y-53300000D03*
G04 #@! TD*
D13*
G04 #@! TO.N,RTS*
G04 #@! TO.C,J1*
X170307000Y-58166000D03*
D14*
G04 #@! TO.N,TX*
X170307000Y-55626000D03*
G04 #@! TO.N,RX*
X170307000Y-53086000D03*
G04 #@! TO.N,+5V*
X170307000Y-50546000D03*
G04 #@! TO.N,CTS*
X170307000Y-48006000D03*
G04 #@! TO.N,GND*
X170307000Y-45466000D03*
G04 #@! TD*
D15*
G04 #@! TO.N,+12V*
G04 #@! TO.C,J2*
X180340000Y-83185000D03*
D16*
G04 #@! TO.N,GND*
G36*
X175163513Y-81438611D02*
X175236318Y-81449411D01*
X175307714Y-81467295D01*
X175377013Y-81492090D01*
X175443548Y-81523559D01*
X175506678Y-81561398D01*
X175565795Y-81605242D01*
X175620330Y-81654670D01*
X175669758Y-81709205D01*
X175713602Y-81768322D01*
X175751441Y-81831452D01*
X175782910Y-81897987D01*
X175807705Y-81967286D01*
X175825589Y-82038682D01*
X175836389Y-82111487D01*
X175840000Y-82185000D01*
X175840000Y-84185000D01*
X175836389Y-84258513D01*
X175825589Y-84331318D01*
X175807705Y-84402714D01*
X175782910Y-84472013D01*
X175751441Y-84538548D01*
X175713602Y-84601678D01*
X175669758Y-84660795D01*
X175620330Y-84715330D01*
X175565795Y-84764758D01*
X175506678Y-84808602D01*
X175443548Y-84846441D01*
X175377013Y-84877910D01*
X175307714Y-84902705D01*
X175236318Y-84920589D01*
X175163513Y-84931389D01*
X175090000Y-84935000D01*
X173590000Y-84935000D01*
X173516487Y-84931389D01*
X173443682Y-84920589D01*
X173372286Y-84902705D01*
X173302987Y-84877910D01*
X173236452Y-84846441D01*
X173173322Y-84808602D01*
X173114205Y-84764758D01*
X173059670Y-84715330D01*
X173010242Y-84660795D01*
X172966398Y-84601678D01*
X172928559Y-84538548D01*
X172897090Y-84472013D01*
X172872295Y-84402714D01*
X172854411Y-84331318D01*
X172843611Y-84258513D01*
X172840000Y-84185000D01*
X172840000Y-82185000D01*
X172843611Y-82111487D01*
X172854411Y-82038682D01*
X172872295Y-81967286D01*
X172897090Y-81897987D01*
X172928559Y-81831452D01*
X172966398Y-81768322D01*
X173010242Y-81709205D01*
X173059670Y-81654670D01*
X173114205Y-81605242D01*
X173173322Y-81561398D01*
X173236452Y-81523559D01*
X173302987Y-81492090D01*
X173372286Y-81467295D01*
X173443682Y-81449411D01*
X173516487Y-81438611D01*
X173590000Y-81435000D01*
X175090000Y-81435000D01*
X175163513Y-81438611D01*
X175163513Y-81438611D01*
G37*
D17*
X174340000Y-83185000D03*
D16*
G04 #@! TO.N,N/C*
G36*
X178300765Y-86139213D02*
X178385704Y-86151813D01*
X178468999Y-86172677D01*
X178549848Y-86201605D01*
X178627472Y-86238319D01*
X178701124Y-86282464D01*
X178770094Y-86333616D01*
X178833718Y-86391282D01*
X178891384Y-86454906D01*
X178942536Y-86523876D01*
X178986681Y-86597528D01*
X179023395Y-86675152D01*
X179052323Y-86756001D01*
X179073187Y-86839296D01*
X179085787Y-86924235D01*
X179090000Y-87010000D01*
X179090000Y-88760000D01*
X179085787Y-88845765D01*
X179073187Y-88930704D01*
X179052323Y-89013999D01*
X179023395Y-89094848D01*
X178986681Y-89172472D01*
X178942536Y-89246124D01*
X178891384Y-89315094D01*
X178833718Y-89378718D01*
X178770094Y-89436384D01*
X178701124Y-89487536D01*
X178627472Y-89531681D01*
X178549848Y-89568395D01*
X178468999Y-89597323D01*
X178385704Y-89618187D01*
X178300765Y-89630787D01*
X178215000Y-89635000D01*
X176465000Y-89635000D01*
X176379235Y-89630787D01*
X176294296Y-89618187D01*
X176211001Y-89597323D01*
X176130152Y-89568395D01*
X176052528Y-89531681D01*
X175978876Y-89487536D01*
X175909906Y-89436384D01*
X175846282Y-89378718D01*
X175788616Y-89315094D01*
X175737464Y-89246124D01*
X175693319Y-89172472D01*
X175656605Y-89094848D01*
X175627677Y-89013999D01*
X175606813Y-88930704D01*
X175594213Y-88845765D01*
X175590000Y-88760000D01*
X175590000Y-87010000D01*
X175594213Y-86924235D01*
X175606813Y-86839296D01*
X175627677Y-86756001D01*
X175656605Y-86675152D01*
X175693319Y-86597528D01*
X175737464Y-86523876D01*
X175788616Y-86454906D01*
X175846282Y-86391282D01*
X175909906Y-86333616D01*
X175978876Y-86282464D01*
X176052528Y-86238319D01*
X176130152Y-86201605D01*
X176211001Y-86172677D01*
X176294296Y-86151813D01*
X176379235Y-86139213D01*
X176465000Y-86135000D01*
X178215000Y-86135000D01*
X178300765Y-86139213D01*
X178300765Y-86139213D01*
G37*
D18*
X177340000Y-87885000D03*
G04 #@! TD*
D13*
G04 #@! TO.N,MISO*
G04 #@! TO.C,J3*
X175387000Y-39370000D03*
D14*
G04 #@! TO.N,+5V*
X175387000Y-36830000D03*
G04 #@! TO.N,SCK*
X172847000Y-39370000D03*
G04 #@! TO.N,MOSI*
X172847000Y-36830000D03*
G04 #@! TO.N,RESET*
X170307000Y-39370000D03*
G04 #@! TO.N,GND*
X170307000Y-36830000D03*
G04 #@! TD*
D13*
G04 #@! TO.N,+5V*
G04 #@! TO.C,J4*
X181102000Y-36703000D03*
D14*
G04 #@! TO.N,MOSI*
X183642000Y-36703000D03*
G04 #@! TO.N,GND*
X186182000Y-36703000D03*
G04 #@! TD*
D13*
G04 #@! TO.N,Net-(A1-Pad3)*
G04 #@! TO.C,J5*
X215900000Y-87630000D03*
D14*
G04 #@! TO.N,Net-(A1-Pad4)*
X215900000Y-85090000D03*
G04 #@! TO.N,Net-(A1-Pad5)*
X215900000Y-82550000D03*
G04 #@! TO.N,Net-(A1-Pad6)*
X215900000Y-80010000D03*
G04 #@! TD*
G04 #@! TO.N,Net-(A2-Pad6)*
G04 #@! TO.C,J6*
X215900000Y-57150000D03*
G04 #@! TO.N,Net-(A2-Pad5)*
X215900000Y-59690000D03*
G04 #@! TO.N,Net-(A2-Pad4)*
X215900000Y-62230000D03*
D13*
G04 #@! TO.N,Net-(A2-Pad3)*
X215900000Y-64770000D03*
G04 #@! TD*
G04 #@! TO.N,Net-(A3-Pad3)*
G04 #@! TO.C,J7*
X215900000Y-41910000D03*
D14*
G04 #@! TO.N,Net-(A3-Pad4)*
X215900000Y-39370000D03*
G04 #@! TO.N,Net-(A3-Pad5)*
X215900000Y-36830000D03*
G04 #@! TO.N,Net-(A3-Pad6)*
X215900000Y-34290000D03*
G04 #@! TD*
D19*
G04 #@! TO.N,GND*
X180594000Y-58801000D03*
X183388000Y-63119000D03*
X179451000Y-45847000D03*
G04 #@! TO.N,+5V*
X182245000Y-55245000D03*
X182880000Y-50165000D03*
X186055000Y-84074000D03*
X185039000Y-84074000D03*
X187071000Y-84074000D03*
X186055000Y-93726000D03*
G04 #@! TO.N,+12V*
X189865000Y-94615000D03*
X206375000Y-94615000D03*
G04 #@! TO.N,V_DIR*
X194818000Y-67183000D03*
X194818000Y-91440000D03*
G04 #@! TO.N,U_STEP*
X178181000Y-66040000D03*
G04 #@! TO.N,X_STEP*
X178435000Y-50165000D03*
G04 #@! TO.N,X_DIR*
X186944000Y-55499000D03*
G04 #@! TD*
D20*
G04 #@! TO.N,+5V*
G36*
X220245001Y-95785000D02*
X167105000Y-95785000D01*
X167105000Y-92743451D01*
X167442158Y-92743451D01*
X167561594Y-93510527D01*
X167891521Y-94213250D01*
X168405418Y-94795127D01*
X169061972Y-95209382D01*
X169808405Y-95422713D01*
X170584709Y-95417971D01*
X171328479Y-95195536D01*
X171979924Y-94773291D01*
X172293708Y-94409126D01*
X188830000Y-94409126D01*
X188830000Y-94820874D01*
X188987569Y-95201280D01*
X189278720Y-95492431D01*
X189659126Y-95650000D01*
X190070874Y-95650000D01*
X190451280Y-95492431D01*
X190742431Y-95201280D01*
X190900000Y-94820874D01*
X190900000Y-94409126D01*
X205340000Y-94409126D01*
X205340000Y-94820874D01*
X205497569Y-95201280D01*
X205788720Y-95492431D01*
X206169126Y-95650000D01*
X206580874Y-95650000D01*
X206961280Y-95492431D01*
X207252431Y-95201280D01*
X207410000Y-94820874D01*
X207410000Y-94409126D01*
X207252431Y-94028720D01*
X206961280Y-93737569D01*
X206580874Y-93580000D01*
X206169126Y-93580000D01*
X205788720Y-93737569D01*
X205497569Y-94028720D01*
X205340000Y-94409126D01*
X190900000Y-94409126D01*
X190742431Y-94028720D01*
X190451280Y-93737569D01*
X190070874Y-93580000D01*
X189659126Y-93580000D01*
X189278720Y-93737569D01*
X188987569Y-94028720D01*
X188830000Y-94409126D01*
X172293708Y-94409126D01*
X172486673Y-94185179D01*
X172807991Y-93478478D01*
X172918046Y-92710000D01*
X172917229Y-92643104D01*
X172788431Y-91877543D01*
X172476698Y-91234126D01*
X193783000Y-91234126D01*
X193783000Y-91645874D01*
X193940569Y-92026280D01*
X194231720Y-92317431D01*
X194612126Y-92475000D01*
X195023874Y-92475000D01*
X195404280Y-92317431D01*
X195695431Y-92026280D01*
X195853000Y-91645874D01*
X195853000Y-91234126D01*
X195695431Y-90853720D01*
X195404280Y-90562569D01*
X195023874Y-90405000D01*
X194612126Y-90405000D01*
X194231720Y-90562569D01*
X193940569Y-90853720D01*
X193783000Y-91234126D01*
X172476698Y-91234126D01*
X172449943Y-91178904D01*
X171928976Y-90603349D01*
X171267409Y-90197146D01*
X170518427Y-89992950D01*
X169742238Y-90007175D01*
X169001241Y-90238680D01*
X168355003Y-90668852D01*
X167855476Y-91263112D01*
X167542817Y-91973685D01*
X167442158Y-92743451D01*
X167105000Y-92743451D01*
X167105000Y-87010000D01*
X174942560Y-87010000D01*
X174942560Y-88760000D01*
X175058449Y-89342613D01*
X175388472Y-89836528D01*
X175882387Y-90166551D01*
X176465000Y-90282440D01*
X178215000Y-90282440D01*
X178797613Y-90166551D01*
X179291528Y-89836528D01*
X179621551Y-89342613D01*
X179709592Y-88900000D01*
X196656887Y-88900000D01*
X196768260Y-89459909D01*
X197085423Y-89934577D01*
X197437758Y-90170000D01*
X197085423Y-90405423D01*
X196768260Y-90880091D01*
X196656887Y-91440000D01*
X196768260Y-91999909D01*
X197085423Y-92474577D01*
X197560091Y-92791740D01*
X197978667Y-92875000D01*
X198261333Y-92875000D01*
X198679909Y-92791740D01*
X199154577Y-92474577D01*
X199471740Y-91999909D01*
X199583113Y-91440000D01*
X199471740Y-90880091D01*
X199154577Y-90405423D01*
X198802242Y-90170000D01*
X199154577Y-89934577D01*
X199471740Y-89459909D01*
X199583113Y-88900000D01*
X199471740Y-88340091D01*
X199154577Y-87865423D01*
X198770892Y-87609053D01*
X198975134Y-87512389D01*
X199351041Y-87097423D01*
X199511904Y-86709039D01*
X199389915Y-86487000D01*
X198247000Y-86487000D01*
X198247000Y-86507000D01*
X197993000Y-86507000D01*
X197993000Y-86487000D01*
X196850085Y-86487000D01*
X196728096Y-86709039D01*
X196888959Y-87097423D01*
X197264866Y-87512389D01*
X197469108Y-87609053D01*
X197085423Y-87865423D01*
X196768260Y-88340091D01*
X196656887Y-88900000D01*
X179709592Y-88900000D01*
X179737440Y-88760000D01*
X179737440Y-87010000D01*
X179621551Y-86427387D01*
X179291528Y-85933472D01*
X178797613Y-85603449D01*
X178691994Y-85582440D01*
X182090000Y-85582440D01*
X182337765Y-85533157D01*
X182547809Y-85392809D01*
X182688157Y-85182765D01*
X182737440Y-84935000D01*
X182737440Y-84169039D01*
X196728096Y-84169039D01*
X196888959Y-84557423D01*
X197264866Y-84972389D01*
X197513367Y-85090000D01*
X197264866Y-85207611D01*
X196888959Y-85622577D01*
X196728096Y-86010961D01*
X196850085Y-86233000D01*
X197993000Y-86233000D01*
X197993000Y-83947000D01*
X198247000Y-83947000D01*
X198247000Y-86233000D01*
X199389915Y-86233000D01*
X199511904Y-86010961D01*
X199351041Y-85622577D01*
X198975134Y-85207611D01*
X198726633Y-85090000D01*
X198975134Y-84972389D01*
X199351041Y-84557423D01*
X199511904Y-84169039D01*
X199389915Y-83947000D01*
X198247000Y-83947000D01*
X197993000Y-83947000D01*
X196850085Y-83947000D01*
X196728096Y-84169039D01*
X182737440Y-84169039D01*
X182737440Y-81435000D01*
X182688157Y-81187235D01*
X182547809Y-80977191D01*
X182337765Y-80836843D01*
X182090000Y-80787560D01*
X178590000Y-80787560D01*
X178342235Y-80836843D01*
X178132191Y-80977191D01*
X177991843Y-81187235D01*
X177942560Y-81435000D01*
X177942560Y-84935000D01*
X177991843Y-85182765D01*
X178132191Y-85392809D01*
X178299001Y-85504269D01*
X178215000Y-85487560D01*
X176465000Y-85487560D01*
X175882387Y-85603449D01*
X175388472Y-85933472D01*
X175058449Y-86427387D01*
X174942560Y-87010000D01*
X167105000Y-87010000D01*
X167105000Y-82185000D01*
X172192560Y-82185000D01*
X172192560Y-84185000D01*
X172298934Y-84719777D01*
X172601861Y-85173139D01*
X173055223Y-85476066D01*
X173590000Y-85582440D01*
X175090000Y-85582440D01*
X175624777Y-85476066D01*
X176078139Y-85173139D01*
X176381066Y-84719777D01*
X176487440Y-84185000D01*
X176487440Y-82185000D01*
X176381066Y-81650223D01*
X176078139Y-81196861D01*
X175624777Y-80893934D01*
X175090000Y-80787560D01*
X173590000Y-80787560D01*
X173055223Y-80893934D01*
X172601861Y-81196861D01*
X172298934Y-81650223D01*
X172192560Y-82185000D01*
X167105000Y-82185000D01*
X167105000Y-73660000D01*
X196656887Y-73660000D01*
X196768260Y-74219909D01*
X197085423Y-74694577D01*
X197437758Y-74930000D01*
X197085423Y-75165423D01*
X196768260Y-75640091D01*
X196656887Y-76200000D01*
X196768260Y-76759909D01*
X197085423Y-77234577D01*
X197437758Y-77470000D01*
X197085423Y-77705423D01*
X196768260Y-78180091D01*
X196656887Y-78740000D01*
X196768260Y-79299909D01*
X197085423Y-79774577D01*
X197437758Y-80010000D01*
X197085423Y-80245423D01*
X196768260Y-80720091D01*
X196656887Y-81280000D01*
X196768260Y-81839909D01*
X197085423Y-82314577D01*
X197469108Y-82570947D01*
X197264866Y-82667611D01*
X196888959Y-83082577D01*
X196728096Y-83470961D01*
X196850085Y-83693000D01*
X197993000Y-83693000D01*
X197993000Y-83673000D01*
X198247000Y-83673000D01*
X198247000Y-83693000D01*
X199389915Y-83693000D01*
X199511904Y-83470961D01*
X199351041Y-83082577D01*
X198975134Y-82667611D01*
X198770892Y-82570947D01*
X199154577Y-82314577D01*
X199471740Y-81839909D01*
X199583113Y-81280000D01*
X199471740Y-80720091D01*
X199154577Y-80245423D01*
X198802242Y-80010000D01*
X199154577Y-79774577D01*
X199471740Y-79299909D01*
X199583113Y-78740000D01*
X199471740Y-78180091D01*
X199154577Y-77705423D01*
X198802242Y-77470000D01*
X199154577Y-77234577D01*
X199471740Y-76759909D01*
X199583113Y-76200000D01*
X199471740Y-75640091D01*
X199154577Y-75165423D01*
X198802242Y-74930000D01*
X199154577Y-74694577D01*
X199471740Y-74219909D01*
X199583113Y-73660000D01*
X209356887Y-73660000D01*
X209468260Y-74219909D01*
X209785423Y-74694577D01*
X210137758Y-74930000D01*
X209785423Y-75165423D01*
X209468260Y-75640091D01*
X209356887Y-76200000D01*
X209468260Y-76759909D01*
X209785423Y-77234577D01*
X210137758Y-77470000D01*
X209785423Y-77705423D01*
X209468260Y-78180091D01*
X209356887Y-78740000D01*
X209468260Y-79299909D01*
X209785423Y-79774577D01*
X210137758Y-80010000D01*
X209785423Y-80245423D01*
X209468260Y-80720091D01*
X209356887Y-81280000D01*
X209468260Y-81839909D01*
X209785423Y-82314577D01*
X210137758Y-82550000D01*
X209785423Y-82785423D01*
X209468260Y-83260091D01*
X209356887Y-83820000D01*
X209468260Y-84379909D01*
X209785423Y-84854577D01*
X210137758Y-85090000D01*
X209785423Y-85325423D01*
X209468260Y-85800091D01*
X209356887Y-86360000D01*
X209468260Y-86919909D01*
X209785423Y-87394577D01*
X210137758Y-87630000D01*
X209785423Y-87865423D01*
X209468260Y-88340091D01*
X209356887Y-88900000D01*
X209468260Y-89459909D01*
X209785423Y-89934577D01*
X209906106Y-90015215D01*
X209772235Y-90041843D01*
X209562191Y-90182191D01*
X209421843Y-90392235D01*
X209372560Y-90640000D01*
X209372560Y-92240000D01*
X209421843Y-92487765D01*
X209562191Y-92697809D01*
X209772235Y-92838157D01*
X210020000Y-92887440D01*
X211620000Y-92887440D01*
X211867765Y-92838157D01*
X212011385Y-92742192D01*
X214535197Y-92742192D01*
X214650137Y-93480399D01*
X214967648Y-94156675D01*
X215462204Y-94716653D01*
X216094049Y-95115318D01*
X216812389Y-95320621D01*
X217559478Y-95316057D01*
X218275256Y-95101994D01*
X218902184Y-94695640D01*
X219389862Y-94129661D01*
X219699087Y-93449557D01*
X219805000Y-92710000D01*
X219804213Y-92645621D01*
X219680263Y-91908873D01*
X219354514Y-91236527D01*
X218853153Y-90682632D01*
X218216485Y-90291717D01*
X217495690Y-90095205D01*
X216748713Y-90108896D01*
X216035603Y-90331688D01*
X215413687Y-90745671D01*
X214932960Y-91317565D01*
X214632067Y-92001396D01*
X214535197Y-92742192D01*
X212011385Y-92742192D01*
X212077809Y-92697809D01*
X212218157Y-92487765D01*
X212267440Y-92240000D01*
X212267440Y-90640000D01*
X212218157Y-90392235D01*
X212077809Y-90182191D01*
X211867765Y-90041843D01*
X211733894Y-90015215D01*
X211854577Y-89934577D01*
X212171740Y-89459909D01*
X212283113Y-88900000D01*
X212171740Y-88340091D01*
X211854577Y-87865423D01*
X211502242Y-87630000D01*
X211854577Y-87394577D01*
X212171740Y-86919909D01*
X212283113Y-86360000D01*
X212171740Y-85800091D01*
X211854577Y-85325423D01*
X211502242Y-85090000D01*
X211854577Y-84854577D01*
X212171740Y-84379909D01*
X212283113Y-83820000D01*
X212171740Y-83260091D01*
X211854577Y-82785423D01*
X211502242Y-82550000D01*
X211854577Y-82314577D01*
X212171740Y-81839909D01*
X212283113Y-81280000D01*
X212171740Y-80720091D01*
X211854577Y-80245423D01*
X211502242Y-80010000D01*
X214385908Y-80010000D01*
X214501161Y-80589418D01*
X214829375Y-81080625D01*
X215127761Y-81280000D01*
X214829375Y-81479375D01*
X214501161Y-81970582D01*
X214385908Y-82550000D01*
X214501161Y-83129418D01*
X214829375Y-83620625D01*
X215127761Y-83820000D01*
X214829375Y-84019375D01*
X214501161Y-84510582D01*
X214385908Y-85090000D01*
X214501161Y-85669418D01*
X214829375Y-86160625D01*
X214847619Y-86172816D01*
X214802235Y-86181843D01*
X214592191Y-86322191D01*
X214451843Y-86532235D01*
X214402560Y-86780000D01*
X214402560Y-88480000D01*
X214451843Y-88727765D01*
X214592191Y-88937809D01*
X214802235Y-89078157D01*
X215050000Y-89127440D01*
X216750000Y-89127440D01*
X216997765Y-89078157D01*
X217207809Y-88937809D01*
X217348157Y-88727765D01*
X217397440Y-88480000D01*
X217397440Y-86780000D01*
X217348157Y-86532235D01*
X217207809Y-86322191D01*
X216997765Y-86181843D01*
X216952381Y-86172816D01*
X216970625Y-86160625D01*
X217298839Y-85669418D01*
X217414092Y-85090000D01*
X217298839Y-84510582D01*
X216970625Y-84019375D01*
X216672239Y-83820000D01*
X216970625Y-83620625D01*
X217298839Y-83129418D01*
X217414092Y-82550000D01*
X217298839Y-81970582D01*
X216970625Y-81479375D01*
X216672239Y-81280000D01*
X216970625Y-81080625D01*
X217298839Y-80589418D01*
X217414092Y-80010000D01*
X217298839Y-79430582D01*
X216970625Y-78939375D01*
X216479418Y-78611161D01*
X216046256Y-78525000D01*
X215753744Y-78525000D01*
X215320582Y-78611161D01*
X214829375Y-78939375D01*
X214501161Y-79430582D01*
X214385908Y-80010000D01*
X211502242Y-80010000D01*
X211854577Y-79774577D01*
X212171740Y-79299909D01*
X212283113Y-78740000D01*
X212171740Y-78180091D01*
X211854577Y-77705423D01*
X211502242Y-77470000D01*
X211854577Y-77234577D01*
X212171740Y-76759909D01*
X212283113Y-76200000D01*
X212171740Y-75640091D01*
X211854577Y-75165423D01*
X211502242Y-74930000D01*
X211854577Y-74694577D01*
X212171740Y-74219909D01*
X212283113Y-73660000D01*
X212171740Y-73100091D01*
X212011317Y-72860000D01*
X214452560Y-72860000D01*
X214452560Y-74460000D01*
X214501843Y-74707765D01*
X214642191Y-74917809D01*
X214852235Y-75058157D01*
X214952503Y-75078101D01*
X214683466Y-75347138D01*
X214465000Y-75874561D01*
X214465000Y-76445439D01*
X214683466Y-76972862D01*
X215087138Y-77376534D01*
X215614561Y-77595000D01*
X216185439Y-77595000D01*
X216712862Y-77376534D01*
X217116534Y-76972862D01*
X217335000Y-76445439D01*
X217335000Y-75874561D01*
X217116534Y-75347138D01*
X216847497Y-75078101D01*
X216947765Y-75058157D01*
X217157809Y-74917809D01*
X217298157Y-74707765D01*
X217347440Y-74460000D01*
X217347440Y-72860000D01*
X217298157Y-72612235D01*
X217157809Y-72402191D01*
X216947765Y-72261843D01*
X216700000Y-72212560D01*
X215100000Y-72212560D01*
X214852235Y-72261843D01*
X214642191Y-72402191D01*
X214501843Y-72612235D01*
X214452560Y-72860000D01*
X212011317Y-72860000D01*
X211854577Y-72625423D01*
X211379909Y-72308260D01*
X210961333Y-72225000D01*
X210678667Y-72225000D01*
X210260091Y-72308260D01*
X209785423Y-72625423D01*
X209468260Y-73100091D01*
X209356887Y-73660000D01*
X199583113Y-73660000D01*
X199471740Y-73100091D01*
X199154577Y-72625423D01*
X198679909Y-72308260D01*
X198261333Y-72225000D01*
X197978667Y-72225000D01*
X197560091Y-72308260D01*
X197085423Y-72625423D01*
X196768260Y-73100091D01*
X196656887Y-73660000D01*
X167105000Y-73660000D01*
X167105000Y-65834126D01*
X177146000Y-65834126D01*
X177146000Y-66245874D01*
X177303569Y-66626280D01*
X177594720Y-66917431D01*
X177975126Y-67075000D01*
X178386874Y-67075000D01*
X178623163Y-66977126D01*
X193783000Y-66977126D01*
X193783000Y-67388874D01*
X193940569Y-67769280D01*
X194231720Y-68060431D01*
X194612126Y-68218000D01*
X195023874Y-68218000D01*
X195404280Y-68060431D01*
X195695431Y-67769280D01*
X195853000Y-67388874D01*
X195853000Y-66977126D01*
X195695431Y-66596720D01*
X195404280Y-66305569D01*
X195023874Y-66148000D01*
X194612126Y-66148000D01*
X194231720Y-66305569D01*
X193940569Y-66596720D01*
X193783000Y-66977126D01*
X178623163Y-66977126D01*
X178767280Y-66917431D01*
X179058431Y-66626280D01*
X179216000Y-66245874D01*
X179216000Y-66040000D01*
X196656887Y-66040000D01*
X196768260Y-66599909D01*
X197085423Y-67074577D01*
X197437758Y-67310000D01*
X197085423Y-67545423D01*
X196768260Y-68020091D01*
X196656887Y-68580000D01*
X196768260Y-69139909D01*
X197085423Y-69614577D01*
X197560091Y-69931740D01*
X197978667Y-70015000D01*
X198261333Y-70015000D01*
X198679909Y-69931740D01*
X199154577Y-69614577D01*
X199471740Y-69139909D01*
X199583113Y-68580000D01*
X199471740Y-68020091D01*
X199154577Y-67545423D01*
X198802242Y-67310000D01*
X199154577Y-67074577D01*
X199471740Y-66599909D01*
X199583113Y-66040000D01*
X199471740Y-65480091D01*
X199154577Y-65005423D01*
X198770892Y-64749053D01*
X198975134Y-64652389D01*
X199351041Y-64237423D01*
X199511904Y-63849039D01*
X199389915Y-63627000D01*
X198247000Y-63627000D01*
X198247000Y-63647000D01*
X197993000Y-63647000D01*
X197993000Y-63627000D01*
X196850085Y-63627000D01*
X196728096Y-63849039D01*
X196888959Y-64237423D01*
X197264866Y-64652389D01*
X197469108Y-64749053D01*
X197085423Y-65005423D01*
X196768260Y-65480091D01*
X196656887Y-66040000D01*
X179216000Y-66040000D01*
X179216000Y-65834126D01*
X179058431Y-65453720D01*
X178767280Y-65162569D01*
X178386874Y-65005000D01*
X177975126Y-65005000D01*
X177594720Y-65162569D01*
X177303569Y-65453720D01*
X177146000Y-65834126D01*
X167105000Y-65834126D01*
X167105000Y-62913126D01*
X182353000Y-62913126D01*
X182353000Y-63324874D01*
X182510569Y-63705280D01*
X182801720Y-63996431D01*
X183182126Y-64154000D01*
X183593874Y-64154000D01*
X183974280Y-63996431D01*
X184265431Y-63705280D01*
X184423000Y-63324874D01*
X184423000Y-62913126D01*
X184265431Y-62532720D01*
X183974280Y-62241569D01*
X183593874Y-62084000D01*
X183182126Y-62084000D01*
X182801720Y-62241569D01*
X182510569Y-62532720D01*
X182353000Y-62913126D01*
X167105000Y-62913126D01*
X167105000Y-61309039D01*
X196728096Y-61309039D01*
X196888959Y-61697423D01*
X197264866Y-62112389D01*
X197513367Y-62230000D01*
X197264866Y-62347611D01*
X196888959Y-62762577D01*
X196728096Y-63150961D01*
X196850085Y-63373000D01*
X197993000Y-63373000D01*
X197993000Y-61087000D01*
X198247000Y-61087000D01*
X198247000Y-63373000D01*
X199389915Y-63373000D01*
X199511904Y-63150961D01*
X199351041Y-62762577D01*
X198975134Y-62347611D01*
X198726633Y-62230000D01*
X198975134Y-62112389D01*
X199351041Y-61697423D01*
X199511904Y-61309039D01*
X199389915Y-61087000D01*
X198247000Y-61087000D01*
X197993000Y-61087000D01*
X196850085Y-61087000D01*
X196728096Y-61309039D01*
X167105000Y-61309039D01*
X167105000Y-53086000D01*
X168792908Y-53086000D01*
X168908161Y-53665418D01*
X169236375Y-54156625D01*
X169534761Y-54356000D01*
X169236375Y-54555375D01*
X168908161Y-55046582D01*
X168792908Y-55626000D01*
X168908161Y-56205418D01*
X169236375Y-56696625D01*
X169254619Y-56708816D01*
X169209235Y-56717843D01*
X168999191Y-56858191D01*
X168858843Y-57068235D01*
X168809560Y-57316000D01*
X168809560Y-59016000D01*
X168858843Y-59263765D01*
X168999191Y-59473809D01*
X169209235Y-59614157D01*
X169457000Y-59663440D01*
X171157000Y-59663440D01*
X171404765Y-59614157D01*
X171614809Y-59473809D01*
X171755157Y-59263765D01*
X171804440Y-59016000D01*
X171804440Y-58595126D01*
X179559000Y-58595126D01*
X179559000Y-59006874D01*
X179716569Y-59387280D01*
X180007720Y-59678431D01*
X180388126Y-59836000D01*
X180799874Y-59836000D01*
X181180280Y-59678431D01*
X181471431Y-59387280D01*
X181629000Y-59006874D01*
X181629000Y-58595126D01*
X181471431Y-58214720D01*
X181180280Y-57923569D01*
X180799874Y-57766000D01*
X180388126Y-57766000D01*
X180007720Y-57923569D01*
X179716569Y-58214720D01*
X179559000Y-58595126D01*
X171804440Y-58595126D01*
X171804440Y-57316000D01*
X171755157Y-57068235D01*
X171614809Y-56858191D01*
X171404765Y-56717843D01*
X171359381Y-56708816D01*
X171377625Y-56696625D01*
X171705839Y-56205418D01*
X171821092Y-55626000D01*
X171754880Y-55293126D01*
X185909000Y-55293126D01*
X185909000Y-55704874D01*
X186066569Y-56085280D01*
X186357720Y-56376431D01*
X186738126Y-56534000D01*
X187149874Y-56534000D01*
X187530280Y-56376431D01*
X187821431Y-56085280D01*
X187979000Y-55704874D01*
X187979000Y-55293126D01*
X187821431Y-54912720D01*
X187530280Y-54621569D01*
X187149874Y-54464000D01*
X186738126Y-54464000D01*
X186357720Y-54621569D01*
X186066569Y-54912720D01*
X185909000Y-55293126D01*
X171754880Y-55293126D01*
X171705839Y-55046582D01*
X171377625Y-54555375D01*
X171079239Y-54356000D01*
X171377625Y-54156625D01*
X171705839Y-53665418D01*
X171821092Y-53086000D01*
X171705839Y-52506582D01*
X171377625Y-52015375D01*
X171058522Y-51802157D01*
X171188358Y-51741183D01*
X171578645Y-51312924D01*
X171748476Y-50902890D01*
X171627155Y-50673000D01*
X170434000Y-50673000D01*
X170434000Y-50693000D01*
X170180000Y-50693000D01*
X170180000Y-50673000D01*
X168986845Y-50673000D01*
X168865524Y-50902890D01*
X169035355Y-51312924D01*
X169425642Y-51741183D01*
X169555478Y-51802157D01*
X169236375Y-52015375D01*
X168908161Y-52506582D01*
X168792908Y-53086000D01*
X167105000Y-53086000D01*
X167105000Y-45466000D01*
X168792908Y-45466000D01*
X168908161Y-46045418D01*
X169236375Y-46536625D01*
X169534761Y-46736000D01*
X169236375Y-46935375D01*
X168908161Y-47426582D01*
X168792908Y-48006000D01*
X168908161Y-48585418D01*
X169236375Y-49076625D01*
X169555478Y-49289843D01*
X169425642Y-49350817D01*
X169035355Y-49779076D01*
X168865524Y-50189110D01*
X168986845Y-50419000D01*
X170180000Y-50419000D01*
X170180000Y-50399000D01*
X170434000Y-50399000D01*
X170434000Y-50419000D01*
X171627155Y-50419000D01*
X171748476Y-50189110D01*
X171653220Y-49959126D01*
X177400000Y-49959126D01*
X177400000Y-50370874D01*
X177557569Y-50751280D01*
X177848720Y-51042431D01*
X178229126Y-51200000D01*
X178640874Y-51200000D01*
X179021280Y-51042431D01*
X179263711Y-50800000D01*
X196656887Y-50800000D01*
X196768260Y-51359909D01*
X197085423Y-51834577D01*
X197437758Y-52070000D01*
X197085423Y-52305423D01*
X196768260Y-52780091D01*
X196656887Y-53340000D01*
X196768260Y-53899909D01*
X197085423Y-54374577D01*
X197437758Y-54610000D01*
X197085423Y-54845423D01*
X196768260Y-55320091D01*
X196656887Y-55880000D01*
X196768260Y-56439909D01*
X197085423Y-56914577D01*
X197437758Y-57150000D01*
X197085423Y-57385423D01*
X196768260Y-57860091D01*
X196656887Y-58420000D01*
X196768260Y-58979909D01*
X197085423Y-59454577D01*
X197469108Y-59710947D01*
X197264866Y-59807611D01*
X196888959Y-60222577D01*
X196728096Y-60610961D01*
X196850085Y-60833000D01*
X197993000Y-60833000D01*
X197993000Y-60813000D01*
X198247000Y-60813000D01*
X198247000Y-60833000D01*
X199389915Y-60833000D01*
X199511904Y-60610961D01*
X199351041Y-60222577D01*
X198975134Y-59807611D01*
X198770892Y-59710947D01*
X199154577Y-59454577D01*
X199471740Y-58979909D01*
X199583113Y-58420000D01*
X199471740Y-57860091D01*
X199154577Y-57385423D01*
X198802242Y-57150000D01*
X199154577Y-56914577D01*
X199471740Y-56439909D01*
X199583113Y-55880000D01*
X199471740Y-55320091D01*
X199154577Y-54845423D01*
X198802242Y-54610000D01*
X199154577Y-54374577D01*
X199471740Y-53899909D01*
X199583113Y-53340000D01*
X199471740Y-52780091D01*
X199154577Y-52305423D01*
X198802242Y-52070000D01*
X199154577Y-51834577D01*
X199471740Y-51359909D01*
X199583113Y-50800000D01*
X209356887Y-50800000D01*
X209468260Y-51359909D01*
X209785423Y-51834577D01*
X210137758Y-52070000D01*
X209785423Y-52305423D01*
X209468260Y-52780091D01*
X209356887Y-53340000D01*
X209468260Y-53899909D01*
X209785423Y-54374577D01*
X210137758Y-54610000D01*
X209785423Y-54845423D01*
X209468260Y-55320091D01*
X209356887Y-55880000D01*
X209468260Y-56439909D01*
X209785423Y-56914577D01*
X210137758Y-57150000D01*
X209785423Y-57385423D01*
X209468260Y-57860091D01*
X209356887Y-58420000D01*
X209468260Y-58979909D01*
X209785423Y-59454577D01*
X210137758Y-59690000D01*
X209785423Y-59925423D01*
X209468260Y-60400091D01*
X209356887Y-60960000D01*
X209468260Y-61519909D01*
X209785423Y-61994577D01*
X210137758Y-62230000D01*
X209785423Y-62465423D01*
X209468260Y-62940091D01*
X209356887Y-63500000D01*
X209468260Y-64059909D01*
X209785423Y-64534577D01*
X210137758Y-64770000D01*
X209785423Y-65005423D01*
X209468260Y-65480091D01*
X209356887Y-66040000D01*
X209468260Y-66599909D01*
X209785423Y-67074577D01*
X209906106Y-67155215D01*
X209772235Y-67181843D01*
X209562191Y-67322191D01*
X209421843Y-67532235D01*
X209372560Y-67780000D01*
X209372560Y-69380000D01*
X209421843Y-69627765D01*
X209562191Y-69837809D01*
X209772235Y-69978157D01*
X210020000Y-70027440D01*
X211620000Y-70027440D01*
X211867765Y-69978157D01*
X212077809Y-69837809D01*
X212218157Y-69627765D01*
X212267440Y-69380000D01*
X212267440Y-67780000D01*
X212218157Y-67532235D01*
X212077809Y-67322191D01*
X211867765Y-67181843D01*
X211733894Y-67155215D01*
X211854577Y-67074577D01*
X212171740Y-66599909D01*
X212283113Y-66040000D01*
X212171740Y-65480091D01*
X211854577Y-65005423D01*
X211502242Y-64770000D01*
X211854577Y-64534577D01*
X212171740Y-64059909D01*
X212283113Y-63500000D01*
X212171740Y-62940091D01*
X211854577Y-62465423D01*
X211502242Y-62230000D01*
X211854577Y-61994577D01*
X212171740Y-61519909D01*
X212283113Y-60960000D01*
X212171740Y-60400091D01*
X211854577Y-59925423D01*
X211502242Y-59690000D01*
X211854577Y-59454577D01*
X212171740Y-58979909D01*
X212283113Y-58420000D01*
X212171740Y-57860091D01*
X211854577Y-57385423D01*
X211502242Y-57150000D01*
X214385908Y-57150000D01*
X214501161Y-57729418D01*
X214829375Y-58220625D01*
X215127761Y-58420000D01*
X214829375Y-58619375D01*
X214501161Y-59110582D01*
X214385908Y-59690000D01*
X214501161Y-60269418D01*
X214829375Y-60760625D01*
X215127761Y-60960000D01*
X214829375Y-61159375D01*
X214501161Y-61650582D01*
X214385908Y-62230000D01*
X214501161Y-62809418D01*
X214829375Y-63300625D01*
X214847619Y-63312816D01*
X214802235Y-63321843D01*
X214592191Y-63462191D01*
X214451843Y-63672235D01*
X214402560Y-63920000D01*
X214402560Y-65620000D01*
X214451843Y-65867765D01*
X214592191Y-66077809D01*
X214802235Y-66218157D01*
X215050000Y-66267440D01*
X216750000Y-66267440D01*
X216997765Y-66218157D01*
X217207809Y-66077809D01*
X217348157Y-65867765D01*
X217397440Y-65620000D01*
X217397440Y-63920000D01*
X217348157Y-63672235D01*
X217207809Y-63462191D01*
X216997765Y-63321843D01*
X216952381Y-63312816D01*
X216970625Y-63300625D01*
X217298839Y-62809418D01*
X217414092Y-62230000D01*
X217298839Y-61650582D01*
X216970625Y-61159375D01*
X216672239Y-60960000D01*
X216970625Y-60760625D01*
X217298839Y-60269418D01*
X217414092Y-59690000D01*
X217298839Y-59110582D01*
X216970625Y-58619375D01*
X216672239Y-58420000D01*
X216970625Y-58220625D01*
X217298839Y-57729418D01*
X217414092Y-57150000D01*
X217298839Y-56570582D01*
X216970625Y-56079375D01*
X216479418Y-55751161D01*
X216046256Y-55665000D01*
X215753744Y-55665000D01*
X215320582Y-55751161D01*
X214829375Y-56079375D01*
X214501161Y-56570582D01*
X214385908Y-57150000D01*
X211502242Y-57150000D01*
X211854577Y-56914577D01*
X212171740Y-56439909D01*
X212283113Y-55880000D01*
X212171740Y-55320091D01*
X211854577Y-54845423D01*
X211502242Y-54610000D01*
X211854577Y-54374577D01*
X212171740Y-53899909D01*
X212283113Y-53340000D01*
X212171740Y-52780091D01*
X211854577Y-52305423D01*
X211502242Y-52070000D01*
X211854577Y-51834577D01*
X212171740Y-51359909D01*
X212283113Y-50800000D01*
X212171740Y-50240091D01*
X212011317Y-50000000D01*
X214452560Y-50000000D01*
X214452560Y-51600000D01*
X214501843Y-51847765D01*
X214642191Y-52057809D01*
X214852235Y-52198157D01*
X214952503Y-52218101D01*
X214683466Y-52487138D01*
X214465000Y-53014561D01*
X214465000Y-53585439D01*
X214683466Y-54112862D01*
X215087138Y-54516534D01*
X215614561Y-54735000D01*
X216185439Y-54735000D01*
X216712862Y-54516534D01*
X217116534Y-54112862D01*
X217335000Y-53585439D01*
X217335000Y-53014561D01*
X217116534Y-52487138D01*
X216847497Y-52218101D01*
X216947765Y-52198157D01*
X217157809Y-52057809D01*
X217298157Y-51847765D01*
X217347440Y-51600000D01*
X217347440Y-50000000D01*
X217298157Y-49752235D01*
X217157809Y-49542191D01*
X216947765Y-49401843D01*
X216700000Y-49352560D01*
X215100000Y-49352560D01*
X214852235Y-49401843D01*
X214642191Y-49542191D01*
X214501843Y-49752235D01*
X214452560Y-50000000D01*
X212011317Y-50000000D01*
X211854577Y-49765423D01*
X211379909Y-49448260D01*
X210961333Y-49365000D01*
X210678667Y-49365000D01*
X210260091Y-49448260D01*
X209785423Y-49765423D01*
X209468260Y-50240091D01*
X209356887Y-50800000D01*
X199583113Y-50800000D01*
X199471740Y-50240091D01*
X199154577Y-49765423D01*
X198679909Y-49448260D01*
X198261333Y-49365000D01*
X197978667Y-49365000D01*
X197560091Y-49448260D01*
X197085423Y-49765423D01*
X196768260Y-50240091D01*
X196656887Y-50800000D01*
X179263711Y-50800000D01*
X179312431Y-50751280D01*
X179470000Y-50370874D01*
X179470000Y-49959126D01*
X179312431Y-49578720D01*
X179021280Y-49287569D01*
X178640874Y-49130000D01*
X178229126Y-49130000D01*
X177848720Y-49287569D01*
X177557569Y-49578720D01*
X177400000Y-49959126D01*
X171653220Y-49959126D01*
X171578645Y-49779076D01*
X171188358Y-49350817D01*
X171058522Y-49289843D01*
X171377625Y-49076625D01*
X171705839Y-48585418D01*
X171821092Y-48006000D01*
X171705839Y-47426582D01*
X171377625Y-46935375D01*
X171079239Y-46736000D01*
X171377625Y-46536625D01*
X171705839Y-46045418D01*
X171786257Y-45641126D01*
X178416000Y-45641126D01*
X178416000Y-46052874D01*
X178573569Y-46433280D01*
X178864720Y-46724431D01*
X179245126Y-46882000D01*
X179656874Y-46882000D01*
X180037280Y-46724431D01*
X180328431Y-46433280D01*
X180486000Y-46052874D01*
X180486000Y-45641126D01*
X180328431Y-45260720D01*
X180037280Y-44969569D01*
X179656874Y-44812000D01*
X179245126Y-44812000D01*
X178864720Y-44969569D01*
X178573569Y-45260720D01*
X178416000Y-45641126D01*
X171786257Y-45641126D01*
X171821092Y-45466000D01*
X171705839Y-44886582D01*
X171377625Y-44395375D01*
X170886418Y-44067161D01*
X170453256Y-43981000D01*
X170160744Y-43981000D01*
X169727582Y-44067161D01*
X169236375Y-44395375D01*
X168908161Y-44886582D01*
X168792908Y-45466000D01*
X167105000Y-45466000D01*
X167105000Y-43180000D01*
X196656887Y-43180000D01*
X196768260Y-43739909D01*
X197085423Y-44214577D01*
X197437758Y-44450000D01*
X197085423Y-44685423D01*
X196768260Y-45160091D01*
X196656887Y-45720000D01*
X196768260Y-46279909D01*
X197085423Y-46754577D01*
X197560091Y-47071740D01*
X197978667Y-47155000D01*
X198261333Y-47155000D01*
X198679909Y-47071740D01*
X199154577Y-46754577D01*
X199471740Y-46279909D01*
X199583113Y-45720000D01*
X199471740Y-45160091D01*
X199154577Y-44685423D01*
X198802242Y-44450000D01*
X199154577Y-44214577D01*
X199471740Y-43739909D01*
X199583113Y-43180000D01*
X199471740Y-42620091D01*
X199154577Y-42145423D01*
X198770892Y-41889053D01*
X198975134Y-41792389D01*
X199351041Y-41377423D01*
X199511904Y-40989039D01*
X199389915Y-40767000D01*
X198247000Y-40767000D01*
X198247000Y-40787000D01*
X197993000Y-40787000D01*
X197993000Y-40767000D01*
X196850085Y-40767000D01*
X196728096Y-40989039D01*
X196888959Y-41377423D01*
X197264866Y-41792389D01*
X197469108Y-41889053D01*
X197085423Y-42145423D01*
X196768260Y-42620091D01*
X196656887Y-43180000D01*
X167105000Y-43180000D01*
X167105000Y-36830000D01*
X168792908Y-36830000D01*
X168908161Y-37409418D01*
X169236375Y-37900625D01*
X169534761Y-38100000D01*
X169236375Y-38299375D01*
X168908161Y-38790582D01*
X168792908Y-39370000D01*
X168908161Y-39949418D01*
X169236375Y-40440625D01*
X169727582Y-40768839D01*
X170160744Y-40855000D01*
X170453256Y-40855000D01*
X170886418Y-40768839D01*
X171377625Y-40440625D01*
X171577000Y-40142239D01*
X171776375Y-40440625D01*
X172267582Y-40768839D01*
X172700744Y-40855000D01*
X172993256Y-40855000D01*
X173426418Y-40768839D01*
X173917625Y-40440625D01*
X173929816Y-40422381D01*
X173938843Y-40467765D01*
X174079191Y-40677809D01*
X174289235Y-40818157D01*
X174537000Y-40867440D01*
X176237000Y-40867440D01*
X176484765Y-40818157D01*
X176694809Y-40677809D01*
X176835157Y-40467765D01*
X176884440Y-40220000D01*
X176884440Y-38520000D01*
X176870326Y-38449039D01*
X196728096Y-38449039D01*
X196888959Y-38837423D01*
X197264866Y-39252389D01*
X197513367Y-39370000D01*
X197264866Y-39487611D01*
X196888959Y-39902577D01*
X196728096Y-40290961D01*
X196850085Y-40513000D01*
X197993000Y-40513000D01*
X197993000Y-38227000D01*
X198247000Y-38227000D01*
X198247000Y-40513000D01*
X199389915Y-40513000D01*
X199511904Y-40290961D01*
X199351041Y-39902577D01*
X198975134Y-39487611D01*
X198726633Y-39370000D01*
X198975134Y-39252389D01*
X199351041Y-38837423D01*
X199511904Y-38449039D01*
X199389915Y-38227000D01*
X198247000Y-38227000D01*
X197993000Y-38227000D01*
X196850085Y-38227000D01*
X196728096Y-38449039D01*
X176870326Y-38449039D01*
X176835157Y-38272235D01*
X176694809Y-38062191D01*
X176484765Y-37921843D01*
X176375145Y-37900039D01*
X176582183Y-37711358D01*
X176828486Y-37186892D01*
X176724485Y-36988750D01*
X179617000Y-36988750D01*
X179617000Y-37679309D01*
X179713673Y-37912698D01*
X179892301Y-38091327D01*
X180125690Y-38188000D01*
X180816250Y-38188000D01*
X180975000Y-38029250D01*
X180975000Y-36830000D01*
X179775750Y-36830000D01*
X179617000Y-36988750D01*
X176724485Y-36988750D01*
X176707819Y-36957000D01*
X175514000Y-36957000D01*
X175514000Y-36977000D01*
X175260000Y-36977000D01*
X175260000Y-36957000D01*
X175240000Y-36957000D01*
X175240000Y-36703000D01*
X175260000Y-36703000D01*
X175260000Y-35509845D01*
X175514000Y-35509845D01*
X175514000Y-36703000D01*
X176707819Y-36703000D01*
X176828486Y-36473108D01*
X176582183Y-35948642D01*
X176338638Y-35726691D01*
X179617000Y-35726691D01*
X179617000Y-36417250D01*
X179775750Y-36576000D01*
X180975000Y-36576000D01*
X180975000Y-35376750D01*
X181229000Y-35376750D01*
X181229000Y-36576000D01*
X181249000Y-36576000D01*
X181249000Y-36830000D01*
X181229000Y-36830000D01*
X181229000Y-38029250D01*
X181387750Y-38188000D01*
X182078310Y-38188000D01*
X182311699Y-38091327D01*
X182490327Y-37912698D01*
X182556904Y-37751967D01*
X182571375Y-37773625D01*
X183062582Y-38101839D01*
X183495744Y-38188000D01*
X183788256Y-38188000D01*
X184221418Y-38101839D01*
X184712625Y-37773625D01*
X184912000Y-37475239D01*
X185111375Y-37773625D01*
X185602582Y-38101839D01*
X186035744Y-38188000D01*
X186328256Y-38188000D01*
X186761418Y-38101839D01*
X187252625Y-37773625D01*
X187580839Y-37282418D01*
X187696092Y-36703000D01*
X187580839Y-36123582D01*
X187252625Y-35632375D01*
X186761418Y-35304161D01*
X186328256Y-35218000D01*
X186035744Y-35218000D01*
X185602582Y-35304161D01*
X185111375Y-35632375D01*
X184912000Y-35930761D01*
X184712625Y-35632375D01*
X184221418Y-35304161D01*
X183788256Y-35218000D01*
X183495744Y-35218000D01*
X183062582Y-35304161D01*
X182571375Y-35632375D01*
X182556904Y-35654033D01*
X182490327Y-35493302D01*
X182311699Y-35314673D01*
X182078310Y-35218000D01*
X181387750Y-35218000D01*
X181229000Y-35376750D01*
X180975000Y-35376750D01*
X180816250Y-35218000D01*
X180125690Y-35218000D01*
X179892301Y-35314673D01*
X179713673Y-35493302D01*
X179617000Y-35726691D01*
X176338638Y-35726691D01*
X176153924Y-35558355D01*
X175743890Y-35388524D01*
X175514000Y-35509845D01*
X175260000Y-35509845D01*
X175030110Y-35388524D01*
X174620076Y-35558355D01*
X174191817Y-35948642D01*
X174130843Y-36078478D01*
X173917625Y-35759375D01*
X173426418Y-35431161D01*
X172993256Y-35345000D01*
X172700744Y-35345000D01*
X172267582Y-35431161D01*
X171776375Y-35759375D01*
X171577000Y-36057761D01*
X171377625Y-35759375D01*
X170886418Y-35431161D01*
X170453256Y-35345000D01*
X170160744Y-35345000D01*
X169727582Y-35431161D01*
X169236375Y-35759375D01*
X168908161Y-36250582D01*
X168792908Y-36830000D01*
X167105000Y-36830000D01*
X167105000Y-27940000D01*
X167160475Y-27940000D01*
X167263363Y-28721511D01*
X167565015Y-29449762D01*
X168044873Y-30075127D01*
X168670237Y-30554985D01*
X169398489Y-30856637D01*
X170180000Y-30959525D01*
X170961511Y-30856637D01*
X171689763Y-30554985D01*
X172315127Y-30075127D01*
X172794985Y-29449762D01*
X173096637Y-28721511D01*
X173199525Y-27940000D01*
X196656887Y-27940000D01*
X196768260Y-28499909D01*
X197085423Y-28974577D01*
X197437758Y-29210000D01*
X197085423Y-29445423D01*
X196768260Y-29920091D01*
X196656887Y-30480000D01*
X196768260Y-31039909D01*
X197085423Y-31514577D01*
X197437758Y-31750000D01*
X197085423Y-31985423D01*
X196768260Y-32460091D01*
X196656887Y-33020000D01*
X196768260Y-33579909D01*
X197085423Y-34054577D01*
X197437758Y-34290000D01*
X197085423Y-34525423D01*
X196768260Y-35000091D01*
X196656887Y-35560000D01*
X196768260Y-36119909D01*
X197085423Y-36594577D01*
X197469108Y-36850947D01*
X197264866Y-36947611D01*
X196888959Y-37362577D01*
X196728096Y-37750961D01*
X196850085Y-37973000D01*
X197993000Y-37973000D01*
X197993000Y-37953000D01*
X198247000Y-37953000D01*
X198247000Y-37973000D01*
X199389915Y-37973000D01*
X199511904Y-37750961D01*
X199351041Y-37362577D01*
X198975134Y-36947611D01*
X198770892Y-36850947D01*
X199154577Y-36594577D01*
X199471740Y-36119909D01*
X199583113Y-35560000D01*
X199471740Y-35000091D01*
X199154577Y-34525423D01*
X198802242Y-34290000D01*
X199154577Y-34054577D01*
X199471740Y-33579909D01*
X199583113Y-33020000D01*
X199471740Y-32460091D01*
X199154577Y-31985423D01*
X198802242Y-31750000D01*
X199154577Y-31514577D01*
X199471740Y-31039909D01*
X199583113Y-30480000D01*
X199471740Y-29920091D01*
X199154577Y-29445423D01*
X198802242Y-29210000D01*
X199154577Y-28974577D01*
X199471740Y-28499909D01*
X199583113Y-27940000D01*
X209356887Y-27940000D01*
X209468260Y-28499909D01*
X209785423Y-28974577D01*
X210137758Y-29210000D01*
X209785423Y-29445423D01*
X209468260Y-29920091D01*
X209356887Y-30480000D01*
X209468260Y-31039909D01*
X209785423Y-31514577D01*
X210137758Y-31750000D01*
X209785423Y-31985423D01*
X209468260Y-32460091D01*
X209356887Y-33020000D01*
X209468260Y-33579909D01*
X209785423Y-34054577D01*
X210137758Y-34290000D01*
X209785423Y-34525423D01*
X209468260Y-35000091D01*
X209356887Y-35560000D01*
X209468260Y-36119909D01*
X209785423Y-36594577D01*
X210137758Y-36830000D01*
X209785423Y-37065423D01*
X209468260Y-37540091D01*
X209356887Y-38100000D01*
X209468260Y-38659909D01*
X209785423Y-39134577D01*
X210137758Y-39370000D01*
X209785423Y-39605423D01*
X209468260Y-40080091D01*
X209356887Y-40640000D01*
X209468260Y-41199909D01*
X209785423Y-41674577D01*
X210137758Y-41910000D01*
X209785423Y-42145423D01*
X209468260Y-42620091D01*
X209356887Y-43180000D01*
X209468260Y-43739909D01*
X209785423Y-44214577D01*
X209906106Y-44295215D01*
X209772235Y-44321843D01*
X209562191Y-44462191D01*
X209421843Y-44672235D01*
X209372560Y-44920000D01*
X209372560Y-46520000D01*
X209421843Y-46767765D01*
X209562191Y-46977809D01*
X209772235Y-47118157D01*
X210020000Y-47167440D01*
X211620000Y-47167440D01*
X211867765Y-47118157D01*
X212077809Y-46977809D01*
X212218157Y-46767765D01*
X212267440Y-46520000D01*
X212267440Y-44920000D01*
X212218157Y-44672235D01*
X212077809Y-44462191D01*
X211867765Y-44321843D01*
X211733894Y-44295215D01*
X211854577Y-44214577D01*
X212171740Y-43739909D01*
X212283113Y-43180000D01*
X212171740Y-42620091D01*
X211854577Y-42145423D01*
X211502242Y-41910000D01*
X211854577Y-41674577D01*
X212171740Y-41199909D01*
X212283113Y-40640000D01*
X212171740Y-40080091D01*
X211854577Y-39605423D01*
X211502242Y-39370000D01*
X211854577Y-39134577D01*
X212171740Y-38659909D01*
X212283113Y-38100000D01*
X212171740Y-37540091D01*
X211854577Y-37065423D01*
X211502242Y-36830000D01*
X211854577Y-36594577D01*
X212171740Y-36119909D01*
X212283113Y-35560000D01*
X212171740Y-35000091D01*
X211854577Y-34525423D01*
X211502242Y-34290000D01*
X214385908Y-34290000D01*
X214501161Y-34869418D01*
X214829375Y-35360625D01*
X215127761Y-35560000D01*
X214829375Y-35759375D01*
X214501161Y-36250582D01*
X214385908Y-36830000D01*
X214501161Y-37409418D01*
X214829375Y-37900625D01*
X215127761Y-38100000D01*
X214829375Y-38299375D01*
X214501161Y-38790582D01*
X214385908Y-39370000D01*
X214501161Y-39949418D01*
X214829375Y-40440625D01*
X214847619Y-40452816D01*
X214802235Y-40461843D01*
X214592191Y-40602191D01*
X214451843Y-40812235D01*
X214402560Y-41060000D01*
X214402560Y-42760000D01*
X214451843Y-43007765D01*
X214592191Y-43217809D01*
X214802235Y-43358157D01*
X215050000Y-43407440D01*
X216750000Y-43407440D01*
X216997765Y-43358157D01*
X217207809Y-43217809D01*
X217348157Y-43007765D01*
X217397440Y-42760000D01*
X217397440Y-41060000D01*
X217348157Y-40812235D01*
X217207809Y-40602191D01*
X216997765Y-40461843D01*
X216952381Y-40452816D01*
X216970625Y-40440625D01*
X217298839Y-39949418D01*
X217414092Y-39370000D01*
X217298839Y-38790582D01*
X216970625Y-38299375D01*
X216672239Y-38100000D01*
X216970625Y-37900625D01*
X217298839Y-37409418D01*
X217414092Y-36830000D01*
X217298839Y-36250582D01*
X216970625Y-35759375D01*
X216672239Y-35560000D01*
X216970625Y-35360625D01*
X217298839Y-34869418D01*
X217414092Y-34290000D01*
X217298839Y-33710582D01*
X216970625Y-33219375D01*
X216479418Y-32891161D01*
X216046256Y-32805000D01*
X215753744Y-32805000D01*
X215320582Y-32891161D01*
X214829375Y-33219375D01*
X214501161Y-33710582D01*
X214385908Y-34290000D01*
X211502242Y-34290000D01*
X211854577Y-34054577D01*
X212171740Y-33579909D01*
X212283113Y-33020000D01*
X212171740Y-32460091D01*
X211854577Y-31985423D01*
X211502242Y-31750000D01*
X211854577Y-31514577D01*
X212171740Y-31039909D01*
X212283113Y-30480000D01*
X212171740Y-29920091D01*
X211854577Y-29445423D01*
X211502242Y-29210000D01*
X211854577Y-28974577D01*
X212171740Y-28499909D01*
X212283113Y-27940000D01*
X212171740Y-27380091D01*
X212011317Y-27140000D01*
X214452560Y-27140000D01*
X214452560Y-28740000D01*
X214501843Y-28987765D01*
X214642191Y-29197809D01*
X214852235Y-29338157D01*
X214952503Y-29358101D01*
X214683466Y-29627138D01*
X214465000Y-30154561D01*
X214465000Y-30725439D01*
X214683466Y-31252862D01*
X215087138Y-31656534D01*
X215614561Y-31875000D01*
X216185439Y-31875000D01*
X216712862Y-31656534D01*
X217116534Y-31252862D01*
X217335000Y-30725439D01*
X217335000Y-30154561D01*
X217116534Y-29627138D01*
X216847497Y-29358101D01*
X216947765Y-29338157D01*
X217157809Y-29197809D01*
X217298157Y-28987765D01*
X217347440Y-28740000D01*
X217347440Y-27140000D01*
X217298157Y-26892235D01*
X217157809Y-26682191D01*
X216947765Y-26541843D01*
X216700000Y-26492560D01*
X215100000Y-26492560D01*
X214852235Y-26541843D01*
X214642191Y-26682191D01*
X214501843Y-26892235D01*
X214452560Y-27140000D01*
X212011317Y-27140000D01*
X211854577Y-26905423D01*
X211379909Y-26588260D01*
X210961333Y-26505000D01*
X210678667Y-26505000D01*
X210260091Y-26588260D01*
X209785423Y-26905423D01*
X209468260Y-27380091D01*
X209356887Y-27940000D01*
X199583113Y-27940000D01*
X199471740Y-27380091D01*
X199154577Y-26905423D01*
X198679909Y-26588260D01*
X198261333Y-26505000D01*
X197978667Y-26505000D01*
X197560091Y-26588260D01*
X197085423Y-26905423D01*
X196768260Y-27380091D01*
X196656887Y-27940000D01*
X173199525Y-27940000D01*
X173096637Y-27158489D01*
X172794985Y-26430238D01*
X172315127Y-25804873D01*
X171689763Y-25325015D01*
X170961511Y-25023363D01*
X170180000Y-24920475D01*
X169398489Y-25023363D01*
X168670238Y-25325015D01*
X168044873Y-25804873D01*
X167565015Y-26430238D01*
X167263363Y-27158489D01*
X167160475Y-27940000D01*
X167105000Y-27940000D01*
X167105000Y-24865000D01*
X220245000Y-24865000D01*
X220245001Y-95785000D01*
X220245001Y-95785000D01*
G37*
X220245001Y-95785000D02*
X167105000Y-95785000D01*
X167105000Y-92743451D01*
X167442158Y-92743451D01*
X167561594Y-93510527D01*
X167891521Y-94213250D01*
X168405418Y-94795127D01*
X169061972Y-95209382D01*
X169808405Y-95422713D01*
X170584709Y-95417971D01*
X171328479Y-95195536D01*
X171979924Y-94773291D01*
X172293708Y-94409126D01*
X188830000Y-94409126D01*
X188830000Y-94820874D01*
X188987569Y-95201280D01*
X189278720Y-95492431D01*
X189659126Y-95650000D01*
X190070874Y-95650000D01*
X190451280Y-95492431D01*
X190742431Y-95201280D01*
X190900000Y-94820874D01*
X190900000Y-94409126D01*
X205340000Y-94409126D01*
X205340000Y-94820874D01*
X205497569Y-95201280D01*
X205788720Y-95492431D01*
X206169126Y-95650000D01*
X206580874Y-95650000D01*
X206961280Y-95492431D01*
X207252431Y-95201280D01*
X207410000Y-94820874D01*
X207410000Y-94409126D01*
X207252431Y-94028720D01*
X206961280Y-93737569D01*
X206580874Y-93580000D01*
X206169126Y-93580000D01*
X205788720Y-93737569D01*
X205497569Y-94028720D01*
X205340000Y-94409126D01*
X190900000Y-94409126D01*
X190742431Y-94028720D01*
X190451280Y-93737569D01*
X190070874Y-93580000D01*
X189659126Y-93580000D01*
X189278720Y-93737569D01*
X188987569Y-94028720D01*
X188830000Y-94409126D01*
X172293708Y-94409126D01*
X172486673Y-94185179D01*
X172807991Y-93478478D01*
X172918046Y-92710000D01*
X172917229Y-92643104D01*
X172788431Y-91877543D01*
X172476698Y-91234126D01*
X193783000Y-91234126D01*
X193783000Y-91645874D01*
X193940569Y-92026280D01*
X194231720Y-92317431D01*
X194612126Y-92475000D01*
X195023874Y-92475000D01*
X195404280Y-92317431D01*
X195695431Y-92026280D01*
X195853000Y-91645874D01*
X195853000Y-91234126D01*
X195695431Y-90853720D01*
X195404280Y-90562569D01*
X195023874Y-90405000D01*
X194612126Y-90405000D01*
X194231720Y-90562569D01*
X193940569Y-90853720D01*
X193783000Y-91234126D01*
X172476698Y-91234126D01*
X172449943Y-91178904D01*
X171928976Y-90603349D01*
X171267409Y-90197146D01*
X170518427Y-89992950D01*
X169742238Y-90007175D01*
X169001241Y-90238680D01*
X168355003Y-90668852D01*
X167855476Y-91263112D01*
X167542817Y-91973685D01*
X167442158Y-92743451D01*
X167105000Y-92743451D01*
X167105000Y-87010000D01*
X174942560Y-87010000D01*
X174942560Y-88760000D01*
X175058449Y-89342613D01*
X175388472Y-89836528D01*
X175882387Y-90166551D01*
X176465000Y-90282440D01*
X178215000Y-90282440D01*
X178797613Y-90166551D01*
X179291528Y-89836528D01*
X179621551Y-89342613D01*
X179709592Y-88900000D01*
X196656887Y-88900000D01*
X196768260Y-89459909D01*
X197085423Y-89934577D01*
X197437758Y-90170000D01*
X197085423Y-90405423D01*
X196768260Y-90880091D01*
X196656887Y-91440000D01*
X196768260Y-91999909D01*
X197085423Y-92474577D01*
X197560091Y-92791740D01*
X197978667Y-92875000D01*
X198261333Y-92875000D01*
X198679909Y-92791740D01*
X199154577Y-92474577D01*
X199471740Y-91999909D01*
X199583113Y-91440000D01*
X199471740Y-90880091D01*
X199154577Y-90405423D01*
X198802242Y-90170000D01*
X199154577Y-89934577D01*
X199471740Y-89459909D01*
X199583113Y-88900000D01*
X199471740Y-88340091D01*
X199154577Y-87865423D01*
X198770892Y-87609053D01*
X198975134Y-87512389D01*
X199351041Y-87097423D01*
X199511904Y-86709039D01*
X199389915Y-86487000D01*
X198247000Y-86487000D01*
X198247000Y-86507000D01*
X197993000Y-86507000D01*
X197993000Y-86487000D01*
X196850085Y-86487000D01*
X196728096Y-86709039D01*
X196888959Y-87097423D01*
X197264866Y-87512389D01*
X197469108Y-87609053D01*
X197085423Y-87865423D01*
X196768260Y-88340091D01*
X196656887Y-88900000D01*
X179709592Y-88900000D01*
X179737440Y-88760000D01*
X179737440Y-87010000D01*
X179621551Y-86427387D01*
X179291528Y-85933472D01*
X178797613Y-85603449D01*
X178691994Y-85582440D01*
X182090000Y-85582440D01*
X182337765Y-85533157D01*
X182547809Y-85392809D01*
X182688157Y-85182765D01*
X182737440Y-84935000D01*
X182737440Y-84169039D01*
X196728096Y-84169039D01*
X196888959Y-84557423D01*
X197264866Y-84972389D01*
X197513367Y-85090000D01*
X197264866Y-85207611D01*
X196888959Y-85622577D01*
X196728096Y-86010961D01*
X196850085Y-86233000D01*
X197993000Y-86233000D01*
X197993000Y-83947000D01*
X198247000Y-83947000D01*
X198247000Y-86233000D01*
X199389915Y-86233000D01*
X199511904Y-86010961D01*
X199351041Y-85622577D01*
X198975134Y-85207611D01*
X198726633Y-85090000D01*
X198975134Y-84972389D01*
X199351041Y-84557423D01*
X199511904Y-84169039D01*
X199389915Y-83947000D01*
X198247000Y-83947000D01*
X197993000Y-83947000D01*
X196850085Y-83947000D01*
X196728096Y-84169039D01*
X182737440Y-84169039D01*
X182737440Y-81435000D01*
X182688157Y-81187235D01*
X182547809Y-80977191D01*
X182337765Y-80836843D01*
X182090000Y-80787560D01*
X178590000Y-80787560D01*
X178342235Y-80836843D01*
X178132191Y-80977191D01*
X177991843Y-81187235D01*
X177942560Y-81435000D01*
X177942560Y-84935000D01*
X177991843Y-85182765D01*
X178132191Y-85392809D01*
X178299001Y-85504269D01*
X178215000Y-85487560D01*
X176465000Y-85487560D01*
X175882387Y-85603449D01*
X175388472Y-85933472D01*
X175058449Y-86427387D01*
X174942560Y-87010000D01*
X167105000Y-87010000D01*
X167105000Y-82185000D01*
X172192560Y-82185000D01*
X172192560Y-84185000D01*
X172298934Y-84719777D01*
X172601861Y-85173139D01*
X173055223Y-85476066D01*
X173590000Y-85582440D01*
X175090000Y-85582440D01*
X175624777Y-85476066D01*
X176078139Y-85173139D01*
X176381066Y-84719777D01*
X176487440Y-84185000D01*
X176487440Y-82185000D01*
X176381066Y-81650223D01*
X176078139Y-81196861D01*
X175624777Y-80893934D01*
X175090000Y-80787560D01*
X173590000Y-80787560D01*
X173055223Y-80893934D01*
X172601861Y-81196861D01*
X172298934Y-81650223D01*
X172192560Y-82185000D01*
X167105000Y-82185000D01*
X167105000Y-73660000D01*
X196656887Y-73660000D01*
X196768260Y-74219909D01*
X197085423Y-74694577D01*
X197437758Y-74930000D01*
X197085423Y-75165423D01*
X196768260Y-75640091D01*
X196656887Y-76200000D01*
X196768260Y-76759909D01*
X197085423Y-77234577D01*
X197437758Y-77470000D01*
X197085423Y-77705423D01*
X196768260Y-78180091D01*
X196656887Y-78740000D01*
X196768260Y-79299909D01*
X197085423Y-79774577D01*
X197437758Y-80010000D01*
X197085423Y-80245423D01*
X196768260Y-80720091D01*
X196656887Y-81280000D01*
X196768260Y-81839909D01*
X197085423Y-82314577D01*
X197469108Y-82570947D01*
X197264866Y-82667611D01*
X196888959Y-83082577D01*
X196728096Y-83470961D01*
X196850085Y-83693000D01*
X197993000Y-83693000D01*
X197993000Y-83673000D01*
X198247000Y-83673000D01*
X198247000Y-83693000D01*
X199389915Y-83693000D01*
X199511904Y-83470961D01*
X199351041Y-83082577D01*
X198975134Y-82667611D01*
X198770892Y-82570947D01*
X199154577Y-82314577D01*
X199471740Y-81839909D01*
X199583113Y-81280000D01*
X199471740Y-80720091D01*
X199154577Y-80245423D01*
X198802242Y-80010000D01*
X199154577Y-79774577D01*
X199471740Y-79299909D01*
X199583113Y-78740000D01*
X199471740Y-78180091D01*
X199154577Y-77705423D01*
X198802242Y-77470000D01*
X199154577Y-77234577D01*
X199471740Y-76759909D01*
X199583113Y-76200000D01*
X199471740Y-75640091D01*
X199154577Y-75165423D01*
X198802242Y-74930000D01*
X199154577Y-74694577D01*
X199471740Y-74219909D01*
X199583113Y-73660000D01*
X209356887Y-73660000D01*
X209468260Y-74219909D01*
X209785423Y-74694577D01*
X210137758Y-74930000D01*
X209785423Y-75165423D01*
X209468260Y-75640091D01*
X209356887Y-76200000D01*
X209468260Y-76759909D01*
X209785423Y-77234577D01*
X210137758Y-77470000D01*
X209785423Y-77705423D01*
X209468260Y-78180091D01*
X209356887Y-78740000D01*
X209468260Y-79299909D01*
X209785423Y-79774577D01*
X210137758Y-80010000D01*
X209785423Y-80245423D01*
X209468260Y-80720091D01*
X209356887Y-81280000D01*
X209468260Y-81839909D01*
X209785423Y-82314577D01*
X210137758Y-82550000D01*
X209785423Y-82785423D01*
X209468260Y-83260091D01*
X209356887Y-83820000D01*
X209468260Y-84379909D01*
X209785423Y-84854577D01*
X210137758Y-85090000D01*
X209785423Y-85325423D01*
X209468260Y-85800091D01*
X209356887Y-86360000D01*
X209468260Y-86919909D01*
X209785423Y-87394577D01*
X210137758Y-87630000D01*
X209785423Y-87865423D01*
X209468260Y-88340091D01*
X209356887Y-88900000D01*
X209468260Y-89459909D01*
X209785423Y-89934577D01*
X209906106Y-90015215D01*
X209772235Y-90041843D01*
X209562191Y-90182191D01*
X209421843Y-90392235D01*
X209372560Y-90640000D01*
X209372560Y-92240000D01*
X209421843Y-92487765D01*
X209562191Y-92697809D01*
X209772235Y-92838157D01*
X210020000Y-92887440D01*
X211620000Y-92887440D01*
X211867765Y-92838157D01*
X212011385Y-92742192D01*
X214535197Y-92742192D01*
X214650137Y-93480399D01*
X214967648Y-94156675D01*
X215462204Y-94716653D01*
X216094049Y-95115318D01*
X216812389Y-95320621D01*
X217559478Y-95316057D01*
X218275256Y-95101994D01*
X218902184Y-94695640D01*
X219389862Y-94129661D01*
X219699087Y-93449557D01*
X219805000Y-92710000D01*
X219804213Y-92645621D01*
X219680263Y-91908873D01*
X219354514Y-91236527D01*
X218853153Y-90682632D01*
X218216485Y-90291717D01*
X217495690Y-90095205D01*
X216748713Y-90108896D01*
X216035603Y-90331688D01*
X215413687Y-90745671D01*
X214932960Y-91317565D01*
X214632067Y-92001396D01*
X214535197Y-92742192D01*
X212011385Y-92742192D01*
X212077809Y-92697809D01*
X212218157Y-92487765D01*
X212267440Y-92240000D01*
X212267440Y-90640000D01*
X212218157Y-90392235D01*
X212077809Y-90182191D01*
X211867765Y-90041843D01*
X211733894Y-90015215D01*
X211854577Y-89934577D01*
X212171740Y-89459909D01*
X212283113Y-88900000D01*
X212171740Y-88340091D01*
X211854577Y-87865423D01*
X211502242Y-87630000D01*
X211854577Y-87394577D01*
X212171740Y-86919909D01*
X212283113Y-86360000D01*
X212171740Y-85800091D01*
X211854577Y-85325423D01*
X211502242Y-85090000D01*
X211854577Y-84854577D01*
X212171740Y-84379909D01*
X212283113Y-83820000D01*
X212171740Y-83260091D01*
X211854577Y-82785423D01*
X211502242Y-82550000D01*
X211854577Y-82314577D01*
X212171740Y-81839909D01*
X212283113Y-81280000D01*
X212171740Y-80720091D01*
X211854577Y-80245423D01*
X211502242Y-80010000D01*
X214385908Y-80010000D01*
X214501161Y-80589418D01*
X214829375Y-81080625D01*
X215127761Y-81280000D01*
X214829375Y-81479375D01*
X214501161Y-81970582D01*
X214385908Y-82550000D01*
X214501161Y-83129418D01*
X214829375Y-83620625D01*
X215127761Y-83820000D01*
X214829375Y-84019375D01*
X214501161Y-84510582D01*
X214385908Y-85090000D01*
X214501161Y-85669418D01*
X214829375Y-86160625D01*
X214847619Y-86172816D01*
X214802235Y-86181843D01*
X214592191Y-86322191D01*
X214451843Y-86532235D01*
X214402560Y-86780000D01*
X214402560Y-88480000D01*
X214451843Y-88727765D01*
X214592191Y-88937809D01*
X214802235Y-89078157D01*
X215050000Y-89127440D01*
X216750000Y-89127440D01*
X216997765Y-89078157D01*
X217207809Y-88937809D01*
X217348157Y-88727765D01*
X217397440Y-88480000D01*
X217397440Y-86780000D01*
X217348157Y-86532235D01*
X217207809Y-86322191D01*
X216997765Y-86181843D01*
X216952381Y-86172816D01*
X216970625Y-86160625D01*
X217298839Y-85669418D01*
X217414092Y-85090000D01*
X217298839Y-84510582D01*
X216970625Y-84019375D01*
X216672239Y-83820000D01*
X216970625Y-83620625D01*
X217298839Y-83129418D01*
X217414092Y-82550000D01*
X217298839Y-81970582D01*
X216970625Y-81479375D01*
X216672239Y-81280000D01*
X216970625Y-81080625D01*
X217298839Y-80589418D01*
X217414092Y-80010000D01*
X217298839Y-79430582D01*
X216970625Y-78939375D01*
X216479418Y-78611161D01*
X216046256Y-78525000D01*
X215753744Y-78525000D01*
X215320582Y-78611161D01*
X214829375Y-78939375D01*
X214501161Y-79430582D01*
X214385908Y-80010000D01*
X211502242Y-80010000D01*
X211854577Y-79774577D01*
X212171740Y-79299909D01*
X212283113Y-78740000D01*
X212171740Y-78180091D01*
X211854577Y-77705423D01*
X211502242Y-77470000D01*
X211854577Y-77234577D01*
X212171740Y-76759909D01*
X212283113Y-76200000D01*
X212171740Y-75640091D01*
X211854577Y-75165423D01*
X211502242Y-74930000D01*
X211854577Y-74694577D01*
X212171740Y-74219909D01*
X212283113Y-73660000D01*
X212171740Y-73100091D01*
X212011317Y-72860000D01*
X214452560Y-72860000D01*
X214452560Y-74460000D01*
X214501843Y-74707765D01*
X214642191Y-74917809D01*
X214852235Y-75058157D01*
X214952503Y-75078101D01*
X214683466Y-75347138D01*
X214465000Y-75874561D01*
X214465000Y-76445439D01*
X214683466Y-76972862D01*
X215087138Y-77376534D01*
X215614561Y-77595000D01*
X216185439Y-77595000D01*
X216712862Y-77376534D01*
X217116534Y-76972862D01*
X217335000Y-76445439D01*
X217335000Y-75874561D01*
X217116534Y-75347138D01*
X216847497Y-75078101D01*
X216947765Y-75058157D01*
X217157809Y-74917809D01*
X217298157Y-74707765D01*
X217347440Y-74460000D01*
X217347440Y-72860000D01*
X217298157Y-72612235D01*
X217157809Y-72402191D01*
X216947765Y-72261843D01*
X216700000Y-72212560D01*
X215100000Y-72212560D01*
X214852235Y-72261843D01*
X214642191Y-72402191D01*
X214501843Y-72612235D01*
X214452560Y-72860000D01*
X212011317Y-72860000D01*
X211854577Y-72625423D01*
X211379909Y-72308260D01*
X210961333Y-72225000D01*
X210678667Y-72225000D01*
X210260091Y-72308260D01*
X209785423Y-72625423D01*
X209468260Y-73100091D01*
X209356887Y-73660000D01*
X199583113Y-73660000D01*
X199471740Y-73100091D01*
X199154577Y-72625423D01*
X198679909Y-72308260D01*
X198261333Y-72225000D01*
X197978667Y-72225000D01*
X197560091Y-72308260D01*
X197085423Y-72625423D01*
X196768260Y-73100091D01*
X196656887Y-73660000D01*
X167105000Y-73660000D01*
X167105000Y-65834126D01*
X177146000Y-65834126D01*
X177146000Y-66245874D01*
X177303569Y-66626280D01*
X177594720Y-66917431D01*
X177975126Y-67075000D01*
X178386874Y-67075000D01*
X178623163Y-66977126D01*
X193783000Y-66977126D01*
X193783000Y-67388874D01*
X193940569Y-67769280D01*
X194231720Y-68060431D01*
X194612126Y-68218000D01*
X195023874Y-68218000D01*
X195404280Y-68060431D01*
X195695431Y-67769280D01*
X195853000Y-67388874D01*
X195853000Y-66977126D01*
X195695431Y-66596720D01*
X195404280Y-66305569D01*
X195023874Y-66148000D01*
X194612126Y-66148000D01*
X194231720Y-66305569D01*
X193940569Y-66596720D01*
X193783000Y-66977126D01*
X178623163Y-66977126D01*
X178767280Y-66917431D01*
X179058431Y-66626280D01*
X179216000Y-66245874D01*
X179216000Y-66040000D01*
X196656887Y-66040000D01*
X196768260Y-66599909D01*
X197085423Y-67074577D01*
X197437758Y-67310000D01*
X197085423Y-67545423D01*
X196768260Y-68020091D01*
X196656887Y-68580000D01*
X196768260Y-69139909D01*
X197085423Y-69614577D01*
X197560091Y-69931740D01*
X197978667Y-70015000D01*
X198261333Y-70015000D01*
X198679909Y-69931740D01*
X199154577Y-69614577D01*
X199471740Y-69139909D01*
X199583113Y-68580000D01*
X199471740Y-68020091D01*
X199154577Y-67545423D01*
X198802242Y-67310000D01*
X199154577Y-67074577D01*
X199471740Y-66599909D01*
X199583113Y-66040000D01*
X199471740Y-65480091D01*
X199154577Y-65005423D01*
X198770892Y-64749053D01*
X198975134Y-64652389D01*
X199351041Y-64237423D01*
X199511904Y-63849039D01*
X199389915Y-63627000D01*
X198247000Y-63627000D01*
X198247000Y-63647000D01*
X197993000Y-63647000D01*
X197993000Y-63627000D01*
X196850085Y-63627000D01*
X196728096Y-63849039D01*
X196888959Y-64237423D01*
X197264866Y-64652389D01*
X197469108Y-64749053D01*
X197085423Y-65005423D01*
X196768260Y-65480091D01*
X196656887Y-66040000D01*
X179216000Y-66040000D01*
X179216000Y-65834126D01*
X179058431Y-65453720D01*
X178767280Y-65162569D01*
X178386874Y-65005000D01*
X177975126Y-65005000D01*
X177594720Y-65162569D01*
X177303569Y-65453720D01*
X177146000Y-65834126D01*
X167105000Y-65834126D01*
X167105000Y-62913126D01*
X182353000Y-62913126D01*
X182353000Y-63324874D01*
X182510569Y-63705280D01*
X182801720Y-63996431D01*
X183182126Y-64154000D01*
X183593874Y-64154000D01*
X183974280Y-63996431D01*
X184265431Y-63705280D01*
X184423000Y-63324874D01*
X184423000Y-62913126D01*
X184265431Y-62532720D01*
X183974280Y-62241569D01*
X183593874Y-62084000D01*
X183182126Y-62084000D01*
X182801720Y-62241569D01*
X182510569Y-62532720D01*
X182353000Y-62913126D01*
X167105000Y-62913126D01*
X167105000Y-61309039D01*
X196728096Y-61309039D01*
X196888959Y-61697423D01*
X197264866Y-62112389D01*
X197513367Y-62230000D01*
X197264866Y-62347611D01*
X196888959Y-62762577D01*
X196728096Y-63150961D01*
X196850085Y-63373000D01*
X197993000Y-63373000D01*
X197993000Y-61087000D01*
X198247000Y-61087000D01*
X198247000Y-63373000D01*
X199389915Y-63373000D01*
X199511904Y-63150961D01*
X199351041Y-62762577D01*
X198975134Y-62347611D01*
X198726633Y-62230000D01*
X198975134Y-62112389D01*
X199351041Y-61697423D01*
X199511904Y-61309039D01*
X199389915Y-61087000D01*
X198247000Y-61087000D01*
X197993000Y-61087000D01*
X196850085Y-61087000D01*
X196728096Y-61309039D01*
X167105000Y-61309039D01*
X167105000Y-53086000D01*
X168792908Y-53086000D01*
X168908161Y-53665418D01*
X169236375Y-54156625D01*
X169534761Y-54356000D01*
X169236375Y-54555375D01*
X168908161Y-55046582D01*
X168792908Y-55626000D01*
X168908161Y-56205418D01*
X169236375Y-56696625D01*
X169254619Y-56708816D01*
X169209235Y-56717843D01*
X168999191Y-56858191D01*
X168858843Y-57068235D01*
X168809560Y-57316000D01*
X168809560Y-59016000D01*
X168858843Y-59263765D01*
X168999191Y-59473809D01*
X169209235Y-59614157D01*
X169457000Y-59663440D01*
X171157000Y-59663440D01*
X171404765Y-59614157D01*
X171614809Y-59473809D01*
X171755157Y-59263765D01*
X171804440Y-59016000D01*
X171804440Y-58595126D01*
X179559000Y-58595126D01*
X179559000Y-59006874D01*
X179716569Y-59387280D01*
X180007720Y-59678431D01*
X180388126Y-59836000D01*
X180799874Y-59836000D01*
X181180280Y-59678431D01*
X181471431Y-59387280D01*
X181629000Y-59006874D01*
X181629000Y-58595126D01*
X181471431Y-58214720D01*
X181180280Y-57923569D01*
X180799874Y-57766000D01*
X180388126Y-57766000D01*
X180007720Y-57923569D01*
X179716569Y-58214720D01*
X179559000Y-58595126D01*
X171804440Y-58595126D01*
X171804440Y-57316000D01*
X171755157Y-57068235D01*
X171614809Y-56858191D01*
X171404765Y-56717843D01*
X171359381Y-56708816D01*
X171377625Y-56696625D01*
X171705839Y-56205418D01*
X171821092Y-55626000D01*
X171754880Y-55293126D01*
X185909000Y-55293126D01*
X185909000Y-55704874D01*
X186066569Y-56085280D01*
X186357720Y-56376431D01*
X186738126Y-56534000D01*
X187149874Y-56534000D01*
X187530280Y-56376431D01*
X187821431Y-56085280D01*
X187979000Y-55704874D01*
X187979000Y-55293126D01*
X187821431Y-54912720D01*
X187530280Y-54621569D01*
X187149874Y-54464000D01*
X186738126Y-54464000D01*
X186357720Y-54621569D01*
X186066569Y-54912720D01*
X185909000Y-55293126D01*
X171754880Y-55293126D01*
X171705839Y-55046582D01*
X171377625Y-54555375D01*
X171079239Y-54356000D01*
X171377625Y-54156625D01*
X171705839Y-53665418D01*
X171821092Y-53086000D01*
X171705839Y-52506582D01*
X171377625Y-52015375D01*
X171058522Y-51802157D01*
X171188358Y-51741183D01*
X171578645Y-51312924D01*
X171748476Y-50902890D01*
X171627155Y-50673000D01*
X170434000Y-50673000D01*
X170434000Y-50693000D01*
X170180000Y-50693000D01*
X170180000Y-50673000D01*
X168986845Y-50673000D01*
X168865524Y-50902890D01*
X169035355Y-51312924D01*
X169425642Y-51741183D01*
X169555478Y-51802157D01*
X169236375Y-52015375D01*
X168908161Y-52506582D01*
X168792908Y-53086000D01*
X167105000Y-53086000D01*
X167105000Y-45466000D01*
X168792908Y-45466000D01*
X168908161Y-46045418D01*
X169236375Y-46536625D01*
X169534761Y-46736000D01*
X169236375Y-46935375D01*
X168908161Y-47426582D01*
X168792908Y-48006000D01*
X168908161Y-48585418D01*
X169236375Y-49076625D01*
X169555478Y-49289843D01*
X169425642Y-49350817D01*
X169035355Y-49779076D01*
X168865524Y-50189110D01*
X168986845Y-50419000D01*
X170180000Y-50419000D01*
X170180000Y-50399000D01*
X170434000Y-50399000D01*
X170434000Y-50419000D01*
X171627155Y-50419000D01*
X171748476Y-50189110D01*
X171653220Y-49959126D01*
X177400000Y-49959126D01*
X177400000Y-50370874D01*
X177557569Y-50751280D01*
X177848720Y-51042431D01*
X178229126Y-51200000D01*
X178640874Y-51200000D01*
X179021280Y-51042431D01*
X179263711Y-50800000D01*
X196656887Y-50800000D01*
X196768260Y-51359909D01*
X197085423Y-51834577D01*
X197437758Y-52070000D01*
X197085423Y-52305423D01*
X196768260Y-52780091D01*
X196656887Y-53340000D01*
X196768260Y-53899909D01*
X197085423Y-54374577D01*
X197437758Y-54610000D01*
X197085423Y-54845423D01*
X196768260Y-55320091D01*
X196656887Y-55880000D01*
X196768260Y-56439909D01*
X197085423Y-56914577D01*
X197437758Y-57150000D01*
X197085423Y-57385423D01*
X196768260Y-57860091D01*
X196656887Y-58420000D01*
X196768260Y-58979909D01*
X197085423Y-59454577D01*
X197469108Y-59710947D01*
X197264866Y-59807611D01*
X196888959Y-60222577D01*
X196728096Y-60610961D01*
X196850085Y-60833000D01*
X197993000Y-60833000D01*
X197993000Y-60813000D01*
X198247000Y-60813000D01*
X198247000Y-60833000D01*
X199389915Y-60833000D01*
X199511904Y-60610961D01*
X199351041Y-60222577D01*
X198975134Y-59807611D01*
X198770892Y-59710947D01*
X199154577Y-59454577D01*
X199471740Y-58979909D01*
X199583113Y-58420000D01*
X199471740Y-57860091D01*
X199154577Y-57385423D01*
X198802242Y-57150000D01*
X199154577Y-56914577D01*
X199471740Y-56439909D01*
X199583113Y-55880000D01*
X199471740Y-55320091D01*
X199154577Y-54845423D01*
X198802242Y-54610000D01*
X199154577Y-54374577D01*
X199471740Y-53899909D01*
X199583113Y-53340000D01*
X199471740Y-52780091D01*
X199154577Y-52305423D01*
X198802242Y-52070000D01*
X199154577Y-51834577D01*
X199471740Y-51359909D01*
X199583113Y-50800000D01*
X209356887Y-50800000D01*
X209468260Y-51359909D01*
X209785423Y-51834577D01*
X210137758Y-52070000D01*
X209785423Y-52305423D01*
X209468260Y-52780091D01*
X209356887Y-53340000D01*
X209468260Y-53899909D01*
X209785423Y-54374577D01*
X210137758Y-54610000D01*
X209785423Y-54845423D01*
X209468260Y-55320091D01*
X209356887Y-55880000D01*
X209468260Y-56439909D01*
X209785423Y-56914577D01*
X210137758Y-57150000D01*
X209785423Y-57385423D01*
X209468260Y-57860091D01*
X209356887Y-58420000D01*
X209468260Y-58979909D01*
X209785423Y-59454577D01*
X210137758Y-59690000D01*
X209785423Y-59925423D01*
X209468260Y-60400091D01*
X209356887Y-60960000D01*
X209468260Y-61519909D01*
X209785423Y-61994577D01*
X210137758Y-62230000D01*
X209785423Y-62465423D01*
X209468260Y-62940091D01*
X209356887Y-63500000D01*
X209468260Y-64059909D01*
X209785423Y-64534577D01*
X210137758Y-64770000D01*
X209785423Y-65005423D01*
X209468260Y-65480091D01*
X209356887Y-66040000D01*
X209468260Y-66599909D01*
X209785423Y-67074577D01*
X209906106Y-67155215D01*
X209772235Y-67181843D01*
X209562191Y-67322191D01*
X209421843Y-67532235D01*
X209372560Y-67780000D01*
X209372560Y-69380000D01*
X209421843Y-69627765D01*
X209562191Y-69837809D01*
X209772235Y-69978157D01*
X210020000Y-70027440D01*
X211620000Y-70027440D01*
X211867765Y-69978157D01*
X212077809Y-69837809D01*
X212218157Y-69627765D01*
X212267440Y-69380000D01*
X212267440Y-67780000D01*
X212218157Y-67532235D01*
X212077809Y-67322191D01*
X211867765Y-67181843D01*
X211733894Y-67155215D01*
X211854577Y-67074577D01*
X212171740Y-66599909D01*
X212283113Y-66040000D01*
X212171740Y-65480091D01*
X211854577Y-65005423D01*
X211502242Y-64770000D01*
X211854577Y-64534577D01*
X212171740Y-64059909D01*
X212283113Y-63500000D01*
X212171740Y-62940091D01*
X211854577Y-62465423D01*
X211502242Y-62230000D01*
X211854577Y-61994577D01*
X212171740Y-61519909D01*
X212283113Y-60960000D01*
X212171740Y-60400091D01*
X211854577Y-59925423D01*
X211502242Y-59690000D01*
X211854577Y-59454577D01*
X212171740Y-58979909D01*
X212283113Y-58420000D01*
X212171740Y-57860091D01*
X211854577Y-57385423D01*
X211502242Y-57150000D01*
X214385908Y-57150000D01*
X214501161Y-57729418D01*
X214829375Y-58220625D01*
X215127761Y-58420000D01*
X214829375Y-58619375D01*
X214501161Y-59110582D01*
X214385908Y-59690000D01*
X214501161Y-60269418D01*
X214829375Y-60760625D01*
X215127761Y-60960000D01*
X214829375Y-61159375D01*
X214501161Y-61650582D01*
X214385908Y-62230000D01*
X214501161Y-62809418D01*
X214829375Y-63300625D01*
X214847619Y-63312816D01*
X214802235Y-63321843D01*
X214592191Y-63462191D01*
X214451843Y-63672235D01*
X214402560Y-63920000D01*
X214402560Y-65620000D01*
X214451843Y-65867765D01*
X214592191Y-66077809D01*
X214802235Y-66218157D01*
X215050000Y-66267440D01*
X216750000Y-66267440D01*
X216997765Y-66218157D01*
X217207809Y-66077809D01*
X217348157Y-65867765D01*
X217397440Y-65620000D01*
X217397440Y-63920000D01*
X217348157Y-63672235D01*
X217207809Y-63462191D01*
X216997765Y-63321843D01*
X216952381Y-63312816D01*
X216970625Y-63300625D01*
X217298839Y-62809418D01*
X217414092Y-62230000D01*
X217298839Y-61650582D01*
X216970625Y-61159375D01*
X216672239Y-60960000D01*
X216970625Y-60760625D01*
X217298839Y-60269418D01*
X217414092Y-59690000D01*
X217298839Y-59110582D01*
X216970625Y-58619375D01*
X216672239Y-58420000D01*
X216970625Y-58220625D01*
X217298839Y-57729418D01*
X217414092Y-57150000D01*
X217298839Y-56570582D01*
X216970625Y-56079375D01*
X216479418Y-55751161D01*
X216046256Y-55665000D01*
X215753744Y-55665000D01*
X215320582Y-55751161D01*
X214829375Y-56079375D01*
X214501161Y-56570582D01*
X214385908Y-57150000D01*
X211502242Y-57150000D01*
X211854577Y-56914577D01*
X212171740Y-56439909D01*
X212283113Y-55880000D01*
X212171740Y-55320091D01*
X211854577Y-54845423D01*
X211502242Y-54610000D01*
X211854577Y-54374577D01*
X212171740Y-53899909D01*
X212283113Y-53340000D01*
X212171740Y-52780091D01*
X211854577Y-52305423D01*
X211502242Y-52070000D01*
X211854577Y-51834577D01*
X212171740Y-51359909D01*
X212283113Y-50800000D01*
X212171740Y-50240091D01*
X212011317Y-50000000D01*
X214452560Y-50000000D01*
X214452560Y-51600000D01*
X214501843Y-51847765D01*
X214642191Y-52057809D01*
X214852235Y-52198157D01*
X214952503Y-52218101D01*
X214683466Y-52487138D01*
X214465000Y-53014561D01*
X214465000Y-53585439D01*
X214683466Y-54112862D01*
X215087138Y-54516534D01*
X215614561Y-54735000D01*
X216185439Y-54735000D01*
X216712862Y-54516534D01*
X217116534Y-54112862D01*
X217335000Y-53585439D01*
X217335000Y-53014561D01*
X217116534Y-52487138D01*
X216847497Y-52218101D01*
X216947765Y-52198157D01*
X217157809Y-52057809D01*
X217298157Y-51847765D01*
X217347440Y-51600000D01*
X217347440Y-50000000D01*
X217298157Y-49752235D01*
X217157809Y-49542191D01*
X216947765Y-49401843D01*
X216700000Y-49352560D01*
X215100000Y-49352560D01*
X214852235Y-49401843D01*
X214642191Y-49542191D01*
X214501843Y-49752235D01*
X214452560Y-50000000D01*
X212011317Y-50000000D01*
X211854577Y-49765423D01*
X211379909Y-49448260D01*
X210961333Y-49365000D01*
X210678667Y-49365000D01*
X210260091Y-49448260D01*
X209785423Y-49765423D01*
X209468260Y-50240091D01*
X209356887Y-50800000D01*
X199583113Y-50800000D01*
X199471740Y-50240091D01*
X199154577Y-49765423D01*
X198679909Y-49448260D01*
X198261333Y-49365000D01*
X197978667Y-49365000D01*
X197560091Y-49448260D01*
X197085423Y-49765423D01*
X196768260Y-50240091D01*
X196656887Y-50800000D01*
X179263711Y-50800000D01*
X179312431Y-50751280D01*
X179470000Y-50370874D01*
X179470000Y-49959126D01*
X179312431Y-49578720D01*
X179021280Y-49287569D01*
X178640874Y-49130000D01*
X178229126Y-49130000D01*
X177848720Y-49287569D01*
X177557569Y-49578720D01*
X177400000Y-49959126D01*
X171653220Y-49959126D01*
X171578645Y-49779076D01*
X171188358Y-49350817D01*
X171058522Y-49289843D01*
X171377625Y-49076625D01*
X171705839Y-48585418D01*
X171821092Y-48006000D01*
X171705839Y-47426582D01*
X171377625Y-46935375D01*
X171079239Y-46736000D01*
X171377625Y-46536625D01*
X171705839Y-46045418D01*
X171786257Y-45641126D01*
X178416000Y-45641126D01*
X178416000Y-46052874D01*
X178573569Y-46433280D01*
X178864720Y-46724431D01*
X179245126Y-46882000D01*
X179656874Y-46882000D01*
X180037280Y-46724431D01*
X180328431Y-46433280D01*
X180486000Y-46052874D01*
X180486000Y-45641126D01*
X180328431Y-45260720D01*
X180037280Y-44969569D01*
X179656874Y-44812000D01*
X179245126Y-44812000D01*
X178864720Y-44969569D01*
X178573569Y-45260720D01*
X178416000Y-45641126D01*
X171786257Y-45641126D01*
X171821092Y-45466000D01*
X171705839Y-44886582D01*
X171377625Y-44395375D01*
X170886418Y-44067161D01*
X170453256Y-43981000D01*
X170160744Y-43981000D01*
X169727582Y-44067161D01*
X169236375Y-44395375D01*
X168908161Y-44886582D01*
X168792908Y-45466000D01*
X167105000Y-45466000D01*
X167105000Y-43180000D01*
X196656887Y-43180000D01*
X196768260Y-43739909D01*
X197085423Y-44214577D01*
X197437758Y-44450000D01*
X197085423Y-44685423D01*
X196768260Y-45160091D01*
X196656887Y-45720000D01*
X196768260Y-46279909D01*
X197085423Y-46754577D01*
X197560091Y-47071740D01*
X197978667Y-47155000D01*
X198261333Y-47155000D01*
X198679909Y-47071740D01*
X199154577Y-46754577D01*
X199471740Y-46279909D01*
X199583113Y-45720000D01*
X199471740Y-45160091D01*
X199154577Y-44685423D01*
X198802242Y-44450000D01*
X199154577Y-44214577D01*
X199471740Y-43739909D01*
X199583113Y-43180000D01*
X199471740Y-42620091D01*
X199154577Y-42145423D01*
X198770892Y-41889053D01*
X198975134Y-41792389D01*
X199351041Y-41377423D01*
X199511904Y-40989039D01*
X199389915Y-40767000D01*
X198247000Y-40767000D01*
X198247000Y-40787000D01*
X197993000Y-40787000D01*
X197993000Y-40767000D01*
X196850085Y-40767000D01*
X196728096Y-40989039D01*
X196888959Y-41377423D01*
X197264866Y-41792389D01*
X197469108Y-41889053D01*
X197085423Y-42145423D01*
X196768260Y-42620091D01*
X196656887Y-43180000D01*
X167105000Y-43180000D01*
X167105000Y-36830000D01*
X168792908Y-36830000D01*
X168908161Y-37409418D01*
X169236375Y-37900625D01*
X169534761Y-38100000D01*
X169236375Y-38299375D01*
X168908161Y-38790582D01*
X168792908Y-39370000D01*
X168908161Y-39949418D01*
X169236375Y-40440625D01*
X169727582Y-40768839D01*
X170160744Y-40855000D01*
X170453256Y-40855000D01*
X170886418Y-40768839D01*
X171377625Y-40440625D01*
X171577000Y-40142239D01*
X171776375Y-40440625D01*
X172267582Y-40768839D01*
X172700744Y-40855000D01*
X172993256Y-40855000D01*
X173426418Y-40768839D01*
X173917625Y-40440625D01*
X173929816Y-40422381D01*
X173938843Y-40467765D01*
X174079191Y-40677809D01*
X174289235Y-40818157D01*
X174537000Y-40867440D01*
X176237000Y-40867440D01*
X176484765Y-40818157D01*
X176694809Y-40677809D01*
X176835157Y-40467765D01*
X176884440Y-40220000D01*
X176884440Y-38520000D01*
X176870326Y-38449039D01*
X196728096Y-38449039D01*
X196888959Y-38837423D01*
X197264866Y-39252389D01*
X197513367Y-39370000D01*
X197264866Y-39487611D01*
X196888959Y-39902577D01*
X196728096Y-40290961D01*
X196850085Y-40513000D01*
X197993000Y-40513000D01*
X197993000Y-38227000D01*
X198247000Y-38227000D01*
X198247000Y-40513000D01*
X199389915Y-40513000D01*
X199511904Y-40290961D01*
X199351041Y-39902577D01*
X198975134Y-39487611D01*
X198726633Y-39370000D01*
X198975134Y-39252389D01*
X199351041Y-38837423D01*
X199511904Y-38449039D01*
X199389915Y-38227000D01*
X198247000Y-38227000D01*
X197993000Y-38227000D01*
X196850085Y-38227000D01*
X196728096Y-38449039D01*
X176870326Y-38449039D01*
X176835157Y-38272235D01*
X176694809Y-38062191D01*
X176484765Y-37921843D01*
X176375145Y-37900039D01*
X176582183Y-37711358D01*
X176828486Y-37186892D01*
X176724485Y-36988750D01*
X179617000Y-36988750D01*
X179617000Y-37679309D01*
X179713673Y-37912698D01*
X179892301Y-38091327D01*
X180125690Y-38188000D01*
X180816250Y-38188000D01*
X180975000Y-38029250D01*
X180975000Y-36830000D01*
X179775750Y-36830000D01*
X179617000Y-36988750D01*
X176724485Y-36988750D01*
X176707819Y-36957000D01*
X175514000Y-36957000D01*
X175514000Y-36977000D01*
X175260000Y-36977000D01*
X175260000Y-36957000D01*
X175240000Y-36957000D01*
X175240000Y-36703000D01*
X175260000Y-36703000D01*
X175260000Y-35509845D01*
X175514000Y-35509845D01*
X175514000Y-36703000D01*
X176707819Y-36703000D01*
X176828486Y-36473108D01*
X176582183Y-35948642D01*
X176338638Y-35726691D01*
X179617000Y-35726691D01*
X179617000Y-36417250D01*
X179775750Y-36576000D01*
X180975000Y-36576000D01*
X180975000Y-35376750D01*
X181229000Y-35376750D01*
X181229000Y-36576000D01*
X181249000Y-36576000D01*
X181249000Y-36830000D01*
X181229000Y-36830000D01*
X181229000Y-38029250D01*
X181387750Y-38188000D01*
X182078310Y-38188000D01*
X182311699Y-38091327D01*
X182490327Y-37912698D01*
X182556904Y-37751967D01*
X182571375Y-37773625D01*
X183062582Y-38101839D01*
X183495744Y-38188000D01*
X183788256Y-38188000D01*
X184221418Y-38101839D01*
X184712625Y-37773625D01*
X184912000Y-37475239D01*
X185111375Y-37773625D01*
X185602582Y-38101839D01*
X186035744Y-38188000D01*
X186328256Y-38188000D01*
X186761418Y-38101839D01*
X187252625Y-37773625D01*
X187580839Y-37282418D01*
X187696092Y-36703000D01*
X187580839Y-36123582D01*
X187252625Y-35632375D01*
X186761418Y-35304161D01*
X186328256Y-35218000D01*
X186035744Y-35218000D01*
X185602582Y-35304161D01*
X185111375Y-35632375D01*
X184912000Y-35930761D01*
X184712625Y-35632375D01*
X184221418Y-35304161D01*
X183788256Y-35218000D01*
X183495744Y-35218000D01*
X183062582Y-35304161D01*
X182571375Y-35632375D01*
X182556904Y-35654033D01*
X182490327Y-35493302D01*
X182311699Y-35314673D01*
X182078310Y-35218000D01*
X181387750Y-35218000D01*
X181229000Y-35376750D01*
X180975000Y-35376750D01*
X180816250Y-35218000D01*
X180125690Y-35218000D01*
X179892301Y-35314673D01*
X179713673Y-35493302D01*
X179617000Y-35726691D01*
X176338638Y-35726691D01*
X176153924Y-35558355D01*
X175743890Y-35388524D01*
X175514000Y-35509845D01*
X175260000Y-35509845D01*
X175030110Y-35388524D01*
X174620076Y-35558355D01*
X174191817Y-35948642D01*
X174130843Y-36078478D01*
X173917625Y-35759375D01*
X173426418Y-35431161D01*
X172993256Y-35345000D01*
X172700744Y-35345000D01*
X172267582Y-35431161D01*
X171776375Y-35759375D01*
X171577000Y-36057761D01*
X171377625Y-35759375D01*
X170886418Y-35431161D01*
X170453256Y-35345000D01*
X170160744Y-35345000D01*
X169727582Y-35431161D01*
X169236375Y-35759375D01*
X168908161Y-36250582D01*
X168792908Y-36830000D01*
X167105000Y-36830000D01*
X167105000Y-27940000D01*
X167160475Y-27940000D01*
X167263363Y-28721511D01*
X167565015Y-29449762D01*
X168044873Y-30075127D01*
X168670237Y-30554985D01*
X169398489Y-30856637D01*
X170180000Y-30959525D01*
X170961511Y-30856637D01*
X171689763Y-30554985D01*
X172315127Y-30075127D01*
X172794985Y-29449762D01*
X173096637Y-28721511D01*
X173199525Y-27940000D01*
X196656887Y-27940000D01*
X196768260Y-28499909D01*
X197085423Y-28974577D01*
X197437758Y-29210000D01*
X197085423Y-29445423D01*
X196768260Y-29920091D01*
X196656887Y-30480000D01*
X196768260Y-31039909D01*
X197085423Y-31514577D01*
X197437758Y-31750000D01*
X197085423Y-31985423D01*
X196768260Y-32460091D01*
X196656887Y-33020000D01*
X196768260Y-33579909D01*
X197085423Y-34054577D01*
X197437758Y-34290000D01*
X197085423Y-34525423D01*
X196768260Y-35000091D01*
X196656887Y-35560000D01*
X196768260Y-36119909D01*
X197085423Y-36594577D01*
X197469108Y-36850947D01*
X197264866Y-36947611D01*
X196888959Y-37362577D01*
X196728096Y-37750961D01*
X196850085Y-37973000D01*
X197993000Y-37973000D01*
X197993000Y-37953000D01*
X198247000Y-37953000D01*
X198247000Y-37973000D01*
X199389915Y-37973000D01*
X199511904Y-37750961D01*
X199351041Y-37362577D01*
X198975134Y-36947611D01*
X198770892Y-36850947D01*
X199154577Y-36594577D01*
X199471740Y-36119909D01*
X199583113Y-35560000D01*
X199471740Y-35000091D01*
X199154577Y-34525423D01*
X198802242Y-34290000D01*
X199154577Y-34054577D01*
X199471740Y-33579909D01*
X199583113Y-33020000D01*
X199471740Y-32460091D01*
X199154577Y-31985423D01*
X198802242Y-31750000D01*
X199154577Y-31514577D01*
X199471740Y-31039909D01*
X199583113Y-30480000D01*
X199471740Y-29920091D01*
X199154577Y-29445423D01*
X198802242Y-29210000D01*
X199154577Y-28974577D01*
X199471740Y-28499909D01*
X199583113Y-27940000D01*
X209356887Y-27940000D01*
X209468260Y-28499909D01*
X209785423Y-28974577D01*
X210137758Y-29210000D01*
X209785423Y-29445423D01*
X209468260Y-29920091D01*
X209356887Y-30480000D01*
X209468260Y-31039909D01*
X209785423Y-31514577D01*
X210137758Y-31750000D01*
X209785423Y-31985423D01*
X209468260Y-32460091D01*
X209356887Y-33020000D01*
X209468260Y-33579909D01*
X209785423Y-34054577D01*
X210137758Y-34290000D01*
X209785423Y-34525423D01*
X209468260Y-35000091D01*
X209356887Y-35560000D01*
X209468260Y-36119909D01*
X209785423Y-36594577D01*
X210137758Y-36830000D01*
X209785423Y-37065423D01*
X209468260Y-37540091D01*
X209356887Y-38100000D01*
X209468260Y-38659909D01*
X209785423Y-39134577D01*
X210137758Y-39370000D01*
X209785423Y-39605423D01*
X209468260Y-40080091D01*
X209356887Y-40640000D01*
X209468260Y-41199909D01*
X209785423Y-41674577D01*
X210137758Y-41910000D01*
X209785423Y-42145423D01*
X209468260Y-42620091D01*
X209356887Y-43180000D01*
X209468260Y-43739909D01*
X209785423Y-44214577D01*
X209906106Y-44295215D01*
X209772235Y-44321843D01*
X209562191Y-44462191D01*
X209421843Y-44672235D01*
X209372560Y-44920000D01*
X209372560Y-46520000D01*
X209421843Y-46767765D01*
X209562191Y-46977809D01*
X209772235Y-47118157D01*
X210020000Y-47167440D01*
X211620000Y-47167440D01*
X211867765Y-47118157D01*
X212077809Y-46977809D01*
X212218157Y-46767765D01*
X212267440Y-46520000D01*
X212267440Y-44920000D01*
X212218157Y-44672235D01*
X212077809Y-44462191D01*
X211867765Y-44321843D01*
X211733894Y-44295215D01*
X211854577Y-44214577D01*
X212171740Y-43739909D01*
X212283113Y-43180000D01*
X212171740Y-42620091D01*
X211854577Y-42145423D01*
X211502242Y-41910000D01*
X211854577Y-41674577D01*
X212171740Y-41199909D01*
X212283113Y-40640000D01*
X212171740Y-40080091D01*
X211854577Y-39605423D01*
X211502242Y-39370000D01*
X211854577Y-39134577D01*
X212171740Y-38659909D01*
X212283113Y-38100000D01*
X212171740Y-37540091D01*
X211854577Y-37065423D01*
X211502242Y-36830000D01*
X211854577Y-36594577D01*
X212171740Y-36119909D01*
X212283113Y-35560000D01*
X212171740Y-35000091D01*
X211854577Y-34525423D01*
X211502242Y-34290000D01*
X214385908Y-34290000D01*
X214501161Y-34869418D01*
X214829375Y-35360625D01*
X215127761Y-35560000D01*
X214829375Y-35759375D01*
X214501161Y-36250582D01*
X214385908Y-36830000D01*
X214501161Y-37409418D01*
X214829375Y-37900625D01*
X215127761Y-38100000D01*
X214829375Y-38299375D01*
X214501161Y-38790582D01*
X214385908Y-39370000D01*
X214501161Y-39949418D01*
X214829375Y-40440625D01*
X214847619Y-40452816D01*
X214802235Y-40461843D01*
X214592191Y-40602191D01*
X214451843Y-40812235D01*
X214402560Y-41060000D01*
X214402560Y-42760000D01*
X214451843Y-43007765D01*
X214592191Y-43217809D01*
X214802235Y-43358157D01*
X215050000Y-43407440D01*
X216750000Y-43407440D01*
X216997765Y-43358157D01*
X217207809Y-43217809D01*
X217348157Y-43007765D01*
X217397440Y-42760000D01*
X217397440Y-41060000D01*
X217348157Y-40812235D01*
X217207809Y-40602191D01*
X216997765Y-40461843D01*
X216952381Y-40452816D01*
X216970625Y-40440625D01*
X217298839Y-39949418D01*
X217414092Y-39370000D01*
X217298839Y-38790582D01*
X216970625Y-38299375D01*
X216672239Y-38100000D01*
X216970625Y-37900625D01*
X217298839Y-37409418D01*
X217414092Y-36830000D01*
X217298839Y-36250582D01*
X216970625Y-35759375D01*
X216672239Y-35560000D01*
X216970625Y-35360625D01*
X217298839Y-34869418D01*
X217414092Y-34290000D01*
X217298839Y-33710582D01*
X216970625Y-33219375D01*
X216479418Y-32891161D01*
X216046256Y-32805000D01*
X215753744Y-32805000D01*
X215320582Y-32891161D01*
X214829375Y-33219375D01*
X214501161Y-33710582D01*
X214385908Y-34290000D01*
X211502242Y-34290000D01*
X211854577Y-34054577D01*
X212171740Y-33579909D01*
X212283113Y-33020000D01*
X212171740Y-32460091D01*
X211854577Y-31985423D01*
X211502242Y-31750000D01*
X211854577Y-31514577D01*
X212171740Y-31039909D01*
X212283113Y-30480000D01*
X212171740Y-29920091D01*
X211854577Y-29445423D01*
X211502242Y-29210000D01*
X211854577Y-28974577D01*
X212171740Y-28499909D01*
X212283113Y-27940000D01*
X212171740Y-27380091D01*
X212011317Y-27140000D01*
X214452560Y-27140000D01*
X214452560Y-28740000D01*
X214501843Y-28987765D01*
X214642191Y-29197809D01*
X214852235Y-29338157D01*
X214952503Y-29358101D01*
X214683466Y-29627138D01*
X214465000Y-30154561D01*
X214465000Y-30725439D01*
X214683466Y-31252862D01*
X215087138Y-31656534D01*
X215614561Y-31875000D01*
X216185439Y-31875000D01*
X216712862Y-31656534D01*
X217116534Y-31252862D01*
X217335000Y-30725439D01*
X217335000Y-30154561D01*
X217116534Y-29627138D01*
X216847497Y-29358101D01*
X216947765Y-29338157D01*
X217157809Y-29197809D01*
X217298157Y-28987765D01*
X217347440Y-28740000D01*
X217347440Y-27140000D01*
X217298157Y-26892235D01*
X217157809Y-26682191D01*
X216947765Y-26541843D01*
X216700000Y-26492560D01*
X215100000Y-26492560D01*
X214852235Y-26541843D01*
X214642191Y-26682191D01*
X214501843Y-26892235D01*
X214452560Y-27140000D01*
X212011317Y-27140000D01*
X211854577Y-26905423D01*
X211379909Y-26588260D01*
X210961333Y-26505000D01*
X210678667Y-26505000D01*
X210260091Y-26588260D01*
X209785423Y-26905423D01*
X209468260Y-27380091D01*
X209356887Y-27940000D01*
X199583113Y-27940000D01*
X199471740Y-27380091D01*
X199154577Y-26905423D01*
X198679909Y-26588260D01*
X198261333Y-26505000D01*
X197978667Y-26505000D01*
X197560091Y-26588260D01*
X197085423Y-26905423D01*
X196768260Y-27380091D01*
X196656887Y-27940000D01*
X173199525Y-27940000D01*
X173096637Y-27158489D01*
X172794985Y-26430238D01*
X172315127Y-25804873D01*
X171689763Y-25325015D01*
X170961511Y-25023363D01*
X170180000Y-24920475D01*
X169398489Y-25023363D01*
X168670238Y-25325015D01*
X168044873Y-25804873D01*
X167565015Y-26430238D01*
X167263363Y-27158489D01*
X167160475Y-27940000D01*
X167105000Y-27940000D01*
X167105000Y-24865000D01*
X220245000Y-24865000D01*
X220245001Y-95785000D01*
G04 #@! TD*
M02*
