G04 #@! TF.GenerationSoftware,KiCad,Pcbnew,(5.0.2-5-10.14)*
G04 #@! TF.CreationDate,2019-10-07T17:27:23-04:00*
G04 #@! TF.ProjectId,mobo,6d6f626f-2e6b-4696-9361-645f70636258,rev?*
G04 #@! TF.SameCoordinates,Original*
G04 #@! TF.FileFunction,Legend,Bot*
G04 #@! TF.FilePolarity,Positive*
%FSLAX46Y46*%
G04 Gerber Fmt 4.6, Leading zero omitted, Abs format (unit mm)*
G04 Created by KiCad (PCBNEW (5.0.2-5-10.14)) date Monday, October 07, 2019 at 05:27:23 PM*
%MOMM*%
%LPD*%
G01*
G04 APERTURE LIST*
%ADD10C,0.010000*%
G04 APERTURE END LIST*
D10*
G04 #@! TO.C,REF\002A\002A*
G36*
X178937536Y-29267150D02*
X178935994Y-29597052D01*
X178934434Y-29879981D01*
X178932739Y-30119761D01*
X178930792Y-30320219D01*
X178928477Y-30485181D01*
X178925678Y-30618472D01*
X178922276Y-30723918D01*
X178918156Y-30805345D01*
X178913201Y-30866580D01*
X178907293Y-30911447D01*
X178900317Y-30943774D01*
X178892155Y-30967385D01*
X178885198Y-30981650D01*
X178840096Y-31064200D01*
X179654200Y-31064200D01*
X179654200Y-30988000D01*
X179657559Y-30934452D01*
X179665649Y-30911804D01*
X179665773Y-30911800D01*
X179691891Y-30924784D01*
X179744274Y-30957537D01*
X179771097Y-30975421D01*
X179903397Y-31042647D01*
X180063063Y-31089589D01*
X180231978Y-31113338D01*
X180392023Y-31110984D01*
X180492400Y-31091247D01*
X180676462Y-31009939D01*
X180841590Y-30888200D01*
X180976483Y-30735510D01*
X181037845Y-30633694D01*
X181105269Y-30476029D01*
X181149145Y-30309951D01*
X181172286Y-30121403D01*
X181177759Y-29934913D01*
X181176998Y-29921200D01*
X180376864Y-29921200D01*
X180372366Y-30096895D01*
X180358751Y-30230414D01*
X180333523Y-30329949D01*
X180294188Y-30403691D01*
X180238249Y-30459831D01*
X180205984Y-30482170D01*
X180099579Y-30520164D01*
X179973856Y-30517176D01*
X179838797Y-30473728D01*
X179814501Y-30461773D01*
X179717700Y-30411557D01*
X179710858Y-29862487D01*
X179704015Y-29313416D01*
X179771109Y-29269454D01*
X179834640Y-29242707D01*
X179924332Y-29222044D01*
X179982367Y-29215065D01*
X180070745Y-29211970D01*
X180129709Y-29222095D01*
X180180015Y-29250683D01*
X180206073Y-29271568D01*
X180273417Y-29345167D01*
X180322336Y-29440737D01*
X180354659Y-29565234D01*
X180372213Y-29725611D01*
X180376864Y-29921200D01*
X181176998Y-29921200D01*
X181161325Y-29638965D01*
X181113458Y-29379134D01*
X181034829Y-29156509D01*
X180926111Y-28972180D01*
X180787975Y-28827237D01*
X180621094Y-28722768D01*
X180426140Y-28659864D01*
X180386830Y-28652835D01*
X180271297Y-28644575D01*
X180143937Y-28651429D01*
X180017339Y-28670852D01*
X179904088Y-28700299D01*
X179816772Y-28737225D01*
X179768738Y-28777815D01*
X179747873Y-28802282D01*
X179731830Y-28797192D01*
X179720075Y-28758657D01*
X179712076Y-28682788D01*
X179707298Y-28565701D01*
X179705207Y-28403506D01*
X179705000Y-28313670D01*
X179705523Y-28139573D01*
X179707531Y-28008217D01*
X179711689Y-27911550D01*
X179718657Y-27841519D01*
X179729099Y-27790073D01*
X179743678Y-27749158D01*
X179753062Y-27729470D01*
X179801124Y-27635200D01*
X178944772Y-27635200D01*
X178937536Y-29267150D01*
X178937536Y-29267150D01*
G37*
X178937536Y-29267150D02*
X178935994Y-29597052D01*
X178934434Y-29879981D01*
X178932739Y-30119761D01*
X178930792Y-30320219D01*
X178928477Y-30485181D01*
X178925678Y-30618472D01*
X178922276Y-30723918D01*
X178918156Y-30805345D01*
X178913201Y-30866580D01*
X178907293Y-30911447D01*
X178900317Y-30943774D01*
X178892155Y-30967385D01*
X178885198Y-30981650D01*
X178840096Y-31064200D01*
X179654200Y-31064200D01*
X179654200Y-30988000D01*
X179657559Y-30934452D01*
X179665649Y-30911804D01*
X179665773Y-30911800D01*
X179691891Y-30924784D01*
X179744274Y-30957537D01*
X179771097Y-30975421D01*
X179903397Y-31042647D01*
X180063063Y-31089589D01*
X180231978Y-31113338D01*
X180392023Y-31110984D01*
X180492400Y-31091247D01*
X180676462Y-31009939D01*
X180841590Y-30888200D01*
X180976483Y-30735510D01*
X181037845Y-30633694D01*
X181105269Y-30476029D01*
X181149145Y-30309951D01*
X181172286Y-30121403D01*
X181177759Y-29934913D01*
X181176998Y-29921200D01*
X180376864Y-29921200D01*
X180372366Y-30096895D01*
X180358751Y-30230414D01*
X180333523Y-30329949D01*
X180294188Y-30403691D01*
X180238249Y-30459831D01*
X180205984Y-30482170D01*
X180099579Y-30520164D01*
X179973856Y-30517176D01*
X179838797Y-30473728D01*
X179814501Y-30461773D01*
X179717700Y-30411557D01*
X179710858Y-29862487D01*
X179704015Y-29313416D01*
X179771109Y-29269454D01*
X179834640Y-29242707D01*
X179924332Y-29222044D01*
X179982367Y-29215065D01*
X180070745Y-29211970D01*
X180129709Y-29222095D01*
X180180015Y-29250683D01*
X180206073Y-29271568D01*
X180273417Y-29345167D01*
X180322336Y-29440737D01*
X180354659Y-29565234D01*
X180372213Y-29725611D01*
X180376864Y-29921200D01*
X181176998Y-29921200D01*
X181161325Y-29638965D01*
X181113458Y-29379134D01*
X181034829Y-29156509D01*
X180926111Y-28972180D01*
X180787975Y-28827237D01*
X180621094Y-28722768D01*
X180426140Y-28659864D01*
X180386830Y-28652835D01*
X180271297Y-28644575D01*
X180143937Y-28651429D01*
X180017339Y-28670852D01*
X179904088Y-28700299D01*
X179816772Y-28737225D01*
X179768738Y-28777815D01*
X179747873Y-28802282D01*
X179731830Y-28797192D01*
X179720075Y-28758657D01*
X179712076Y-28682788D01*
X179707298Y-28565701D01*
X179705207Y-28403506D01*
X179705000Y-28313670D01*
X179705523Y-28139573D01*
X179707531Y-28008217D01*
X179711689Y-27911550D01*
X179718657Y-27841519D01*
X179729099Y-27790073D01*
X179743678Y-27749158D01*
X179753062Y-27729470D01*
X179801124Y-27635200D01*
X178944772Y-27635200D01*
X178937536Y-29267150D01*
G36*
X182157380Y-28662359D02*
X181981424Y-28702264D01*
X181862487Y-28746895D01*
X181769902Y-28802778D01*
X181687221Y-28876360D01*
X181634083Y-28931188D01*
X181590604Y-28982829D01*
X181555709Y-29036992D01*
X181528324Y-29099387D01*
X181507376Y-29175723D01*
X181491791Y-29271710D01*
X181480496Y-29393058D01*
X181472415Y-29545475D01*
X181466477Y-29734670D01*
X181461606Y-29966355D01*
X181459451Y-30087477D01*
X181455193Y-30319434D01*
X181451070Y-30506051D01*
X181446724Y-30652785D01*
X181441797Y-30765095D01*
X181435932Y-30848437D01*
X181428769Y-30908269D01*
X181419951Y-30950049D01*
X181409120Y-30979234D01*
X181399865Y-30995527D01*
X181354829Y-31064200D01*
X182165582Y-31064200D01*
X182181500Y-30910698D01*
X182280898Y-30978483D01*
X182437054Y-31057254D01*
X182617908Y-31103178D01*
X182807705Y-31114137D01*
X182990691Y-31088011D01*
X183024166Y-31078436D01*
X183210571Y-30996112D01*
X183361480Y-30878585D01*
X183474348Y-30729321D01*
X183546625Y-30551786D01*
X183575765Y-30349443D01*
X183576212Y-30327600D01*
X183575548Y-30298545D01*
X182847293Y-30298545D01*
X182843037Y-30387884D01*
X182832910Y-30418502D01*
X182770221Y-30499089D01*
X182675277Y-30553481D01*
X182561673Y-30577352D01*
X182443004Y-30566378D01*
X182405404Y-30554508D01*
X182318217Y-30512968D01*
X182262576Y-30460366D01*
X182232106Y-30385280D01*
X182220434Y-30276289D01*
X182219600Y-30221572D01*
X182219600Y-30022800D01*
X182385516Y-30022800D01*
X182549253Y-30037824D01*
X182687872Y-30080733D01*
X182783324Y-30141555D01*
X182825931Y-30208298D01*
X182847293Y-30298545D01*
X183575548Y-30298545D01*
X183573597Y-30213273D01*
X183559949Y-30125974D01*
X183530450Y-30042311D01*
X183507118Y-29992215D01*
X183402777Y-29835636D01*
X183258396Y-29709758D01*
X183074631Y-29614878D01*
X182852138Y-29551291D01*
X182591574Y-29519295D01*
X182451206Y-29515241D01*
X182212912Y-29514800D01*
X182226804Y-29411228D01*
X182262738Y-29297960D01*
X182334656Y-29219507D01*
X182441276Y-29176163D01*
X182581313Y-29168223D01*
X182753484Y-29195980D01*
X182930491Y-29250144D01*
X183014949Y-29277413D01*
X183079942Y-29292373D01*
X183111805Y-29291908D01*
X183112138Y-29291589D01*
X183129724Y-29259872D01*
X183159820Y-29193912D01*
X183197098Y-29106745D01*
X183236227Y-29011404D01*
X183271878Y-28920925D01*
X183298720Y-28848340D01*
X183311425Y-28806685D01*
X183311800Y-28803302D01*
X183290010Y-28784617D01*
X183246553Y-28778200D01*
X183194969Y-28772037D01*
X183108150Y-28755424D01*
X182999897Y-28731175D01*
X182922703Y-28712173D01*
X182656904Y-28661360D01*
X182398224Y-28644718D01*
X182157380Y-28662359D01*
X182157380Y-28662359D01*
G37*
X182157380Y-28662359D02*
X181981424Y-28702264D01*
X181862487Y-28746895D01*
X181769902Y-28802778D01*
X181687221Y-28876360D01*
X181634083Y-28931188D01*
X181590604Y-28982829D01*
X181555709Y-29036992D01*
X181528324Y-29099387D01*
X181507376Y-29175723D01*
X181491791Y-29271710D01*
X181480496Y-29393058D01*
X181472415Y-29545475D01*
X181466477Y-29734670D01*
X181461606Y-29966355D01*
X181459451Y-30087477D01*
X181455193Y-30319434D01*
X181451070Y-30506051D01*
X181446724Y-30652785D01*
X181441797Y-30765095D01*
X181435932Y-30848437D01*
X181428769Y-30908269D01*
X181419951Y-30950049D01*
X181409120Y-30979234D01*
X181399865Y-30995527D01*
X181354829Y-31064200D01*
X182165582Y-31064200D01*
X182181500Y-30910698D01*
X182280898Y-30978483D01*
X182437054Y-31057254D01*
X182617908Y-31103178D01*
X182807705Y-31114137D01*
X182990691Y-31088011D01*
X183024166Y-31078436D01*
X183210571Y-30996112D01*
X183361480Y-30878585D01*
X183474348Y-30729321D01*
X183546625Y-30551786D01*
X183575765Y-30349443D01*
X183576212Y-30327600D01*
X183575548Y-30298545D01*
X182847293Y-30298545D01*
X182843037Y-30387884D01*
X182832910Y-30418502D01*
X182770221Y-30499089D01*
X182675277Y-30553481D01*
X182561673Y-30577352D01*
X182443004Y-30566378D01*
X182405404Y-30554508D01*
X182318217Y-30512968D01*
X182262576Y-30460366D01*
X182232106Y-30385280D01*
X182220434Y-30276289D01*
X182219600Y-30221572D01*
X182219600Y-30022800D01*
X182385516Y-30022800D01*
X182549253Y-30037824D01*
X182687872Y-30080733D01*
X182783324Y-30141555D01*
X182825931Y-30208298D01*
X182847293Y-30298545D01*
X183575548Y-30298545D01*
X183573597Y-30213273D01*
X183559949Y-30125974D01*
X183530450Y-30042311D01*
X183507118Y-29992215D01*
X183402777Y-29835636D01*
X183258396Y-29709758D01*
X183074631Y-29614878D01*
X182852138Y-29551291D01*
X182591574Y-29519295D01*
X182451206Y-29515241D01*
X182212912Y-29514800D01*
X182226804Y-29411228D01*
X182262738Y-29297960D01*
X182334656Y-29219507D01*
X182441276Y-29176163D01*
X182581313Y-29168223D01*
X182753484Y-29195980D01*
X182930491Y-29250144D01*
X183014949Y-29277413D01*
X183079942Y-29292373D01*
X183111805Y-29291908D01*
X183112138Y-29291589D01*
X183129724Y-29259872D01*
X183159820Y-29193912D01*
X183197098Y-29106745D01*
X183236227Y-29011404D01*
X183271878Y-28920925D01*
X183298720Y-28848340D01*
X183311425Y-28806685D01*
X183311800Y-28803302D01*
X183290010Y-28784617D01*
X183246553Y-28778200D01*
X183194969Y-28772037D01*
X183108150Y-28755424D01*
X182999897Y-28731175D01*
X182922703Y-28712173D01*
X182656904Y-28661360D01*
X182398224Y-28644718D01*
X182157380Y-28662359D01*
G36*
X184240324Y-27816341D02*
X184199089Y-27826143D01*
X184128121Y-27848829D01*
X184032827Y-27884963D01*
X183925479Y-27929187D01*
X183818347Y-27976147D01*
X183723702Y-28020487D01*
X183653815Y-28056851D01*
X183622936Y-28077598D01*
X183632626Y-28100582D01*
X183664964Y-28155508D01*
X183713536Y-28232651D01*
X183771926Y-28322288D01*
X183833719Y-28414695D01*
X183892498Y-28500151D01*
X183941848Y-28568930D01*
X183974323Y-28610159D01*
X184002764Y-28607624D01*
X184054919Y-28577335D01*
X184098593Y-28543312D01*
X184243702Y-28451226D01*
X184408513Y-28405559D01*
X184566902Y-28404284D01*
X184737602Y-28444902D01*
X184881741Y-28528127D01*
X184998755Y-28652925D01*
X185088081Y-28818260D01*
X185149157Y-29023097D01*
X185181419Y-29266401D01*
X185184574Y-29540200D01*
X185163133Y-29787826D01*
X185118016Y-29993741D01*
X185047370Y-30162105D01*
X184949343Y-30297080D01*
X184822083Y-30402826D01*
X184792421Y-30421151D01*
X184715227Y-30461415D01*
X184643762Y-30482876D01*
X184555973Y-30490676D01*
X184492900Y-30491009D01*
X184333183Y-30475354D01*
X184194453Y-30427392D01*
X184060375Y-30340613D01*
X184010154Y-30298663D01*
X183955908Y-30254162D01*
X183919586Y-30230225D01*
X183911945Y-30228969D01*
X183889784Y-30262288D01*
X183850502Y-30326333D01*
X183799770Y-30411348D01*
X183743257Y-30507575D01*
X183686634Y-30605257D01*
X183635569Y-30694636D01*
X183595735Y-30765956D01*
X183572799Y-30809460D01*
X183569547Y-30818180D01*
X183594782Y-30831554D01*
X183652656Y-30862253D01*
X183730938Y-30903786D01*
X183735543Y-30906230D01*
X183897853Y-30986612D01*
X184040788Y-31041928D01*
X184182728Y-31076986D01*
X184342053Y-31096593D01*
X184492900Y-31104340D01*
X184685715Y-31105569D01*
X184837750Y-31096113D01*
X184928564Y-31080565D01*
X185160799Y-30995718D01*
X185373841Y-30866718D01*
X185563634Y-30697906D01*
X185726122Y-30493623D01*
X185857248Y-30258209D01*
X185952956Y-29996005D01*
X185957452Y-29979632D01*
X185993750Y-29793026D01*
X186012655Y-29578920D01*
X186014177Y-29355257D01*
X185998331Y-29139982D01*
X185965128Y-28951040D01*
X185956703Y-28919044D01*
X185854939Y-28645435D01*
X185712268Y-28399468D01*
X185531196Y-28184653D01*
X185314230Y-28004495D01*
X185293000Y-27990082D01*
X185115356Y-27897504D01*
X184907302Y-27831748D01*
X184682802Y-27794907D01*
X184455822Y-27789073D01*
X184240324Y-27816341D01*
X184240324Y-27816341D01*
G37*
X184240324Y-27816341D02*
X184199089Y-27826143D01*
X184128121Y-27848829D01*
X184032827Y-27884963D01*
X183925479Y-27929187D01*
X183818347Y-27976147D01*
X183723702Y-28020487D01*
X183653815Y-28056851D01*
X183622936Y-28077598D01*
X183632626Y-28100582D01*
X183664964Y-28155508D01*
X183713536Y-28232651D01*
X183771926Y-28322288D01*
X183833719Y-28414695D01*
X183892498Y-28500151D01*
X183941848Y-28568930D01*
X183974323Y-28610159D01*
X184002764Y-28607624D01*
X184054919Y-28577335D01*
X184098593Y-28543312D01*
X184243702Y-28451226D01*
X184408513Y-28405559D01*
X184566902Y-28404284D01*
X184737602Y-28444902D01*
X184881741Y-28528127D01*
X184998755Y-28652925D01*
X185088081Y-28818260D01*
X185149157Y-29023097D01*
X185181419Y-29266401D01*
X185184574Y-29540200D01*
X185163133Y-29787826D01*
X185118016Y-29993741D01*
X185047370Y-30162105D01*
X184949343Y-30297080D01*
X184822083Y-30402826D01*
X184792421Y-30421151D01*
X184715227Y-30461415D01*
X184643762Y-30482876D01*
X184555973Y-30490676D01*
X184492900Y-30491009D01*
X184333183Y-30475354D01*
X184194453Y-30427392D01*
X184060375Y-30340613D01*
X184010154Y-30298663D01*
X183955908Y-30254162D01*
X183919586Y-30230225D01*
X183911945Y-30228969D01*
X183889784Y-30262288D01*
X183850502Y-30326333D01*
X183799770Y-30411348D01*
X183743257Y-30507575D01*
X183686634Y-30605257D01*
X183635569Y-30694636D01*
X183595735Y-30765956D01*
X183572799Y-30809460D01*
X183569547Y-30818180D01*
X183594782Y-30831554D01*
X183652656Y-30862253D01*
X183730938Y-30903786D01*
X183735543Y-30906230D01*
X183897853Y-30986612D01*
X184040788Y-31041928D01*
X184182728Y-31076986D01*
X184342053Y-31096593D01*
X184492900Y-31104340D01*
X184685715Y-31105569D01*
X184837750Y-31096113D01*
X184928564Y-31080565D01*
X185160799Y-30995718D01*
X185373841Y-30866718D01*
X185563634Y-30697906D01*
X185726122Y-30493623D01*
X185857248Y-30258209D01*
X185952956Y-29996005D01*
X185957452Y-29979632D01*
X185993750Y-29793026D01*
X186012655Y-29578920D01*
X186014177Y-29355257D01*
X185998331Y-29139982D01*
X185965128Y-28951040D01*
X185956703Y-28919044D01*
X185854939Y-28645435D01*
X185712268Y-28399468D01*
X185531196Y-28184653D01*
X185314230Y-28004495D01*
X185293000Y-27990082D01*
X185115356Y-27897504D01*
X184907302Y-27831748D01*
X184682802Y-27794907D01*
X184455822Y-27789073D01*
X184240324Y-27816341D01*
G36*
X186333637Y-27252699D02*
X186311845Y-27259976D01*
X186293414Y-27276420D01*
X186278065Y-27305197D01*
X186265519Y-27349474D01*
X186255495Y-27412418D01*
X186247717Y-27497194D01*
X186241904Y-27606971D01*
X186237777Y-27744914D01*
X186235057Y-27914191D01*
X186233465Y-28117968D01*
X186232723Y-28359411D01*
X186232550Y-28641687D01*
X186232668Y-28967964D01*
X186232797Y-29341407D01*
X186232800Y-29400500D01*
X186232878Y-29775884D01*
X186233151Y-30103711D01*
X186233682Y-30387221D01*
X186234531Y-30629658D01*
X186235760Y-30834261D01*
X186237431Y-31004274D01*
X186239605Y-31142939D01*
X186242343Y-31253496D01*
X186245708Y-31339188D01*
X186249759Y-31403257D01*
X186254559Y-31448944D01*
X186260169Y-31479492D01*
X186266651Y-31498141D01*
X186272715Y-31506885D01*
X186283791Y-31513992D01*
X186303999Y-31520213D01*
X186336510Y-31525606D01*
X186384497Y-31530229D01*
X186451133Y-31534140D01*
X186539590Y-31537396D01*
X186653040Y-31540056D01*
X186794656Y-31542175D01*
X186967610Y-31543813D01*
X187175076Y-31545028D01*
X187420224Y-31545876D01*
X187706229Y-31546415D01*
X188036261Y-31546703D01*
X188413495Y-31546798D01*
X188468001Y-31546800D01*
X188851824Y-31546726D01*
X189188020Y-31546467D01*
X189479761Y-31545965D01*
X189730219Y-31545162D01*
X189942568Y-31544000D01*
X190119979Y-31542422D01*
X190265625Y-31540371D01*
X190382678Y-31537787D01*
X190474312Y-31534615D01*
X190543697Y-31530795D01*
X190594008Y-31526271D01*
X190628416Y-31520985D01*
X190650093Y-31514879D01*
X190662213Y-31507895D01*
X190663286Y-31506885D01*
X190670535Y-31495627D01*
X190676862Y-31475152D01*
X190682328Y-31442219D01*
X190686994Y-31393586D01*
X190690922Y-31326011D01*
X190694174Y-31236252D01*
X190696810Y-31121068D01*
X190698893Y-30977217D01*
X190700483Y-30801456D01*
X190701642Y-30590544D01*
X190702432Y-30341239D01*
X190702914Y-30050300D01*
X190703149Y-29714484D01*
X190703200Y-29400500D01*
X190703123Y-29025115D01*
X190702850Y-28697288D01*
X190702319Y-28413778D01*
X190701470Y-28171341D01*
X190700241Y-27966738D01*
X190699052Y-27845729D01*
X190423801Y-27845729D01*
X190413363Y-27870638D01*
X190387056Y-27924844D01*
X190373001Y-27952699D01*
X190362068Y-27975774D01*
X190352826Y-28001420D01*
X190345133Y-28033859D01*
X190338848Y-28077308D01*
X190333828Y-28135988D01*
X190329932Y-28214117D01*
X190327017Y-28315917D01*
X190324943Y-28445605D01*
X190323566Y-28607401D01*
X190322746Y-28805525D01*
X190322341Y-29044197D01*
X190322209Y-29327635D01*
X190322201Y-29464290D01*
X190322561Y-29727726D01*
X190323598Y-29976037D01*
X190325244Y-30204556D01*
X190327432Y-30408618D01*
X190330097Y-30583558D01*
X190333170Y-30724711D01*
X190336585Y-30827410D01*
X190340276Y-30886991D01*
X190342776Y-30900370D01*
X190367200Y-30940136D01*
X190393032Y-30994350D01*
X190422711Y-31064200D01*
X189896206Y-31063811D01*
X189741033Y-31062849D01*
X189606650Y-31060381D01*
X189500001Y-31056674D01*
X189428030Y-31051992D01*
X189397681Y-31046600D01*
X189397906Y-31044761D01*
X189427855Y-31010826D01*
X189463668Y-30952626D01*
X189467756Y-30944811D01*
X189482682Y-30907521D01*
X189493693Y-30857267D01*
X189501331Y-30786556D01*
X189506134Y-30687898D01*
X189508644Y-30553800D01*
X189509399Y-30376772D01*
X189509400Y-30366961D01*
X189508167Y-30189347D01*
X189504604Y-30046876D01*
X189498922Y-29943727D01*
X189491328Y-29884078D01*
X189484586Y-29870400D01*
X189455086Y-29889770D01*
X189417359Y-29936744D01*
X189415085Y-29940250D01*
X189374507Y-29997268D01*
X189340301Y-30035500D01*
X189309853Y-30072632D01*
X189269917Y-30134966D01*
X189256329Y-30158833D01*
X189214180Y-30225930D01*
X189151473Y-30314720D01*
X189080408Y-30408064D01*
X189066458Y-30425533D01*
X188958339Y-30568344D01*
X188867862Y-30704967D01*
X188799611Y-30827349D01*
X188758169Y-30927440D01*
X188747400Y-30985923D01*
X188747400Y-31064200D01*
X187620945Y-31064200D01*
X187633071Y-31050488D01*
X187477400Y-31050488D01*
X187453301Y-31054757D01*
X187386204Y-31058485D01*
X187283911Y-31061448D01*
X187154222Y-31063426D01*
X187004939Y-31064196D01*
X186994800Y-31064200D01*
X186818033Y-31063408D01*
X186686899Y-31060806D01*
X186596253Y-31056056D01*
X186540950Y-31048818D01*
X186515844Y-31038752D01*
X186513008Y-31032450D01*
X186527962Y-30988554D01*
X186551108Y-30951395D01*
X186560302Y-30932692D01*
X186567898Y-30900195D01*
X186574041Y-30849498D01*
X186578873Y-30776196D01*
X186582536Y-30675883D01*
X186585174Y-30544154D01*
X186586930Y-30376604D01*
X186587947Y-30168827D01*
X186588367Y-29916418D01*
X186588400Y-29802045D01*
X186588400Y-28702000D01*
X187453305Y-28702000D01*
X187414553Y-28776938D01*
X187404522Y-28802815D01*
X187396333Y-28841092D01*
X187389808Y-28896607D01*
X187384774Y-28974197D01*
X187381053Y-29078700D01*
X187378471Y-29214954D01*
X187376852Y-29387797D01*
X187376021Y-29602067D01*
X187375800Y-29844750D01*
X187375914Y-30096440D01*
X187376415Y-30302511D01*
X187377545Y-30468147D01*
X187379545Y-30598527D01*
X187382655Y-30698835D01*
X187387117Y-30774251D01*
X187393171Y-30829957D01*
X187401059Y-30871135D01*
X187411021Y-30902967D01*
X187423299Y-30930635D01*
X187426600Y-30937200D01*
X187457510Y-31000636D01*
X187475520Y-31043110D01*
X187477400Y-31050488D01*
X187633071Y-31050488D01*
X187682523Y-30994570D01*
X187726445Y-30945266D01*
X187754627Y-30914290D01*
X187756800Y-30912020D01*
X187814555Y-30848905D01*
X187886037Y-30764689D01*
X187961103Y-30672065D01*
X188029609Y-30583725D01*
X188081412Y-30512361D01*
X188101624Y-30480547D01*
X188141845Y-30416584D01*
X188205338Y-30325299D01*
X188283196Y-30218680D01*
X188366513Y-30108715D01*
X188446383Y-30007390D01*
X188508727Y-29932607D01*
X188569171Y-29855548D01*
X188625841Y-29771943D01*
X188630022Y-29765050D01*
X188757363Y-29566936D01*
X188853006Y-29436356D01*
X188922964Y-29345212D01*
X188841532Y-29257760D01*
X188771340Y-29178661D01*
X188681285Y-29071892D01*
X188581943Y-28950451D01*
X188483893Y-28827339D01*
X188397711Y-28715555D01*
X188368849Y-28676815D01*
X188064059Y-28296892D01*
X187824721Y-28039787D01*
X187625941Y-27838400D01*
X188171253Y-27838400D01*
X188356450Y-27838523D01*
X188497002Y-27839861D01*
X188599063Y-27843867D01*
X188668788Y-27851993D01*
X188712331Y-27865691D01*
X188735847Y-27886416D01*
X188745489Y-27915618D01*
X188747414Y-27954751D01*
X188747400Y-27974390D01*
X188762988Y-28027842D01*
X188802059Y-28095121D01*
X188819701Y-28118362D01*
X188878348Y-28195668D01*
X188941110Y-28286586D01*
X188963198Y-28321000D01*
X189006448Y-28387764D01*
X189040088Y-28434931D01*
X189051761Y-28448000D01*
X189081555Y-28477339D01*
X189130755Y-28533018D01*
X189190478Y-28604108D01*
X189251838Y-28679681D01*
X189305953Y-28748808D01*
X189343937Y-28800561D01*
X189357000Y-28823483D01*
X189373818Y-28852974D01*
X189415854Y-28900717D01*
X189433201Y-28917900D01*
X189509401Y-28990904D01*
X189509400Y-28571088D01*
X189507807Y-28388302D01*
X189502105Y-28245476D01*
X189490907Y-28131840D01*
X189472828Y-28036629D01*
X189446482Y-27949075D01*
X189420836Y-27882850D01*
X189417606Y-27867771D01*
X189426351Y-27856538D01*
X189453295Y-27848591D01*
X189504662Y-27843367D01*
X189586676Y-27840303D01*
X189705561Y-27838838D01*
X189867540Y-27838410D01*
X189913083Y-27838400D01*
X190067917Y-27838746D01*
X190203878Y-27839712D01*
X190313383Y-27841190D01*
X190388849Y-27843071D01*
X190422692Y-27845245D01*
X190423801Y-27845729D01*
X190699052Y-27845729D01*
X190698570Y-27796725D01*
X190696396Y-27658060D01*
X190693658Y-27547503D01*
X190690293Y-27461811D01*
X190686242Y-27397742D01*
X190681442Y-27352055D01*
X190675832Y-27321507D01*
X190669350Y-27302858D01*
X190663286Y-27294114D01*
X190650822Y-27285934D01*
X190628563Y-27278938D01*
X190592809Y-27273034D01*
X190539859Y-27268133D01*
X190466012Y-27264144D01*
X190367569Y-27260978D01*
X190240827Y-27258544D01*
X190082087Y-27256752D01*
X189887647Y-27255511D01*
X189653807Y-27254733D01*
X189376865Y-27254326D01*
X189053122Y-27254200D01*
X187426600Y-27254200D01*
X187426600Y-27350418D01*
X187406521Y-27466335D01*
X187353475Y-27585000D01*
X187278246Y-27685991D01*
X187225994Y-27730244D01*
X187112454Y-27777370D01*
X186981500Y-27787636D01*
X186847372Y-27763918D01*
X186724310Y-27709089D01*
X186626552Y-27626023D01*
X186611200Y-27606147D01*
X186564194Y-27505428D01*
X186542561Y-27389877D01*
X186531310Y-27254199D01*
X186421970Y-27254200D01*
X186388420Y-27252977D01*
X186359069Y-27251421D01*
X186333637Y-27252699D01*
X186333637Y-27252699D01*
G37*
X186333637Y-27252699D02*
X186311845Y-27259976D01*
X186293414Y-27276420D01*
X186278065Y-27305197D01*
X186265519Y-27349474D01*
X186255495Y-27412418D01*
X186247717Y-27497194D01*
X186241904Y-27606971D01*
X186237777Y-27744914D01*
X186235057Y-27914191D01*
X186233465Y-28117968D01*
X186232723Y-28359411D01*
X186232550Y-28641687D01*
X186232668Y-28967964D01*
X186232797Y-29341407D01*
X186232800Y-29400500D01*
X186232878Y-29775884D01*
X186233151Y-30103711D01*
X186233682Y-30387221D01*
X186234531Y-30629658D01*
X186235760Y-30834261D01*
X186237431Y-31004274D01*
X186239605Y-31142939D01*
X186242343Y-31253496D01*
X186245708Y-31339188D01*
X186249759Y-31403257D01*
X186254559Y-31448944D01*
X186260169Y-31479492D01*
X186266651Y-31498141D01*
X186272715Y-31506885D01*
X186283791Y-31513992D01*
X186303999Y-31520213D01*
X186336510Y-31525606D01*
X186384497Y-31530229D01*
X186451133Y-31534140D01*
X186539590Y-31537396D01*
X186653040Y-31540056D01*
X186794656Y-31542175D01*
X186967610Y-31543813D01*
X187175076Y-31545028D01*
X187420224Y-31545876D01*
X187706229Y-31546415D01*
X188036261Y-31546703D01*
X188413495Y-31546798D01*
X188468001Y-31546800D01*
X188851824Y-31546726D01*
X189188020Y-31546467D01*
X189479761Y-31545965D01*
X189730219Y-31545162D01*
X189942568Y-31544000D01*
X190119979Y-31542422D01*
X190265625Y-31540371D01*
X190382678Y-31537787D01*
X190474312Y-31534615D01*
X190543697Y-31530795D01*
X190594008Y-31526271D01*
X190628416Y-31520985D01*
X190650093Y-31514879D01*
X190662213Y-31507895D01*
X190663286Y-31506885D01*
X190670535Y-31495627D01*
X190676862Y-31475152D01*
X190682328Y-31442219D01*
X190686994Y-31393586D01*
X190690922Y-31326011D01*
X190694174Y-31236252D01*
X190696810Y-31121068D01*
X190698893Y-30977217D01*
X190700483Y-30801456D01*
X190701642Y-30590544D01*
X190702432Y-30341239D01*
X190702914Y-30050300D01*
X190703149Y-29714484D01*
X190703200Y-29400500D01*
X190703123Y-29025115D01*
X190702850Y-28697288D01*
X190702319Y-28413778D01*
X190701470Y-28171341D01*
X190700241Y-27966738D01*
X190699052Y-27845729D01*
X190423801Y-27845729D01*
X190413363Y-27870638D01*
X190387056Y-27924844D01*
X190373001Y-27952699D01*
X190362068Y-27975774D01*
X190352826Y-28001420D01*
X190345133Y-28033859D01*
X190338848Y-28077308D01*
X190333828Y-28135988D01*
X190329932Y-28214117D01*
X190327017Y-28315917D01*
X190324943Y-28445605D01*
X190323566Y-28607401D01*
X190322746Y-28805525D01*
X190322341Y-29044197D01*
X190322209Y-29327635D01*
X190322201Y-29464290D01*
X190322561Y-29727726D01*
X190323598Y-29976037D01*
X190325244Y-30204556D01*
X190327432Y-30408618D01*
X190330097Y-30583558D01*
X190333170Y-30724711D01*
X190336585Y-30827410D01*
X190340276Y-30886991D01*
X190342776Y-30900370D01*
X190367200Y-30940136D01*
X190393032Y-30994350D01*
X190422711Y-31064200D01*
X189896206Y-31063811D01*
X189741033Y-31062849D01*
X189606650Y-31060381D01*
X189500001Y-31056674D01*
X189428030Y-31051992D01*
X189397681Y-31046600D01*
X189397906Y-31044761D01*
X189427855Y-31010826D01*
X189463668Y-30952626D01*
X189467756Y-30944811D01*
X189482682Y-30907521D01*
X189493693Y-30857267D01*
X189501331Y-30786556D01*
X189506134Y-30687898D01*
X189508644Y-30553800D01*
X189509399Y-30376772D01*
X189509400Y-30366961D01*
X189508167Y-30189347D01*
X189504604Y-30046876D01*
X189498922Y-29943727D01*
X189491328Y-29884078D01*
X189484586Y-29870400D01*
X189455086Y-29889770D01*
X189417359Y-29936744D01*
X189415085Y-29940250D01*
X189374507Y-29997268D01*
X189340301Y-30035500D01*
X189309853Y-30072632D01*
X189269917Y-30134966D01*
X189256329Y-30158833D01*
X189214180Y-30225930D01*
X189151473Y-30314720D01*
X189080408Y-30408064D01*
X189066458Y-30425533D01*
X188958339Y-30568344D01*
X188867862Y-30704967D01*
X188799611Y-30827349D01*
X188758169Y-30927440D01*
X188747400Y-30985923D01*
X188747400Y-31064200D01*
X187620945Y-31064200D01*
X187633071Y-31050488D01*
X187477400Y-31050488D01*
X187453301Y-31054757D01*
X187386204Y-31058485D01*
X187283911Y-31061448D01*
X187154222Y-31063426D01*
X187004939Y-31064196D01*
X186994800Y-31064200D01*
X186818033Y-31063408D01*
X186686899Y-31060806D01*
X186596253Y-31056056D01*
X186540950Y-31048818D01*
X186515844Y-31038752D01*
X186513008Y-31032450D01*
X186527962Y-30988554D01*
X186551108Y-30951395D01*
X186560302Y-30932692D01*
X186567898Y-30900195D01*
X186574041Y-30849498D01*
X186578873Y-30776196D01*
X186582536Y-30675883D01*
X186585174Y-30544154D01*
X186586930Y-30376604D01*
X186587947Y-30168827D01*
X186588367Y-29916418D01*
X186588400Y-29802045D01*
X186588400Y-28702000D01*
X187453305Y-28702000D01*
X187414553Y-28776938D01*
X187404522Y-28802815D01*
X187396333Y-28841092D01*
X187389808Y-28896607D01*
X187384774Y-28974197D01*
X187381053Y-29078700D01*
X187378471Y-29214954D01*
X187376852Y-29387797D01*
X187376021Y-29602067D01*
X187375800Y-29844750D01*
X187375914Y-30096440D01*
X187376415Y-30302511D01*
X187377545Y-30468147D01*
X187379545Y-30598527D01*
X187382655Y-30698835D01*
X187387117Y-30774251D01*
X187393171Y-30829957D01*
X187401059Y-30871135D01*
X187411021Y-30902967D01*
X187423299Y-30930635D01*
X187426600Y-30937200D01*
X187457510Y-31000636D01*
X187475520Y-31043110D01*
X187477400Y-31050488D01*
X187633071Y-31050488D01*
X187682523Y-30994570D01*
X187726445Y-30945266D01*
X187754627Y-30914290D01*
X187756800Y-30912020D01*
X187814555Y-30848905D01*
X187886037Y-30764689D01*
X187961103Y-30672065D01*
X188029609Y-30583725D01*
X188081412Y-30512361D01*
X188101624Y-30480547D01*
X188141845Y-30416584D01*
X188205338Y-30325299D01*
X188283196Y-30218680D01*
X188366513Y-30108715D01*
X188446383Y-30007390D01*
X188508727Y-29932607D01*
X188569171Y-29855548D01*
X188625841Y-29771943D01*
X188630022Y-29765050D01*
X188757363Y-29566936D01*
X188853006Y-29436356D01*
X188922964Y-29345212D01*
X188841532Y-29257760D01*
X188771340Y-29178661D01*
X188681285Y-29071892D01*
X188581943Y-28950451D01*
X188483893Y-28827339D01*
X188397711Y-28715555D01*
X188368849Y-28676815D01*
X188064059Y-28296892D01*
X187824721Y-28039787D01*
X187625941Y-27838400D01*
X188171253Y-27838400D01*
X188356450Y-27838523D01*
X188497002Y-27839861D01*
X188599063Y-27843867D01*
X188668788Y-27851993D01*
X188712331Y-27865691D01*
X188735847Y-27886416D01*
X188745489Y-27915618D01*
X188747414Y-27954751D01*
X188747400Y-27974390D01*
X188762988Y-28027842D01*
X188802059Y-28095121D01*
X188819701Y-28118362D01*
X188878348Y-28195668D01*
X188941110Y-28286586D01*
X188963198Y-28321000D01*
X189006448Y-28387764D01*
X189040088Y-28434931D01*
X189051761Y-28448000D01*
X189081555Y-28477339D01*
X189130755Y-28533018D01*
X189190478Y-28604108D01*
X189251838Y-28679681D01*
X189305953Y-28748808D01*
X189343937Y-28800561D01*
X189357000Y-28823483D01*
X189373818Y-28852974D01*
X189415854Y-28900717D01*
X189433201Y-28917900D01*
X189509401Y-28990904D01*
X189509400Y-28571088D01*
X189507807Y-28388302D01*
X189502105Y-28245476D01*
X189490907Y-28131840D01*
X189472828Y-28036629D01*
X189446482Y-27949075D01*
X189420836Y-27882850D01*
X189417606Y-27867771D01*
X189426351Y-27856538D01*
X189453295Y-27848591D01*
X189504662Y-27843367D01*
X189586676Y-27840303D01*
X189705561Y-27838838D01*
X189867540Y-27838410D01*
X189913083Y-27838400D01*
X190067917Y-27838746D01*
X190203878Y-27839712D01*
X190313383Y-27841190D01*
X190388849Y-27843071D01*
X190422692Y-27845245D01*
X190423801Y-27845729D01*
X190699052Y-27845729D01*
X190698570Y-27796725D01*
X190696396Y-27658060D01*
X190693658Y-27547503D01*
X190690293Y-27461811D01*
X190686242Y-27397742D01*
X190681442Y-27352055D01*
X190675832Y-27321507D01*
X190669350Y-27302858D01*
X190663286Y-27294114D01*
X190650822Y-27285934D01*
X190628563Y-27278938D01*
X190592809Y-27273034D01*
X190539859Y-27268133D01*
X190466012Y-27264144D01*
X190367569Y-27260978D01*
X190240827Y-27258544D01*
X190082087Y-27256752D01*
X189887647Y-27255511D01*
X189653807Y-27254733D01*
X189376865Y-27254326D01*
X189053122Y-27254200D01*
X187426600Y-27254200D01*
X187426600Y-27350418D01*
X187406521Y-27466335D01*
X187353475Y-27585000D01*
X187278246Y-27685991D01*
X187225994Y-27730244D01*
X187112454Y-27777370D01*
X186981500Y-27787636D01*
X186847372Y-27763918D01*
X186724310Y-27709089D01*
X186626552Y-27626023D01*
X186611200Y-27606147D01*
X186564194Y-27505428D01*
X186542561Y-27389877D01*
X186531310Y-27254199D01*
X186421970Y-27254200D01*
X186388420Y-27252977D01*
X186359069Y-27251421D01*
X186333637Y-27252699D01*
G04 #@! TD*
M02*
