G04 #@! TF.GenerationSoftware,KiCad,Pcbnew,(5.0.2-5-10.14)*
G04 #@! TF.CreationDate,2019-10-07T17:27:23-04:00*
G04 #@! TF.ProjectId,mobo,6d6f626f-2e6b-4696-9361-645f70636258,rev?*
G04 #@! TF.SameCoordinates,Original*
G04 #@! TF.FileFunction,Copper,L1,Top*
G04 #@! TF.FilePolarity,Positive*
%FSLAX46Y46*%
G04 Gerber Fmt 4.6, Leading zero omitted, Abs format (unit mm)*
G04 Created by KiCad (PCBNEW (5.0.2-5-10.14)) date Monday, October 07, 2019 at 05:27:23 PM*
%MOMM*%
%LPD*%
G01*
G04 APERTURE LIST*
G04 #@! TA.AperFunction,ComponentPad*
%ADD10R,1.600000X1.600000*%
G04 #@! TD*
G04 #@! TA.AperFunction,ComponentPad*
%ADD11O,1.600000X1.600000*%
G04 #@! TD*
G04 #@! TA.AperFunction,Conductor*
%ADD12C,0.100000*%
G04 #@! TD*
G04 #@! TA.AperFunction,SMDPad,CuDef*
%ADD13C,1.150000*%
G04 #@! TD*
G04 #@! TA.AperFunction,ComponentPad*
%ADD14C,1.600000*%
G04 #@! TD*
G04 #@! TA.AperFunction,ComponentPad*
%ADD15R,1.700000X1.700000*%
G04 #@! TD*
G04 #@! TA.AperFunction,ComponentPad*
%ADD16O,1.700000X1.700000*%
G04 #@! TD*
G04 #@! TA.AperFunction,ComponentPad*
%ADD17R,3.500000X3.500000*%
G04 #@! TD*
G04 #@! TA.AperFunction,ComponentPad*
%ADD18C,3.000000*%
G04 #@! TD*
G04 #@! TA.AperFunction,ComponentPad*
%ADD19C,3.500000*%
G04 #@! TD*
G04 #@! TA.AperFunction,SMDPad,CuDef*
%ADD20C,0.500000*%
G04 #@! TD*
G04 #@! TA.AperFunction,SMDPad,CuDef*
%ADD21R,3.800000X2.000000*%
G04 #@! TD*
G04 #@! TA.AperFunction,SMDPad,CuDef*
%ADD22R,1.500000X2.000000*%
G04 #@! TD*
G04 #@! TA.AperFunction,SMDPad,CuDef*
%ADD23R,0.550000X1.600000*%
G04 #@! TD*
G04 #@! TA.AperFunction,SMDPad,CuDef*
%ADD24R,1.600000X0.550000*%
G04 #@! TD*
G04 #@! TA.AperFunction,SMDPad,CuDef*
%ADD25R,0.400000X3.200000*%
G04 #@! TD*
G04 #@! TA.AperFunction,ViaPad*
%ADD26C,0.800000*%
G04 #@! TD*
G04 #@! TA.AperFunction,Conductor*
%ADD27C,0.300000*%
G04 #@! TD*
G04 #@! TA.AperFunction,Conductor*
%ADD28C,0.500000*%
G04 #@! TD*
G04 #@! TA.AperFunction,Conductor*
%ADD29C,1.000000*%
G04 #@! TD*
G04 #@! TA.AperFunction,Conductor*
%ADD30C,0.200000*%
G04 #@! TD*
G04 #@! TA.AperFunction,Conductor*
%ADD31C,0.254000*%
G04 #@! TD*
G04 APERTURE END LIST*
D10*
G04 #@! TO.P,A1,1*
G04 #@! TO.N,GND*
X210820000Y-91440000D03*
D11*
G04 #@! TO.P,A1,9*
G04 #@! TO.N,STP_EN*
X198120000Y-73660000D03*
G04 #@! TO.P,A1,2*
G04 #@! TO.N,Net-(A1-Pad2)*
X210820000Y-88900000D03*
G04 #@! TO.P,A1,10*
G04 #@! TO.N,Net-(A1-Pad10)*
X198120000Y-76200000D03*
G04 #@! TO.P,A1,3*
G04 #@! TO.N,Net-(A1-Pad3)*
X210820000Y-86360000D03*
G04 #@! TO.P,A1,11*
G04 #@! TO.N,Net-(A1-Pad11)*
X198120000Y-78740000D03*
G04 #@! TO.P,A1,4*
G04 #@! TO.N,Net-(A1-Pad4)*
X210820000Y-83820000D03*
G04 #@! TO.P,A1,12*
G04 #@! TO.N,Net-(A1-Pad12)*
X198120000Y-81280000D03*
G04 #@! TO.P,A1,5*
G04 #@! TO.N,Net-(A1-Pad5)*
X210820000Y-81280000D03*
G04 #@! TO.P,A1,13*
G04 #@! TO.N,+5V*
X198120000Y-83820000D03*
G04 #@! TO.P,A1,6*
G04 #@! TO.N,Net-(A1-Pad6)*
X210820000Y-78740000D03*
G04 #@! TO.P,A1,14*
G04 #@! TO.N,+5V*
X198120000Y-86360000D03*
G04 #@! TO.P,A1,7*
G04 #@! TO.N,GND*
X210820000Y-76200000D03*
G04 #@! TO.P,A1,15*
G04 #@! TO.N,V_STEP*
X198120000Y-88900000D03*
G04 #@! TO.P,A1,8*
G04 #@! TO.N,+12V*
X210820000Y-73660000D03*
G04 #@! TO.P,A1,16*
G04 #@! TO.N,V_DIR*
X198120000Y-91440000D03*
G04 #@! TD*
G04 #@! TO.P,A2,16*
G04 #@! TO.N,U_DIR*
X198120000Y-68580000D03*
G04 #@! TO.P,A2,8*
G04 #@! TO.N,+12V*
X210820000Y-50800000D03*
G04 #@! TO.P,A2,15*
G04 #@! TO.N,U_STEP*
X198120000Y-66040000D03*
G04 #@! TO.P,A2,7*
G04 #@! TO.N,GND*
X210820000Y-53340000D03*
G04 #@! TO.P,A2,14*
G04 #@! TO.N,+5V*
X198120000Y-63500000D03*
G04 #@! TO.P,A2,6*
G04 #@! TO.N,Net-(A2-Pad6)*
X210820000Y-55880000D03*
G04 #@! TO.P,A2,13*
G04 #@! TO.N,+5V*
X198120000Y-60960000D03*
G04 #@! TO.P,A2,5*
G04 #@! TO.N,Net-(A2-Pad5)*
X210820000Y-58420000D03*
G04 #@! TO.P,A2,12*
G04 #@! TO.N,Net-(A2-Pad12)*
X198120000Y-58420000D03*
G04 #@! TO.P,A2,4*
G04 #@! TO.N,Net-(A2-Pad4)*
X210820000Y-60960000D03*
G04 #@! TO.P,A2,11*
G04 #@! TO.N,Net-(A2-Pad11)*
X198120000Y-55880000D03*
G04 #@! TO.P,A2,3*
G04 #@! TO.N,Net-(A2-Pad3)*
X210820000Y-63500000D03*
G04 #@! TO.P,A2,10*
G04 #@! TO.N,Net-(A2-Pad10)*
X198120000Y-53340000D03*
G04 #@! TO.P,A2,2*
G04 #@! TO.N,Net-(A2-Pad2)*
X210820000Y-66040000D03*
G04 #@! TO.P,A2,9*
G04 #@! TO.N,STP_EN*
X198120000Y-50800000D03*
D10*
G04 #@! TO.P,A2,1*
G04 #@! TO.N,GND*
X210820000Y-68580000D03*
G04 #@! TD*
G04 #@! TO.P,A3,1*
G04 #@! TO.N,GND*
X210820000Y-45720000D03*
D11*
G04 #@! TO.P,A3,9*
G04 #@! TO.N,STP_EN*
X198120000Y-27940000D03*
G04 #@! TO.P,A3,2*
G04 #@! TO.N,Net-(A3-Pad2)*
X210820000Y-43180000D03*
G04 #@! TO.P,A3,10*
G04 #@! TO.N,Net-(A3-Pad10)*
X198120000Y-30480000D03*
G04 #@! TO.P,A3,3*
G04 #@! TO.N,Net-(A3-Pad3)*
X210820000Y-40640000D03*
G04 #@! TO.P,A3,11*
G04 #@! TO.N,Net-(A3-Pad11)*
X198120000Y-33020000D03*
G04 #@! TO.P,A3,4*
G04 #@! TO.N,Net-(A3-Pad4)*
X210820000Y-38100000D03*
G04 #@! TO.P,A3,12*
G04 #@! TO.N,Net-(A3-Pad12)*
X198120000Y-35560000D03*
G04 #@! TO.P,A3,5*
G04 #@! TO.N,Net-(A3-Pad5)*
X210820000Y-35560000D03*
G04 #@! TO.P,A3,13*
G04 #@! TO.N,+5V*
X198120000Y-38100000D03*
G04 #@! TO.P,A3,6*
G04 #@! TO.N,Net-(A3-Pad6)*
X210820000Y-33020000D03*
G04 #@! TO.P,A3,14*
G04 #@! TO.N,+5V*
X198120000Y-40640000D03*
G04 #@! TO.P,A3,7*
G04 #@! TO.N,GND*
X210820000Y-30480000D03*
G04 #@! TO.P,A3,15*
G04 #@! TO.N,X_STEP*
X198120000Y-43180000D03*
G04 #@! TO.P,A3,8*
G04 #@! TO.N,+12V*
X210820000Y-27940000D03*
G04 #@! TO.P,A3,16*
G04 #@! TO.N,X_DIR*
X198120000Y-45720000D03*
G04 #@! TD*
D12*
G04 #@! TO.N,+5V*
G04 #@! TO.C,C1*
G36*
X183238505Y-45021204D02*
X183262773Y-45024804D01*
X183286572Y-45030765D01*
X183309671Y-45039030D01*
X183331850Y-45049520D01*
X183352893Y-45062132D01*
X183372599Y-45076747D01*
X183390777Y-45093223D01*
X183407253Y-45111401D01*
X183421868Y-45131107D01*
X183434480Y-45152150D01*
X183444970Y-45174329D01*
X183453235Y-45197428D01*
X183459196Y-45221227D01*
X183462796Y-45245495D01*
X183464000Y-45269999D01*
X183464000Y-46170001D01*
X183462796Y-46194505D01*
X183459196Y-46218773D01*
X183453235Y-46242572D01*
X183444970Y-46265671D01*
X183434480Y-46287850D01*
X183421868Y-46308893D01*
X183407253Y-46328599D01*
X183390777Y-46346777D01*
X183372599Y-46363253D01*
X183352893Y-46377868D01*
X183331850Y-46390480D01*
X183309671Y-46400970D01*
X183286572Y-46409235D01*
X183262773Y-46415196D01*
X183238505Y-46418796D01*
X183214001Y-46420000D01*
X182563999Y-46420000D01*
X182539495Y-46418796D01*
X182515227Y-46415196D01*
X182491428Y-46409235D01*
X182468329Y-46400970D01*
X182446150Y-46390480D01*
X182425107Y-46377868D01*
X182405401Y-46363253D01*
X182387223Y-46346777D01*
X182370747Y-46328599D01*
X182356132Y-46308893D01*
X182343520Y-46287850D01*
X182333030Y-46265671D01*
X182324765Y-46242572D01*
X182318804Y-46218773D01*
X182315204Y-46194505D01*
X182314000Y-46170001D01*
X182314000Y-45269999D01*
X182315204Y-45245495D01*
X182318804Y-45221227D01*
X182324765Y-45197428D01*
X182333030Y-45174329D01*
X182343520Y-45152150D01*
X182356132Y-45131107D01*
X182370747Y-45111401D01*
X182387223Y-45093223D01*
X182405401Y-45076747D01*
X182425107Y-45062132D01*
X182446150Y-45049520D01*
X182468329Y-45039030D01*
X182491428Y-45030765D01*
X182515227Y-45024804D01*
X182539495Y-45021204D01*
X182563999Y-45020000D01*
X183214001Y-45020000D01*
X183238505Y-45021204D01*
X183238505Y-45021204D01*
G37*
D13*
G04 #@! TD*
G04 #@! TO.P,C1,1*
G04 #@! TO.N,+5V*
X182889000Y-45720000D03*
D12*
G04 #@! TO.N,GND*
G04 #@! TO.C,C1*
G36*
X181188505Y-45021204D02*
X181212773Y-45024804D01*
X181236572Y-45030765D01*
X181259671Y-45039030D01*
X181281850Y-45049520D01*
X181302893Y-45062132D01*
X181322599Y-45076747D01*
X181340777Y-45093223D01*
X181357253Y-45111401D01*
X181371868Y-45131107D01*
X181384480Y-45152150D01*
X181394970Y-45174329D01*
X181403235Y-45197428D01*
X181409196Y-45221227D01*
X181412796Y-45245495D01*
X181414000Y-45269999D01*
X181414000Y-46170001D01*
X181412796Y-46194505D01*
X181409196Y-46218773D01*
X181403235Y-46242572D01*
X181394970Y-46265671D01*
X181384480Y-46287850D01*
X181371868Y-46308893D01*
X181357253Y-46328599D01*
X181340777Y-46346777D01*
X181322599Y-46363253D01*
X181302893Y-46377868D01*
X181281850Y-46390480D01*
X181259671Y-46400970D01*
X181236572Y-46409235D01*
X181212773Y-46415196D01*
X181188505Y-46418796D01*
X181164001Y-46420000D01*
X180513999Y-46420000D01*
X180489495Y-46418796D01*
X180465227Y-46415196D01*
X180441428Y-46409235D01*
X180418329Y-46400970D01*
X180396150Y-46390480D01*
X180375107Y-46377868D01*
X180355401Y-46363253D01*
X180337223Y-46346777D01*
X180320747Y-46328599D01*
X180306132Y-46308893D01*
X180293520Y-46287850D01*
X180283030Y-46265671D01*
X180274765Y-46242572D01*
X180268804Y-46218773D01*
X180265204Y-46194505D01*
X180264000Y-46170001D01*
X180264000Y-45269999D01*
X180265204Y-45245495D01*
X180268804Y-45221227D01*
X180274765Y-45197428D01*
X180283030Y-45174329D01*
X180293520Y-45152150D01*
X180306132Y-45131107D01*
X180320747Y-45111401D01*
X180337223Y-45093223D01*
X180355401Y-45076747D01*
X180375107Y-45062132D01*
X180396150Y-45049520D01*
X180418329Y-45039030D01*
X180441428Y-45030765D01*
X180465227Y-45024804D01*
X180489495Y-45021204D01*
X180513999Y-45020000D01*
X181164001Y-45020000D01*
X181188505Y-45021204D01*
X181188505Y-45021204D01*
G37*
D13*
G04 #@! TD*
G04 #@! TO.P,C1,2*
G04 #@! TO.N,GND*
X180839000Y-45720000D03*
D10*
G04 #@! TO.P,C2,1*
G04 #@! TO.N,+12V*
X215900000Y-27940000D03*
D14*
G04 #@! TO.P,C2,2*
G04 #@! TO.N,GND*
X215900000Y-30440000D03*
G04 #@! TD*
G04 #@! TO.P,C3,2*
G04 #@! TO.N,GND*
X215900000Y-76160000D03*
D10*
G04 #@! TO.P,C3,1*
G04 #@! TO.N,+12V*
X215900000Y-73660000D03*
G04 #@! TD*
G04 #@! TO.P,C4,1*
G04 #@! TO.N,+12V*
X215900000Y-50800000D03*
D14*
G04 #@! TO.P,C4,2*
G04 #@! TO.N,GND*
X215900000Y-53300000D03*
G04 #@! TD*
D15*
G04 #@! TO.P,J1,1*
G04 #@! TO.N,RTS*
X170307000Y-58166000D03*
D16*
G04 #@! TO.P,J1,2*
G04 #@! TO.N,TX*
X170307000Y-55626000D03*
G04 #@! TO.P,J1,3*
G04 #@! TO.N,RX*
X170307000Y-53086000D03*
G04 #@! TO.P,J1,4*
G04 #@! TO.N,+5V*
X170307000Y-50546000D03*
G04 #@! TO.P,J1,5*
G04 #@! TO.N,CTS*
X170307000Y-48006000D03*
G04 #@! TO.P,J1,6*
G04 #@! TO.N,GND*
X170307000Y-45466000D03*
G04 #@! TD*
D17*
G04 #@! TO.P,J2,1*
G04 #@! TO.N,+12V*
X180340000Y-83185000D03*
D12*
G04 #@! TD*
G04 #@! TO.N,GND*
G04 #@! TO.C,J2*
G36*
X175163513Y-81438611D02*
X175236318Y-81449411D01*
X175307714Y-81467295D01*
X175377013Y-81492090D01*
X175443548Y-81523559D01*
X175506678Y-81561398D01*
X175565795Y-81605242D01*
X175620330Y-81654670D01*
X175669758Y-81709205D01*
X175713602Y-81768322D01*
X175751441Y-81831452D01*
X175782910Y-81897987D01*
X175807705Y-81967286D01*
X175825589Y-82038682D01*
X175836389Y-82111487D01*
X175840000Y-82185000D01*
X175840000Y-84185000D01*
X175836389Y-84258513D01*
X175825589Y-84331318D01*
X175807705Y-84402714D01*
X175782910Y-84472013D01*
X175751441Y-84538548D01*
X175713602Y-84601678D01*
X175669758Y-84660795D01*
X175620330Y-84715330D01*
X175565795Y-84764758D01*
X175506678Y-84808602D01*
X175443548Y-84846441D01*
X175377013Y-84877910D01*
X175307714Y-84902705D01*
X175236318Y-84920589D01*
X175163513Y-84931389D01*
X175090000Y-84935000D01*
X173590000Y-84935000D01*
X173516487Y-84931389D01*
X173443682Y-84920589D01*
X173372286Y-84902705D01*
X173302987Y-84877910D01*
X173236452Y-84846441D01*
X173173322Y-84808602D01*
X173114205Y-84764758D01*
X173059670Y-84715330D01*
X173010242Y-84660795D01*
X172966398Y-84601678D01*
X172928559Y-84538548D01*
X172897090Y-84472013D01*
X172872295Y-84402714D01*
X172854411Y-84331318D01*
X172843611Y-84258513D01*
X172840000Y-84185000D01*
X172840000Y-82185000D01*
X172843611Y-82111487D01*
X172854411Y-82038682D01*
X172872295Y-81967286D01*
X172897090Y-81897987D01*
X172928559Y-81831452D01*
X172966398Y-81768322D01*
X173010242Y-81709205D01*
X173059670Y-81654670D01*
X173114205Y-81605242D01*
X173173322Y-81561398D01*
X173236452Y-81523559D01*
X173302987Y-81492090D01*
X173372286Y-81467295D01*
X173443682Y-81449411D01*
X173516487Y-81438611D01*
X173590000Y-81435000D01*
X175090000Y-81435000D01*
X175163513Y-81438611D01*
X175163513Y-81438611D01*
G37*
D18*
G04 #@! TO.P,J2,2*
G04 #@! TO.N,GND*
X174340000Y-83185000D03*
D12*
G04 #@! TD*
G04 #@! TO.N,N/C*
G04 #@! TO.C,J2*
G36*
X178300765Y-86139213D02*
X178385704Y-86151813D01*
X178468999Y-86172677D01*
X178549848Y-86201605D01*
X178627472Y-86238319D01*
X178701124Y-86282464D01*
X178770094Y-86333616D01*
X178833718Y-86391282D01*
X178891384Y-86454906D01*
X178942536Y-86523876D01*
X178986681Y-86597528D01*
X179023395Y-86675152D01*
X179052323Y-86756001D01*
X179073187Y-86839296D01*
X179085787Y-86924235D01*
X179090000Y-87010000D01*
X179090000Y-88760000D01*
X179085787Y-88845765D01*
X179073187Y-88930704D01*
X179052323Y-89013999D01*
X179023395Y-89094848D01*
X178986681Y-89172472D01*
X178942536Y-89246124D01*
X178891384Y-89315094D01*
X178833718Y-89378718D01*
X178770094Y-89436384D01*
X178701124Y-89487536D01*
X178627472Y-89531681D01*
X178549848Y-89568395D01*
X178468999Y-89597323D01*
X178385704Y-89618187D01*
X178300765Y-89630787D01*
X178215000Y-89635000D01*
X176465000Y-89635000D01*
X176379235Y-89630787D01*
X176294296Y-89618187D01*
X176211001Y-89597323D01*
X176130152Y-89568395D01*
X176052528Y-89531681D01*
X175978876Y-89487536D01*
X175909906Y-89436384D01*
X175846282Y-89378718D01*
X175788616Y-89315094D01*
X175737464Y-89246124D01*
X175693319Y-89172472D01*
X175656605Y-89094848D01*
X175627677Y-89013999D01*
X175606813Y-88930704D01*
X175594213Y-88845765D01*
X175590000Y-88760000D01*
X175590000Y-87010000D01*
X175594213Y-86924235D01*
X175606813Y-86839296D01*
X175627677Y-86756001D01*
X175656605Y-86675152D01*
X175693319Y-86597528D01*
X175737464Y-86523876D01*
X175788616Y-86454906D01*
X175846282Y-86391282D01*
X175909906Y-86333616D01*
X175978876Y-86282464D01*
X176052528Y-86238319D01*
X176130152Y-86201605D01*
X176211001Y-86172677D01*
X176294296Y-86151813D01*
X176379235Y-86139213D01*
X176465000Y-86135000D01*
X178215000Y-86135000D01*
X178300765Y-86139213D01*
X178300765Y-86139213D01*
G37*
D19*
G04 #@! TO.P,J2,3*
G04 #@! TO.N,N/C*
X177340000Y-87885000D03*
G04 #@! TD*
D15*
G04 #@! TO.P,J3,1*
G04 #@! TO.N,MISO*
X175387000Y-39370000D03*
D16*
G04 #@! TO.P,J3,2*
G04 #@! TO.N,+5V*
X175387000Y-36830000D03*
G04 #@! TO.P,J3,3*
G04 #@! TO.N,SCK*
X172847000Y-39370000D03*
G04 #@! TO.P,J3,4*
G04 #@! TO.N,MOSI*
X172847000Y-36830000D03*
G04 #@! TO.P,J3,5*
G04 #@! TO.N,RESET*
X170307000Y-39370000D03*
G04 #@! TO.P,J3,6*
G04 #@! TO.N,GND*
X170307000Y-36830000D03*
G04 #@! TD*
D15*
G04 #@! TO.P,J4,1*
G04 #@! TO.N,+5V*
X181102000Y-36703000D03*
D16*
G04 #@! TO.P,J4,2*
G04 #@! TO.N,MOSI*
X183642000Y-36703000D03*
G04 #@! TO.P,J4,3*
G04 #@! TO.N,GND*
X186182000Y-36703000D03*
G04 #@! TD*
D20*
G04 #@! TO.P,JP1,1*
G04 #@! TO.N,+5V*
X192390000Y-76200000D03*
D12*
G04 #@! TD*
G04 #@! TO.N,+5V*
G04 #@! TO.C,JP1*
G36*
X192890000Y-76950000D02*
X192390000Y-76950000D01*
X192390000Y-76949398D01*
X192365466Y-76949398D01*
X192316635Y-76944588D01*
X192268510Y-76935016D01*
X192221555Y-76920772D01*
X192176222Y-76901995D01*
X192132949Y-76878864D01*
X192092150Y-76851604D01*
X192054221Y-76820476D01*
X192019524Y-76785779D01*
X191988396Y-76747850D01*
X191961136Y-76707051D01*
X191938005Y-76663778D01*
X191919228Y-76618445D01*
X191904984Y-76571490D01*
X191895412Y-76523365D01*
X191890602Y-76474534D01*
X191890602Y-76450000D01*
X191890000Y-76450000D01*
X191890000Y-75950000D01*
X191890602Y-75950000D01*
X191890602Y-75925466D01*
X191895412Y-75876635D01*
X191904984Y-75828510D01*
X191919228Y-75781555D01*
X191938005Y-75736222D01*
X191961136Y-75692949D01*
X191988396Y-75652150D01*
X192019524Y-75614221D01*
X192054221Y-75579524D01*
X192092150Y-75548396D01*
X192132949Y-75521136D01*
X192176222Y-75498005D01*
X192221555Y-75479228D01*
X192268510Y-75464984D01*
X192316635Y-75455412D01*
X192365466Y-75450602D01*
X192390000Y-75450602D01*
X192390000Y-75450000D01*
X192890000Y-75450000D01*
X192890000Y-76950000D01*
X192890000Y-76950000D01*
G37*
D20*
G04 #@! TO.P,JP1,2*
G04 #@! TO.N,Net-(A1-Pad10)*
X193690000Y-76200000D03*
D12*
G04 #@! TD*
G04 #@! TO.N,Net-(A1-Pad10)*
G04 #@! TO.C,JP1*
G36*
X193690000Y-75450602D02*
X193714534Y-75450602D01*
X193763365Y-75455412D01*
X193811490Y-75464984D01*
X193858445Y-75479228D01*
X193903778Y-75498005D01*
X193947051Y-75521136D01*
X193987850Y-75548396D01*
X194025779Y-75579524D01*
X194060476Y-75614221D01*
X194091604Y-75652150D01*
X194118864Y-75692949D01*
X194141995Y-75736222D01*
X194160772Y-75781555D01*
X194175016Y-75828510D01*
X194184588Y-75876635D01*
X194189398Y-75925466D01*
X194189398Y-75950000D01*
X194190000Y-75950000D01*
X194190000Y-76450000D01*
X194189398Y-76450000D01*
X194189398Y-76474534D01*
X194184588Y-76523365D01*
X194175016Y-76571490D01*
X194160772Y-76618445D01*
X194141995Y-76663778D01*
X194118864Y-76707051D01*
X194091604Y-76747850D01*
X194060476Y-76785779D01*
X194025779Y-76820476D01*
X193987850Y-76851604D01*
X193947051Y-76878864D01*
X193903778Y-76901995D01*
X193858445Y-76920772D01*
X193811490Y-76935016D01*
X193763365Y-76944588D01*
X193714534Y-76949398D01*
X193690000Y-76949398D01*
X193690000Y-76950000D01*
X193190000Y-76950000D01*
X193190000Y-75450000D01*
X193690000Y-75450000D01*
X193690000Y-75450602D01*
X193690000Y-75450602D01*
G37*
D20*
G04 #@! TO.P,JP2,2*
G04 #@! TO.N,Net-(A2-Pad10)*
X193690000Y-53340000D03*
D12*
G04 #@! TD*
G04 #@! TO.N,Net-(A2-Pad10)*
G04 #@! TO.C,JP2*
G36*
X193690000Y-52590602D02*
X193714534Y-52590602D01*
X193763365Y-52595412D01*
X193811490Y-52604984D01*
X193858445Y-52619228D01*
X193903778Y-52638005D01*
X193947051Y-52661136D01*
X193987850Y-52688396D01*
X194025779Y-52719524D01*
X194060476Y-52754221D01*
X194091604Y-52792150D01*
X194118864Y-52832949D01*
X194141995Y-52876222D01*
X194160772Y-52921555D01*
X194175016Y-52968510D01*
X194184588Y-53016635D01*
X194189398Y-53065466D01*
X194189398Y-53090000D01*
X194190000Y-53090000D01*
X194190000Y-53590000D01*
X194189398Y-53590000D01*
X194189398Y-53614534D01*
X194184588Y-53663365D01*
X194175016Y-53711490D01*
X194160772Y-53758445D01*
X194141995Y-53803778D01*
X194118864Y-53847051D01*
X194091604Y-53887850D01*
X194060476Y-53925779D01*
X194025779Y-53960476D01*
X193987850Y-53991604D01*
X193947051Y-54018864D01*
X193903778Y-54041995D01*
X193858445Y-54060772D01*
X193811490Y-54075016D01*
X193763365Y-54084588D01*
X193714534Y-54089398D01*
X193690000Y-54089398D01*
X193690000Y-54090000D01*
X193190000Y-54090000D01*
X193190000Y-52590000D01*
X193690000Y-52590000D01*
X193690000Y-52590602D01*
X193690000Y-52590602D01*
G37*
D20*
G04 #@! TO.P,JP2,1*
G04 #@! TO.N,+5V*
X192390000Y-53340000D03*
D12*
G04 #@! TD*
G04 #@! TO.N,+5V*
G04 #@! TO.C,JP2*
G36*
X192890000Y-54090000D02*
X192390000Y-54090000D01*
X192390000Y-54089398D01*
X192365466Y-54089398D01*
X192316635Y-54084588D01*
X192268510Y-54075016D01*
X192221555Y-54060772D01*
X192176222Y-54041995D01*
X192132949Y-54018864D01*
X192092150Y-53991604D01*
X192054221Y-53960476D01*
X192019524Y-53925779D01*
X191988396Y-53887850D01*
X191961136Y-53847051D01*
X191938005Y-53803778D01*
X191919228Y-53758445D01*
X191904984Y-53711490D01*
X191895412Y-53663365D01*
X191890602Y-53614534D01*
X191890602Y-53590000D01*
X191890000Y-53590000D01*
X191890000Y-53090000D01*
X191890602Y-53090000D01*
X191890602Y-53065466D01*
X191895412Y-53016635D01*
X191904984Y-52968510D01*
X191919228Y-52921555D01*
X191938005Y-52876222D01*
X191961136Y-52832949D01*
X191988396Y-52792150D01*
X192019524Y-52754221D01*
X192054221Y-52719524D01*
X192092150Y-52688396D01*
X192132949Y-52661136D01*
X192176222Y-52638005D01*
X192221555Y-52619228D01*
X192268510Y-52604984D01*
X192316635Y-52595412D01*
X192365466Y-52590602D01*
X192390000Y-52590602D01*
X192390000Y-52590000D01*
X192890000Y-52590000D01*
X192890000Y-54090000D01*
X192890000Y-54090000D01*
G37*
D20*
G04 #@! TO.P,JP3,1*
G04 #@! TO.N,+5V*
X192390000Y-30480000D03*
D12*
G04 #@! TD*
G04 #@! TO.N,+5V*
G04 #@! TO.C,JP3*
G36*
X192890000Y-31230000D02*
X192390000Y-31230000D01*
X192390000Y-31229398D01*
X192365466Y-31229398D01*
X192316635Y-31224588D01*
X192268510Y-31215016D01*
X192221555Y-31200772D01*
X192176222Y-31181995D01*
X192132949Y-31158864D01*
X192092150Y-31131604D01*
X192054221Y-31100476D01*
X192019524Y-31065779D01*
X191988396Y-31027850D01*
X191961136Y-30987051D01*
X191938005Y-30943778D01*
X191919228Y-30898445D01*
X191904984Y-30851490D01*
X191895412Y-30803365D01*
X191890602Y-30754534D01*
X191890602Y-30730000D01*
X191890000Y-30730000D01*
X191890000Y-30230000D01*
X191890602Y-30230000D01*
X191890602Y-30205466D01*
X191895412Y-30156635D01*
X191904984Y-30108510D01*
X191919228Y-30061555D01*
X191938005Y-30016222D01*
X191961136Y-29972949D01*
X191988396Y-29932150D01*
X192019524Y-29894221D01*
X192054221Y-29859524D01*
X192092150Y-29828396D01*
X192132949Y-29801136D01*
X192176222Y-29778005D01*
X192221555Y-29759228D01*
X192268510Y-29744984D01*
X192316635Y-29735412D01*
X192365466Y-29730602D01*
X192390000Y-29730602D01*
X192390000Y-29730000D01*
X192890000Y-29730000D01*
X192890000Y-31230000D01*
X192890000Y-31230000D01*
G37*
D20*
G04 #@! TO.P,JP3,2*
G04 #@! TO.N,Net-(A3-Pad10)*
X193690000Y-30480000D03*
D12*
G04 #@! TD*
G04 #@! TO.N,Net-(A3-Pad10)*
G04 #@! TO.C,JP3*
G36*
X193690000Y-29730602D02*
X193714534Y-29730602D01*
X193763365Y-29735412D01*
X193811490Y-29744984D01*
X193858445Y-29759228D01*
X193903778Y-29778005D01*
X193947051Y-29801136D01*
X193987850Y-29828396D01*
X194025779Y-29859524D01*
X194060476Y-29894221D01*
X194091604Y-29932150D01*
X194118864Y-29972949D01*
X194141995Y-30016222D01*
X194160772Y-30061555D01*
X194175016Y-30108510D01*
X194184588Y-30156635D01*
X194189398Y-30205466D01*
X194189398Y-30230000D01*
X194190000Y-30230000D01*
X194190000Y-30730000D01*
X194189398Y-30730000D01*
X194189398Y-30754534D01*
X194184588Y-30803365D01*
X194175016Y-30851490D01*
X194160772Y-30898445D01*
X194141995Y-30943778D01*
X194118864Y-30987051D01*
X194091604Y-31027850D01*
X194060476Y-31065779D01*
X194025779Y-31100476D01*
X193987850Y-31131604D01*
X193947051Y-31158864D01*
X193903778Y-31181995D01*
X193858445Y-31200772D01*
X193811490Y-31215016D01*
X193763365Y-31224588D01*
X193714534Y-31229398D01*
X193690000Y-31229398D01*
X193690000Y-31230000D01*
X193190000Y-31230000D01*
X193190000Y-29730000D01*
X193690000Y-29730000D01*
X193690000Y-29730602D01*
X193690000Y-29730602D01*
G37*
D20*
G04 #@! TO.P,JP4,2*
G04 #@! TO.N,Net-(A1-Pad11)*
X193690000Y-78740000D03*
D12*
G04 #@! TD*
G04 #@! TO.N,Net-(A1-Pad11)*
G04 #@! TO.C,JP4*
G36*
X193690000Y-77990602D02*
X193714534Y-77990602D01*
X193763365Y-77995412D01*
X193811490Y-78004984D01*
X193858445Y-78019228D01*
X193903778Y-78038005D01*
X193947051Y-78061136D01*
X193987850Y-78088396D01*
X194025779Y-78119524D01*
X194060476Y-78154221D01*
X194091604Y-78192150D01*
X194118864Y-78232949D01*
X194141995Y-78276222D01*
X194160772Y-78321555D01*
X194175016Y-78368510D01*
X194184588Y-78416635D01*
X194189398Y-78465466D01*
X194189398Y-78490000D01*
X194190000Y-78490000D01*
X194190000Y-78990000D01*
X194189398Y-78990000D01*
X194189398Y-79014534D01*
X194184588Y-79063365D01*
X194175016Y-79111490D01*
X194160772Y-79158445D01*
X194141995Y-79203778D01*
X194118864Y-79247051D01*
X194091604Y-79287850D01*
X194060476Y-79325779D01*
X194025779Y-79360476D01*
X193987850Y-79391604D01*
X193947051Y-79418864D01*
X193903778Y-79441995D01*
X193858445Y-79460772D01*
X193811490Y-79475016D01*
X193763365Y-79484588D01*
X193714534Y-79489398D01*
X193690000Y-79489398D01*
X193690000Y-79490000D01*
X193190000Y-79490000D01*
X193190000Y-77990000D01*
X193690000Y-77990000D01*
X193690000Y-77990602D01*
X193690000Y-77990602D01*
G37*
D20*
G04 #@! TO.P,JP4,1*
G04 #@! TO.N,+5V*
X192390000Y-78740000D03*
D12*
G04 #@! TD*
G04 #@! TO.N,+5V*
G04 #@! TO.C,JP4*
G36*
X192890000Y-79490000D02*
X192390000Y-79490000D01*
X192390000Y-79489398D01*
X192365466Y-79489398D01*
X192316635Y-79484588D01*
X192268510Y-79475016D01*
X192221555Y-79460772D01*
X192176222Y-79441995D01*
X192132949Y-79418864D01*
X192092150Y-79391604D01*
X192054221Y-79360476D01*
X192019524Y-79325779D01*
X191988396Y-79287850D01*
X191961136Y-79247051D01*
X191938005Y-79203778D01*
X191919228Y-79158445D01*
X191904984Y-79111490D01*
X191895412Y-79063365D01*
X191890602Y-79014534D01*
X191890602Y-78990000D01*
X191890000Y-78990000D01*
X191890000Y-78490000D01*
X191890602Y-78490000D01*
X191890602Y-78465466D01*
X191895412Y-78416635D01*
X191904984Y-78368510D01*
X191919228Y-78321555D01*
X191938005Y-78276222D01*
X191961136Y-78232949D01*
X191988396Y-78192150D01*
X192019524Y-78154221D01*
X192054221Y-78119524D01*
X192092150Y-78088396D01*
X192132949Y-78061136D01*
X192176222Y-78038005D01*
X192221555Y-78019228D01*
X192268510Y-78004984D01*
X192316635Y-77995412D01*
X192365466Y-77990602D01*
X192390000Y-77990602D01*
X192390000Y-77990000D01*
X192890000Y-77990000D01*
X192890000Y-79490000D01*
X192890000Y-79490000D01*
G37*
D20*
G04 #@! TO.P,JP5,1*
G04 #@! TO.N,+5V*
X192390000Y-55880000D03*
D12*
G04 #@! TD*
G04 #@! TO.N,+5V*
G04 #@! TO.C,JP5*
G36*
X192890000Y-56630000D02*
X192390000Y-56630000D01*
X192390000Y-56629398D01*
X192365466Y-56629398D01*
X192316635Y-56624588D01*
X192268510Y-56615016D01*
X192221555Y-56600772D01*
X192176222Y-56581995D01*
X192132949Y-56558864D01*
X192092150Y-56531604D01*
X192054221Y-56500476D01*
X192019524Y-56465779D01*
X191988396Y-56427850D01*
X191961136Y-56387051D01*
X191938005Y-56343778D01*
X191919228Y-56298445D01*
X191904984Y-56251490D01*
X191895412Y-56203365D01*
X191890602Y-56154534D01*
X191890602Y-56130000D01*
X191890000Y-56130000D01*
X191890000Y-55630000D01*
X191890602Y-55630000D01*
X191890602Y-55605466D01*
X191895412Y-55556635D01*
X191904984Y-55508510D01*
X191919228Y-55461555D01*
X191938005Y-55416222D01*
X191961136Y-55372949D01*
X191988396Y-55332150D01*
X192019524Y-55294221D01*
X192054221Y-55259524D01*
X192092150Y-55228396D01*
X192132949Y-55201136D01*
X192176222Y-55178005D01*
X192221555Y-55159228D01*
X192268510Y-55144984D01*
X192316635Y-55135412D01*
X192365466Y-55130602D01*
X192390000Y-55130602D01*
X192390000Y-55130000D01*
X192890000Y-55130000D01*
X192890000Y-56630000D01*
X192890000Y-56630000D01*
G37*
D20*
G04 #@! TO.P,JP5,2*
G04 #@! TO.N,Net-(A2-Pad11)*
X193690000Y-55880000D03*
D12*
G04 #@! TD*
G04 #@! TO.N,Net-(A2-Pad11)*
G04 #@! TO.C,JP5*
G36*
X193690000Y-55130602D02*
X193714534Y-55130602D01*
X193763365Y-55135412D01*
X193811490Y-55144984D01*
X193858445Y-55159228D01*
X193903778Y-55178005D01*
X193947051Y-55201136D01*
X193987850Y-55228396D01*
X194025779Y-55259524D01*
X194060476Y-55294221D01*
X194091604Y-55332150D01*
X194118864Y-55372949D01*
X194141995Y-55416222D01*
X194160772Y-55461555D01*
X194175016Y-55508510D01*
X194184588Y-55556635D01*
X194189398Y-55605466D01*
X194189398Y-55630000D01*
X194190000Y-55630000D01*
X194190000Y-56130000D01*
X194189398Y-56130000D01*
X194189398Y-56154534D01*
X194184588Y-56203365D01*
X194175016Y-56251490D01*
X194160772Y-56298445D01*
X194141995Y-56343778D01*
X194118864Y-56387051D01*
X194091604Y-56427850D01*
X194060476Y-56465779D01*
X194025779Y-56500476D01*
X193987850Y-56531604D01*
X193947051Y-56558864D01*
X193903778Y-56581995D01*
X193858445Y-56600772D01*
X193811490Y-56615016D01*
X193763365Y-56624588D01*
X193714534Y-56629398D01*
X193690000Y-56629398D01*
X193690000Y-56630000D01*
X193190000Y-56630000D01*
X193190000Y-55130000D01*
X193690000Y-55130000D01*
X193690000Y-55130602D01*
X193690000Y-55130602D01*
G37*
D20*
G04 #@! TO.P,JP6,2*
G04 #@! TO.N,Net-(A3-Pad11)*
X193690000Y-33020000D03*
D12*
G04 #@! TD*
G04 #@! TO.N,Net-(A3-Pad11)*
G04 #@! TO.C,JP6*
G36*
X193690000Y-32270602D02*
X193714534Y-32270602D01*
X193763365Y-32275412D01*
X193811490Y-32284984D01*
X193858445Y-32299228D01*
X193903778Y-32318005D01*
X193947051Y-32341136D01*
X193987850Y-32368396D01*
X194025779Y-32399524D01*
X194060476Y-32434221D01*
X194091604Y-32472150D01*
X194118864Y-32512949D01*
X194141995Y-32556222D01*
X194160772Y-32601555D01*
X194175016Y-32648510D01*
X194184588Y-32696635D01*
X194189398Y-32745466D01*
X194189398Y-32770000D01*
X194190000Y-32770000D01*
X194190000Y-33270000D01*
X194189398Y-33270000D01*
X194189398Y-33294534D01*
X194184588Y-33343365D01*
X194175016Y-33391490D01*
X194160772Y-33438445D01*
X194141995Y-33483778D01*
X194118864Y-33527051D01*
X194091604Y-33567850D01*
X194060476Y-33605779D01*
X194025779Y-33640476D01*
X193987850Y-33671604D01*
X193947051Y-33698864D01*
X193903778Y-33721995D01*
X193858445Y-33740772D01*
X193811490Y-33755016D01*
X193763365Y-33764588D01*
X193714534Y-33769398D01*
X193690000Y-33769398D01*
X193690000Y-33770000D01*
X193190000Y-33770000D01*
X193190000Y-32270000D01*
X193690000Y-32270000D01*
X193690000Y-32270602D01*
X193690000Y-32270602D01*
G37*
D20*
G04 #@! TO.P,JP6,1*
G04 #@! TO.N,+5V*
X192390000Y-33020000D03*
D12*
G04 #@! TD*
G04 #@! TO.N,+5V*
G04 #@! TO.C,JP6*
G36*
X192890000Y-33770000D02*
X192390000Y-33770000D01*
X192390000Y-33769398D01*
X192365466Y-33769398D01*
X192316635Y-33764588D01*
X192268510Y-33755016D01*
X192221555Y-33740772D01*
X192176222Y-33721995D01*
X192132949Y-33698864D01*
X192092150Y-33671604D01*
X192054221Y-33640476D01*
X192019524Y-33605779D01*
X191988396Y-33567850D01*
X191961136Y-33527051D01*
X191938005Y-33483778D01*
X191919228Y-33438445D01*
X191904984Y-33391490D01*
X191895412Y-33343365D01*
X191890602Y-33294534D01*
X191890602Y-33270000D01*
X191890000Y-33270000D01*
X191890000Y-32770000D01*
X191890602Y-32770000D01*
X191890602Y-32745466D01*
X191895412Y-32696635D01*
X191904984Y-32648510D01*
X191919228Y-32601555D01*
X191938005Y-32556222D01*
X191961136Y-32512949D01*
X191988396Y-32472150D01*
X192019524Y-32434221D01*
X192054221Y-32399524D01*
X192092150Y-32368396D01*
X192132949Y-32341136D01*
X192176222Y-32318005D01*
X192221555Y-32299228D01*
X192268510Y-32284984D01*
X192316635Y-32275412D01*
X192365466Y-32270602D01*
X192390000Y-32270602D01*
X192390000Y-32270000D01*
X192890000Y-32270000D01*
X192890000Y-33770000D01*
X192890000Y-33770000D01*
G37*
D20*
G04 #@! TO.P,JP7,1*
G04 #@! TO.N,+5V*
X192390000Y-81280000D03*
D12*
G04 #@! TD*
G04 #@! TO.N,+5V*
G04 #@! TO.C,JP7*
G36*
X192890000Y-82030000D02*
X192390000Y-82030000D01*
X192390000Y-82029398D01*
X192365466Y-82029398D01*
X192316635Y-82024588D01*
X192268510Y-82015016D01*
X192221555Y-82000772D01*
X192176222Y-81981995D01*
X192132949Y-81958864D01*
X192092150Y-81931604D01*
X192054221Y-81900476D01*
X192019524Y-81865779D01*
X191988396Y-81827850D01*
X191961136Y-81787051D01*
X191938005Y-81743778D01*
X191919228Y-81698445D01*
X191904984Y-81651490D01*
X191895412Y-81603365D01*
X191890602Y-81554534D01*
X191890602Y-81530000D01*
X191890000Y-81530000D01*
X191890000Y-81030000D01*
X191890602Y-81030000D01*
X191890602Y-81005466D01*
X191895412Y-80956635D01*
X191904984Y-80908510D01*
X191919228Y-80861555D01*
X191938005Y-80816222D01*
X191961136Y-80772949D01*
X191988396Y-80732150D01*
X192019524Y-80694221D01*
X192054221Y-80659524D01*
X192092150Y-80628396D01*
X192132949Y-80601136D01*
X192176222Y-80578005D01*
X192221555Y-80559228D01*
X192268510Y-80544984D01*
X192316635Y-80535412D01*
X192365466Y-80530602D01*
X192390000Y-80530602D01*
X192390000Y-80530000D01*
X192890000Y-80530000D01*
X192890000Y-82030000D01*
X192890000Y-82030000D01*
G37*
D20*
G04 #@! TO.P,JP7,2*
G04 #@! TO.N,Net-(A1-Pad12)*
X193690000Y-81280000D03*
D12*
G04 #@! TD*
G04 #@! TO.N,Net-(A1-Pad12)*
G04 #@! TO.C,JP7*
G36*
X193690000Y-80530602D02*
X193714534Y-80530602D01*
X193763365Y-80535412D01*
X193811490Y-80544984D01*
X193858445Y-80559228D01*
X193903778Y-80578005D01*
X193947051Y-80601136D01*
X193987850Y-80628396D01*
X194025779Y-80659524D01*
X194060476Y-80694221D01*
X194091604Y-80732150D01*
X194118864Y-80772949D01*
X194141995Y-80816222D01*
X194160772Y-80861555D01*
X194175016Y-80908510D01*
X194184588Y-80956635D01*
X194189398Y-81005466D01*
X194189398Y-81030000D01*
X194190000Y-81030000D01*
X194190000Y-81530000D01*
X194189398Y-81530000D01*
X194189398Y-81554534D01*
X194184588Y-81603365D01*
X194175016Y-81651490D01*
X194160772Y-81698445D01*
X194141995Y-81743778D01*
X194118864Y-81787051D01*
X194091604Y-81827850D01*
X194060476Y-81865779D01*
X194025779Y-81900476D01*
X193987850Y-81931604D01*
X193947051Y-81958864D01*
X193903778Y-81981995D01*
X193858445Y-82000772D01*
X193811490Y-82015016D01*
X193763365Y-82024588D01*
X193714534Y-82029398D01*
X193690000Y-82029398D01*
X193690000Y-82030000D01*
X193190000Y-82030000D01*
X193190000Y-80530000D01*
X193690000Y-80530000D01*
X193690000Y-80530602D01*
X193690000Y-80530602D01*
G37*
D20*
G04 #@! TO.P,JP8,2*
G04 #@! TO.N,Net-(A2-Pad12)*
X193690000Y-58420000D03*
D12*
G04 #@! TD*
G04 #@! TO.N,Net-(A2-Pad12)*
G04 #@! TO.C,JP8*
G36*
X193690000Y-57670602D02*
X193714534Y-57670602D01*
X193763365Y-57675412D01*
X193811490Y-57684984D01*
X193858445Y-57699228D01*
X193903778Y-57718005D01*
X193947051Y-57741136D01*
X193987850Y-57768396D01*
X194025779Y-57799524D01*
X194060476Y-57834221D01*
X194091604Y-57872150D01*
X194118864Y-57912949D01*
X194141995Y-57956222D01*
X194160772Y-58001555D01*
X194175016Y-58048510D01*
X194184588Y-58096635D01*
X194189398Y-58145466D01*
X194189398Y-58170000D01*
X194190000Y-58170000D01*
X194190000Y-58670000D01*
X194189398Y-58670000D01*
X194189398Y-58694534D01*
X194184588Y-58743365D01*
X194175016Y-58791490D01*
X194160772Y-58838445D01*
X194141995Y-58883778D01*
X194118864Y-58927051D01*
X194091604Y-58967850D01*
X194060476Y-59005779D01*
X194025779Y-59040476D01*
X193987850Y-59071604D01*
X193947051Y-59098864D01*
X193903778Y-59121995D01*
X193858445Y-59140772D01*
X193811490Y-59155016D01*
X193763365Y-59164588D01*
X193714534Y-59169398D01*
X193690000Y-59169398D01*
X193690000Y-59170000D01*
X193190000Y-59170000D01*
X193190000Y-57670000D01*
X193690000Y-57670000D01*
X193690000Y-57670602D01*
X193690000Y-57670602D01*
G37*
D20*
G04 #@! TO.P,JP8,1*
G04 #@! TO.N,+5V*
X192390000Y-58420000D03*
D12*
G04 #@! TD*
G04 #@! TO.N,+5V*
G04 #@! TO.C,JP8*
G36*
X192890000Y-59170000D02*
X192390000Y-59170000D01*
X192390000Y-59169398D01*
X192365466Y-59169398D01*
X192316635Y-59164588D01*
X192268510Y-59155016D01*
X192221555Y-59140772D01*
X192176222Y-59121995D01*
X192132949Y-59098864D01*
X192092150Y-59071604D01*
X192054221Y-59040476D01*
X192019524Y-59005779D01*
X191988396Y-58967850D01*
X191961136Y-58927051D01*
X191938005Y-58883778D01*
X191919228Y-58838445D01*
X191904984Y-58791490D01*
X191895412Y-58743365D01*
X191890602Y-58694534D01*
X191890602Y-58670000D01*
X191890000Y-58670000D01*
X191890000Y-58170000D01*
X191890602Y-58170000D01*
X191890602Y-58145466D01*
X191895412Y-58096635D01*
X191904984Y-58048510D01*
X191919228Y-58001555D01*
X191938005Y-57956222D01*
X191961136Y-57912949D01*
X191988396Y-57872150D01*
X192019524Y-57834221D01*
X192054221Y-57799524D01*
X192092150Y-57768396D01*
X192132949Y-57741136D01*
X192176222Y-57718005D01*
X192221555Y-57699228D01*
X192268510Y-57684984D01*
X192316635Y-57675412D01*
X192365466Y-57670602D01*
X192390000Y-57670602D01*
X192390000Y-57670000D01*
X192890000Y-57670000D01*
X192890000Y-59170000D01*
X192890000Y-59170000D01*
G37*
D20*
G04 #@! TO.P,JP9,1*
G04 #@! TO.N,+5V*
X192390000Y-35560000D03*
D12*
G04 #@! TD*
G04 #@! TO.N,+5V*
G04 #@! TO.C,JP9*
G36*
X192890000Y-36310000D02*
X192390000Y-36310000D01*
X192390000Y-36309398D01*
X192365466Y-36309398D01*
X192316635Y-36304588D01*
X192268510Y-36295016D01*
X192221555Y-36280772D01*
X192176222Y-36261995D01*
X192132949Y-36238864D01*
X192092150Y-36211604D01*
X192054221Y-36180476D01*
X192019524Y-36145779D01*
X191988396Y-36107850D01*
X191961136Y-36067051D01*
X191938005Y-36023778D01*
X191919228Y-35978445D01*
X191904984Y-35931490D01*
X191895412Y-35883365D01*
X191890602Y-35834534D01*
X191890602Y-35810000D01*
X191890000Y-35810000D01*
X191890000Y-35310000D01*
X191890602Y-35310000D01*
X191890602Y-35285466D01*
X191895412Y-35236635D01*
X191904984Y-35188510D01*
X191919228Y-35141555D01*
X191938005Y-35096222D01*
X191961136Y-35052949D01*
X191988396Y-35012150D01*
X192019524Y-34974221D01*
X192054221Y-34939524D01*
X192092150Y-34908396D01*
X192132949Y-34881136D01*
X192176222Y-34858005D01*
X192221555Y-34839228D01*
X192268510Y-34824984D01*
X192316635Y-34815412D01*
X192365466Y-34810602D01*
X192390000Y-34810602D01*
X192390000Y-34810000D01*
X192890000Y-34810000D01*
X192890000Y-36310000D01*
X192890000Y-36310000D01*
G37*
D20*
G04 #@! TO.P,JP9,2*
G04 #@! TO.N,Net-(A3-Pad12)*
X193690000Y-35560000D03*
D12*
G04 #@! TD*
G04 #@! TO.N,Net-(A3-Pad12)*
G04 #@! TO.C,JP9*
G36*
X193690000Y-34810602D02*
X193714534Y-34810602D01*
X193763365Y-34815412D01*
X193811490Y-34824984D01*
X193858445Y-34839228D01*
X193903778Y-34858005D01*
X193947051Y-34881136D01*
X193987850Y-34908396D01*
X194025779Y-34939524D01*
X194060476Y-34974221D01*
X194091604Y-35012150D01*
X194118864Y-35052949D01*
X194141995Y-35096222D01*
X194160772Y-35141555D01*
X194175016Y-35188510D01*
X194184588Y-35236635D01*
X194189398Y-35285466D01*
X194189398Y-35310000D01*
X194190000Y-35310000D01*
X194190000Y-35810000D01*
X194189398Y-35810000D01*
X194189398Y-35834534D01*
X194184588Y-35883365D01*
X194175016Y-35931490D01*
X194160772Y-35978445D01*
X194141995Y-36023778D01*
X194118864Y-36067051D01*
X194091604Y-36107850D01*
X194060476Y-36145779D01*
X194025779Y-36180476D01*
X193987850Y-36211604D01*
X193947051Y-36238864D01*
X193903778Y-36261995D01*
X193858445Y-36280772D01*
X193811490Y-36295016D01*
X193763365Y-36304588D01*
X193714534Y-36309398D01*
X193690000Y-36309398D01*
X193690000Y-36310000D01*
X193190000Y-36310000D01*
X193190000Y-34810000D01*
X193690000Y-34810000D01*
X193690000Y-34810602D01*
X193690000Y-34810602D01*
G37*
G04 #@! TO.N,MOSI*
G04 #@! TO.C,R1*
G36*
X183111505Y-39179204D02*
X183135773Y-39182804D01*
X183159572Y-39188765D01*
X183182671Y-39197030D01*
X183204850Y-39207520D01*
X183225893Y-39220132D01*
X183245599Y-39234747D01*
X183263777Y-39251223D01*
X183280253Y-39269401D01*
X183294868Y-39289107D01*
X183307480Y-39310150D01*
X183317970Y-39332329D01*
X183326235Y-39355428D01*
X183332196Y-39379227D01*
X183335796Y-39403495D01*
X183337000Y-39427999D01*
X183337000Y-40328001D01*
X183335796Y-40352505D01*
X183332196Y-40376773D01*
X183326235Y-40400572D01*
X183317970Y-40423671D01*
X183307480Y-40445850D01*
X183294868Y-40466893D01*
X183280253Y-40486599D01*
X183263777Y-40504777D01*
X183245599Y-40521253D01*
X183225893Y-40535868D01*
X183204850Y-40548480D01*
X183182671Y-40558970D01*
X183159572Y-40567235D01*
X183135773Y-40573196D01*
X183111505Y-40576796D01*
X183087001Y-40578000D01*
X182436999Y-40578000D01*
X182412495Y-40576796D01*
X182388227Y-40573196D01*
X182364428Y-40567235D01*
X182341329Y-40558970D01*
X182319150Y-40548480D01*
X182298107Y-40535868D01*
X182278401Y-40521253D01*
X182260223Y-40504777D01*
X182243747Y-40486599D01*
X182229132Y-40466893D01*
X182216520Y-40445850D01*
X182206030Y-40423671D01*
X182197765Y-40400572D01*
X182191804Y-40376773D01*
X182188204Y-40352505D01*
X182187000Y-40328001D01*
X182187000Y-39427999D01*
X182188204Y-39403495D01*
X182191804Y-39379227D01*
X182197765Y-39355428D01*
X182206030Y-39332329D01*
X182216520Y-39310150D01*
X182229132Y-39289107D01*
X182243747Y-39269401D01*
X182260223Y-39251223D01*
X182278401Y-39234747D01*
X182298107Y-39220132D01*
X182319150Y-39207520D01*
X182341329Y-39197030D01*
X182364428Y-39188765D01*
X182388227Y-39182804D01*
X182412495Y-39179204D01*
X182436999Y-39178000D01*
X183087001Y-39178000D01*
X183111505Y-39179204D01*
X183111505Y-39179204D01*
G37*
D13*
G04 #@! TD*
G04 #@! TO.P,R1,2*
G04 #@! TO.N,MOSI*
X182762000Y-39878000D03*
D12*
G04 #@! TO.N,+5V*
G04 #@! TO.C,R1*
G36*
X181061505Y-39179204D02*
X181085773Y-39182804D01*
X181109572Y-39188765D01*
X181132671Y-39197030D01*
X181154850Y-39207520D01*
X181175893Y-39220132D01*
X181195599Y-39234747D01*
X181213777Y-39251223D01*
X181230253Y-39269401D01*
X181244868Y-39289107D01*
X181257480Y-39310150D01*
X181267970Y-39332329D01*
X181276235Y-39355428D01*
X181282196Y-39379227D01*
X181285796Y-39403495D01*
X181287000Y-39427999D01*
X181287000Y-40328001D01*
X181285796Y-40352505D01*
X181282196Y-40376773D01*
X181276235Y-40400572D01*
X181267970Y-40423671D01*
X181257480Y-40445850D01*
X181244868Y-40466893D01*
X181230253Y-40486599D01*
X181213777Y-40504777D01*
X181195599Y-40521253D01*
X181175893Y-40535868D01*
X181154850Y-40548480D01*
X181132671Y-40558970D01*
X181109572Y-40567235D01*
X181085773Y-40573196D01*
X181061505Y-40576796D01*
X181037001Y-40578000D01*
X180386999Y-40578000D01*
X180362495Y-40576796D01*
X180338227Y-40573196D01*
X180314428Y-40567235D01*
X180291329Y-40558970D01*
X180269150Y-40548480D01*
X180248107Y-40535868D01*
X180228401Y-40521253D01*
X180210223Y-40504777D01*
X180193747Y-40486599D01*
X180179132Y-40466893D01*
X180166520Y-40445850D01*
X180156030Y-40423671D01*
X180147765Y-40400572D01*
X180141804Y-40376773D01*
X180138204Y-40352505D01*
X180137000Y-40328001D01*
X180137000Y-39427999D01*
X180138204Y-39403495D01*
X180141804Y-39379227D01*
X180147765Y-39355428D01*
X180156030Y-39332329D01*
X180166520Y-39310150D01*
X180179132Y-39289107D01*
X180193747Y-39269401D01*
X180210223Y-39251223D01*
X180228401Y-39234747D01*
X180248107Y-39220132D01*
X180269150Y-39207520D01*
X180291329Y-39197030D01*
X180314428Y-39188765D01*
X180338227Y-39182804D01*
X180362495Y-39179204D01*
X180386999Y-39178000D01*
X181037001Y-39178000D01*
X181061505Y-39179204D01*
X181061505Y-39179204D01*
G37*
D13*
G04 #@! TD*
G04 #@! TO.P,R1,1*
G04 #@! TO.N,+5V*
X180712000Y-39878000D03*
D12*
G04 #@! TO.N,GND*
G04 #@! TO.C,R2*
G36*
X186921505Y-39179204D02*
X186945773Y-39182804D01*
X186969572Y-39188765D01*
X186992671Y-39197030D01*
X187014850Y-39207520D01*
X187035893Y-39220132D01*
X187055599Y-39234747D01*
X187073777Y-39251223D01*
X187090253Y-39269401D01*
X187104868Y-39289107D01*
X187117480Y-39310150D01*
X187127970Y-39332329D01*
X187136235Y-39355428D01*
X187142196Y-39379227D01*
X187145796Y-39403495D01*
X187147000Y-39427999D01*
X187147000Y-40328001D01*
X187145796Y-40352505D01*
X187142196Y-40376773D01*
X187136235Y-40400572D01*
X187127970Y-40423671D01*
X187117480Y-40445850D01*
X187104868Y-40466893D01*
X187090253Y-40486599D01*
X187073777Y-40504777D01*
X187055599Y-40521253D01*
X187035893Y-40535868D01*
X187014850Y-40548480D01*
X186992671Y-40558970D01*
X186969572Y-40567235D01*
X186945773Y-40573196D01*
X186921505Y-40576796D01*
X186897001Y-40578000D01*
X186246999Y-40578000D01*
X186222495Y-40576796D01*
X186198227Y-40573196D01*
X186174428Y-40567235D01*
X186151329Y-40558970D01*
X186129150Y-40548480D01*
X186108107Y-40535868D01*
X186088401Y-40521253D01*
X186070223Y-40504777D01*
X186053747Y-40486599D01*
X186039132Y-40466893D01*
X186026520Y-40445850D01*
X186016030Y-40423671D01*
X186007765Y-40400572D01*
X186001804Y-40376773D01*
X185998204Y-40352505D01*
X185997000Y-40328001D01*
X185997000Y-39427999D01*
X185998204Y-39403495D01*
X186001804Y-39379227D01*
X186007765Y-39355428D01*
X186016030Y-39332329D01*
X186026520Y-39310150D01*
X186039132Y-39289107D01*
X186053747Y-39269401D01*
X186070223Y-39251223D01*
X186088401Y-39234747D01*
X186108107Y-39220132D01*
X186129150Y-39207520D01*
X186151329Y-39197030D01*
X186174428Y-39188765D01*
X186198227Y-39182804D01*
X186222495Y-39179204D01*
X186246999Y-39178000D01*
X186897001Y-39178000D01*
X186921505Y-39179204D01*
X186921505Y-39179204D01*
G37*
D13*
G04 #@! TD*
G04 #@! TO.P,R2,1*
G04 #@! TO.N,GND*
X186572000Y-39878000D03*
D12*
G04 #@! TO.N,MOSI*
G04 #@! TO.C,R2*
G36*
X184871505Y-39179204D02*
X184895773Y-39182804D01*
X184919572Y-39188765D01*
X184942671Y-39197030D01*
X184964850Y-39207520D01*
X184985893Y-39220132D01*
X185005599Y-39234747D01*
X185023777Y-39251223D01*
X185040253Y-39269401D01*
X185054868Y-39289107D01*
X185067480Y-39310150D01*
X185077970Y-39332329D01*
X185086235Y-39355428D01*
X185092196Y-39379227D01*
X185095796Y-39403495D01*
X185097000Y-39427999D01*
X185097000Y-40328001D01*
X185095796Y-40352505D01*
X185092196Y-40376773D01*
X185086235Y-40400572D01*
X185077970Y-40423671D01*
X185067480Y-40445850D01*
X185054868Y-40466893D01*
X185040253Y-40486599D01*
X185023777Y-40504777D01*
X185005599Y-40521253D01*
X184985893Y-40535868D01*
X184964850Y-40548480D01*
X184942671Y-40558970D01*
X184919572Y-40567235D01*
X184895773Y-40573196D01*
X184871505Y-40576796D01*
X184847001Y-40578000D01*
X184196999Y-40578000D01*
X184172495Y-40576796D01*
X184148227Y-40573196D01*
X184124428Y-40567235D01*
X184101329Y-40558970D01*
X184079150Y-40548480D01*
X184058107Y-40535868D01*
X184038401Y-40521253D01*
X184020223Y-40504777D01*
X184003747Y-40486599D01*
X183989132Y-40466893D01*
X183976520Y-40445850D01*
X183966030Y-40423671D01*
X183957765Y-40400572D01*
X183951804Y-40376773D01*
X183948204Y-40352505D01*
X183947000Y-40328001D01*
X183947000Y-39427999D01*
X183948204Y-39403495D01*
X183951804Y-39379227D01*
X183957765Y-39355428D01*
X183966030Y-39332329D01*
X183976520Y-39310150D01*
X183989132Y-39289107D01*
X184003747Y-39269401D01*
X184020223Y-39251223D01*
X184038401Y-39234747D01*
X184058107Y-39220132D01*
X184079150Y-39207520D01*
X184101329Y-39197030D01*
X184124428Y-39188765D01*
X184148227Y-39182804D01*
X184172495Y-39179204D01*
X184196999Y-39178000D01*
X184847001Y-39178000D01*
X184871505Y-39179204D01*
X184871505Y-39179204D01*
G37*
D13*
G04 #@! TD*
G04 #@! TO.P,R2,2*
G04 #@! TO.N,MOSI*
X184522000Y-39878000D03*
D21*
G04 #@! TO.P,U1,2*
G04 #@! TO.N,+5V*
X186055000Y-85750000D03*
D22*
X186055000Y-92050000D03*
G04 #@! TO.P,U1,3*
G04 #@! TO.N,+12V*
X188355000Y-92050000D03*
G04 #@! TO.P,U1,1*
G04 #@! TO.N,GND*
X183755000Y-92050000D03*
G04 #@! TD*
D23*
G04 #@! TO.P,U2,1*
G04 #@! TO.N,U_STEP*
X178175000Y-56955000D03*
G04 #@! TO.P,U2,2*
G04 #@! TO.N,V_STEP*
X178975000Y-56955000D03*
G04 #@! TO.P,U2,3*
G04 #@! TO.N,GND*
X179775000Y-56955000D03*
G04 #@! TO.P,U2,4*
G04 #@! TO.N,+5V*
X180575000Y-56955000D03*
G04 #@! TO.P,U2,5*
G04 #@! TO.N,GND*
X181375000Y-56955000D03*
G04 #@! TO.P,U2,6*
G04 #@! TO.N,+5V*
X182175000Y-56955000D03*
G04 #@! TO.P,U2,7*
G04 #@! TO.N,Net-(U2-Pad7)*
X182975000Y-56955000D03*
G04 #@! TO.P,U2,8*
G04 #@! TO.N,Net-(U2-Pad8)*
X183775000Y-56955000D03*
D24*
G04 #@! TO.P,U2,9*
G04 #@! TO.N,X_DIR*
X185225000Y-55505000D03*
G04 #@! TO.P,U2,10*
G04 #@! TO.N,U_DIR*
X185225000Y-54705000D03*
G04 #@! TO.P,U2,11*
G04 #@! TO.N,V_DIR*
X185225000Y-53905000D03*
G04 #@! TO.P,U2,12*
G04 #@! TO.N,STP_EN*
X185225000Y-53105000D03*
G04 #@! TO.P,U2,13*
G04 #@! TO.N,Net-(U2-Pad13)*
X185225000Y-52305000D03*
G04 #@! TO.P,U2,14*
G04 #@! TO.N,Net-(U2-Pad14)*
X185225000Y-51505000D03*
G04 #@! TO.P,U2,15*
G04 #@! TO.N,MOSI*
X185225000Y-50705000D03*
G04 #@! TO.P,U2,16*
G04 #@! TO.N,MISO*
X185225000Y-49905000D03*
D23*
G04 #@! TO.P,U2,17*
G04 #@! TO.N,SCK*
X183775000Y-48455000D03*
G04 #@! TO.P,U2,18*
G04 #@! TO.N,+5V*
X182975000Y-48455000D03*
G04 #@! TO.P,U2,19*
G04 #@! TO.N,Net-(U2-Pad19)*
X182175000Y-48455000D03*
G04 #@! TO.P,U2,20*
G04 #@! TO.N,Net-(U2-Pad20)*
X181375000Y-48455000D03*
G04 #@! TO.P,U2,21*
G04 #@! TO.N,GND*
X180575000Y-48455000D03*
G04 #@! TO.P,U2,22*
G04 #@! TO.N,Net-(U2-Pad22)*
X179775000Y-48455000D03*
G04 #@! TO.P,U2,23*
G04 #@! TO.N,Net-(U2-Pad23)*
X178975000Y-48455000D03*
G04 #@! TO.P,U2,24*
G04 #@! TO.N,Net-(U2-Pad24)*
X178175000Y-48455000D03*
D24*
G04 #@! TO.P,U2,25*
G04 #@! TO.N,Net-(U2-Pad25)*
X176725000Y-49905000D03*
G04 #@! TO.P,U2,26*
G04 #@! TO.N,Net-(U2-Pad26)*
X176725000Y-50705000D03*
G04 #@! TO.P,U2,27*
G04 #@! TO.N,SDA*
X176725000Y-51505000D03*
G04 #@! TO.P,U2,28*
G04 #@! TO.N,SCL*
X176725000Y-52305000D03*
G04 #@! TO.P,U2,29*
G04 #@! TO.N,RESET*
X176725000Y-53105000D03*
G04 #@! TO.P,U2,30*
G04 #@! TO.N,RX*
X176725000Y-53905000D03*
G04 #@! TO.P,U2,31*
G04 #@! TO.N,TX*
X176725000Y-54705000D03*
G04 #@! TO.P,U2,32*
G04 #@! TO.N,X_STEP*
X176725000Y-55505000D03*
G04 #@! TD*
D25*
G04 #@! TO.P,Y1,1*
G04 #@! TO.N,Net-(U2-Pad8)*
X184588000Y-60833000D03*
G04 #@! TO.P,Y1,2*
G04 #@! TO.N,GND*
X183388000Y-60833000D03*
G04 #@! TO.P,Y1,3*
G04 #@! TO.N,Net-(U2-Pad7)*
X182188000Y-60833000D03*
G04 #@! TD*
D15*
G04 #@! TO.P,J5,1*
G04 #@! TO.N,Net-(A1-Pad3)*
X215900000Y-87630000D03*
D16*
G04 #@! TO.P,J5,2*
G04 #@! TO.N,Net-(A1-Pad4)*
X215900000Y-85090000D03*
G04 #@! TO.P,J5,3*
G04 #@! TO.N,Net-(A1-Pad5)*
X215900000Y-82550000D03*
G04 #@! TO.P,J5,4*
G04 #@! TO.N,Net-(A1-Pad6)*
X215900000Y-80010000D03*
G04 #@! TD*
G04 #@! TO.P,J6,4*
G04 #@! TO.N,Net-(A2-Pad6)*
X215900000Y-57150000D03*
G04 #@! TO.P,J6,3*
G04 #@! TO.N,Net-(A2-Pad5)*
X215900000Y-59690000D03*
G04 #@! TO.P,J6,2*
G04 #@! TO.N,Net-(A2-Pad4)*
X215900000Y-62230000D03*
D15*
G04 #@! TO.P,J6,1*
G04 #@! TO.N,Net-(A2-Pad3)*
X215900000Y-64770000D03*
G04 #@! TD*
G04 #@! TO.P,J7,1*
G04 #@! TO.N,Net-(A3-Pad3)*
X215900000Y-41910000D03*
D16*
G04 #@! TO.P,J7,2*
G04 #@! TO.N,Net-(A3-Pad4)*
X215900000Y-39370000D03*
G04 #@! TO.P,J7,3*
G04 #@! TO.N,Net-(A3-Pad5)*
X215900000Y-36830000D03*
G04 #@! TO.P,J7,4*
G04 #@! TO.N,Net-(A3-Pad6)*
X215900000Y-34290000D03*
G04 #@! TD*
D26*
G04 #@! TO.N,GND*
X180594000Y-58801000D03*
X183388000Y-63119000D03*
X179451000Y-45847000D03*
G04 #@! TO.N,+5V*
X182245000Y-55245000D03*
X182880000Y-50165000D03*
X186055000Y-84074000D03*
X185039000Y-84074000D03*
X187071000Y-84074000D03*
X186055000Y-93726000D03*
G04 #@! TO.N,+12V*
X189865000Y-94615000D03*
X206375000Y-94615000D03*
G04 #@! TO.N,V_DIR*
X194818000Y-67183000D03*
X194818000Y-91440000D03*
G04 #@! TO.N,U_STEP*
X178181000Y-66040000D03*
G04 #@! TO.N,X_STEP*
X178435000Y-50165000D03*
G04 #@! TO.N,X_DIR*
X186944000Y-55499000D03*
G04 #@! TD*
D27*
G04 #@! TO.N,GND*
X181375000Y-58020000D02*
X180594000Y-58801000D01*
X181375000Y-56955000D02*
X181375000Y-58020000D01*
X179775000Y-57982000D02*
X180594000Y-58801000D01*
X179775000Y-56955000D02*
X179775000Y-57982000D01*
X183388000Y-60833000D02*
X183388000Y-63119000D01*
X180575000Y-45984000D02*
X180575000Y-48455000D01*
X180839000Y-45720000D02*
X180575000Y-45984000D01*
X179578000Y-45720000D02*
X179451000Y-45847000D01*
X180839000Y-45720000D02*
X179578000Y-45720000D01*
D28*
G04 #@! TO.N,STP_EN*
X198120000Y-27940000D02*
X200025000Y-27940000D01*
X200025000Y-27940000D02*
X201295000Y-29210000D01*
X198120000Y-50800000D02*
X201295000Y-50800000D01*
X201295000Y-29210000D02*
X201295000Y-50800000D01*
X200025000Y-73660000D02*
X201295000Y-72390000D01*
X201295000Y-50800000D02*
X201295000Y-72390000D01*
X200025000Y-73660000D02*
X198120000Y-73660000D01*
D27*
X185225000Y-53105000D02*
X186925000Y-53105000D01*
X186925000Y-53105000D02*
X189230000Y-50800000D01*
X189230000Y-50800000D02*
X198120000Y-50800000D01*
D28*
G04 #@! TO.N,Net-(A1-Pad10)*
X193690000Y-76200000D02*
X198120000Y-76200000D01*
D29*
G04 #@! TO.N,Net-(A1-Pad3)*
X215900000Y-87630000D02*
X213360000Y-87630000D01*
X213360000Y-87630000D02*
X212090000Y-86360000D01*
X212090000Y-86360000D02*
X210820000Y-86360000D01*
D28*
G04 #@! TO.N,Net-(A1-Pad11)*
X193690000Y-78740000D02*
X198120000Y-78740000D01*
D29*
G04 #@! TO.N,Net-(A1-Pad4)*
X215900000Y-85090000D02*
X213995000Y-85090000D01*
X213995000Y-85090000D02*
X212725000Y-83820000D01*
X212725000Y-83820000D02*
X210820000Y-83820000D01*
D28*
G04 #@! TO.N,Net-(A1-Pad12)*
X193690000Y-81280000D02*
X198120000Y-81280000D01*
D29*
G04 #@! TO.N,Net-(A1-Pad5)*
X215900000Y-82550000D02*
X214630000Y-82550000D01*
X214630000Y-82550000D02*
X213360000Y-81280000D01*
X213360000Y-81280000D02*
X210820000Y-81280000D01*
D28*
G04 #@! TO.N,+5V*
X192390000Y-76200000D02*
X192390000Y-78740000D01*
X192390000Y-78740000D02*
X192390000Y-81280000D01*
X192390000Y-81280000D02*
X192390000Y-83170000D01*
X193040000Y-83820000D02*
X198120000Y-83820000D01*
X192390000Y-83170000D02*
X193040000Y-83820000D01*
X192390000Y-53340000D02*
X192390000Y-55880000D01*
X192390000Y-55880000D02*
X192390000Y-58420000D01*
X192390000Y-58420000D02*
X192390000Y-59675000D01*
X192390000Y-59675000D02*
X192405000Y-59690000D01*
X192405000Y-59690000D02*
X192405000Y-60325000D01*
X192405000Y-60325000D02*
X193040000Y-60960000D01*
X193040000Y-60960000D02*
X198120000Y-60960000D01*
X192390000Y-30480000D02*
X192390000Y-33020000D01*
X192390000Y-33020000D02*
X192390000Y-35560000D01*
X192390000Y-35560000D02*
X192390000Y-37450000D01*
X192390000Y-37450000D02*
X193040000Y-38100000D01*
X193040000Y-38100000D02*
X198120000Y-38100000D01*
X180712000Y-37093000D02*
X181102000Y-36703000D01*
X180712000Y-39878000D02*
X180712000Y-37093000D01*
D27*
X182975000Y-45806000D02*
X182889000Y-45720000D01*
X182975000Y-48455000D02*
X182975000Y-45806000D01*
X182175000Y-55315000D02*
X182245000Y-55245000D01*
X182175000Y-56955000D02*
X182175000Y-55315000D01*
X182975000Y-50070000D02*
X182880000Y-50165000D01*
X182975000Y-48455000D02*
X182975000Y-50070000D01*
X180575000Y-56955000D02*
X180575000Y-55645000D01*
X180975000Y-55245000D02*
X182245000Y-55245000D01*
X180575000Y-55645000D02*
X180975000Y-55245000D01*
D28*
X186055000Y-85750000D02*
X186055000Y-84074000D01*
X186055000Y-85750000D02*
X186055000Y-85725000D01*
X185039000Y-84709000D02*
X185039000Y-84074000D01*
X186055000Y-85725000D02*
X185039000Y-84709000D01*
X187071000Y-84709000D02*
X187071000Y-84074000D01*
X186055000Y-85725000D02*
X187071000Y-84709000D01*
X186055000Y-92050000D02*
X186055000Y-93726000D01*
D29*
G04 #@! TO.N,Net-(A1-Pad6)*
X214630000Y-78740000D02*
X210820000Y-78740000D01*
X215900000Y-80010000D02*
X214630000Y-78740000D01*
D27*
G04 #@! TO.N,V_STEP*
X178975000Y-58928000D02*
X178975000Y-56955000D01*
X179959000Y-64770000D02*
X179959000Y-59912000D01*
X190119000Y-74930000D02*
X179959000Y-64770000D01*
X179959000Y-59912000D02*
X178975000Y-58928000D01*
X198120000Y-88900000D02*
X194691000Y-88900000D01*
X190119000Y-84328000D02*
X190119000Y-74930000D01*
X194691000Y-88900000D02*
X190119000Y-84328000D01*
D29*
G04 #@! TO.N,+12V*
X210820000Y-50800000D02*
X207645000Y-50800000D01*
X210820000Y-73660000D02*
X207645000Y-73660000D01*
X207645000Y-50800000D02*
X207645000Y-73660000D01*
X207645000Y-50800000D02*
X207645000Y-29337000D01*
X207645000Y-29337000D02*
X209042000Y-27940000D01*
X209042000Y-27940000D02*
X210820000Y-27940000D01*
X210820000Y-73660000D02*
X215900000Y-73660000D01*
X210820000Y-50800000D02*
X215900000Y-50800000D01*
X210820000Y-27940000D02*
X214757000Y-27940000D01*
X214757000Y-27940000D02*
X215900000Y-27940000D01*
X188355000Y-89930000D02*
X188355000Y-92050000D01*
X183515000Y-88900000D02*
X187325000Y-88900000D01*
X180340000Y-85725000D02*
X183515000Y-88900000D01*
X187325000Y-88900000D02*
X188355000Y-89930000D01*
X188355000Y-93105000D02*
X188355000Y-92050000D01*
X206375000Y-94615000D02*
X189865000Y-94615000D01*
X189865000Y-94615000D02*
X188355000Y-93105000D01*
X207645000Y-93345000D02*
X206375000Y-94615000D01*
X207645000Y-73660000D02*
X207645000Y-93345000D01*
X180340000Y-85725000D02*
X180340000Y-83185000D01*
D27*
G04 #@! TO.N,V_DIR*
X185225000Y-53905000D02*
X188779000Y-53905000D01*
X188779000Y-53905000D02*
X190246000Y-55372000D01*
X190246000Y-55372000D02*
X190246000Y-62611000D01*
X190246000Y-62611000D02*
X194818000Y-67183000D01*
X194818000Y-91440000D02*
X198120000Y-91440000D01*
G04 #@! TO.N,U_DIR*
X185225000Y-54705000D02*
X187801000Y-54705000D01*
X187801000Y-54705000D02*
X188341000Y-55245000D01*
X188341000Y-55245000D02*
X188341000Y-64643000D01*
X192278000Y-68580000D02*
X198120000Y-68580000D01*
X188341000Y-64643000D02*
X192278000Y-68580000D01*
G04 #@! TO.N,U_STEP*
X178175000Y-65272000D02*
X178175000Y-56955000D01*
X178181000Y-66040000D02*
X178175000Y-65272000D01*
D29*
G04 #@! TO.N,Net-(A2-Pad6)*
X214630000Y-55880000D02*
X210820000Y-55880000D01*
X215900000Y-57150000D02*
X214630000Y-55880000D01*
G04 #@! TO.N,Net-(A2-Pad5)*
X215900000Y-59690000D02*
X214630000Y-59690000D01*
X214630000Y-59690000D02*
X213360000Y-58420000D01*
X213360000Y-58420000D02*
X210820000Y-58420000D01*
D28*
G04 #@! TO.N,Net-(A2-Pad12)*
X193690000Y-58420000D02*
X198120000Y-58420000D01*
D29*
G04 #@! TO.N,Net-(A2-Pad4)*
X215900000Y-62230000D02*
X213995000Y-62230000D01*
X213995000Y-62230000D02*
X212725000Y-60960000D01*
X212725000Y-60960000D02*
X210820000Y-60960000D01*
D28*
G04 #@! TO.N,Net-(A2-Pad11)*
X193690000Y-55880000D02*
X198120000Y-55880000D01*
D29*
G04 #@! TO.N,Net-(A2-Pad3)*
X215900000Y-64770000D02*
X213360000Y-64770000D01*
X213360000Y-64770000D02*
X212090000Y-63500000D01*
X212090000Y-63500000D02*
X210820000Y-63500000D01*
D28*
G04 #@! TO.N,Net-(A2-Pad10)*
X193690000Y-53340000D02*
X198120000Y-53340000D01*
G04 #@! TO.N,Net-(A3-Pad10)*
X193690000Y-30480000D02*
X198120000Y-30480000D01*
D29*
G04 #@! TO.N,Net-(A3-Pad3)*
X215900000Y-41910000D02*
X213360000Y-41910000D01*
X213360000Y-41910000D02*
X212090000Y-40640000D01*
X212090000Y-40640000D02*
X210820000Y-40640000D01*
D28*
G04 #@! TO.N,Net-(A3-Pad11)*
X193690000Y-33020000D02*
X198120000Y-33020000D01*
D29*
G04 #@! TO.N,Net-(A3-Pad4)*
X215900000Y-39370000D02*
X213995000Y-39370000D01*
X213995000Y-39370000D02*
X212725000Y-38100000D01*
X212725000Y-38100000D02*
X210820000Y-38100000D01*
D28*
G04 #@! TO.N,Net-(A3-Pad12)*
X193690000Y-35560000D02*
X198120000Y-35560000D01*
D29*
G04 #@! TO.N,Net-(A3-Pad5)*
X215900000Y-36830000D02*
X214630000Y-36830000D01*
X214630000Y-36830000D02*
X213360000Y-35560000D01*
X213360000Y-35560000D02*
X210820000Y-35560000D01*
G04 #@! TO.N,Net-(A3-Pad6)*
X214630000Y-33020000D02*
X210820000Y-33020000D01*
X215900000Y-34290000D02*
X214630000Y-33020000D01*
D27*
G04 #@! TO.N,X_STEP*
X178435000Y-54895000D02*
X178435000Y-50165000D01*
X177825000Y-55505000D02*
X178435000Y-54895000D01*
X176725000Y-55505000D02*
X177825000Y-55505000D01*
G04 #@! TO.N,X_DIR*
X186938000Y-55505000D02*
X186944000Y-55499000D01*
X185225000Y-55505000D02*
X186938000Y-55505000D01*
G04 #@! TO.N,TX*
X171228000Y-54705000D02*
X170307000Y-55626000D01*
X176725000Y-54705000D02*
X171228000Y-54705000D01*
G04 #@! TO.N,RX*
X171126000Y-53905000D02*
X170307000Y-53086000D01*
X176725000Y-53905000D02*
X171126000Y-53905000D01*
G04 #@! TO.N,MISO*
X185225000Y-49330000D02*
X185225000Y-49905000D01*
X185225000Y-49330000D02*
X186182000Y-48373000D01*
X186182000Y-48373000D02*
X186182000Y-43688000D01*
X186182000Y-43688000D02*
X184658000Y-42164000D01*
X184658000Y-42164000D02*
X176784000Y-42164000D01*
X175387000Y-40767000D02*
X175387000Y-39370000D01*
X176784000Y-42164000D02*
X175387000Y-40767000D01*
G04 #@! TO.N,SCK*
X184023000Y-43688000D02*
X174498000Y-43688000D01*
X184658000Y-44323000D02*
X184023000Y-43688000D01*
X184658000Y-48147000D02*
X184658000Y-44323000D01*
X172847000Y-42037000D02*
X172847000Y-39370000D01*
X174498000Y-43688000D02*
X172847000Y-42037000D01*
X184350000Y-48455000D02*
X184658000Y-48147000D01*
X183775000Y-48455000D02*
X184350000Y-48455000D01*
D28*
G04 #@! TO.N,MOSI*
X183642000Y-36703000D02*
X183642000Y-39878000D01*
X183642000Y-39878000D02*
X182762000Y-39878000D01*
X184522000Y-39878000D02*
X183642000Y-39878000D01*
D27*
X185225000Y-50705000D02*
X186325000Y-50705000D01*
X187881000Y-43237000D02*
X187706000Y-43062000D01*
X187706000Y-43062000D02*
X184522000Y-39878000D01*
X187881000Y-49149000D02*
X187881000Y-43237000D01*
X186325000Y-50705000D02*
X187881000Y-49149000D01*
X172847000Y-35627919D02*
X172847000Y-36830000D01*
X173355000Y-35119919D02*
X172847000Y-35627919D01*
X183134000Y-35119919D02*
X173355000Y-35119919D01*
X183642000Y-35627919D02*
X183134000Y-35119919D01*
X183642000Y-36703000D02*
X183642000Y-35627919D01*
G04 #@! TO.N,RESET*
X176725000Y-53105000D02*
X175406000Y-53105000D01*
X175406000Y-53105000D02*
X175006000Y-52705000D01*
X175006000Y-46101000D02*
X170307000Y-41402000D01*
X170307000Y-41402000D02*
X170307000Y-39370000D01*
X175006000Y-52705000D02*
X175006000Y-46101000D01*
D30*
G04 #@! TO.N,Net-(U2-Pad7)*
X182188000Y-59433000D02*
X182188000Y-60833000D01*
X182975000Y-58646000D02*
X182188000Y-59433000D01*
X182975000Y-56955000D02*
X182975000Y-58646000D01*
G04 #@! TO.N,Net-(U2-Pad8)*
X183775000Y-57480000D02*
X183769000Y-57486000D01*
X183775000Y-56955000D02*
X183775000Y-57480000D01*
X183769000Y-57486000D02*
X183769000Y-58674000D01*
X184588000Y-59433000D02*
X184588000Y-60833000D01*
X183829000Y-58674000D02*
X184588000Y-59433000D01*
X183769000Y-58674000D02*
X183829000Y-58674000D01*
G04 #@! TD*
D31*
G04 #@! TO.N,GND*
G36*
X220245001Y-95785000D02*
X167105000Y-95785000D01*
X167105000Y-92743451D01*
X167442158Y-92743451D01*
X167561594Y-93510527D01*
X167891521Y-94213250D01*
X168405418Y-94795127D01*
X169061972Y-95209382D01*
X169808405Y-95422713D01*
X170584709Y-95417971D01*
X171328479Y-95195536D01*
X171979924Y-94773291D01*
X172486673Y-94185179D01*
X172807991Y-93478478D01*
X172918046Y-92710000D01*
X172917229Y-92643104D01*
X172865520Y-92335750D01*
X182370000Y-92335750D01*
X182370000Y-93176309D01*
X182466673Y-93409698D01*
X182645301Y-93588327D01*
X182878690Y-93685000D01*
X183469250Y-93685000D01*
X183628000Y-93526250D01*
X183628000Y-92177000D01*
X182528750Y-92177000D01*
X182370000Y-92335750D01*
X172865520Y-92335750D01*
X172788431Y-91877543D01*
X172449943Y-91178904D01*
X172218936Y-90923691D01*
X182370000Y-90923691D01*
X182370000Y-91764250D01*
X182528750Y-91923000D01*
X183628000Y-91923000D01*
X183628000Y-90573750D01*
X183469250Y-90415000D01*
X182878690Y-90415000D01*
X182645301Y-90511673D01*
X182466673Y-90690302D01*
X182370000Y-90923691D01*
X172218936Y-90923691D01*
X171928976Y-90603349D01*
X171267409Y-90197146D01*
X170518427Y-89992950D01*
X169742238Y-90007175D01*
X169001241Y-90238680D01*
X168355003Y-90668852D01*
X167855476Y-91263112D01*
X167542817Y-91973685D01*
X167442158Y-92743451D01*
X167105000Y-92743451D01*
X167105000Y-87010000D01*
X174942560Y-87010000D01*
X174942560Y-88760000D01*
X175058449Y-89342613D01*
X175388472Y-89836528D01*
X175882387Y-90166551D01*
X176465000Y-90282440D01*
X178215000Y-90282440D01*
X178797613Y-90166551D01*
X179291528Y-89836528D01*
X179621551Y-89342613D01*
X179737440Y-88760000D01*
X179737440Y-87010000D01*
X179667312Y-86657443D01*
X182633389Y-89623521D01*
X182696711Y-89718289D01*
X183013559Y-89930000D01*
X183072145Y-89969146D01*
X183514999Y-90057235D01*
X183626782Y-90035000D01*
X186854869Y-90035000D01*
X187220000Y-90400132D01*
X187220000Y-90543541D01*
X187205000Y-90553564D01*
X187052765Y-90451843D01*
X186805000Y-90402560D01*
X185305000Y-90402560D01*
X185057235Y-90451843D01*
X184905953Y-90552927D01*
X184864699Y-90511673D01*
X184631310Y-90415000D01*
X184040750Y-90415000D01*
X183882000Y-90573750D01*
X183882000Y-91923000D01*
X183902000Y-91923000D01*
X183902000Y-92177000D01*
X183882000Y-92177000D01*
X183882000Y-93526250D01*
X184040750Y-93685000D01*
X184631310Y-93685000D01*
X184864699Y-93588327D01*
X184905953Y-93547073D01*
X185020000Y-93623277D01*
X185020000Y-93931874D01*
X185177569Y-94312280D01*
X185468720Y-94603431D01*
X185849126Y-94761000D01*
X186260874Y-94761000D01*
X186641280Y-94603431D01*
X186932431Y-94312280D01*
X187090000Y-93931874D01*
X187090000Y-93623277D01*
X187205000Y-93546436D01*
X187349357Y-93642893D01*
X187536711Y-93923289D01*
X187631481Y-93986613D01*
X188983391Y-95338524D01*
X189046711Y-95433289D01*
X189422145Y-95684146D01*
X189753217Y-95750000D01*
X189864999Y-95772235D01*
X189976781Y-95750000D01*
X206263217Y-95750000D01*
X206375000Y-95772235D01*
X206486783Y-95750000D01*
X206817855Y-95684146D01*
X207193289Y-95433289D01*
X207256613Y-95338518D01*
X208368521Y-94226611D01*
X208463289Y-94163289D01*
X208714146Y-93787855D01*
X208751345Y-93600844D01*
X208802235Y-93345001D01*
X208780000Y-93233218D01*
X208780000Y-91725750D01*
X209385000Y-91725750D01*
X209385000Y-92366310D01*
X209481673Y-92599699D01*
X209660302Y-92778327D01*
X209893691Y-92875000D01*
X210534250Y-92875000D01*
X210693000Y-92716250D01*
X210693000Y-91567000D01*
X210947000Y-91567000D01*
X210947000Y-92716250D01*
X211105750Y-92875000D01*
X211746309Y-92875000D01*
X211979698Y-92778327D01*
X212015833Y-92742192D01*
X214535197Y-92742192D01*
X214650137Y-93480399D01*
X214967648Y-94156675D01*
X215462204Y-94716653D01*
X216094049Y-95115318D01*
X216812389Y-95320621D01*
X217559478Y-95316057D01*
X218275256Y-95101994D01*
X218902184Y-94695640D01*
X219389862Y-94129661D01*
X219699087Y-93449557D01*
X219805000Y-92710000D01*
X219804213Y-92645621D01*
X219680263Y-91908873D01*
X219354514Y-91236527D01*
X218853153Y-90682632D01*
X218216485Y-90291717D01*
X217495690Y-90095205D01*
X216748713Y-90108896D01*
X216035603Y-90331688D01*
X215413687Y-90745671D01*
X214932960Y-91317565D01*
X214632067Y-92001396D01*
X214535197Y-92742192D01*
X212015833Y-92742192D01*
X212158327Y-92599699D01*
X212255000Y-92366310D01*
X212255000Y-91725750D01*
X212096250Y-91567000D01*
X210947000Y-91567000D01*
X210693000Y-91567000D01*
X209543750Y-91567000D01*
X209385000Y-91725750D01*
X208780000Y-91725750D01*
X208780000Y-78740000D01*
X209356887Y-78740000D01*
X209468260Y-79299909D01*
X209785423Y-79774577D01*
X210137758Y-80010000D01*
X209785423Y-80245423D01*
X209468260Y-80720091D01*
X209356887Y-81280000D01*
X209468260Y-81839909D01*
X209785423Y-82314577D01*
X210137758Y-82550000D01*
X209785423Y-82785423D01*
X209468260Y-83260091D01*
X209356887Y-83820000D01*
X209468260Y-84379909D01*
X209785423Y-84854577D01*
X210137758Y-85090000D01*
X209785423Y-85325423D01*
X209468260Y-85800091D01*
X209356887Y-86360000D01*
X209468260Y-86919909D01*
X209785423Y-87394577D01*
X210137758Y-87630000D01*
X209785423Y-87865423D01*
X209468260Y-88340091D01*
X209356887Y-88900000D01*
X209468260Y-89459909D01*
X209785423Y-89934577D01*
X209891918Y-90005735D01*
X209660302Y-90101673D01*
X209481673Y-90280301D01*
X209385000Y-90513690D01*
X209385000Y-91154250D01*
X209543750Y-91313000D01*
X210693000Y-91313000D01*
X210693000Y-91293000D01*
X210947000Y-91293000D01*
X210947000Y-91313000D01*
X212096250Y-91313000D01*
X212255000Y-91154250D01*
X212255000Y-90513690D01*
X212158327Y-90280301D01*
X211979698Y-90101673D01*
X211748082Y-90005735D01*
X211854577Y-89934577D01*
X212171740Y-89459909D01*
X212283113Y-88900000D01*
X212171740Y-88340091D01*
X211854577Y-87865423D01*
X211502242Y-87630000D01*
X211653680Y-87528812D01*
X212478389Y-88353521D01*
X212541711Y-88448289D01*
X212917145Y-88699146D01*
X213359999Y-88787235D01*
X213471782Y-88765000D01*
X214476723Y-88765000D01*
X214592191Y-88937809D01*
X214802235Y-89078157D01*
X215050000Y-89127440D01*
X216750000Y-89127440D01*
X216997765Y-89078157D01*
X217207809Y-88937809D01*
X217348157Y-88727765D01*
X217397440Y-88480000D01*
X217397440Y-86780000D01*
X217348157Y-86532235D01*
X217207809Y-86322191D01*
X216997765Y-86181843D01*
X216952381Y-86172816D01*
X216970625Y-86160625D01*
X217298839Y-85669418D01*
X217414092Y-85090000D01*
X217298839Y-84510582D01*
X216970625Y-84019375D01*
X216672239Y-83820000D01*
X216970625Y-83620625D01*
X217298839Y-83129418D01*
X217414092Y-82550000D01*
X217298839Y-81970582D01*
X216970625Y-81479375D01*
X216672239Y-81280000D01*
X216970625Y-81080625D01*
X217298839Y-80589418D01*
X217414092Y-80010000D01*
X217298839Y-79430582D01*
X216970625Y-78939375D01*
X216479418Y-78611161D01*
X216046256Y-78525000D01*
X216020131Y-78525000D01*
X215511613Y-78016482D01*
X215448289Y-77921711D01*
X215072855Y-77670854D01*
X214741783Y-77605000D01*
X214630000Y-77582765D01*
X214518217Y-77605000D01*
X211704283Y-77605000D01*
X211470892Y-77449053D01*
X211675134Y-77352389D01*
X211842398Y-77167745D01*
X215071861Y-77167745D01*
X215145995Y-77413864D01*
X215683223Y-77606965D01*
X216253454Y-77579778D01*
X216654005Y-77413864D01*
X216728139Y-77167745D01*
X215900000Y-76339605D01*
X215071861Y-77167745D01*
X211842398Y-77167745D01*
X212051041Y-76937423D01*
X212211904Y-76549039D01*
X212089915Y-76327000D01*
X210947000Y-76327000D01*
X210947000Y-76347000D01*
X210693000Y-76347000D01*
X210693000Y-76327000D01*
X209550085Y-76327000D01*
X209428096Y-76549039D01*
X209588959Y-76937423D01*
X209964866Y-77352389D01*
X210169108Y-77449053D01*
X209785423Y-77705423D01*
X209468260Y-78180091D01*
X209356887Y-78740000D01*
X208780000Y-78740000D01*
X208780000Y-74795000D01*
X209935717Y-74795000D01*
X210169108Y-74950947D01*
X209964866Y-75047611D01*
X209588959Y-75462577D01*
X209428096Y-75850961D01*
X209550085Y-76073000D01*
X210693000Y-76073000D01*
X210693000Y-76053000D01*
X210947000Y-76053000D01*
X210947000Y-76073000D01*
X212089915Y-76073000D01*
X212161214Y-75943223D01*
X214453035Y-75943223D01*
X214480222Y-76513454D01*
X214646136Y-76914005D01*
X214892255Y-76988139D01*
X215720395Y-76160000D01*
X216079605Y-76160000D01*
X216907745Y-76988139D01*
X217153864Y-76914005D01*
X217346965Y-76376777D01*
X217319778Y-75806546D01*
X217153864Y-75405995D01*
X216907745Y-75331861D01*
X216079605Y-76160000D01*
X215720395Y-76160000D01*
X214892255Y-75331861D01*
X214646136Y-75405995D01*
X214453035Y-75943223D01*
X212161214Y-75943223D01*
X212211904Y-75850961D01*
X212051041Y-75462577D01*
X211675134Y-75047611D01*
X211470892Y-74950947D01*
X211704283Y-74795000D01*
X214560132Y-74795000D01*
X214642191Y-74917809D01*
X214852235Y-75058157D01*
X215086187Y-75104693D01*
X215071861Y-75152255D01*
X215900000Y-75980395D01*
X216728139Y-75152255D01*
X216713813Y-75104693D01*
X216947765Y-75058157D01*
X217157809Y-74917809D01*
X217298157Y-74707765D01*
X217347440Y-74460000D01*
X217347440Y-72860000D01*
X217298157Y-72612235D01*
X217157809Y-72402191D01*
X216947765Y-72261843D01*
X216700000Y-72212560D01*
X215100000Y-72212560D01*
X214852235Y-72261843D01*
X214642191Y-72402191D01*
X214560132Y-72525000D01*
X211704283Y-72525000D01*
X211379909Y-72308260D01*
X210961333Y-72225000D01*
X210678667Y-72225000D01*
X210260091Y-72308260D01*
X209935717Y-72525000D01*
X208780000Y-72525000D01*
X208780000Y-68865750D01*
X209385000Y-68865750D01*
X209385000Y-69506310D01*
X209481673Y-69739699D01*
X209660302Y-69918327D01*
X209893691Y-70015000D01*
X210534250Y-70015000D01*
X210693000Y-69856250D01*
X210693000Y-68707000D01*
X210947000Y-68707000D01*
X210947000Y-69856250D01*
X211105750Y-70015000D01*
X211746309Y-70015000D01*
X211979698Y-69918327D01*
X212158327Y-69739699D01*
X212255000Y-69506310D01*
X212255000Y-68865750D01*
X212096250Y-68707000D01*
X210947000Y-68707000D01*
X210693000Y-68707000D01*
X209543750Y-68707000D01*
X209385000Y-68865750D01*
X208780000Y-68865750D01*
X208780000Y-55880000D01*
X209356887Y-55880000D01*
X209468260Y-56439909D01*
X209785423Y-56914577D01*
X210137758Y-57150000D01*
X209785423Y-57385423D01*
X209468260Y-57860091D01*
X209356887Y-58420000D01*
X209468260Y-58979909D01*
X209785423Y-59454577D01*
X210137758Y-59690000D01*
X209785423Y-59925423D01*
X209468260Y-60400091D01*
X209356887Y-60960000D01*
X209468260Y-61519909D01*
X209785423Y-61994577D01*
X210137758Y-62230000D01*
X209785423Y-62465423D01*
X209468260Y-62940091D01*
X209356887Y-63500000D01*
X209468260Y-64059909D01*
X209785423Y-64534577D01*
X210137758Y-64770000D01*
X209785423Y-65005423D01*
X209468260Y-65480091D01*
X209356887Y-66040000D01*
X209468260Y-66599909D01*
X209785423Y-67074577D01*
X209891918Y-67145735D01*
X209660302Y-67241673D01*
X209481673Y-67420301D01*
X209385000Y-67653690D01*
X209385000Y-68294250D01*
X209543750Y-68453000D01*
X210693000Y-68453000D01*
X210693000Y-68433000D01*
X210947000Y-68433000D01*
X210947000Y-68453000D01*
X212096250Y-68453000D01*
X212255000Y-68294250D01*
X212255000Y-67653690D01*
X212158327Y-67420301D01*
X211979698Y-67241673D01*
X211748082Y-67145735D01*
X211854577Y-67074577D01*
X212171740Y-66599909D01*
X212283113Y-66040000D01*
X212171740Y-65480091D01*
X211854577Y-65005423D01*
X211502242Y-64770000D01*
X211653680Y-64668812D01*
X212478389Y-65493521D01*
X212541711Y-65588289D01*
X212909632Y-65834126D01*
X212917145Y-65839146D01*
X213359999Y-65927235D01*
X213471782Y-65905000D01*
X214476723Y-65905000D01*
X214592191Y-66077809D01*
X214802235Y-66218157D01*
X215050000Y-66267440D01*
X216750000Y-66267440D01*
X216997765Y-66218157D01*
X217207809Y-66077809D01*
X217348157Y-65867765D01*
X217397440Y-65620000D01*
X217397440Y-63920000D01*
X217348157Y-63672235D01*
X217207809Y-63462191D01*
X216997765Y-63321843D01*
X216952381Y-63312816D01*
X216970625Y-63300625D01*
X217298839Y-62809418D01*
X217414092Y-62230000D01*
X217298839Y-61650582D01*
X216970625Y-61159375D01*
X216672239Y-60960000D01*
X216970625Y-60760625D01*
X217298839Y-60269418D01*
X217414092Y-59690000D01*
X217298839Y-59110582D01*
X216970625Y-58619375D01*
X216672239Y-58420000D01*
X216970625Y-58220625D01*
X217298839Y-57729418D01*
X217414092Y-57150000D01*
X217298839Y-56570582D01*
X216970625Y-56079375D01*
X216479418Y-55751161D01*
X216046256Y-55665000D01*
X216020131Y-55665000D01*
X215511613Y-55156482D01*
X215448289Y-55061711D01*
X215072855Y-54810854D01*
X214741783Y-54745000D01*
X214630000Y-54722765D01*
X214518217Y-54745000D01*
X211704283Y-54745000D01*
X211470892Y-54589053D01*
X211675134Y-54492389D01*
X211842398Y-54307745D01*
X215071861Y-54307745D01*
X215145995Y-54553864D01*
X215683223Y-54746965D01*
X216253454Y-54719778D01*
X216654005Y-54553864D01*
X216728139Y-54307745D01*
X215900000Y-53479605D01*
X215071861Y-54307745D01*
X211842398Y-54307745D01*
X212051041Y-54077423D01*
X212211904Y-53689039D01*
X212089915Y-53467000D01*
X210947000Y-53467000D01*
X210947000Y-53487000D01*
X210693000Y-53487000D01*
X210693000Y-53467000D01*
X209550085Y-53467000D01*
X209428096Y-53689039D01*
X209588959Y-54077423D01*
X209964866Y-54492389D01*
X210169108Y-54589053D01*
X209785423Y-54845423D01*
X209468260Y-55320091D01*
X209356887Y-55880000D01*
X208780000Y-55880000D01*
X208780000Y-51935000D01*
X209935717Y-51935000D01*
X210169108Y-52090947D01*
X209964866Y-52187611D01*
X209588959Y-52602577D01*
X209428096Y-52990961D01*
X209550085Y-53213000D01*
X210693000Y-53213000D01*
X210693000Y-53193000D01*
X210947000Y-53193000D01*
X210947000Y-53213000D01*
X212089915Y-53213000D01*
X212161214Y-53083223D01*
X214453035Y-53083223D01*
X214480222Y-53653454D01*
X214646136Y-54054005D01*
X214892255Y-54128139D01*
X215720395Y-53300000D01*
X216079605Y-53300000D01*
X216907745Y-54128139D01*
X217153864Y-54054005D01*
X217346965Y-53516777D01*
X217319778Y-52946546D01*
X217153864Y-52545995D01*
X216907745Y-52471861D01*
X216079605Y-53300000D01*
X215720395Y-53300000D01*
X214892255Y-52471861D01*
X214646136Y-52545995D01*
X214453035Y-53083223D01*
X212161214Y-53083223D01*
X212211904Y-52990961D01*
X212051041Y-52602577D01*
X211675134Y-52187611D01*
X211470892Y-52090947D01*
X211704283Y-51935000D01*
X214560132Y-51935000D01*
X214642191Y-52057809D01*
X214852235Y-52198157D01*
X215086187Y-52244693D01*
X215071861Y-52292255D01*
X215900000Y-53120395D01*
X216728139Y-52292255D01*
X216713813Y-52244693D01*
X216947765Y-52198157D01*
X217157809Y-52057809D01*
X217298157Y-51847765D01*
X217347440Y-51600000D01*
X217347440Y-50000000D01*
X217298157Y-49752235D01*
X217157809Y-49542191D01*
X216947765Y-49401843D01*
X216700000Y-49352560D01*
X215100000Y-49352560D01*
X214852235Y-49401843D01*
X214642191Y-49542191D01*
X214560132Y-49665000D01*
X211704283Y-49665000D01*
X211379909Y-49448260D01*
X210961333Y-49365000D01*
X210678667Y-49365000D01*
X210260091Y-49448260D01*
X209935717Y-49665000D01*
X208780000Y-49665000D01*
X208780000Y-46005750D01*
X209385000Y-46005750D01*
X209385000Y-46646310D01*
X209481673Y-46879699D01*
X209660302Y-47058327D01*
X209893691Y-47155000D01*
X210534250Y-47155000D01*
X210693000Y-46996250D01*
X210693000Y-45847000D01*
X210947000Y-45847000D01*
X210947000Y-46996250D01*
X211105750Y-47155000D01*
X211746309Y-47155000D01*
X211979698Y-47058327D01*
X212158327Y-46879699D01*
X212255000Y-46646310D01*
X212255000Y-46005750D01*
X212096250Y-45847000D01*
X210947000Y-45847000D01*
X210693000Y-45847000D01*
X209543750Y-45847000D01*
X209385000Y-46005750D01*
X208780000Y-46005750D01*
X208780000Y-33020000D01*
X209356887Y-33020000D01*
X209468260Y-33579909D01*
X209785423Y-34054577D01*
X210137758Y-34290000D01*
X209785423Y-34525423D01*
X209468260Y-35000091D01*
X209356887Y-35560000D01*
X209468260Y-36119909D01*
X209785423Y-36594577D01*
X210137758Y-36830000D01*
X209785423Y-37065423D01*
X209468260Y-37540091D01*
X209356887Y-38100000D01*
X209468260Y-38659909D01*
X209785423Y-39134577D01*
X210137758Y-39370000D01*
X209785423Y-39605423D01*
X209468260Y-40080091D01*
X209356887Y-40640000D01*
X209468260Y-41199909D01*
X209785423Y-41674577D01*
X210137758Y-41910000D01*
X209785423Y-42145423D01*
X209468260Y-42620091D01*
X209356887Y-43180000D01*
X209468260Y-43739909D01*
X209785423Y-44214577D01*
X209891918Y-44285735D01*
X209660302Y-44381673D01*
X209481673Y-44560301D01*
X209385000Y-44793690D01*
X209385000Y-45434250D01*
X209543750Y-45593000D01*
X210693000Y-45593000D01*
X210693000Y-45573000D01*
X210947000Y-45573000D01*
X210947000Y-45593000D01*
X212096250Y-45593000D01*
X212255000Y-45434250D01*
X212255000Y-44793690D01*
X212158327Y-44560301D01*
X211979698Y-44381673D01*
X211748082Y-44285735D01*
X211854577Y-44214577D01*
X212171740Y-43739909D01*
X212283113Y-43180000D01*
X212171740Y-42620091D01*
X211854577Y-42145423D01*
X211502242Y-41910000D01*
X211653680Y-41808812D01*
X212478389Y-42633521D01*
X212541711Y-42728289D01*
X212895043Y-42964378D01*
X212917145Y-42979146D01*
X213359999Y-43067235D01*
X213471782Y-43045000D01*
X214476723Y-43045000D01*
X214592191Y-43217809D01*
X214802235Y-43358157D01*
X215050000Y-43407440D01*
X216750000Y-43407440D01*
X216997765Y-43358157D01*
X217207809Y-43217809D01*
X217348157Y-43007765D01*
X217397440Y-42760000D01*
X217397440Y-41060000D01*
X217348157Y-40812235D01*
X217207809Y-40602191D01*
X216997765Y-40461843D01*
X216952381Y-40452816D01*
X216970625Y-40440625D01*
X217298839Y-39949418D01*
X217414092Y-39370000D01*
X217298839Y-38790582D01*
X216970625Y-38299375D01*
X216672239Y-38100000D01*
X216970625Y-37900625D01*
X217298839Y-37409418D01*
X217414092Y-36830000D01*
X217298839Y-36250582D01*
X216970625Y-35759375D01*
X216672239Y-35560000D01*
X216970625Y-35360625D01*
X217298839Y-34869418D01*
X217414092Y-34290000D01*
X217298839Y-33710582D01*
X216970625Y-33219375D01*
X216479418Y-32891161D01*
X216046256Y-32805000D01*
X216020131Y-32805000D01*
X215511613Y-32296482D01*
X215448289Y-32201711D01*
X215072855Y-31950854D01*
X214741783Y-31885000D01*
X214630000Y-31862765D01*
X214518217Y-31885000D01*
X211704283Y-31885000D01*
X211470892Y-31729053D01*
X211675134Y-31632389D01*
X211842398Y-31447745D01*
X215071861Y-31447745D01*
X215145995Y-31693864D01*
X215683223Y-31886965D01*
X216253454Y-31859778D01*
X216654005Y-31693864D01*
X216728139Y-31447745D01*
X215900000Y-30619605D01*
X215071861Y-31447745D01*
X211842398Y-31447745D01*
X212051041Y-31217423D01*
X212211904Y-30829039D01*
X212089915Y-30607000D01*
X210947000Y-30607000D01*
X210947000Y-30627000D01*
X210693000Y-30627000D01*
X210693000Y-30607000D01*
X209550085Y-30607000D01*
X209428096Y-30829039D01*
X209588959Y-31217423D01*
X209964866Y-31632389D01*
X210169108Y-31729053D01*
X209785423Y-31985423D01*
X209468260Y-32460091D01*
X209356887Y-33020000D01*
X208780000Y-33020000D01*
X208780000Y-29807131D01*
X209512132Y-29075000D01*
X209935717Y-29075000D01*
X210169108Y-29230947D01*
X209964866Y-29327611D01*
X209588959Y-29742577D01*
X209428096Y-30130961D01*
X209550085Y-30353000D01*
X210693000Y-30353000D01*
X210693000Y-30333000D01*
X210947000Y-30333000D01*
X210947000Y-30353000D01*
X212089915Y-30353000D01*
X212161214Y-30223223D01*
X214453035Y-30223223D01*
X214480222Y-30793454D01*
X214646136Y-31194005D01*
X214892255Y-31268139D01*
X215720395Y-30440000D01*
X216079605Y-30440000D01*
X216907745Y-31268139D01*
X217153864Y-31194005D01*
X217346965Y-30656777D01*
X217319778Y-30086546D01*
X217153864Y-29685995D01*
X216907745Y-29611861D01*
X216079605Y-30440000D01*
X215720395Y-30440000D01*
X214892255Y-29611861D01*
X214646136Y-29685995D01*
X214453035Y-30223223D01*
X212161214Y-30223223D01*
X212211904Y-30130961D01*
X212051041Y-29742577D01*
X211675134Y-29327611D01*
X211470892Y-29230947D01*
X211704283Y-29075000D01*
X214560132Y-29075000D01*
X214642191Y-29197809D01*
X214852235Y-29338157D01*
X215086187Y-29384693D01*
X215071861Y-29432255D01*
X215900000Y-30260395D01*
X216728139Y-29432255D01*
X216713813Y-29384693D01*
X216947765Y-29338157D01*
X217157809Y-29197809D01*
X217298157Y-28987765D01*
X217347440Y-28740000D01*
X217347440Y-27140000D01*
X217298157Y-26892235D01*
X217157809Y-26682191D01*
X216947765Y-26541843D01*
X216700000Y-26492560D01*
X215100000Y-26492560D01*
X214852235Y-26541843D01*
X214642191Y-26682191D01*
X214560132Y-26805000D01*
X211704283Y-26805000D01*
X211379909Y-26588260D01*
X210961333Y-26505000D01*
X210678667Y-26505000D01*
X210260091Y-26588260D01*
X209935717Y-26805000D01*
X209153781Y-26805000D01*
X209041999Y-26782765D01*
X208930217Y-26805000D01*
X208599145Y-26870854D01*
X208223711Y-27121711D01*
X208160389Y-27216479D01*
X206921480Y-28455389D01*
X206826712Y-28518711D01*
X206666631Y-28758289D01*
X206575854Y-28894146D01*
X206487765Y-29337000D01*
X206510001Y-29448788D01*
X206510000Y-50688217D01*
X206487765Y-50800000D01*
X206510000Y-50911782D01*
X206510001Y-73548212D01*
X206487765Y-73660000D01*
X206510000Y-73771783D01*
X206510001Y-92874867D01*
X205904869Y-93480000D01*
X190335133Y-93480000D01*
X189752440Y-92897308D01*
X189752440Y-91050000D01*
X189703157Y-90802235D01*
X189562809Y-90592191D01*
X189490000Y-90543541D01*
X189490000Y-90041783D01*
X189512235Y-89930000D01*
X189424146Y-89487145D01*
X189327734Y-89342855D01*
X189173289Y-89111711D01*
X189078521Y-89048389D01*
X188206613Y-88176481D01*
X188143289Y-88081711D01*
X187767855Y-87830854D01*
X187436783Y-87765000D01*
X187325000Y-87742765D01*
X187213217Y-87765000D01*
X183985132Y-87765000D01*
X181802571Y-85582440D01*
X182090000Y-85582440D01*
X182337765Y-85533157D01*
X182547809Y-85392809D01*
X182688157Y-85182765D01*
X182737440Y-84935000D01*
X182737440Y-84750000D01*
X183507560Y-84750000D01*
X183507560Y-86750000D01*
X183556843Y-86997765D01*
X183697191Y-87207809D01*
X183907235Y-87348157D01*
X184155000Y-87397440D01*
X187955000Y-87397440D01*
X188202765Y-87348157D01*
X188412809Y-87207809D01*
X188553157Y-86997765D01*
X188602440Y-86750000D01*
X188602440Y-84750000D01*
X188553157Y-84502235D01*
X188412809Y-84292191D01*
X188202765Y-84151843D01*
X188106000Y-84132595D01*
X188106000Y-83868126D01*
X187948431Y-83487720D01*
X187657280Y-83196569D01*
X187276874Y-83039000D01*
X186865126Y-83039000D01*
X186563000Y-83164144D01*
X186260874Y-83039000D01*
X185849126Y-83039000D01*
X185547000Y-83164144D01*
X185244874Y-83039000D01*
X184833126Y-83039000D01*
X184452720Y-83196569D01*
X184161569Y-83487720D01*
X184004000Y-83868126D01*
X184004000Y-84132595D01*
X183907235Y-84151843D01*
X183697191Y-84292191D01*
X183556843Y-84502235D01*
X183507560Y-84750000D01*
X182737440Y-84750000D01*
X182737440Y-81435000D01*
X182688157Y-81187235D01*
X182547809Y-80977191D01*
X182337765Y-80836843D01*
X182090000Y-80787560D01*
X178590000Y-80787560D01*
X178342235Y-80836843D01*
X178132191Y-80977191D01*
X177991843Y-81187235D01*
X177942560Y-81435000D01*
X177942560Y-84935000D01*
X177991843Y-85182765D01*
X178132191Y-85392809D01*
X178299001Y-85504269D01*
X178215000Y-85487560D01*
X176465000Y-85487560D01*
X175882387Y-85603449D01*
X175388472Y-85933472D01*
X175058449Y-86427387D01*
X174942560Y-87010000D01*
X167105000Y-87010000D01*
X167105000Y-83470750D01*
X172205000Y-83470750D01*
X172205000Y-85061310D01*
X172301673Y-85294699D01*
X172480302Y-85473327D01*
X172713691Y-85570000D01*
X174054250Y-85570000D01*
X174213000Y-85411250D01*
X174213000Y-83312000D01*
X174467000Y-83312000D01*
X174467000Y-85411250D01*
X174625750Y-85570000D01*
X175966309Y-85570000D01*
X176199698Y-85473327D01*
X176378327Y-85294699D01*
X176475000Y-85061310D01*
X176475000Y-83470750D01*
X176316250Y-83312000D01*
X174467000Y-83312000D01*
X174213000Y-83312000D01*
X172363750Y-83312000D01*
X172205000Y-83470750D01*
X167105000Y-83470750D01*
X167105000Y-81308690D01*
X172205000Y-81308690D01*
X172205000Y-82899250D01*
X172363750Y-83058000D01*
X174213000Y-83058000D01*
X174213000Y-80958750D01*
X174467000Y-80958750D01*
X174467000Y-83058000D01*
X176316250Y-83058000D01*
X176475000Y-82899250D01*
X176475000Y-81308690D01*
X176378327Y-81075301D01*
X176199698Y-80896673D01*
X175966309Y-80800000D01*
X174625750Y-80800000D01*
X174467000Y-80958750D01*
X174213000Y-80958750D01*
X174054250Y-80800000D01*
X172713691Y-80800000D01*
X172480302Y-80896673D01*
X172301673Y-81075301D01*
X172205000Y-81308690D01*
X167105000Y-81308690D01*
X167105000Y-45109110D01*
X168865524Y-45109110D01*
X168986845Y-45339000D01*
X170180000Y-45339000D01*
X170180000Y-44145181D01*
X170434000Y-44145181D01*
X170434000Y-45339000D01*
X171627155Y-45339000D01*
X171748476Y-45109110D01*
X171578645Y-44699076D01*
X171188358Y-44270817D01*
X170663892Y-44024514D01*
X170434000Y-44145181D01*
X170180000Y-44145181D01*
X169950108Y-44024514D01*
X169425642Y-44270817D01*
X169035355Y-44699076D01*
X168865524Y-45109110D01*
X167105000Y-45109110D01*
X167105000Y-39370000D01*
X168792908Y-39370000D01*
X168908161Y-39949418D01*
X169236375Y-40440625D01*
X169522000Y-40631474D01*
X169522000Y-41324688D01*
X169506622Y-41402000D01*
X169522000Y-41479312D01*
X169522000Y-41479315D01*
X169567546Y-41708291D01*
X169741047Y-41967953D01*
X169806592Y-42011749D01*
X174221001Y-46426158D01*
X174221000Y-52627688D01*
X174205622Y-52705000D01*
X174221000Y-52782312D01*
X174221000Y-52782315D01*
X174260831Y-52982560D01*
X174266546Y-53011291D01*
X174339183Y-53120000D01*
X171814329Y-53120000D01*
X171821092Y-53086000D01*
X171705839Y-52506582D01*
X171377625Y-52015375D01*
X171079239Y-51816000D01*
X171377625Y-51616625D01*
X171705839Y-51125418D01*
X171821092Y-50546000D01*
X171705839Y-49966582D01*
X171377625Y-49475375D01*
X171079239Y-49276000D01*
X171377625Y-49076625D01*
X171705839Y-48585418D01*
X171821092Y-48006000D01*
X171705839Y-47426582D01*
X171377625Y-46935375D01*
X171058522Y-46722157D01*
X171188358Y-46661183D01*
X171578645Y-46232924D01*
X171748476Y-45822890D01*
X171627155Y-45593000D01*
X170434000Y-45593000D01*
X170434000Y-45613000D01*
X170180000Y-45613000D01*
X170180000Y-45593000D01*
X168986845Y-45593000D01*
X168865524Y-45822890D01*
X169035355Y-46232924D01*
X169425642Y-46661183D01*
X169555478Y-46722157D01*
X169236375Y-46935375D01*
X168908161Y-47426582D01*
X168792908Y-48006000D01*
X168908161Y-48585418D01*
X169236375Y-49076625D01*
X169534761Y-49276000D01*
X169236375Y-49475375D01*
X168908161Y-49966582D01*
X168792908Y-50546000D01*
X168908161Y-51125418D01*
X169236375Y-51616625D01*
X169534761Y-51816000D01*
X169236375Y-52015375D01*
X168908161Y-52506582D01*
X168792908Y-53086000D01*
X168908161Y-53665418D01*
X169236375Y-54156625D01*
X169534761Y-54356000D01*
X169236375Y-54555375D01*
X168908161Y-55046582D01*
X168792908Y-55626000D01*
X168908161Y-56205418D01*
X169236375Y-56696625D01*
X169254619Y-56708816D01*
X169209235Y-56717843D01*
X168999191Y-56858191D01*
X168858843Y-57068235D01*
X168809560Y-57316000D01*
X168809560Y-59016000D01*
X168858843Y-59263765D01*
X168999191Y-59473809D01*
X169209235Y-59614157D01*
X169457000Y-59663440D01*
X171157000Y-59663440D01*
X171404765Y-59614157D01*
X171614809Y-59473809D01*
X171755157Y-59263765D01*
X171804440Y-59016000D01*
X171804440Y-57316000D01*
X171755157Y-57068235D01*
X171614809Y-56858191D01*
X171404765Y-56717843D01*
X171359381Y-56708816D01*
X171377625Y-56696625D01*
X171705839Y-56205418D01*
X171821092Y-55626000D01*
X171794040Y-55490000D01*
X175277560Y-55490000D01*
X175277560Y-55780000D01*
X175326843Y-56027765D01*
X175467191Y-56237809D01*
X175677235Y-56378157D01*
X175925000Y-56427440D01*
X177252560Y-56427440D01*
X177252560Y-57755000D01*
X177301843Y-58002765D01*
X177390001Y-58134702D01*
X177390000Y-65197779D01*
X177389420Y-65200819D01*
X177390000Y-65275060D01*
X177390000Y-65349315D01*
X177390604Y-65352351D01*
X177390715Y-65366574D01*
X177303569Y-65453720D01*
X177146000Y-65834126D01*
X177146000Y-66245874D01*
X177303569Y-66626280D01*
X177594720Y-66917431D01*
X177975126Y-67075000D01*
X178386874Y-67075000D01*
X178767280Y-66917431D01*
X179058431Y-66626280D01*
X179216000Y-66245874D01*
X179216000Y-65834126D01*
X179058431Y-65453720D01*
X178960680Y-65355969D01*
X178960000Y-65268938D01*
X178960000Y-60023158D01*
X179174001Y-60237159D01*
X179174000Y-64692688D01*
X179158622Y-64770000D01*
X179174000Y-64847312D01*
X179174000Y-64847315D01*
X179219546Y-65076291D01*
X179393047Y-65335953D01*
X179458592Y-65379749D01*
X189334001Y-75255159D01*
X189334000Y-84250688D01*
X189318622Y-84328000D01*
X189334000Y-84405312D01*
X189334000Y-84405315D01*
X189379546Y-84634291D01*
X189553047Y-84893953D01*
X189618592Y-84937749D01*
X194081253Y-89400411D01*
X194125047Y-89465953D01*
X194190589Y-89509747D01*
X194190591Y-89509749D01*
X194317746Y-89594711D01*
X194384708Y-89639454D01*
X194613684Y-89685000D01*
X194613688Y-89685000D01*
X194690999Y-89700378D01*
X194768310Y-89685000D01*
X196918661Y-89685000D01*
X197085423Y-89934577D01*
X197437758Y-90170000D01*
X197085423Y-90405423D01*
X196918661Y-90655000D01*
X195496711Y-90655000D01*
X195404280Y-90562569D01*
X195023874Y-90405000D01*
X194612126Y-90405000D01*
X194231720Y-90562569D01*
X193940569Y-90853720D01*
X193783000Y-91234126D01*
X193783000Y-91645874D01*
X193940569Y-92026280D01*
X194231720Y-92317431D01*
X194612126Y-92475000D01*
X195023874Y-92475000D01*
X195404280Y-92317431D01*
X195496711Y-92225000D01*
X196918661Y-92225000D01*
X197085423Y-92474577D01*
X197560091Y-92791740D01*
X197978667Y-92875000D01*
X198261333Y-92875000D01*
X198679909Y-92791740D01*
X199154577Y-92474577D01*
X199471740Y-91999909D01*
X199583113Y-91440000D01*
X199471740Y-90880091D01*
X199154577Y-90405423D01*
X198802242Y-90170000D01*
X199154577Y-89934577D01*
X199471740Y-89459909D01*
X199583113Y-88900000D01*
X199471740Y-88340091D01*
X199154577Y-87865423D01*
X198802242Y-87630000D01*
X199154577Y-87394577D01*
X199471740Y-86919909D01*
X199583113Y-86360000D01*
X199471740Y-85800091D01*
X199154577Y-85325423D01*
X198802242Y-85090000D01*
X199154577Y-84854577D01*
X199471740Y-84379909D01*
X199583113Y-83820000D01*
X199471740Y-83260091D01*
X199154577Y-82785423D01*
X198802242Y-82550000D01*
X199154577Y-82314577D01*
X199471740Y-81839909D01*
X199583113Y-81280000D01*
X199471740Y-80720091D01*
X199154577Y-80245423D01*
X198802242Y-80010000D01*
X199154577Y-79774577D01*
X199471740Y-79299909D01*
X199583113Y-78740000D01*
X199471740Y-78180091D01*
X199154577Y-77705423D01*
X198802242Y-77470000D01*
X199154577Y-77234577D01*
X199471740Y-76759909D01*
X199583113Y-76200000D01*
X199471740Y-75640091D01*
X199154577Y-75165423D01*
X198802242Y-74930000D01*
X199154577Y-74694577D01*
X199254521Y-74545000D01*
X199937839Y-74545000D01*
X200025000Y-74562337D01*
X200112161Y-74545000D01*
X200112165Y-74545000D01*
X200370310Y-74493652D01*
X200663049Y-74298049D01*
X200712425Y-74224153D01*
X201859156Y-73077423D01*
X201933049Y-73028049D01*
X202128652Y-72735310D01*
X202180000Y-72477165D01*
X202180000Y-72477161D01*
X202197337Y-72390001D01*
X202180000Y-72302841D01*
X202180000Y-50887165D01*
X202197338Y-50800000D01*
X202180000Y-50712835D01*
X202180000Y-29297159D01*
X202197337Y-29209999D01*
X202180000Y-29122839D01*
X202180000Y-29122835D01*
X202128652Y-28864690D01*
X202032982Y-28721511D01*
X201982424Y-28645845D01*
X201982423Y-28645844D01*
X201933049Y-28571951D01*
X201859156Y-28522577D01*
X200712425Y-27375847D01*
X200663049Y-27301951D01*
X200370310Y-27106348D01*
X200112165Y-27055000D01*
X200112161Y-27055000D01*
X200025000Y-27037663D01*
X199937839Y-27055000D01*
X199254521Y-27055000D01*
X199154577Y-26905423D01*
X198679909Y-26588260D01*
X198261333Y-26505000D01*
X197978667Y-26505000D01*
X197560091Y-26588260D01*
X197085423Y-26905423D01*
X196768260Y-27380091D01*
X196656887Y-27940000D01*
X196768260Y-28499909D01*
X197085423Y-28974577D01*
X197437758Y-29210000D01*
X197085423Y-29445423D01*
X196985479Y-29595000D01*
X194642825Y-29595000D01*
X194614831Y-29553104D01*
X194534314Y-29454994D01*
X194465006Y-29385686D01*
X194366896Y-29305169D01*
X194285397Y-29250713D01*
X194173460Y-29190881D01*
X194082904Y-29153372D01*
X193961451Y-29116530D01*
X193865318Y-29097408D01*
X193739009Y-29084968D01*
X193702106Y-29084968D01*
X193690000Y-29082560D01*
X193190000Y-29082560D01*
X193040000Y-29112397D01*
X192890000Y-29082560D01*
X192390000Y-29082560D01*
X192377894Y-29084968D01*
X192340991Y-29084968D01*
X192214682Y-29097408D01*
X192118549Y-29116530D01*
X191997096Y-29153372D01*
X191906540Y-29190881D01*
X191794603Y-29250713D01*
X191713104Y-29305169D01*
X191614994Y-29385686D01*
X191545686Y-29454994D01*
X191465169Y-29553104D01*
X191410713Y-29634603D01*
X191350881Y-29746540D01*
X191313372Y-29837096D01*
X191276530Y-29958549D01*
X191257408Y-30054682D01*
X191244968Y-30180991D01*
X191244968Y-30217894D01*
X191242560Y-30230000D01*
X191242560Y-30730000D01*
X191244968Y-30742106D01*
X191244968Y-30779009D01*
X191257408Y-30905318D01*
X191276530Y-31001451D01*
X191313372Y-31122904D01*
X191350881Y-31213460D01*
X191410713Y-31325397D01*
X191465169Y-31406896D01*
X191505000Y-31455431D01*
X191505001Y-32044569D01*
X191465169Y-32093104D01*
X191410713Y-32174603D01*
X191350881Y-32286540D01*
X191313372Y-32377096D01*
X191276530Y-32498549D01*
X191257408Y-32594682D01*
X191244968Y-32720991D01*
X191244968Y-32757894D01*
X191242560Y-32770000D01*
X191242560Y-33270000D01*
X191244968Y-33282106D01*
X191244968Y-33319009D01*
X191257408Y-33445318D01*
X191276530Y-33541451D01*
X191313372Y-33662904D01*
X191350881Y-33753460D01*
X191410713Y-33865397D01*
X191465169Y-33946896D01*
X191505000Y-33995431D01*
X191505001Y-34584569D01*
X191465169Y-34633104D01*
X191410713Y-34714603D01*
X191350881Y-34826540D01*
X191313372Y-34917096D01*
X191276530Y-35038549D01*
X191257408Y-35134682D01*
X191244968Y-35260991D01*
X191244968Y-35297894D01*
X191242560Y-35310000D01*
X191242560Y-35810000D01*
X191244968Y-35822106D01*
X191244968Y-35859009D01*
X191257408Y-35985318D01*
X191276530Y-36081451D01*
X191313372Y-36202904D01*
X191350881Y-36293460D01*
X191410713Y-36405397D01*
X191465169Y-36486896D01*
X191505001Y-36535431D01*
X191505001Y-37362835D01*
X191487663Y-37450000D01*
X191556348Y-37795309D01*
X191702576Y-38014154D01*
X191702578Y-38014156D01*
X191751952Y-38088049D01*
X191825844Y-38137423D01*
X192352577Y-38664156D01*
X192401951Y-38738049D01*
X192475844Y-38787423D01*
X192475845Y-38787424D01*
X192484810Y-38793414D01*
X192694690Y-38933652D01*
X192952835Y-38985000D01*
X192952839Y-38985000D01*
X193040000Y-39002337D01*
X193127161Y-38985000D01*
X196985479Y-38985000D01*
X197085423Y-39134577D01*
X197437758Y-39370000D01*
X197085423Y-39605423D01*
X196768260Y-40080091D01*
X196656887Y-40640000D01*
X196768260Y-41199909D01*
X197085423Y-41674577D01*
X197437758Y-41910000D01*
X197085423Y-42145423D01*
X196768260Y-42620091D01*
X196656887Y-43180000D01*
X196768260Y-43739909D01*
X197085423Y-44214577D01*
X197437758Y-44450000D01*
X197085423Y-44685423D01*
X196768260Y-45160091D01*
X196656887Y-45720000D01*
X196768260Y-46279909D01*
X197085423Y-46754577D01*
X197560091Y-47071740D01*
X197978667Y-47155000D01*
X198261333Y-47155000D01*
X198679909Y-47071740D01*
X199154577Y-46754577D01*
X199471740Y-46279909D01*
X199583113Y-45720000D01*
X199471740Y-45160091D01*
X199154577Y-44685423D01*
X198802242Y-44450000D01*
X199154577Y-44214577D01*
X199471740Y-43739909D01*
X199583113Y-43180000D01*
X199471740Y-42620091D01*
X199154577Y-42145423D01*
X198802242Y-41910000D01*
X199154577Y-41674577D01*
X199471740Y-41199909D01*
X199583113Y-40640000D01*
X199471740Y-40080091D01*
X199154577Y-39605423D01*
X198802242Y-39370000D01*
X199154577Y-39134577D01*
X199471740Y-38659909D01*
X199583113Y-38100000D01*
X199471740Y-37540091D01*
X199154577Y-37065423D01*
X198802242Y-36830000D01*
X199154577Y-36594577D01*
X199471740Y-36119909D01*
X199583113Y-35560000D01*
X199471740Y-35000091D01*
X199154577Y-34525423D01*
X198802242Y-34290000D01*
X199154577Y-34054577D01*
X199471740Y-33579909D01*
X199583113Y-33020000D01*
X199471740Y-32460091D01*
X199154577Y-31985423D01*
X198802242Y-31750000D01*
X199154577Y-31514577D01*
X199471740Y-31039909D01*
X199583113Y-30480000D01*
X199471740Y-29920091D01*
X199154577Y-29445423D01*
X198802242Y-29210000D01*
X199154577Y-28974577D01*
X199254521Y-28825000D01*
X199658422Y-28825000D01*
X200410000Y-29576579D01*
X200410001Y-49915000D01*
X199254521Y-49915000D01*
X199154577Y-49765423D01*
X198679909Y-49448260D01*
X198261333Y-49365000D01*
X197978667Y-49365000D01*
X197560091Y-49448260D01*
X197085423Y-49765423D01*
X196918661Y-50015000D01*
X189307310Y-50015000D01*
X189229999Y-49999622D01*
X189152688Y-50015000D01*
X189152684Y-50015000D01*
X188923708Y-50060546D01*
X188819198Y-50130378D01*
X188729591Y-50190251D01*
X188729589Y-50190253D01*
X188664047Y-50234047D01*
X188620253Y-50299589D01*
X186672440Y-52247403D01*
X186672440Y-52030000D01*
X186647576Y-51905000D01*
X186672440Y-51780000D01*
X186672440Y-51416960D01*
X186890953Y-51270953D01*
X186934749Y-51205408D01*
X188381411Y-49758747D01*
X188446953Y-49714953D01*
X188490747Y-49649411D01*
X188490749Y-49649409D01*
X188588733Y-49502765D01*
X188620454Y-49455292D01*
X188666000Y-49226316D01*
X188666000Y-49226312D01*
X188681378Y-49149001D01*
X188666000Y-49071690D01*
X188666000Y-43314310D01*
X188681378Y-43236999D01*
X188666000Y-43159688D01*
X188666000Y-43159684D01*
X188620454Y-42930708D01*
X188446953Y-42671047D01*
X188381408Y-42627251D01*
X188315751Y-42561594D01*
X188315749Y-42561591D01*
X186967158Y-41213000D01*
X187273309Y-41213000D01*
X187506698Y-41116327D01*
X187685327Y-40937699D01*
X187782000Y-40704310D01*
X187782000Y-40163750D01*
X187623250Y-40005000D01*
X186699000Y-40005000D01*
X186699000Y-40025000D01*
X186445000Y-40025000D01*
X186445000Y-40005000D01*
X186425000Y-40005000D01*
X186425000Y-39751000D01*
X186445000Y-39751000D01*
X186445000Y-38701750D01*
X186699000Y-38701750D01*
X186699000Y-39751000D01*
X187623250Y-39751000D01*
X187782000Y-39592250D01*
X187782000Y-39051690D01*
X187685327Y-38818301D01*
X187506698Y-38639673D01*
X187273309Y-38543000D01*
X186857750Y-38543000D01*
X186699000Y-38701750D01*
X186445000Y-38701750D01*
X186286250Y-38543000D01*
X185870691Y-38543000D01*
X185637302Y-38639673D01*
X185482377Y-38794597D01*
X185481586Y-38793414D01*
X185190436Y-38598873D01*
X184847001Y-38530560D01*
X184527000Y-38530560D01*
X184527000Y-37897656D01*
X184712625Y-37773625D01*
X184925843Y-37454522D01*
X184986817Y-37584358D01*
X185415076Y-37974645D01*
X185825110Y-38144476D01*
X186055000Y-38023155D01*
X186055000Y-36830000D01*
X186309000Y-36830000D01*
X186309000Y-38023155D01*
X186538890Y-38144476D01*
X186948924Y-37974645D01*
X187377183Y-37584358D01*
X187623486Y-37059892D01*
X187502819Y-36830000D01*
X186309000Y-36830000D01*
X186055000Y-36830000D01*
X186035000Y-36830000D01*
X186035000Y-36576000D01*
X186055000Y-36576000D01*
X186055000Y-35382845D01*
X186309000Y-35382845D01*
X186309000Y-36576000D01*
X187502819Y-36576000D01*
X187623486Y-36346108D01*
X187377183Y-35821642D01*
X186948924Y-35431355D01*
X186538890Y-35261524D01*
X186309000Y-35382845D01*
X186055000Y-35382845D01*
X185825110Y-35261524D01*
X185415076Y-35431355D01*
X184986817Y-35821642D01*
X184925843Y-35951478D01*
X184712625Y-35632375D01*
X184401978Y-35424807D01*
X184381454Y-35321627D01*
X184256541Y-35134682D01*
X184251749Y-35127510D01*
X184251747Y-35127508D01*
X184207953Y-35061966D01*
X184142410Y-35018172D01*
X183743749Y-34619511D01*
X183699953Y-34553966D01*
X183440292Y-34380465D01*
X183211316Y-34334919D01*
X183211312Y-34334919D01*
X183134000Y-34319541D01*
X183056688Y-34334919D01*
X173432310Y-34334919D01*
X173354999Y-34319541D01*
X173277688Y-34334919D01*
X173277684Y-34334919D01*
X173048708Y-34380465D01*
X173048706Y-34380466D01*
X173048707Y-34380466D01*
X172854591Y-34510170D01*
X172854589Y-34510172D01*
X172789047Y-34553966D01*
X172745253Y-34619509D01*
X172346592Y-35018170D01*
X172281047Y-35061966D01*
X172237252Y-35127510D01*
X172237251Y-35127511D01*
X172207786Y-35171608D01*
X172107546Y-35321628D01*
X172062000Y-35550604D01*
X172062000Y-35550607D01*
X172057889Y-35571273D01*
X171776375Y-35759375D01*
X171563157Y-36078478D01*
X171502183Y-35948642D01*
X171073924Y-35558355D01*
X170663890Y-35388524D01*
X170434000Y-35509845D01*
X170434000Y-36703000D01*
X170454000Y-36703000D01*
X170454000Y-36957000D01*
X170434000Y-36957000D01*
X170434000Y-36977000D01*
X170180000Y-36977000D01*
X170180000Y-36957000D01*
X168986181Y-36957000D01*
X168865514Y-37186892D01*
X169111817Y-37711358D01*
X169536786Y-38098647D01*
X169236375Y-38299375D01*
X168908161Y-38790582D01*
X168792908Y-39370000D01*
X167105000Y-39370000D01*
X167105000Y-36473108D01*
X168865514Y-36473108D01*
X168986181Y-36703000D01*
X170180000Y-36703000D01*
X170180000Y-35509845D01*
X169950110Y-35388524D01*
X169540076Y-35558355D01*
X169111817Y-35948642D01*
X168865514Y-36473108D01*
X167105000Y-36473108D01*
X167105000Y-27940000D01*
X167160475Y-27940000D01*
X167263363Y-28721511D01*
X167565015Y-29449762D01*
X168044873Y-30075127D01*
X168670237Y-30554985D01*
X169398489Y-30856637D01*
X170180000Y-30959525D01*
X170961511Y-30856637D01*
X171689763Y-30554985D01*
X172315127Y-30075127D01*
X172794985Y-29449762D01*
X173096637Y-28721511D01*
X173199525Y-27940000D01*
X173096637Y-27158489D01*
X172794985Y-26430238D01*
X172315127Y-25804873D01*
X171689763Y-25325015D01*
X170961511Y-25023363D01*
X170180000Y-24920475D01*
X169398489Y-25023363D01*
X168670238Y-25325015D01*
X168044873Y-25804873D01*
X167565015Y-26430238D01*
X167263363Y-27158489D01*
X167160475Y-27940000D01*
X167105000Y-27940000D01*
X167105000Y-24865000D01*
X220245000Y-24865000D01*
X220245001Y-95785000D01*
X220245001Y-95785000D01*
G37*
X220245001Y-95785000D02*
X167105000Y-95785000D01*
X167105000Y-92743451D01*
X167442158Y-92743451D01*
X167561594Y-93510527D01*
X167891521Y-94213250D01*
X168405418Y-94795127D01*
X169061972Y-95209382D01*
X169808405Y-95422713D01*
X170584709Y-95417971D01*
X171328479Y-95195536D01*
X171979924Y-94773291D01*
X172486673Y-94185179D01*
X172807991Y-93478478D01*
X172918046Y-92710000D01*
X172917229Y-92643104D01*
X172865520Y-92335750D01*
X182370000Y-92335750D01*
X182370000Y-93176309D01*
X182466673Y-93409698D01*
X182645301Y-93588327D01*
X182878690Y-93685000D01*
X183469250Y-93685000D01*
X183628000Y-93526250D01*
X183628000Y-92177000D01*
X182528750Y-92177000D01*
X182370000Y-92335750D01*
X172865520Y-92335750D01*
X172788431Y-91877543D01*
X172449943Y-91178904D01*
X172218936Y-90923691D01*
X182370000Y-90923691D01*
X182370000Y-91764250D01*
X182528750Y-91923000D01*
X183628000Y-91923000D01*
X183628000Y-90573750D01*
X183469250Y-90415000D01*
X182878690Y-90415000D01*
X182645301Y-90511673D01*
X182466673Y-90690302D01*
X182370000Y-90923691D01*
X172218936Y-90923691D01*
X171928976Y-90603349D01*
X171267409Y-90197146D01*
X170518427Y-89992950D01*
X169742238Y-90007175D01*
X169001241Y-90238680D01*
X168355003Y-90668852D01*
X167855476Y-91263112D01*
X167542817Y-91973685D01*
X167442158Y-92743451D01*
X167105000Y-92743451D01*
X167105000Y-87010000D01*
X174942560Y-87010000D01*
X174942560Y-88760000D01*
X175058449Y-89342613D01*
X175388472Y-89836528D01*
X175882387Y-90166551D01*
X176465000Y-90282440D01*
X178215000Y-90282440D01*
X178797613Y-90166551D01*
X179291528Y-89836528D01*
X179621551Y-89342613D01*
X179737440Y-88760000D01*
X179737440Y-87010000D01*
X179667312Y-86657443D01*
X182633389Y-89623521D01*
X182696711Y-89718289D01*
X183013559Y-89930000D01*
X183072145Y-89969146D01*
X183514999Y-90057235D01*
X183626782Y-90035000D01*
X186854869Y-90035000D01*
X187220000Y-90400132D01*
X187220000Y-90543541D01*
X187205000Y-90553564D01*
X187052765Y-90451843D01*
X186805000Y-90402560D01*
X185305000Y-90402560D01*
X185057235Y-90451843D01*
X184905953Y-90552927D01*
X184864699Y-90511673D01*
X184631310Y-90415000D01*
X184040750Y-90415000D01*
X183882000Y-90573750D01*
X183882000Y-91923000D01*
X183902000Y-91923000D01*
X183902000Y-92177000D01*
X183882000Y-92177000D01*
X183882000Y-93526250D01*
X184040750Y-93685000D01*
X184631310Y-93685000D01*
X184864699Y-93588327D01*
X184905953Y-93547073D01*
X185020000Y-93623277D01*
X185020000Y-93931874D01*
X185177569Y-94312280D01*
X185468720Y-94603431D01*
X185849126Y-94761000D01*
X186260874Y-94761000D01*
X186641280Y-94603431D01*
X186932431Y-94312280D01*
X187090000Y-93931874D01*
X187090000Y-93623277D01*
X187205000Y-93546436D01*
X187349357Y-93642893D01*
X187536711Y-93923289D01*
X187631481Y-93986613D01*
X188983391Y-95338524D01*
X189046711Y-95433289D01*
X189422145Y-95684146D01*
X189753217Y-95750000D01*
X189864999Y-95772235D01*
X189976781Y-95750000D01*
X206263217Y-95750000D01*
X206375000Y-95772235D01*
X206486783Y-95750000D01*
X206817855Y-95684146D01*
X207193289Y-95433289D01*
X207256613Y-95338518D01*
X208368521Y-94226611D01*
X208463289Y-94163289D01*
X208714146Y-93787855D01*
X208751345Y-93600844D01*
X208802235Y-93345001D01*
X208780000Y-93233218D01*
X208780000Y-91725750D01*
X209385000Y-91725750D01*
X209385000Y-92366310D01*
X209481673Y-92599699D01*
X209660302Y-92778327D01*
X209893691Y-92875000D01*
X210534250Y-92875000D01*
X210693000Y-92716250D01*
X210693000Y-91567000D01*
X210947000Y-91567000D01*
X210947000Y-92716250D01*
X211105750Y-92875000D01*
X211746309Y-92875000D01*
X211979698Y-92778327D01*
X212015833Y-92742192D01*
X214535197Y-92742192D01*
X214650137Y-93480399D01*
X214967648Y-94156675D01*
X215462204Y-94716653D01*
X216094049Y-95115318D01*
X216812389Y-95320621D01*
X217559478Y-95316057D01*
X218275256Y-95101994D01*
X218902184Y-94695640D01*
X219389862Y-94129661D01*
X219699087Y-93449557D01*
X219805000Y-92710000D01*
X219804213Y-92645621D01*
X219680263Y-91908873D01*
X219354514Y-91236527D01*
X218853153Y-90682632D01*
X218216485Y-90291717D01*
X217495690Y-90095205D01*
X216748713Y-90108896D01*
X216035603Y-90331688D01*
X215413687Y-90745671D01*
X214932960Y-91317565D01*
X214632067Y-92001396D01*
X214535197Y-92742192D01*
X212015833Y-92742192D01*
X212158327Y-92599699D01*
X212255000Y-92366310D01*
X212255000Y-91725750D01*
X212096250Y-91567000D01*
X210947000Y-91567000D01*
X210693000Y-91567000D01*
X209543750Y-91567000D01*
X209385000Y-91725750D01*
X208780000Y-91725750D01*
X208780000Y-78740000D01*
X209356887Y-78740000D01*
X209468260Y-79299909D01*
X209785423Y-79774577D01*
X210137758Y-80010000D01*
X209785423Y-80245423D01*
X209468260Y-80720091D01*
X209356887Y-81280000D01*
X209468260Y-81839909D01*
X209785423Y-82314577D01*
X210137758Y-82550000D01*
X209785423Y-82785423D01*
X209468260Y-83260091D01*
X209356887Y-83820000D01*
X209468260Y-84379909D01*
X209785423Y-84854577D01*
X210137758Y-85090000D01*
X209785423Y-85325423D01*
X209468260Y-85800091D01*
X209356887Y-86360000D01*
X209468260Y-86919909D01*
X209785423Y-87394577D01*
X210137758Y-87630000D01*
X209785423Y-87865423D01*
X209468260Y-88340091D01*
X209356887Y-88900000D01*
X209468260Y-89459909D01*
X209785423Y-89934577D01*
X209891918Y-90005735D01*
X209660302Y-90101673D01*
X209481673Y-90280301D01*
X209385000Y-90513690D01*
X209385000Y-91154250D01*
X209543750Y-91313000D01*
X210693000Y-91313000D01*
X210693000Y-91293000D01*
X210947000Y-91293000D01*
X210947000Y-91313000D01*
X212096250Y-91313000D01*
X212255000Y-91154250D01*
X212255000Y-90513690D01*
X212158327Y-90280301D01*
X211979698Y-90101673D01*
X211748082Y-90005735D01*
X211854577Y-89934577D01*
X212171740Y-89459909D01*
X212283113Y-88900000D01*
X212171740Y-88340091D01*
X211854577Y-87865423D01*
X211502242Y-87630000D01*
X211653680Y-87528812D01*
X212478389Y-88353521D01*
X212541711Y-88448289D01*
X212917145Y-88699146D01*
X213359999Y-88787235D01*
X213471782Y-88765000D01*
X214476723Y-88765000D01*
X214592191Y-88937809D01*
X214802235Y-89078157D01*
X215050000Y-89127440D01*
X216750000Y-89127440D01*
X216997765Y-89078157D01*
X217207809Y-88937809D01*
X217348157Y-88727765D01*
X217397440Y-88480000D01*
X217397440Y-86780000D01*
X217348157Y-86532235D01*
X217207809Y-86322191D01*
X216997765Y-86181843D01*
X216952381Y-86172816D01*
X216970625Y-86160625D01*
X217298839Y-85669418D01*
X217414092Y-85090000D01*
X217298839Y-84510582D01*
X216970625Y-84019375D01*
X216672239Y-83820000D01*
X216970625Y-83620625D01*
X217298839Y-83129418D01*
X217414092Y-82550000D01*
X217298839Y-81970582D01*
X216970625Y-81479375D01*
X216672239Y-81280000D01*
X216970625Y-81080625D01*
X217298839Y-80589418D01*
X217414092Y-80010000D01*
X217298839Y-79430582D01*
X216970625Y-78939375D01*
X216479418Y-78611161D01*
X216046256Y-78525000D01*
X216020131Y-78525000D01*
X215511613Y-78016482D01*
X215448289Y-77921711D01*
X215072855Y-77670854D01*
X214741783Y-77605000D01*
X214630000Y-77582765D01*
X214518217Y-77605000D01*
X211704283Y-77605000D01*
X211470892Y-77449053D01*
X211675134Y-77352389D01*
X211842398Y-77167745D01*
X215071861Y-77167745D01*
X215145995Y-77413864D01*
X215683223Y-77606965D01*
X216253454Y-77579778D01*
X216654005Y-77413864D01*
X216728139Y-77167745D01*
X215900000Y-76339605D01*
X215071861Y-77167745D01*
X211842398Y-77167745D01*
X212051041Y-76937423D01*
X212211904Y-76549039D01*
X212089915Y-76327000D01*
X210947000Y-76327000D01*
X210947000Y-76347000D01*
X210693000Y-76347000D01*
X210693000Y-76327000D01*
X209550085Y-76327000D01*
X209428096Y-76549039D01*
X209588959Y-76937423D01*
X209964866Y-77352389D01*
X210169108Y-77449053D01*
X209785423Y-77705423D01*
X209468260Y-78180091D01*
X209356887Y-78740000D01*
X208780000Y-78740000D01*
X208780000Y-74795000D01*
X209935717Y-74795000D01*
X210169108Y-74950947D01*
X209964866Y-75047611D01*
X209588959Y-75462577D01*
X209428096Y-75850961D01*
X209550085Y-76073000D01*
X210693000Y-76073000D01*
X210693000Y-76053000D01*
X210947000Y-76053000D01*
X210947000Y-76073000D01*
X212089915Y-76073000D01*
X212161214Y-75943223D01*
X214453035Y-75943223D01*
X214480222Y-76513454D01*
X214646136Y-76914005D01*
X214892255Y-76988139D01*
X215720395Y-76160000D01*
X216079605Y-76160000D01*
X216907745Y-76988139D01*
X217153864Y-76914005D01*
X217346965Y-76376777D01*
X217319778Y-75806546D01*
X217153864Y-75405995D01*
X216907745Y-75331861D01*
X216079605Y-76160000D01*
X215720395Y-76160000D01*
X214892255Y-75331861D01*
X214646136Y-75405995D01*
X214453035Y-75943223D01*
X212161214Y-75943223D01*
X212211904Y-75850961D01*
X212051041Y-75462577D01*
X211675134Y-75047611D01*
X211470892Y-74950947D01*
X211704283Y-74795000D01*
X214560132Y-74795000D01*
X214642191Y-74917809D01*
X214852235Y-75058157D01*
X215086187Y-75104693D01*
X215071861Y-75152255D01*
X215900000Y-75980395D01*
X216728139Y-75152255D01*
X216713813Y-75104693D01*
X216947765Y-75058157D01*
X217157809Y-74917809D01*
X217298157Y-74707765D01*
X217347440Y-74460000D01*
X217347440Y-72860000D01*
X217298157Y-72612235D01*
X217157809Y-72402191D01*
X216947765Y-72261843D01*
X216700000Y-72212560D01*
X215100000Y-72212560D01*
X214852235Y-72261843D01*
X214642191Y-72402191D01*
X214560132Y-72525000D01*
X211704283Y-72525000D01*
X211379909Y-72308260D01*
X210961333Y-72225000D01*
X210678667Y-72225000D01*
X210260091Y-72308260D01*
X209935717Y-72525000D01*
X208780000Y-72525000D01*
X208780000Y-68865750D01*
X209385000Y-68865750D01*
X209385000Y-69506310D01*
X209481673Y-69739699D01*
X209660302Y-69918327D01*
X209893691Y-70015000D01*
X210534250Y-70015000D01*
X210693000Y-69856250D01*
X210693000Y-68707000D01*
X210947000Y-68707000D01*
X210947000Y-69856250D01*
X211105750Y-70015000D01*
X211746309Y-70015000D01*
X211979698Y-69918327D01*
X212158327Y-69739699D01*
X212255000Y-69506310D01*
X212255000Y-68865750D01*
X212096250Y-68707000D01*
X210947000Y-68707000D01*
X210693000Y-68707000D01*
X209543750Y-68707000D01*
X209385000Y-68865750D01*
X208780000Y-68865750D01*
X208780000Y-55880000D01*
X209356887Y-55880000D01*
X209468260Y-56439909D01*
X209785423Y-56914577D01*
X210137758Y-57150000D01*
X209785423Y-57385423D01*
X209468260Y-57860091D01*
X209356887Y-58420000D01*
X209468260Y-58979909D01*
X209785423Y-59454577D01*
X210137758Y-59690000D01*
X209785423Y-59925423D01*
X209468260Y-60400091D01*
X209356887Y-60960000D01*
X209468260Y-61519909D01*
X209785423Y-61994577D01*
X210137758Y-62230000D01*
X209785423Y-62465423D01*
X209468260Y-62940091D01*
X209356887Y-63500000D01*
X209468260Y-64059909D01*
X209785423Y-64534577D01*
X210137758Y-64770000D01*
X209785423Y-65005423D01*
X209468260Y-65480091D01*
X209356887Y-66040000D01*
X209468260Y-66599909D01*
X209785423Y-67074577D01*
X209891918Y-67145735D01*
X209660302Y-67241673D01*
X209481673Y-67420301D01*
X209385000Y-67653690D01*
X209385000Y-68294250D01*
X209543750Y-68453000D01*
X210693000Y-68453000D01*
X210693000Y-68433000D01*
X210947000Y-68433000D01*
X210947000Y-68453000D01*
X212096250Y-68453000D01*
X212255000Y-68294250D01*
X212255000Y-67653690D01*
X212158327Y-67420301D01*
X211979698Y-67241673D01*
X211748082Y-67145735D01*
X211854577Y-67074577D01*
X212171740Y-66599909D01*
X212283113Y-66040000D01*
X212171740Y-65480091D01*
X211854577Y-65005423D01*
X211502242Y-64770000D01*
X211653680Y-64668812D01*
X212478389Y-65493521D01*
X212541711Y-65588289D01*
X212909632Y-65834126D01*
X212917145Y-65839146D01*
X213359999Y-65927235D01*
X213471782Y-65905000D01*
X214476723Y-65905000D01*
X214592191Y-66077809D01*
X214802235Y-66218157D01*
X215050000Y-66267440D01*
X216750000Y-66267440D01*
X216997765Y-66218157D01*
X217207809Y-66077809D01*
X217348157Y-65867765D01*
X217397440Y-65620000D01*
X217397440Y-63920000D01*
X217348157Y-63672235D01*
X217207809Y-63462191D01*
X216997765Y-63321843D01*
X216952381Y-63312816D01*
X216970625Y-63300625D01*
X217298839Y-62809418D01*
X217414092Y-62230000D01*
X217298839Y-61650582D01*
X216970625Y-61159375D01*
X216672239Y-60960000D01*
X216970625Y-60760625D01*
X217298839Y-60269418D01*
X217414092Y-59690000D01*
X217298839Y-59110582D01*
X216970625Y-58619375D01*
X216672239Y-58420000D01*
X216970625Y-58220625D01*
X217298839Y-57729418D01*
X217414092Y-57150000D01*
X217298839Y-56570582D01*
X216970625Y-56079375D01*
X216479418Y-55751161D01*
X216046256Y-55665000D01*
X216020131Y-55665000D01*
X215511613Y-55156482D01*
X215448289Y-55061711D01*
X215072855Y-54810854D01*
X214741783Y-54745000D01*
X214630000Y-54722765D01*
X214518217Y-54745000D01*
X211704283Y-54745000D01*
X211470892Y-54589053D01*
X211675134Y-54492389D01*
X211842398Y-54307745D01*
X215071861Y-54307745D01*
X215145995Y-54553864D01*
X215683223Y-54746965D01*
X216253454Y-54719778D01*
X216654005Y-54553864D01*
X216728139Y-54307745D01*
X215900000Y-53479605D01*
X215071861Y-54307745D01*
X211842398Y-54307745D01*
X212051041Y-54077423D01*
X212211904Y-53689039D01*
X212089915Y-53467000D01*
X210947000Y-53467000D01*
X210947000Y-53487000D01*
X210693000Y-53487000D01*
X210693000Y-53467000D01*
X209550085Y-53467000D01*
X209428096Y-53689039D01*
X209588959Y-54077423D01*
X209964866Y-54492389D01*
X210169108Y-54589053D01*
X209785423Y-54845423D01*
X209468260Y-55320091D01*
X209356887Y-55880000D01*
X208780000Y-55880000D01*
X208780000Y-51935000D01*
X209935717Y-51935000D01*
X210169108Y-52090947D01*
X209964866Y-52187611D01*
X209588959Y-52602577D01*
X209428096Y-52990961D01*
X209550085Y-53213000D01*
X210693000Y-53213000D01*
X210693000Y-53193000D01*
X210947000Y-53193000D01*
X210947000Y-53213000D01*
X212089915Y-53213000D01*
X212161214Y-53083223D01*
X214453035Y-53083223D01*
X214480222Y-53653454D01*
X214646136Y-54054005D01*
X214892255Y-54128139D01*
X215720395Y-53300000D01*
X216079605Y-53300000D01*
X216907745Y-54128139D01*
X217153864Y-54054005D01*
X217346965Y-53516777D01*
X217319778Y-52946546D01*
X217153864Y-52545995D01*
X216907745Y-52471861D01*
X216079605Y-53300000D01*
X215720395Y-53300000D01*
X214892255Y-52471861D01*
X214646136Y-52545995D01*
X214453035Y-53083223D01*
X212161214Y-53083223D01*
X212211904Y-52990961D01*
X212051041Y-52602577D01*
X211675134Y-52187611D01*
X211470892Y-52090947D01*
X211704283Y-51935000D01*
X214560132Y-51935000D01*
X214642191Y-52057809D01*
X214852235Y-52198157D01*
X215086187Y-52244693D01*
X215071861Y-52292255D01*
X215900000Y-53120395D01*
X216728139Y-52292255D01*
X216713813Y-52244693D01*
X216947765Y-52198157D01*
X217157809Y-52057809D01*
X217298157Y-51847765D01*
X217347440Y-51600000D01*
X217347440Y-50000000D01*
X217298157Y-49752235D01*
X217157809Y-49542191D01*
X216947765Y-49401843D01*
X216700000Y-49352560D01*
X215100000Y-49352560D01*
X214852235Y-49401843D01*
X214642191Y-49542191D01*
X214560132Y-49665000D01*
X211704283Y-49665000D01*
X211379909Y-49448260D01*
X210961333Y-49365000D01*
X210678667Y-49365000D01*
X210260091Y-49448260D01*
X209935717Y-49665000D01*
X208780000Y-49665000D01*
X208780000Y-46005750D01*
X209385000Y-46005750D01*
X209385000Y-46646310D01*
X209481673Y-46879699D01*
X209660302Y-47058327D01*
X209893691Y-47155000D01*
X210534250Y-47155000D01*
X210693000Y-46996250D01*
X210693000Y-45847000D01*
X210947000Y-45847000D01*
X210947000Y-46996250D01*
X211105750Y-47155000D01*
X211746309Y-47155000D01*
X211979698Y-47058327D01*
X212158327Y-46879699D01*
X212255000Y-46646310D01*
X212255000Y-46005750D01*
X212096250Y-45847000D01*
X210947000Y-45847000D01*
X210693000Y-45847000D01*
X209543750Y-45847000D01*
X209385000Y-46005750D01*
X208780000Y-46005750D01*
X208780000Y-33020000D01*
X209356887Y-33020000D01*
X209468260Y-33579909D01*
X209785423Y-34054577D01*
X210137758Y-34290000D01*
X209785423Y-34525423D01*
X209468260Y-35000091D01*
X209356887Y-35560000D01*
X209468260Y-36119909D01*
X209785423Y-36594577D01*
X210137758Y-36830000D01*
X209785423Y-37065423D01*
X209468260Y-37540091D01*
X209356887Y-38100000D01*
X209468260Y-38659909D01*
X209785423Y-39134577D01*
X210137758Y-39370000D01*
X209785423Y-39605423D01*
X209468260Y-40080091D01*
X209356887Y-40640000D01*
X209468260Y-41199909D01*
X209785423Y-41674577D01*
X210137758Y-41910000D01*
X209785423Y-42145423D01*
X209468260Y-42620091D01*
X209356887Y-43180000D01*
X209468260Y-43739909D01*
X209785423Y-44214577D01*
X209891918Y-44285735D01*
X209660302Y-44381673D01*
X209481673Y-44560301D01*
X209385000Y-44793690D01*
X209385000Y-45434250D01*
X209543750Y-45593000D01*
X210693000Y-45593000D01*
X210693000Y-45573000D01*
X210947000Y-45573000D01*
X210947000Y-45593000D01*
X212096250Y-45593000D01*
X212255000Y-45434250D01*
X212255000Y-44793690D01*
X212158327Y-44560301D01*
X211979698Y-44381673D01*
X211748082Y-44285735D01*
X211854577Y-44214577D01*
X212171740Y-43739909D01*
X212283113Y-43180000D01*
X212171740Y-42620091D01*
X211854577Y-42145423D01*
X211502242Y-41910000D01*
X211653680Y-41808812D01*
X212478389Y-42633521D01*
X212541711Y-42728289D01*
X212895043Y-42964378D01*
X212917145Y-42979146D01*
X213359999Y-43067235D01*
X213471782Y-43045000D01*
X214476723Y-43045000D01*
X214592191Y-43217809D01*
X214802235Y-43358157D01*
X215050000Y-43407440D01*
X216750000Y-43407440D01*
X216997765Y-43358157D01*
X217207809Y-43217809D01*
X217348157Y-43007765D01*
X217397440Y-42760000D01*
X217397440Y-41060000D01*
X217348157Y-40812235D01*
X217207809Y-40602191D01*
X216997765Y-40461843D01*
X216952381Y-40452816D01*
X216970625Y-40440625D01*
X217298839Y-39949418D01*
X217414092Y-39370000D01*
X217298839Y-38790582D01*
X216970625Y-38299375D01*
X216672239Y-38100000D01*
X216970625Y-37900625D01*
X217298839Y-37409418D01*
X217414092Y-36830000D01*
X217298839Y-36250582D01*
X216970625Y-35759375D01*
X216672239Y-35560000D01*
X216970625Y-35360625D01*
X217298839Y-34869418D01*
X217414092Y-34290000D01*
X217298839Y-33710582D01*
X216970625Y-33219375D01*
X216479418Y-32891161D01*
X216046256Y-32805000D01*
X216020131Y-32805000D01*
X215511613Y-32296482D01*
X215448289Y-32201711D01*
X215072855Y-31950854D01*
X214741783Y-31885000D01*
X214630000Y-31862765D01*
X214518217Y-31885000D01*
X211704283Y-31885000D01*
X211470892Y-31729053D01*
X211675134Y-31632389D01*
X211842398Y-31447745D01*
X215071861Y-31447745D01*
X215145995Y-31693864D01*
X215683223Y-31886965D01*
X216253454Y-31859778D01*
X216654005Y-31693864D01*
X216728139Y-31447745D01*
X215900000Y-30619605D01*
X215071861Y-31447745D01*
X211842398Y-31447745D01*
X212051041Y-31217423D01*
X212211904Y-30829039D01*
X212089915Y-30607000D01*
X210947000Y-30607000D01*
X210947000Y-30627000D01*
X210693000Y-30627000D01*
X210693000Y-30607000D01*
X209550085Y-30607000D01*
X209428096Y-30829039D01*
X209588959Y-31217423D01*
X209964866Y-31632389D01*
X210169108Y-31729053D01*
X209785423Y-31985423D01*
X209468260Y-32460091D01*
X209356887Y-33020000D01*
X208780000Y-33020000D01*
X208780000Y-29807131D01*
X209512132Y-29075000D01*
X209935717Y-29075000D01*
X210169108Y-29230947D01*
X209964866Y-29327611D01*
X209588959Y-29742577D01*
X209428096Y-30130961D01*
X209550085Y-30353000D01*
X210693000Y-30353000D01*
X210693000Y-30333000D01*
X210947000Y-30333000D01*
X210947000Y-30353000D01*
X212089915Y-30353000D01*
X212161214Y-30223223D01*
X214453035Y-30223223D01*
X214480222Y-30793454D01*
X214646136Y-31194005D01*
X214892255Y-31268139D01*
X215720395Y-30440000D01*
X216079605Y-30440000D01*
X216907745Y-31268139D01*
X217153864Y-31194005D01*
X217346965Y-30656777D01*
X217319778Y-30086546D01*
X217153864Y-29685995D01*
X216907745Y-29611861D01*
X216079605Y-30440000D01*
X215720395Y-30440000D01*
X214892255Y-29611861D01*
X214646136Y-29685995D01*
X214453035Y-30223223D01*
X212161214Y-30223223D01*
X212211904Y-30130961D01*
X212051041Y-29742577D01*
X211675134Y-29327611D01*
X211470892Y-29230947D01*
X211704283Y-29075000D01*
X214560132Y-29075000D01*
X214642191Y-29197809D01*
X214852235Y-29338157D01*
X215086187Y-29384693D01*
X215071861Y-29432255D01*
X215900000Y-30260395D01*
X216728139Y-29432255D01*
X216713813Y-29384693D01*
X216947765Y-29338157D01*
X217157809Y-29197809D01*
X217298157Y-28987765D01*
X217347440Y-28740000D01*
X217347440Y-27140000D01*
X217298157Y-26892235D01*
X217157809Y-26682191D01*
X216947765Y-26541843D01*
X216700000Y-26492560D01*
X215100000Y-26492560D01*
X214852235Y-26541843D01*
X214642191Y-26682191D01*
X214560132Y-26805000D01*
X211704283Y-26805000D01*
X211379909Y-26588260D01*
X210961333Y-26505000D01*
X210678667Y-26505000D01*
X210260091Y-26588260D01*
X209935717Y-26805000D01*
X209153781Y-26805000D01*
X209041999Y-26782765D01*
X208930217Y-26805000D01*
X208599145Y-26870854D01*
X208223711Y-27121711D01*
X208160389Y-27216479D01*
X206921480Y-28455389D01*
X206826712Y-28518711D01*
X206666631Y-28758289D01*
X206575854Y-28894146D01*
X206487765Y-29337000D01*
X206510001Y-29448788D01*
X206510000Y-50688217D01*
X206487765Y-50800000D01*
X206510000Y-50911782D01*
X206510001Y-73548212D01*
X206487765Y-73660000D01*
X206510000Y-73771783D01*
X206510001Y-92874867D01*
X205904869Y-93480000D01*
X190335133Y-93480000D01*
X189752440Y-92897308D01*
X189752440Y-91050000D01*
X189703157Y-90802235D01*
X189562809Y-90592191D01*
X189490000Y-90543541D01*
X189490000Y-90041783D01*
X189512235Y-89930000D01*
X189424146Y-89487145D01*
X189327734Y-89342855D01*
X189173289Y-89111711D01*
X189078521Y-89048389D01*
X188206613Y-88176481D01*
X188143289Y-88081711D01*
X187767855Y-87830854D01*
X187436783Y-87765000D01*
X187325000Y-87742765D01*
X187213217Y-87765000D01*
X183985132Y-87765000D01*
X181802571Y-85582440D01*
X182090000Y-85582440D01*
X182337765Y-85533157D01*
X182547809Y-85392809D01*
X182688157Y-85182765D01*
X182737440Y-84935000D01*
X182737440Y-84750000D01*
X183507560Y-84750000D01*
X183507560Y-86750000D01*
X183556843Y-86997765D01*
X183697191Y-87207809D01*
X183907235Y-87348157D01*
X184155000Y-87397440D01*
X187955000Y-87397440D01*
X188202765Y-87348157D01*
X188412809Y-87207809D01*
X188553157Y-86997765D01*
X188602440Y-86750000D01*
X188602440Y-84750000D01*
X188553157Y-84502235D01*
X188412809Y-84292191D01*
X188202765Y-84151843D01*
X188106000Y-84132595D01*
X188106000Y-83868126D01*
X187948431Y-83487720D01*
X187657280Y-83196569D01*
X187276874Y-83039000D01*
X186865126Y-83039000D01*
X186563000Y-83164144D01*
X186260874Y-83039000D01*
X185849126Y-83039000D01*
X185547000Y-83164144D01*
X185244874Y-83039000D01*
X184833126Y-83039000D01*
X184452720Y-83196569D01*
X184161569Y-83487720D01*
X184004000Y-83868126D01*
X184004000Y-84132595D01*
X183907235Y-84151843D01*
X183697191Y-84292191D01*
X183556843Y-84502235D01*
X183507560Y-84750000D01*
X182737440Y-84750000D01*
X182737440Y-81435000D01*
X182688157Y-81187235D01*
X182547809Y-80977191D01*
X182337765Y-80836843D01*
X182090000Y-80787560D01*
X178590000Y-80787560D01*
X178342235Y-80836843D01*
X178132191Y-80977191D01*
X177991843Y-81187235D01*
X177942560Y-81435000D01*
X177942560Y-84935000D01*
X177991843Y-85182765D01*
X178132191Y-85392809D01*
X178299001Y-85504269D01*
X178215000Y-85487560D01*
X176465000Y-85487560D01*
X175882387Y-85603449D01*
X175388472Y-85933472D01*
X175058449Y-86427387D01*
X174942560Y-87010000D01*
X167105000Y-87010000D01*
X167105000Y-83470750D01*
X172205000Y-83470750D01*
X172205000Y-85061310D01*
X172301673Y-85294699D01*
X172480302Y-85473327D01*
X172713691Y-85570000D01*
X174054250Y-85570000D01*
X174213000Y-85411250D01*
X174213000Y-83312000D01*
X174467000Y-83312000D01*
X174467000Y-85411250D01*
X174625750Y-85570000D01*
X175966309Y-85570000D01*
X176199698Y-85473327D01*
X176378327Y-85294699D01*
X176475000Y-85061310D01*
X176475000Y-83470750D01*
X176316250Y-83312000D01*
X174467000Y-83312000D01*
X174213000Y-83312000D01*
X172363750Y-83312000D01*
X172205000Y-83470750D01*
X167105000Y-83470750D01*
X167105000Y-81308690D01*
X172205000Y-81308690D01*
X172205000Y-82899250D01*
X172363750Y-83058000D01*
X174213000Y-83058000D01*
X174213000Y-80958750D01*
X174467000Y-80958750D01*
X174467000Y-83058000D01*
X176316250Y-83058000D01*
X176475000Y-82899250D01*
X176475000Y-81308690D01*
X176378327Y-81075301D01*
X176199698Y-80896673D01*
X175966309Y-80800000D01*
X174625750Y-80800000D01*
X174467000Y-80958750D01*
X174213000Y-80958750D01*
X174054250Y-80800000D01*
X172713691Y-80800000D01*
X172480302Y-80896673D01*
X172301673Y-81075301D01*
X172205000Y-81308690D01*
X167105000Y-81308690D01*
X167105000Y-45109110D01*
X168865524Y-45109110D01*
X168986845Y-45339000D01*
X170180000Y-45339000D01*
X170180000Y-44145181D01*
X170434000Y-44145181D01*
X170434000Y-45339000D01*
X171627155Y-45339000D01*
X171748476Y-45109110D01*
X171578645Y-44699076D01*
X171188358Y-44270817D01*
X170663892Y-44024514D01*
X170434000Y-44145181D01*
X170180000Y-44145181D01*
X169950108Y-44024514D01*
X169425642Y-44270817D01*
X169035355Y-44699076D01*
X168865524Y-45109110D01*
X167105000Y-45109110D01*
X167105000Y-39370000D01*
X168792908Y-39370000D01*
X168908161Y-39949418D01*
X169236375Y-40440625D01*
X169522000Y-40631474D01*
X169522000Y-41324688D01*
X169506622Y-41402000D01*
X169522000Y-41479312D01*
X169522000Y-41479315D01*
X169567546Y-41708291D01*
X169741047Y-41967953D01*
X169806592Y-42011749D01*
X174221001Y-46426158D01*
X174221000Y-52627688D01*
X174205622Y-52705000D01*
X174221000Y-52782312D01*
X174221000Y-52782315D01*
X174260831Y-52982560D01*
X174266546Y-53011291D01*
X174339183Y-53120000D01*
X171814329Y-53120000D01*
X171821092Y-53086000D01*
X171705839Y-52506582D01*
X171377625Y-52015375D01*
X171079239Y-51816000D01*
X171377625Y-51616625D01*
X171705839Y-51125418D01*
X171821092Y-50546000D01*
X171705839Y-49966582D01*
X171377625Y-49475375D01*
X171079239Y-49276000D01*
X171377625Y-49076625D01*
X171705839Y-48585418D01*
X171821092Y-48006000D01*
X171705839Y-47426582D01*
X171377625Y-46935375D01*
X171058522Y-46722157D01*
X171188358Y-46661183D01*
X171578645Y-46232924D01*
X171748476Y-45822890D01*
X171627155Y-45593000D01*
X170434000Y-45593000D01*
X170434000Y-45613000D01*
X170180000Y-45613000D01*
X170180000Y-45593000D01*
X168986845Y-45593000D01*
X168865524Y-45822890D01*
X169035355Y-46232924D01*
X169425642Y-46661183D01*
X169555478Y-46722157D01*
X169236375Y-46935375D01*
X168908161Y-47426582D01*
X168792908Y-48006000D01*
X168908161Y-48585418D01*
X169236375Y-49076625D01*
X169534761Y-49276000D01*
X169236375Y-49475375D01*
X168908161Y-49966582D01*
X168792908Y-50546000D01*
X168908161Y-51125418D01*
X169236375Y-51616625D01*
X169534761Y-51816000D01*
X169236375Y-52015375D01*
X168908161Y-52506582D01*
X168792908Y-53086000D01*
X168908161Y-53665418D01*
X169236375Y-54156625D01*
X169534761Y-54356000D01*
X169236375Y-54555375D01*
X168908161Y-55046582D01*
X168792908Y-55626000D01*
X168908161Y-56205418D01*
X169236375Y-56696625D01*
X169254619Y-56708816D01*
X169209235Y-56717843D01*
X168999191Y-56858191D01*
X168858843Y-57068235D01*
X168809560Y-57316000D01*
X168809560Y-59016000D01*
X168858843Y-59263765D01*
X168999191Y-59473809D01*
X169209235Y-59614157D01*
X169457000Y-59663440D01*
X171157000Y-59663440D01*
X171404765Y-59614157D01*
X171614809Y-59473809D01*
X171755157Y-59263765D01*
X171804440Y-59016000D01*
X171804440Y-57316000D01*
X171755157Y-57068235D01*
X171614809Y-56858191D01*
X171404765Y-56717843D01*
X171359381Y-56708816D01*
X171377625Y-56696625D01*
X171705839Y-56205418D01*
X171821092Y-55626000D01*
X171794040Y-55490000D01*
X175277560Y-55490000D01*
X175277560Y-55780000D01*
X175326843Y-56027765D01*
X175467191Y-56237809D01*
X175677235Y-56378157D01*
X175925000Y-56427440D01*
X177252560Y-56427440D01*
X177252560Y-57755000D01*
X177301843Y-58002765D01*
X177390001Y-58134702D01*
X177390000Y-65197779D01*
X177389420Y-65200819D01*
X177390000Y-65275060D01*
X177390000Y-65349315D01*
X177390604Y-65352351D01*
X177390715Y-65366574D01*
X177303569Y-65453720D01*
X177146000Y-65834126D01*
X177146000Y-66245874D01*
X177303569Y-66626280D01*
X177594720Y-66917431D01*
X177975126Y-67075000D01*
X178386874Y-67075000D01*
X178767280Y-66917431D01*
X179058431Y-66626280D01*
X179216000Y-66245874D01*
X179216000Y-65834126D01*
X179058431Y-65453720D01*
X178960680Y-65355969D01*
X178960000Y-65268938D01*
X178960000Y-60023158D01*
X179174001Y-60237159D01*
X179174000Y-64692688D01*
X179158622Y-64770000D01*
X179174000Y-64847312D01*
X179174000Y-64847315D01*
X179219546Y-65076291D01*
X179393047Y-65335953D01*
X179458592Y-65379749D01*
X189334001Y-75255159D01*
X189334000Y-84250688D01*
X189318622Y-84328000D01*
X189334000Y-84405312D01*
X189334000Y-84405315D01*
X189379546Y-84634291D01*
X189553047Y-84893953D01*
X189618592Y-84937749D01*
X194081253Y-89400411D01*
X194125047Y-89465953D01*
X194190589Y-89509747D01*
X194190591Y-89509749D01*
X194317746Y-89594711D01*
X194384708Y-89639454D01*
X194613684Y-89685000D01*
X194613688Y-89685000D01*
X194690999Y-89700378D01*
X194768310Y-89685000D01*
X196918661Y-89685000D01*
X197085423Y-89934577D01*
X197437758Y-90170000D01*
X197085423Y-90405423D01*
X196918661Y-90655000D01*
X195496711Y-90655000D01*
X195404280Y-90562569D01*
X195023874Y-90405000D01*
X194612126Y-90405000D01*
X194231720Y-90562569D01*
X193940569Y-90853720D01*
X193783000Y-91234126D01*
X193783000Y-91645874D01*
X193940569Y-92026280D01*
X194231720Y-92317431D01*
X194612126Y-92475000D01*
X195023874Y-92475000D01*
X195404280Y-92317431D01*
X195496711Y-92225000D01*
X196918661Y-92225000D01*
X197085423Y-92474577D01*
X197560091Y-92791740D01*
X197978667Y-92875000D01*
X198261333Y-92875000D01*
X198679909Y-92791740D01*
X199154577Y-92474577D01*
X199471740Y-91999909D01*
X199583113Y-91440000D01*
X199471740Y-90880091D01*
X199154577Y-90405423D01*
X198802242Y-90170000D01*
X199154577Y-89934577D01*
X199471740Y-89459909D01*
X199583113Y-88900000D01*
X199471740Y-88340091D01*
X199154577Y-87865423D01*
X198802242Y-87630000D01*
X199154577Y-87394577D01*
X199471740Y-86919909D01*
X199583113Y-86360000D01*
X199471740Y-85800091D01*
X199154577Y-85325423D01*
X198802242Y-85090000D01*
X199154577Y-84854577D01*
X199471740Y-84379909D01*
X199583113Y-83820000D01*
X199471740Y-83260091D01*
X199154577Y-82785423D01*
X198802242Y-82550000D01*
X199154577Y-82314577D01*
X199471740Y-81839909D01*
X199583113Y-81280000D01*
X199471740Y-80720091D01*
X199154577Y-80245423D01*
X198802242Y-80010000D01*
X199154577Y-79774577D01*
X199471740Y-79299909D01*
X199583113Y-78740000D01*
X199471740Y-78180091D01*
X199154577Y-77705423D01*
X198802242Y-77470000D01*
X199154577Y-77234577D01*
X199471740Y-76759909D01*
X199583113Y-76200000D01*
X199471740Y-75640091D01*
X199154577Y-75165423D01*
X198802242Y-74930000D01*
X199154577Y-74694577D01*
X199254521Y-74545000D01*
X199937839Y-74545000D01*
X200025000Y-74562337D01*
X200112161Y-74545000D01*
X200112165Y-74545000D01*
X200370310Y-74493652D01*
X200663049Y-74298049D01*
X200712425Y-74224153D01*
X201859156Y-73077423D01*
X201933049Y-73028049D01*
X202128652Y-72735310D01*
X202180000Y-72477165D01*
X202180000Y-72477161D01*
X202197337Y-72390001D01*
X202180000Y-72302841D01*
X202180000Y-50887165D01*
X202197338Y-50800000D01*
X202180000Y-50712835D01*
X202180000Y-29297159D01*
X202197337Y-29209999D01*
X202180000Y-29122839D01*
X202180000Y-29122835D01*
X202128652Y-28864690D01*
X202032982Y-28721511D01*
X201982424Y-28645845D01*
X201982423Y-28645844D01*
X201933049Y-28571951D01*
X201859156Y-28522577D01*
X200712425Y-27375847D01*
X200663049Y-27301951D01*
X200370310Y-27106348D01*
X200112165Y-27055000D01*
X200112161Y-27055000D01*
X200025000Y-27037663D01*
X199937839Y-27055000D01*
X199254521Y-27055000D01*
X199154577Y-26905423D01*
X198679909Y-26588260D01*
X198261333Y-26505000D01*
X197978667Y-26505000D01*
X197560091Y-26588260D01*
X197085423Y-26905423D01*
X196768260Y-27380091D01*
X196656887Y-27940000D01*
X196768260Y-28499909D01*
X197085423Y-28974577D01*
X197437758Y-29210000D01*
X197085423Y-29445423D01*
X196985479Y-29595000D01*
X194642825Y-29595000D01*
X194614831Y-29553104D01*
X194534314Y-29454994D01*
X194465006Y-29385686D01*
X194366896Y-29305169D01*
X194285397Y-29250713D01*
X194173460Y-29190881D01*
X194082904Y-29153372D01*
X193961451Y-29116530D01*
X193865318Y-29097408D01*
X193739009Y-29084968D01*
X193702106Y-29084968D01*
X193690000Y-29082560D01*
X193190000Y-29082560D01*
X193040000Y-29112397D01*
X192890000Y-29082560D01*
X192390000Y-29082560D01*
X192377894Y-29084968D01*
X192340991Y-29084968D01*
X192214682Y-29097408D01*
X192118549Y-29116530D01*
X191997096Y-29153372D01*
X191906540Y-29190881D01*
X191794603Y-29250713D01*
X191713104Y-29305169D01*
X191614994Y-29385686D01*
X191545686Y-29454994D01*
X191465169Y-29553104D01*
X191410713Y-29634603D01*
X191350881Y-29746540D01*
X191313372Y-29837096D01*
X191276530Y-29958549D01*
X191257408Y-30054682D01*
X191244968Y-30180991D01*
X191244968Y-30217894D01*
X191242560Y-30230000D01*
X191242560Y-30730000D01*
X191244968Y-30742106D01*
X191244968Y-30779009D01*
X191257408Y-30905318D01*
X191276530Y-31001451D01*
X191313372Y-31122904D01*
X191350881Y-31213460D01*
X191410713Y-31325397D01*
X191465169Y-31406896D01*
X191505000Y-31455431D01*
X191505001Y-32044569D01*
X191465169Y-32093104D01*
X191410713Y-32174603D01*
X191350881Y-32286540D01*
X191313372Y-32377096D01*
X191276530Y-32498549D01*
X191257408Y-32594682D01*
X191244968Y-32720991D01*
X191244968Y-32757894D01*
X191242560Y-32770000D01*
X191242560Y-33270000D01*
X191244968Y-33282106D01*
X191244968Y-33319009D01*
X191257408Y-33445318D01*
X191276530Y-33541451D01*
X191313372Y-33662904D01*
X191350881Y-33753460D01*
X191410713Y-33865397D01*
X191465169Y-33946896D01*
X191505000Y-33995431D01*
X191505001Y-34584569D01*
X191465169Y-34633104D01*
X191410713Y-34714603D01*
X191350881Y-34826540D01*
X191313372Y-34917096D01*
X191276530Y-35038549D01*
X191257408Y-35134682D01*
X191244968Y-35260991D01*
X191244968Y-35297894D01*
X191242560Y-35310000D01*
X191242560Y-35810000D01*
X191244968Y-35822106D01*
X191244968Y-35859009D01*
X191257408Y-35985318D01*
X191276530Y-36081451D01*
X191313372Y-36202904D01*
X191350881Y-36293460D01*
X191410713Y-36405397D01*
X191465169Y-36486896D01*
X191505001Y-36535431D01*
X191505001Y-37362835D01*
X191487663Y-37450000D01*
X191556348Y-37795309D01*
X191702576Y-38014154D01*
X191702578Y-38014156D01*
X191751952Y-38088049D01*
X191825844Y-38137423D01*
X192352577Y-38664156D01*
X192401951Y-38738049D01*
X192475844Y-38787423D01*
X192475845Y-38787424D01*
X192484810Y-38793414D01*
X192694690Y-38933652D01*
X192952835Y-38985000D01*
X192952839Y-38985000D01*
X193040000Y-39002337D01*
X193127161Y-38985000D01*
X196985479Y-38985000D01*
X197085423Y-39134577D01*
X197437758Y-39370000D01*
X197085423Y-39605423D01*
X196768260Y-40080091D01*
X196656887Y-40640000D01*
X196768260Y-41199909D01*
X197085423Y-41674577D01*
X197437758Y-41910000D01*
X197085423Y-42145423D01*
X196768260Y-42620091D01*
X196656887Y-43180000D01*
X196768260Y-43739909D01*
X197085423Y-44214577D01*
X197437758Y-44450000D01*
X197085423Y-44685423D01*
X196768260Y-45160091D01*
X196656887Y-45720000D01*
X196768260Y-46279909D01*
X197085423Y-46754577D01*
X197560091Y-47071740D01*
X197978667Y-47155000D01*
X198261333Y-47155000D01*
X198679909Y-47071740D01*
X199154577Y-46754577D01*
X199471740Y-46279909D01*
X199583113Y-45720000D01*
X199471740Y-45160091D01*
X199154577Y-44685423D01*
X198802242Y-44450000D01*
X199154577Y-44214577D01*
X199471740Y-43739909D01*
X199583113Y-43180000D01*
X199471740Y-42620091D01*
X199154577Y-42145423D01*
X198802242Y-41910000D01*
X199154577Y-41674577D01*
X199471740Y-41199909D01*
X199583113Y-40640000D01*
X199471740Y-40080091D01*
X199154577Y-39605423D01*
X198802242Y-39370000D01*
X199154577Y-39134577D01*
X199471740Y-38659909D01*
X199583113Y-38100000D01*
X199471740Y-37540091D01*
X199154577Y-37065423D01*
X198802242Y-36830000D01*
X199154577Y-36594577D01*
X199471740Y-36119909D01*
X199583113Y-35560000D01*
X199471740Y-35000091D01*
X199154577Y-34525423D01*
X198802242Y-34290000D01*
X199154577Y-34054577D01*
X199471740Y-33579909D01*
X199583113Y-33020000D01*
X199471740Y-32460091D01*
X199154577Y-31985423D01*
X198802242Y-31750000D01*
X199154577Y-31514577D01*
X199471740Y-31039909D01*
X199583113Y-30480000D01*
X199471740Y-29920091D01*
X199154577Y-29445423D01*
X198802242Y-29210000D01*
X199154577Y-28974577D01*
X199254521Y-28825000D01*
X199658422Y-28825000D01*
X200410000Y-29576579D01*
X200410001Y-49915000D01*
X199254521Y-49915000D01*
X199154577Y-49765423D01*
X198679909Y-49448260D01*
X198261333Y-49365000D01*
X197978667Y-49365000D01*
X197560091Y-49448260D01*
X197085423Y-49765423D01*
X196918661Y-50015000D01*
X189307310Y-50015000D01*
X189229999Y-49999622D01*
X189152688Y-50015000D01*
X189152684Y-50015000D01*
X188923708Y-50060546D01*
X188819198Y-50130378D01*
X188729591Y-50190251D01*
X188729589Y-50190253D01*
X188664047Y-50234047D01*
X188620253Y-50299589D01*
X186672440Y-52247403D01*
X186672440Y-52030000D01*
X186647576Y-51905000D01*
X186672440Y-51780000D01*
X186672440Y-51416960D01*
X186890953Y-51270953D01*
X186934749Y-51205408D01*
X188381411Y-49758747D01*
X188446953Y-49714953D01*
X188490747Y-49649411D01*
X188490749Y-49649409D01*
X188588733Y-49502765D01*
X188620454Y-49455292D01*
X188666000Y-49226316D01*
X188666000Y-49226312D01*
X188681378Y-49149001D01*
X188666000Y-49071690D01*
X188666000Y-43314310D01*
X188681378Y-43236999D01*
X188666000Y-43159688D01*
X188666000Y-43159684D01*
X188620454Y-42930708D01*
X188446953Y-42671047D01*
X188381408Y-42627251D01*
X188315751Y-42561594D01*
X188315749Y-42561591D01*
X186967158Y-41213000D01*
X187273309Y-41213000D01*
X187506698Y-41116327D01*
X187685327Y-40937699D01*
X187782000Y-40704310D01*
X187782000Y-40163750D01*
X187623250Y-40005000D01*
X186699000Y-40005000D01*
X186699000Y-40025000D01*
X186445000Y-40025000D01*
X186445000Y-40005000D01*
X186425000Y-40005000D01*
X186425000Y-39751000D01*
X186445000Y-39751000D01*
X186445000Y-38701750D01*
X186699000Y-38701750D01*
X186699000Y-39751000D01*
X187623250Y-39751000D01*
X187782000Y-39592250D01*
X187782000Y-39051690D01*
X187685327Y-38818301D01*
X187506698Y-38639673D01*
X187273309Y-38543000D01*
X186857750Y-38543000D01*
X186699000Y-38701750D01*
X186445000Y-38701750D01*
X186286250Y-38543000D01*
X185870691Y-38543000D01*
X185637302Y-38639673D01*
X185482377Y-38794597D01*
X185481586Y-38793414D01*
X185190436Y-38598873D01*
X184847001Y-38530560D01*
X184527000Y-38530560D01*
X184527000Y-37897656D01*
X184712625Y-37773625D01*
X184925843Y-37454522D01*
X184986817Y-37584358D01*
X185415076Y-37974645D01*
X185825110Y-38144476D01*
X186055000Y-38023155D01*
X186055000Y-36830000D01*
X186309000Y-36830000D01*
X186309000Y-38023155D01*
X186538890Y-38144476D01*
X186948924Y-37974645D01*
X187377183Y-37584358D01*
X187623486Y-37059892D01*
X187502819Y-36830000D01*
X186309000Y-36830000D01*
X186055000Y-36830000D01*
X186035000Y-36830000D01*
X186035000Y-36576000D01*
X186055000Y-36576000D01*
X186055000Y-35382845D01*
X186309000Y-35382845D01*
X186309000Y-36576000D01*
X187502819Y-36576000D01*
X187623486Y-36346108D01*
X187377183Y-35821642D01*
X186948924Y-35431355D01*
X186538890Y-35261524D01*
X186309000Y-35382845D01*
X186055000Y-35382845D01*
X185825110Y-35261524D01*
X185415076Y-35431355D01*
X184986817Y-35821642D01*
X184925843Y-35951478D01*
X184712625Y-35632375D01*
X184401978Y-35424807D01*
X184381454Y-35321627D01*
X184256541Y-35134682D01*
X184251749Y-35127510D01*
X184251747Y-35127508D01*
X184207953Y-35061966D01*
X184142410Y-35018172D01*
X183743749Y-34619511D01*
X183699953Y-34553966D01*
X183440292Y-34380465D01*
X183211316Y-34334919D01*
X183211312Y-34334919D01*
X183134000Y-34319541D01*
X183056688Y-34334919D01*
X173432310Y-34334919D01*
X173354999Y-34319541D01*
X173277688Y-34334919D01*
X173277684Y-34334919D01*
X173048708Y-34380465D01*
X173048706Y-34380466D01*
X173048707Y-34380466D01*
X172854591Y-34510170D01*
X172854589Y-34510172D01*
X172789047Y-34553966D01*
X172745253Y-34619509D01*
X172346592Y-35018170D01*
X172281047Y-35061966D01*
X172237252Y-35127510D01*
X172237251Y-35127511D01*
X172207786Y-35171608D01*
X172107546Y-35321628D01*
X172062000Y-35550604D01*
X172062000Y-35550607D01*
X172057889Y-35571273D01*
X171776375Y-35759375D01*
X171563157Y-36078478D01*
X171502183Y-35948642D01*
X171073924Y-35558355D01*
X170663890Y-35388524D01*
X170434000Y-35509845D01*
X170434000Y-36703000D01*
X170454000Y-36703000D01*
X170454000Y-36957000D01*
X170434000Y-36957000D01*
X170434000Y-36977000D01*
X170180000Y-36977000D01*
X170180000Y-36957000D01*
X168986181Y-36957000D01*
X168865514Y-37186892D01*
X169111817Y-37711358D01*
X169536786Y-38098647D01*
X169236375Y-38299375D01*
X168908161Y-38790582D01*
X168792908Y-39370000D01*
X167105000Y-39370000D01*
X167105000Y-36473108D01*
X168865514Y-36473108D01*
X168986181Y-36703000D01*
X170180000Y-36703000D01*
X170180000Y-35509845D01*
X169950110Y-35388524D01*
X169540076Y-35558355D01*
X169111817Y-35948642D01*
X168865514Y-36473108D01*
X167105000Y-36473108D01*
X167105000Y-27940000D01*
X167160475Y-27940000D01*
X167263363Y-28721511D01*
X167565015Y-29449762D01*
X168044873Y-30075127D01*
X168670237Y-30554985D01*
X169398489Y-30856637D01*
X170180000Y-30959525D01*
X170961511Y-30856637D01*
X171689763Y-30554985D01*
X172315127Y-30075127D01*
X172794985Y-29449762D01*
X173096637Y-28721511D01*
X173199525Y-27940000D01*
X173096637Y-27158489D01*
X172794985Y-26430238D01*
X172315127Y-25804873D01*
X171689763Y-25325015D01*
X170961511Y-25023363D01*
X170180000Y-24920475D01*
X169398489Y-25023363D01*
X168670238Y-25325015D01*
X168044873Y-25804873D01*
X167565015Y-26430238D01*
X167263363Y-27158489D01*
X167160475Y-27940000D01*
X167105000Y-27940000D01*
X167105000Y-24865000D01*
X220245000Y-24865000D01*
X220245001Y-95785000D01*
G36*
X200410001Y-72023420D02*
X199658422Y-72775000D01*
X199254521Y-72775000D01*
X199154577Y-72625423D01*
X198679909Y-72308260D01*
X198261333Y-72225000D01*
X197978667Y-72225000D01*
X197560091Y-72308260D01*
X197085423Y-72625423D01*
X196768260Y-73100091D01*
X196656887Y-73660000D01*
X196768260Y-74219909D01*
X197085423Y-74694577D01*
X197437758Y-74930000D01*
X197085423Y-75165423D01*
X196985479Y-75315000D01*
X194642825Y-75315000D01*
X194614831Y-75273104D01*
X194534314Y-75174994D01*
X194465006Y-75105686D01*
X194366896Y-75025169D01*
X194285397Y-74970713D01*
X194173460Y-74910881D01*
X194082904Y-74873372D01*
X193961451Y-74836530D01*
X193865318Y-74817408D01*
X193739009Y-74804968D01*
X193702106Y-74804968D01*
X193690000Y-74802560D01*
X193190000Y-74802560D01*
X193040000Y-74832397D01*
X192890000Y-74802560D01*
X192390000Y-74802560D01*
X192377894Y-74804968D01*
X192340991Y-74804968D01*
X192214682Y-74817408D01*
X192118549Y-74836530D01*
X191997096Y-74873372D01*
X191906540Y-74910881D01*
X191794603Y-74970713D01*
X191713104Y-75025169D01*
X191614994Y-75105686D01*
X191545686Y-75174994D01*
X191465169Y-75273104D01*
X191410713Y-75354603D01*
X191350881Y-75466540D01*
X191313372Y-75557096D01*
X191276530Y-75678549D01*
X191257408Y-75774682D01*
X191244968Y-75900991D01*
X191244968Y-75937894D01*
X191242560Y-75950000D01*
X191242560Y-76450000D01*
X191244968Y-76462106D01*
X191244968Y-76499009D01*
X191257408Y-76625318D01*
X191276530Y-76721451D01*
X191313372Y-76842904D01*
X191350881Y-76933460D01*
X191410713Y-77045397D01*
X191465169Y-77126896D01*
X191505000Y-77175431D01*
X191505001Y-77764569D01*
X191465169Y-77813104D01*
X191410713Y-77894603D01*
X191350881Y-78006540D01*
X191313372Y-78097096D01*
X191276530Y-78218549D01*
X191257408Y-78314682D01*
X191244968Y-78440991D01*
X191244968Y-78477894D01*
X191242560Y-78490000D01*
X191242560Y-78990000D01*
X191244968Y-79002106D01*
X191244968Y-79039009D01*
X191257408Y-79165318D01*
X191276530Y-79261451D01*
X191313372Y-79382904D01*
X191350881Y-79473460D01*
X191410713Y-79585397D01*
X191465169Y-79666896D01*
X191505000Y-79715431D01*
X191505001Y-80304569D01*
X191465169Y-80353104D01*
X191410713Y-80434603D01*
X191350881Y-80546540D01*
X191313372Y-80637096D01*
X191276530Y-80758549D01*
X191257408Y-80854682D01*
X191244968Y-80980991D01*
X191244968Y-81017894D01*
X191242560Y-81030000D01*
X191242560Y-81530000D01*
X191244968Y-81542106D01*
X191244968Y-81579009D01*
X191257408Y-81705318D01*
X191276530Y-81801451D01*
X191313372Y-81922904D01*
X191350881Y-82013460D01*
X191410713Y-82125397D01*
X191465169Y-82206896D01*
X191505001Y-82255431D01*
X191505001Y-83082835D01*
X191487663Y-83170000D01*
X191556348Y-83515309D01*
X191702576Y-83734154D01*
X191702578Y-83734156D01*
X191751952Y-83808049D01*
X191825844Y-83857423D01*
X192352577Y-84384156D01*
X192401951Y-84458049D01*
X192475844Y-84507423D01*
X192475845Y-84507424D01*
X192665714Y-84634291D01*
X192694690Y-84653652D01*
X192952835Y-84705000D01*
X192952839Y-84705000D01*
X193040000Y-84722337D01*
X193127161Y-84705000D01*
X196985479Y-84705000D01*
X197085423Y-84854577D01*
X197437758Y-85090000D01*
X197085423Y-85325423D01*
X196768260Y-85800091D01*
X196656887Y-86360000D01*
X196768260Y-86919909D01*
X197085423Y-87394577D01*
X197437758Y-87630000D01*
X197085423Y-87865423D01*
X196918661Y-88115000D01*
X195016158Y-88115000D01*
X190904000Y-84002843D01*
X190904000Y-75007312D01*
X190919378Y-74930000D01*
X190904000Y-74852688D01*
X190904000Y-74852684D01*
X190858454Y-74623708D01*
X190761288Y-74478289D01*
X190728749Y-74429591D01*
X190728747Y-74429589D01*
X190684953Y-74364047D01*
X190619411Y-74320253D01*
X180744000Y-64444843D01*
X180744000Y-59989310D01*
X180759378Y-59911999D01*
X180744000Y-59834688D01*
X180744000Y-59834684D01*
X180698454Y-59605708D01*
X180591076Y-59445006D01*
X180568749Y-59411591D01*
X180568747Y-59411589D01*
X180524953Y-59346047D01*
X180459411Y-59302253D01*
X179760000Y-58602843D01*
X179760000Y-58134700D01*
X179775000Y-58112251D01*
X179842191Y-58212809D01*
X179966862Y-58296112D01*
X180060750Y-58390000D01*
X180176310Y-58390000D01*
X180196148Y-58381783D01*
X180300000Y-58402440D01*
X180850000Y-58402440D01*
X180953852Y-58381783D01*
X180973690Y-58390000D01*
X181089250Y-58390000D01*
X181183138Y-58296112D01*
X181307809Y-58212809D01*
X181375000Y-58112251D01*
X181442191Y-58212809D01*
X181566862Y-58296112D01*
X181660750Y-58390000D01*
X181776310Y-58390000D01*
X181796148Y-58381783D01*
X181900000Y-58402440D01*
X182179113Y-58402440D01*
X181995994Y-58585560D01*
X181988000Y-58585560D01*
X181740235Y-58634843D01*
X181530191Y-58775191D01*
X181389843Y-58985235D01*
X181340560Y-59233000D01*
X181340560Y-62433000D01*
X181389843Y-62680765D01*
X181530191Y-62890809D01*
X181740235Y-63031157D01*
X181988000Y-63080440D01*
X182388000Y-63080440D01*
X182635765Y-63031157D01*
X182787047Y-62930073D01*
X182828302Y-62971327D01*
X183061691Y-63068000D01*
X183129250Y-63068000D01*
X183288000Y-62909250D01*
X183288000Y-60960000D01*
X183241000Y-60960000D01*
X183241000Y-60706000D01*
X183288000Y-60706000D01*
X183288000Y-60686000D01*
X183488000Y-60686000D01*
X183488000Y-60706000D01*
X183535000Y-60706000D01*
X183535000Y-60960000D01*
X183488000Y-60960000D01*
X183488000Y-62909250D01*
X183646750Y-63068000D01*
X183714309Y-63068000D01*
X183947698Y-62971327D01*
X183988953Y-62930073D01*
X184140235Y-63031157D01*
X184388000Y-63080440D01*
X184788000Y-63080440D01*
X185035765Y-63031157D01*
X185245809Y-62890809D01*
X185386157Y-62680765D01*
X185435440Y-62433000D01*
X185435440Y-59233000D01*
X185386157Y-58985235D01*
X185245809Y-58775191D01*
X185035765Y-58634843D01*
X184788000Y-58585560D01*
X184780007Y-58585560D01*
X184504000Y-58309554D01*
X184504000Y-58215354D01*
X184507809Y-58212809D01*
X184648157Y-58002765D01*
X184697440Y-57755000D01*
X184697440Y-56427440D01*
X186025000Y-56427440D01*
X186272765Y-56378157D01*
X186324726Y-56343437D01*
X186357720Y-56376431D01*
X186738126Y-56534000D01*
X187149874Y-56534000D01*
X187530280Y-56376431D01*
X187556000Y-56350711D01*
X187556001Y-64565683D01*
X187540622Y-64643000D01*
X187601546Y-64949291D01*
X187731251Y-65143408D01*
X187731254Y-65143411D01*
X187775048Y-65208953D01*
X187840590Y-65252747D01*
X191668253Y-69080411D01*
X191712047Y-69145953D01*
X191777589Y-69189747D01*
X191777591Y-69189749D01*
X191971708Y-69319454D01*
X192200684Y-69365000D01*
X192200688Y-69365000D01*
X192278000Y-69380378D01*
X192355312Y-69365000D01*
X196918661Y-69365000D01*
X197085423Y-69614577D01*
X197560091Y-69931740D01*
X197978667Y-70015000D01*
X198261333Y-70015000D01*
X198679909Y-69931740D01*
X199154577Y-69614577D01*
X199471740Y-69139909D01*
X199583113Y-68580000D01*
X199471740Y-68020091D01*
X199154577Y-67545423D01*
X198802242Y-67310000D01*
X199154577Y-67074577D01*
X199471740Y-66599909D01*
X199583113Y-66040000D01*
X199471740Y-65480091D01*
X199154577Y-65005423D01*
X198802242Y-64770000D01*
X199154577Y-64534577D01*
X199471740Y-64059909D01*
X199583113Y-63500000D01*
X199471740Y-62940091D01*
X199154577Y-62465423D01*
X198802242Y-62230000D01*
X199154577Y-61994577D01*
X199471740Y-61519909D01*
X199583113Y-60960000D01*
X199471740Y-60400091D01*
X199154577Y-59925423D01*
X198802242Y-59690000D01*
X199154577Y-59454577D01*
X199471740Y-58979909D01*
X199583113Y-58420000D01*
X199471740Y-57860091D01*
X199154577Y-57385423D01*
X198802242Y-57150000D01*
X199154577Y-56914577D01*
X199471740Y-56439909D01*
X199583113Y-55880000D01*
X199471740Y-55320091D01*
X199154577Y-54845423D01*
X198802242Y-54610000D01*
X199154577Y-54374577D01*
X199471740Y-53899909D01*
X199583113Y-53340000D01*
X199471740Y-52780091D01*
X199154577Y-52305423D01*
X198802242Y-52070000D01*
X199154577Y-51834577D01*
X199254521Y-51685000D01*
X200410000Y-51685000D01*
X200410001Y-72023420D01*
X200410001Y-72023420D01*
G37*
X200410001Y-72023420D02*
X199658422Y-72775000D01*
X199254521Y-72775000D01*
X199154577Y-72625423D01*
X198679909Y-72308260D01*
X198261333Y-72225000D01*
X197978667Y-72225000D01*
X197560091Y-72308260D01*
X197085423Y-72625423D01*
X196768260Y-73100091D01*
X196656887Y-73660000D01*
X196768260Y-74219909D01*
X197085423Y-74694577D01*
X197437758Y-74930000D01*
X197085423Y-75165423D01*
X196985479Y-75315000D01*
X194642825Y-75315000D01*
X194614831Y-75273104D01*
X194534314Y-75174994D01*
X194465006Y-75105686D01*
X194366896Y-75025169D01*
X194285397Y-74970713D01*
X194173460Y-74910881D01*
X194082904Y-74873372D01*
X193961451Y-74836530D01*
X193865318Y-74817408D01*
X193739009Y-74804968D01*
X193702106Y-74804968D01*
X193690000Y-74802560D01*
X193190000Y-74802560D01*
X193040000Y-74832397D01*
X192890000Y-74802560D01*
X192390000Y-74802560D01*
X192377894Y-74804968D01*
X192340991Y-74804968D01*
X192214682Y-74817408D01*
X192118549Y-74836530D01*
X191997096Y-74873372D01*
X191906540Y-74910881D01*
X191794603Y-74970713D01*
X191713104Y-75025169D01*
X191614994Y-75105686D01*
X191545686Y-75174994D01*
X191465169Y-75273104D01*
X191410713Y-75354603D01*
X191350881Y-75466540D01*
X191313372Y-75557096D01*
X191276530Y-75678549D01*
X191257408Y-75774682D01*
X191244968Y-75900991D01*
X191244968Y-75937894D01*
X191242560Y-75950000D01*
X191242560Y-76450000D01*
X191244968Y-76462106D01*
X191244968Y-76499009D01*
X191257408Y-76625318D01*
X191276530Y-76721451D01*
X191313372Y-76842904D01*
X191350881Y-76933460D01*
X191410713Y-77045397D01*
X191465169Y-77126896D01*
X191505000Y-77175431D01*
X191505001Y-77764569D01*
X191465169Y-77813104D01*
X191410713Y-77894603D01*
X191350881Y-78006540D01*
X191313372Y-78097096D01*
X191276530Y-78218549D01*
X191257408Y-78314682D01*
X191244968Y-78440991D01*
X191244968Y-78477894D01*
X191242560Y-78490000D01*
X191242560Y-78990000D01*
X191244968Y-79002106D01*
X191244968Y-79039009D01*
X191257408Y-79165318D01*
X191276530Y-79261451D01*
X191313372Y-79382904D01*
X191350881Y-79473460D01*
X191410713Y-79585397D01*
X191465169Y-79666896D01*
X191505000Y-79715431D01*
X191505001Y-80304569D01*
X191465169Y-80353104D01*
X191410713Y-80434603D01*
X191350881Y-80546540D01*
X191313372Y-80637096D01*
X191276530Y-80758549D01*
X191257408Y-80854682D01*
X191244968Y-80980991D01*
X191244968Y-81017894D01*
X191242560Y-81030000D01*
X191242560Y-81530000D01*
X191244968Y-81542106D01*
X191244968Y-81579009D01*
X191257408Y-81705318D01*
X191276530Y-81801451D01*
X191313372Y-81922904D01*
X191350881Y-82013460D01*
X191410713Y-82125397D01*
X191465169Y-82206896D01*
X191505001Y-82255431D01*
X191505001Y-83082835D01*
X191487663Y-83170000D01*
X191556348Y-83515309D01*
X191702576Y-83734154D01*
X191702578Y-83734156D01*
X191751952Y-83808049D01*
X191825844Y-83857423D01*
X192352577Y-84384156D01*
X192401951Y-84458049D01*
X192475844Y-84507423D01*
X192475845Y-84507424D01*
X192665714Y-84634291D01*
X192694690Y-84653652D01*
X192952835Y-84705000D01*
X192952839Y-84705000D01*
X193040000Y-84722337D01*
X193127161Y-84705000D01*
X196985479Y-84705000D01*
X197085423Y-84854577D01*
X197437758Y-85090000D01*
X197085423Y-85325423D01*
X196768260Y-85800091D01*
X196656887Y-86360000D01*
X196768260Y-86919909D01*
X197085423Y-87394577D01*
X197437758Y-87630000D01*
X197085423Y-87865423D01*
X196918661Y-88115000D01*
X195016158Y-88115000D01*
X190904000Y-84002843D01*
X190904000Y-75007312D01*
X190919378Y-74930000D01*
X190904000Y-74852688D01*
X190904000Y-74852684D01*
X190858454Y-74623708D01*
X190761288Y-74478289D01*
X190728749Y-74429591D01*
X190728747Y-74429589D01*
X190684953Y-74364047D01*
X190619411Y-74320253D01*
X180744000Y-64444843D01*
X180744000Y-59989310D01*
X180759378Y-59911999D01*
X180744000Y-59834688D01*
X180744000Y-59834684D01*
X180698454Y-59605708D01*
X180591076Y-59445006D01*
X180568749Y-59411591D01*
X180568747Y-59411589D01*
X180524953Y-59346047D01*
X180459411Y-59302253D01*
X179760000Y-58602843D01*
X179760000Y-58134700D01*
X179775000Y-58112251D01*
X179842191Y-58212809D01*
X179966862Y-58296112D01*
X180060750Y-58390000D01*
X180176310Y-58390000D01*
X180196148Y-58381783D01*
X180300000Y-58402440D01*
X180850000Y-58402440D01*
X180953852Y-58381783D01*
X180973690Y-58390000D01*
X181089250Y-58390000D01*
X181183138Y-58296112D01*
X181307809Y-58212809D01*
X181375000Y-58112251D01*
X181442191Y-58212809D01*
X181566862Y-58296112D01*
X181660750Y-58390000D01*
X181776310Y-58390000D01*
X181796148Y-58381783D01*
X181900000Y-58402440D01*
X182179113Y-58402440D01*
X181995994Y-58585560D01*
X181988000Y-58585560D01*
X181740235Y-58634843D01*
X181530191Y-58775191D01*
X181389843Y-58985235D01*
X181340560Y-59233000D01*
X181340560Y-62433000D01*
X181389843Y-62680765D01*
X181530191Y-62890809D01*
X181740235Y-63031157D01*
X181988000Y-63080440D01*
X182388000Y-63080440D01*
X182635765Y-63031157D01*
X182787047Y-62930073D01*
X182828302Y-62971327D01*
X183061691Y-63068000D01*
X183129250Y-63068000D01*
X183288000Y-62909250D01*
X183288000Y-60960000D01*
X183241000Y-60960000D01*
X183241000Y-60706000D01*
X183288000Y-60706000D01*
X183288000Y-60686000D01*
X183488000Y-60686000D01*
X183488000Y-60706000D01*
X183535000Y-60706000D01*
X183535000Y-60960000D01*
X183488000Y-60960000D01*
X183488000Y-62909250D01*
X183646750Y-63068000D01*
X183714309Y-63068000D01*
X183947698Y-62971327D01*
X183988953Y-62930073D01*
X184140235Y-63031157D01*
X184388000Y-63080440D01*
X184788000Y-63080440D01*
X185035765Y-63031157D01*
X185245809Y-62890809D01*
X185386157Y-62680765D01*
X185435440Y-62433000D01*
X185435440Y-59233000D01*
X185386157Y-58985235D01*
X185245809Y-58775191D01*
X185035765Y-58634843D01*
X184788000Y-58585560D01*
X184780007Y-58585560D01*
X184504000Y-58309554D01*
X184504000Y-58215354D01*
X184507809Y-58212809D01*
X184648157Y-58002765D01*
X184697440Y-57755000D01*
X184697440Y-56427440D01*
X186025000Y-56427440D01*
X186272765Y-56378157D01*
X186324726Y-56343437D01*
X186357720Y-56376431D01*
X186738126Y-56534000D01*
X187149874Y-56534000D01*
X187530280Y-56376431D01*
X187556000Y-56350711D01*
X187556001Y-64565683D01*
X187540622Y-64643000D01*
X187601546Y-64949291D01*
X187731251Y-65143408D01*
X187731254Y-65143411D01*
X187775048Y-65208953D01*
X187840590Y-65252747D01*
X191668253Y-69080411D01*
X191712047Y-69145953D01*
X191777589Y-69189747D01*
X191777591Y-69189749D01*
X191971708Y-69319454D01*
X192200684Y-69365000D01*
X192200688Y-69365000D01*
X192278000Y-69380378D01*
X192355312Y-69365000D01*
X196918661Y-69365000D01*
X197085423Y-69614577D01*
X197560091Y-69931740D01*
X197978667Y-70015000D01*
X198261333Y-70015000D01*
X198679909Y-69931740D01*
X199154577Y-69614577D01*
X199471740Y-69139909D01*
X199583113Y-68580000D01*
X199471740Y-68020091D01*
X199154577Y-67545423D01*
X198802242Y-67310000D01*
X199154577Y-67074577D01*
X199471740Y-66599909D01*
X199583113Y-66040000D01*
X199471740Y-65480091D01*
X199154577Y-65005423D01*
X198802242Y-64770000D01*
X199154577Y-64534577D01*
X199471740Y-64059909D01*
X199583113Y-63500000D01*
X199471740Y-62940091D01*
X199154577Y-62465423D01*
X198802242Y-62230000D01*
X199154577Y-61994577D01*
X199471740Y-61519909D01*
X199583113Y-60960000D01*
X199471740Y-60400091D01*
X199154577Y-59925423D01*
X198802242Y-59690000D01*
X199154577Y-59454577D01*
X199471740Y-58979909D01*
X199583113Y-58420000D01*
X199471740Y-57860091D01*
X199154577Y-57385423D01*
X198802242Y-57150000D01*
X199154577Y-56914577D01*
X199471740Y-56439909D01*
X199583113Y-55880000D01*
X199471740Y-55320091D01*
X199154577Y-54845423D01*
X198802242Y-54610000D01*
X199154577Y-54374577D01*
X199471740Y-53899909D01*
X199583113Y-53340000D01*
X199471740Y-52780091D01*
X199154577Y-52305423D01*
X198802242Y-52070000D01*
X199154577Y-51834577D01*
X199254521Y-51685000D01*
X200410000Y-51685000D01*
X200410001Y-72023420D01*
G36*
X179904302Y-44481673D02*
X179725673Y-44660301D01*
X179629000Y-44893690D01*
X179629000Y-45434250D01*
X179787750Y-45593000D01*
X180712000Y-45593000D01*
X180712000Y-45573000D01*
X180966000Y-45573000D01*
X180966000Y-45593000D01*
X180986000Y-45593000D01*
X180986000Y-45847000D01*
X180966000Y-45847000D01*
X180966000Y-45867000D01*
X180712000Y-45867000D01*
X180712000Y-45847000D01*
X179787750Y-45847000D01*
X179629000Y-46005750D01*
X179629000Y-46546310D01*
X179725673Y-46779699D01*
X179904302Y-46958327D01*
X180023161Y-47007560D01*
X179500000Y-47007560D01*
X179375000Y-47032424D01*
X179250000Y-47007560D01*
X178700000Y-47007560D01*
X178575000Y-47032424D01*
X178450000Y-47007560D01*
X177900000Y-47007560D01*
X177652235Y-47056843D01*
X177442191Y-47197191D01*
X177301843Y-47407235D01*
X177252560Y-47655000D01*
X177252560Y-48982560D01*
X175925000Y-48982560D01*
X175791000Y-49009214D01*
X175791000Y-46178312D01*
X175806378Y-46101000D01*
X175791000Y-46023688D01*
X175791000Y-46023684D01*
X175745454Y-45794708D01*
X175571953Y-45535047D01*
X175506408Y-45491251D01*
X174502617Y-44487460D01*
X174575312Y-44473000D01*
X179925240Y-44473000D01*
X179904302Y-44481673D01*
X179904302Y-44481673D01*
G37*
X179904302Y-44481673D02*
X179725673Y-44660301D01*
X179629000Y-44893690D01*
X179629000Y-45434250D01*
X179787750Y-45593000D01*
X180712000Y-45593000D01*
X180712000Y-45573000D01*
X180966000Y-45573000D01*
X180966000Y-45593000D01*
X180986000Y-45593000D01*
X180986000Y-45847000D01*
X180966000Y-45847000D01*
X180966000Y-45867000D01*
X180712000Y-45867000D01*
X180712000Y-45847000D01*
X179787750Y-45847000D01*
X179629000Y-46005750D01*
X179629000Y-46546310D01*
X179725673Y-46779699D01*
X179904302Y-46958327D01*
X180023161Y-47007560D01*
X179500000Y-47007560D01*
X179375000Y-47032424D01*
X179250000Y-47007560D01*
X178700000Y-47007560D01*
X178575000Y-47032424D01*
X178450000Y-47007560D01*
X177900000Y-47007560D01*
X177652235Y-47056843D01*
X177442191Y-47197191D01*
X177301843Y-47407235D01*
X177252560Y-47655000D01*
X177252560Y-48982560D01*
X175925000Y-48982560D01*
X175791000Y-49009214D01*
X175791000Y-46178312D01*
X175806378Y-46101000D01*
X175791000Y-46023688D01*
X175791000Y-46023684D01*
X175745454Y-45794708D01*
X175571953Y-45535047D01*
X175506408Y-45491251D01*
X174502617Y-44487460D01*
X174575312Y-44473000D01*
X179925240Y-44473000D01*
X179904302Y-44481673D01*
G04 #@! TD*
M02*
