G04 #@! TF.GenerationSoftware,KiCad,Pcbnew,(5.0.2-5-10.14)*
G04 #@! TF.CreationDate,2019-10-07T17:27:23-04:00*
G04 #@! TF.ProjectId,mobo,6d6f626f-2e6b-4696-9361-645f70636258,rev?*
G04 #@! TF.SameCoordinates,Original*
G04 #@! TF.FileFunction,Copper,L4,Bot*
G04 #@! TF.FilePolarity,Positive*
%FSLAX46Y46*%
G04 Gerber Fmt 4.6, Leading zero omitted, Abs format (unit mm)*
G04 Created by KiCad (PCBNEW (5.0.2-5-10.14)) date Monday, October 07, 2019 at 05:27:23 PM*
%MOMM*%
%LPD*%
G01*
G04 APERTURE LIST*
G04 #@! TA.AperFunction,ComponentPad*
%ADD10R,1.600000X1.600000*%
G04 #@! TD*
G04 #@! TA.AperFunction,ComponentPad*
%ADD11O,1.600000X1.600000*%
G04 #@! TD*
G04 #@! TA.AperFunction,ComponentPad*
%ADD12C,1.600000*%
G04 #@! TD*
G04 #@! TA.AperFunction,ComponentPad*
%ADD13R,1.700000X1.700000*%
G04 #@! TD*
G04 #@! TA.AperFunction,ComponentPad*
%ADD14O,1.700000X1.700000*%
G04 #@! TD*
G04 #@! TA.AperFunction,ComponentPad*
%ADD15R,3.500000X3.500000*%
G04 #@! TD*
G04 #@! TA.AperFunction,Conductor*
%ADD16C,0.100000*%
G04 #@! TD*
G04 #@! TA.AperFunction,ComponentPad*
%ADD17C,3.000000*%
G04 #@! TD*
G04 #@! TA.AperFunction,ComponentPad*
%ADD18C,3.500000*%
G04 #@! TD*
G04 #@! TA.AperFunction,ViaPad*
%ADD19C,0.800000*%
G04 #@! TD*
G04 #@! TA.AperFunction,Conductor*
%ADD20C,1.000000*%
G04 #@! TD*
G04 #@! TA.AperFunction,Conductor*
%ADD21C,0.300000*%
G04 #@! TD*
G04 #@! TA.AperFunction,Conductor*
%ADD22C,0.254000*%
G04 #@! TD*
G04 APERTURE END LIST*
D10*
G04 #@! TO.P,A1,1*
G04 #@! TO.N,GND*
X210820000Y-91440000D03*
D11*
G04 #@! TO.P,A1,9*
G04 #@! TO.N,STP_EN*
X198120000Y-73660000D03*
G04 #@! TO.P,A1,2*
G04 #@! TO.N,Net-(A1-Pad2)*
X210820000Y-88900000D03*
G04 #@! TO.P,A1,10*
G04 #@! TO.N,Net-(A1-Pad10)*
X198120000Y-76200000D03*
G04 #@! TO.P,A1,3*
G04 #@! TO.N,Net-(A1-Pad3)*
X210820000Y-86360000D03*
G04 #@! TO.P,A1,11*
G04 #@! TO.N,Net-(A1-Pad11)*
X198120000Y-78740000D03*
G04 #@! TO.P,A1,4*
G04 #@! TO.N,Net-(A1-Pad4)*
X210820000Y-83820000D03*
G04 #@! TO.P,A1,12*
G04 #@! TO.N,Net-(A1-Pad12)*
X198120000Y-81280000D03*
G04 #@! TO.P,A1,5*
G04 #@! TO.N,Net-(A1-Pad5)*
X210820000Y-81280000D03*
G04 #@! TO.P,A1,13*
G04 #@! TO.N,+5V*
X198120000Y-83820000D03*
G04 #@! TO.P,A1,6*
G04 #@! TO.N,Net-(A1-Pad6)*
X210820000Y-78740000D03*
G04 #@! TO.P,A1,14*
G04 #@! TO.N,+5V*
X198120000Y-86360000D03*
G04 #@! TO.P,A1,7*
G04 #@! TO.N,GND*
X210820000Y-76200000D03*
G04 #@! TO.P,A1,15*
G04 #@! TO.N,V_STEP*
X198120000Y-88900000D03*
G04 #@! TO.P,A1,8*
G04 #@! TO.N,+12V*
X210820000Y-73660000D03*
G04 #@! TO.P,A1,16*
G04 #@! TO.N,V_DIR*
X198120000Y-91440000D03*
G04 #@! TD*
G04 #@! TO.P,A2,16*
G04 #@! TO.N,U_DIR*
X198120000Y-68580000D03*
G04 #@! TO.P,A2,8*
G04 #@! TO.N,+12V*
X210820000Y-50800000D03*
G04 #@! TO.P,A2,15*
G04 #@! TO.N,U_STEP*
X198120000Y-66040000D03*
G04 #@! TO.P,A2,7*
G04 #@! TO.N,GND*
X210820000Y-53340000D03*
G04 #@! TO.P,A2,14*
G04 #@! TO.N,+5V*
X198120000Y-63500000D03*
G04 #@! TO.P,A2,6*
G04 #@! TO.N,Net-(A2-Pad6)*
X210820000Y-55880000D03*
G04 #@! TO.P,A2,13*
G04 #@! TO.N,+5V*
X198120000Y-60960000D03*
G04 #@! TO.P,A2,5*
G04 #@! TO.N,Net-(A2-Pad5)*
X210820000Y-58420000D03*
G04 #@! TO.P,A2,12*
G04 #@! TO.N,Net-(A2-Pad12)*
X198120000Y-58420000D03*
G04 #@! TO.P,A2,4*
G04 #@! TO.N,Net-(A2-Pad4)*
X210820000Y-60960000D03*
G04 #@! TO.P,A2,11*
G04 #@! TO.N,Net-(A2-Pad11)*
X198120000Y-55880000D03*
G04 #@! TO.P,A2,3*
G04 #@! TO.N,Net-(A2-Pad3)*
X210820000Y-63500000D03*
G04 #@! TO.P,A2,10*
G04 #@! TO.N,Net-(A2-Pad10)*
X198120000Y-53340000D03*
G04 #@! TO.P,A2,2*
G04 #@! TO.N,Net-(A2-Pad2)*
X210820000Y-66040000D03*
G04 #@! TO.P,A2,9*
G04 #@! TO.N,STP_EN*
X198120000Y-50800000D03*
D10*
G04 #@! TO.P,A2,1*
G04 #@! TO.N,GND*
X210820000Y-68580000D03*
G04 #@! TD*
G04 #@! TO.P,A3,1*
G04 #@! TO.N,GND*
X210820000Y-45720000D03*
D11*
G04 #@! TO.P,A3,9*
G04 #@! TO.N,STP_EN*
X198120000Y-27940000D03*
G04 #@! TO.P,A3,2*
G04 #@! TO.N,Net-(A3-Pad2)*
X210820000Y-43180000D03*
G04 #@! TO.P,A3,10*
G04 #@! TO.N,Net-(A3-Pad10)*
X198120000Y-30480000D03*
G04 #@! TO.P,A3,3*
G04 #@! TO.N,Net-(A3-Pad3)*
X210820000Y-40640000D03*
G04 #@! TO.P,A3,11*
G04 #@! TO.N,Net-(A3-Pad11)*
X198120000Y-33020000D03*
G04 #@! TO.P,A3,4*
G04 #@! TO.N,Net-(A3-Pad4)*
X210820000Y-38100000D03*
G04 #@! TO.P,A3,12*
G04 #@! TO.N,Net-(A3-Pad12)*
X198120000Y-35560000D03*
G04 #@! TO.P,A3,5*
G04 #@! TO.N,Net-(A3-Pad5)*
X210820000Y-35560000D03*
G04 #@! TO.P,A3,13*
G04 #@! TO.N,+5V*
X198120000Y-38100000D03*
G04 #@! TO.P,A3,6*
G04 #@! TO.N,Net-(A3-Pad6)*
X210820000Y-33020000D03*
G04 #@! TO.P,A3,14*
G04 #@! TO.N,+5V*
X198120000Y-40640000D03*
G04 #@! TO.P,A3,7*
G04 #@! TO.N,GND*
X210820000Y-30480000D03*
G04 #@! TO.P,A3,15*
G04 #@! TO.N,X_STEP*
X198120000Y-43180000D03*
G04 #@! TO.P,A3,8*
G04 #@! TO.N,+12V*
X210820000Y-27940000D03*
G04 #@! TO.P,A3,16*
G04 #@! TO.N,X_DIR*
X198120000Y-45720000D03*
G04 #@! TD*
D10*
G04 #@! TO.P,C2,1*
G04 #@! TO.N,+12V*
X215900000Y-27940000D03*
D12*
G04 #@! TO.P,C2,2*
G04 #@! TO.N,GND*
X215900000Y-30440000D03*
G04 #@! TD*
G04 #@! TO.P,C3,2*
G04 #@! TO.N,GND*
X215900000Y-76160000D03*
D10*
G04 #@! TO.P,C3,1*
G04 #@! TO.N,+12V*
X215900000Y-73660000D03*
G04 #@! TD*
G04 #@! TO.P,C4,1*
G04 #@! TO.N,+12V*
X215900000Y-50800000D03*
D12*
G04 #@! TO.P,C4,2*
G04 #@! TO.N,GND*
X215900000Y-53300000D03*
G04 #@! TD*
D13*
G04 #@! TO.P,J1,1*
G04 #@! TO.N,RTS*
X170307000Y-58166000D03*
D14*
G04 #@! TO.P,J1,2*
G04 #@! TO.N,TX*
X170307000Y-55626000D03*
G04 #@! TO.P,J1,3*
G04 #@! TO.N,RX*
X170307000Y-53086000D03*
G04 #@! TO.P,J1,4*
G04 #@! TO.N,+5V*
X170307000Y-50546000D03*
G04 #@! TO.P,J1,5*
G04 #@! TO.N,CTS*
X170307000Y-48006000D03*
G04 #@! TO.P,J1,6*
G04 #@! TO.N,GND*
X170307000Y-45466000D03*
G04 #@! TD*
D15*
G04 #@! TO.P,J2,1*
G04 #@! TO.N,+12V*
X180340000Y-83185000D03*
D16*
G04 #@! TD*
G04 #@! TO.N,GND*
G04 #@! TO.C,J2*
G36*
X175163513Y-81438611D02*
X175236318Y-81449411D01*
X175307714Y-81467295D01*
X175377013Y-81492090D01*
X175443548Y-81523559D01*
X175506678Y-81561398D01*
X175565795Y-81605242D01*
X175620330Y-81654670D01*
X175669758Y-81709205D01*
X175713602Y-81768322D01*
X175751441Y-81831452D01*
X175782910Y-81897987D01*
X175807705Y-81967286D01*
X175825589Y-82038682D01*
X175836389Y-82111487D01*
X175840000Y-82185000D01*
X175840000Y-84185000D01*
X175836389Y-84258513D01*
X175825589Y-84331318D01*
X175807705Y-84402714D01*
X175782910Y-84472013D01*
X175751441Y-84538548D01*
X175713602Y-84601678D01*
X175669758Y-84660795D01*
X175620330Y-84715330D01*
X175565795Y-84764758D01*
X175506678Y-84808602D01*
X175443548Y-84846441D01*
X175377013Y-84877910D01*
X175307714Y-84902705D01*
X175236318Y-84920589D01*
X175163513Y-84931389D01*
X175090000Y-84935000D01*
X173590000Y-84935000D01*
X173516487Y-84931389D01*
X173443682Y-84920589D01*
X173372286Y-84902705D01*
X173302987Y-84877910D01*
X173236452Y-84846441D01*
X173173322Y-84808602D01*
X173114205Y-84764758D01*
X173059670Y-84715330D01*
X173010242Y-84660795D01*
X172966398Y-84601678D01*
X172928559Y-84538548D01*
X172897090Y-84472013D01*
X172872295Y-84402714D01*
X172854411Y-84331318D01*
X172843611Y-84258513D01*
X172840000Y-84185000D01*
X172840000Y-82185000D01*
X172843611Y-82111487D01*
X172854411Y-82038682D01*
X172872295Y-81967286D01*
X172897090Y-81897987D01*
X172928559Y-81831452D01*
X172966398Y-81768322D01*
X173010242Y-81709205D01*
X173059670Y-81654670D01*
X173114205Y-81605242D01*
X173173322Y-81561398D01*
X173236452Y-81523559D01*
X173302987Y-81492090D01*
X173372286Y-81467295D01*
X173443682Y-81449411D01*
X173516487Y-81438611D01*
X173590000Y-81435000D01*
X175090000Y-81435000D01*
X175163513Y-81438611D01*
X175163513Y-81438611D01*
G37*
D17*
G04 #@! TO.P,J2,2*
G04 #@! TO.N,GND*
X174340000Y-83185000D03*
D16*
G04 #@! TD*
G04 #@! TO.N,N/C*
G04 #@! TO.C,J2*
G36*
X178300765Y-86139213D02*
X178385704Y-86151813D01*
X178468999Y-86172677D01*
X178549848Y-86201605D01*
X178627472Y-86238319D01*
X178701124Y-86282464D01*
X178770094Y-86333616D01*
X178833718Y-86391282D01*
X178891384Y-86454906D01*
X178942536Y-86523876D01*
X178986681Y-86597528D01*
X179023395Y-86675152D01*
X179052323Y-86756001D01*
X179073187Y-86839296D01*
X179085787Y-86924235D01*
X179090000Y-87010000D01*
X179090000Y-88760000D01*
X179085787Y-88845765D01*
X179073187Y-88930704D01*
X179052323Y-89013999D01*
X179023395Y-89094848D01*
X178986681Y-89172472D01*
X178942536Y-89246124D01*
X178891384Y-89315094D01*
X178833718Y-89378718D01*
X178770094Y-89436384D01*
X178701124Y-89487536D01*
X178627472Y-89531681D01*
X178549848Y-89568395D01*
X178468999Y-89597323D01*
X178385704Y-89618187D01*
X178300765Y-89630787D01*
X178215000Y-89635000D01*
X176465000Y-89635000D01*
X176379235Y-89630787D01*
X176294296Y-89618187D01*
X176211001Y-89597323D01*
X176130152Y-89568395D01*
X176052528Y-89531681D01*
X175978876Y-89487536D01*
X175909906Y-89436384D01*
X175846282Y-89378718D01*
X175788616Y-89315094D01*
X175737464Y-89246124D01*
X175693319Y-89172472D01*
X175656605Y-89094848D01*
X175627677Y-89013999D01*
X175606813Y-88930704D01*
X175594213Y-88845765D01*
X175590000Y-88760000D01*
X175590000Y-87010000D01*
X175594213Y-86924235D01*
X175606813Y-86839296D01*
X175627677Y-86756001D01*
X175656605Y-86675152D01*
X175693319Y-86597528D01*
X175737464Y-86523876D01*
X175788616Y-86454906D01*
X175846282Y-86391282D01*
X175909906Y-86333616D01*
X175978876Y-86282464D01*
X176052528Y-86238319D01*
X176130152Y-86201605D01*
X176211001Y-86172677D01*
X176294296Y-86151813D01*
X176379235Y-86139213D01*
X176465000Y-86135000D01*
X178215000Y-86135000D01*
X178300765Y-86139213D01*
X178300765Y-86139213D01*
G37*
D18*
G04 #@! TO.P,J2,3*
G04 #@! TO.N,N/C*
X177340000Y-87885000D03*
G04 #@! TD*
D13*
G04 #@! TO.P,J3,1*
G04 #@! TO.N,MISO*
X175387000Y-39370000D03*
D14*
G04 #@! TO.P,J3,2*
G04 #@! TO.N,+5V*
X175387000Y-36830000D03*
G04 #@! TO.P,J3,3*
G04 #@! TO.N,SCK*
X172847000Y-39370000D03*
G04 #@! TO.P,J3,4*
G04 #@! TO.N,MOSI*
X172847000Y-36830000D03*
G04 #@! TO.P,J3,5*
G04 #@! TO.N,RESET*
X170307000Y-39370000D03*
G04 #@! TO.P,J3,6*
G04 #@! TO.N,GND*
X170307000Y-36830000D03*
G04 #@! TD*
D13*
G04 #@! TO.P,J4,1*
G04 #@! TO.N,+5V*
X181102000Y-36703000D03*
D14*
G04 #@! TO.P,J4,2*
G04 #@! TO.N,MOSI*
X183642000Y-36703000D03*
G04 #@! TO.P,J4,3*
G04 #@! TO.N,GND*
X186182000Y-36703000D03*
G04 #@! TD*
D13*
G04 #@! TO.P,J5,1*
G04 #@! TO.N,Net-(A1-Pad3)*
X215900000Y-87630000D03*
D14*
G04 #@! TO.P,J5,2*
G04 #@! TO.N,Net-(A1-Pad4)*
X215900000Y-85090000D03*
G04 #@! TO.P,J5,3*
G04 #@! TO.N,Net-(A1-Pad5)*
X215900000Y-82550000D03*
G04 #@! TO.P,J5,4*
G04 #@! TO.N,Net-(A1-Pad6)*
X215900000Y-80010000D03*
G04 #@! TD*
G04 #@! TO.P,J6,4*
G04 #@! TO.N,Net-(A2-Pad6)*
X215900000Y-57150000D03*
G04 #@! TO.P,J6,3*
G04 #@! TO.N,Net-(A2-Pad5)*
X215900000Y-59690000D03*
G04 #@! TO.P,J6,2*
G04 #@! TO.N,Net-(A2-Pad4)*
X215900000Y-62230000D03*
D13*
G04 #@! TO.P,J6,1*
G04 #@! TO.N,Net-(A2-Pad3)*
X215900000Y-64770000D03*
G04 #@! TD*
G04 #@! TO.P,J7,1*
G04 #@! TO.N,Net-(A3-Pad3)*
X215900000Y-41910000D03*
D14*
G04 #@! TO.P,J7,2*
G04 #@! TO.N,Net-(A3-Pad4)*
X215900000Y-39370000D03*
G04 #@! TO.P,J7,3*
G04 #@! TO.N,Net-(A3-Pad5)*
X215900000Y-36830000D03*
G04 #@! TO.P,J7,4*
G04 #@! TO.N,Net-(A3-Pad6)*
X215900000Y-34290000D03*
G04 #@! TD*
D19*
G04 #@! TO.N,GND*
X180594000Y-58801000D03*
X183388000Y-63119000D03*
X179451000Y-45847000D03*
G04 #@! TO.N,+5V*
X182245000Y-55245000D03*
X182880000Y-50165000D03*
X186055000Y-84074000D03*
X185039000Y-84074000D03*
X187071000Y-84074000D03*
X186055000Y-93726000D03*
G04 #@! TO.N,+12V*
X189865000Y-94615000D03*
X206375000Y-94615000D03*
G04 #@! TO.N,V_DIR*
X194818000Y-67183000D03*
X194818000Y-91440000D03*
G04 #@! TO.N,U_STEP*
X178181000Y-66040000D03*
G04 #@! TO.N,X_STEP*
X178435000Y-50165000D03*
G04 #@! TO.N,X_DIR*
X186944000Y-55499000D03*
G04 #@! TD*
D20*
G04 #@! TO.N,Net-(A1-Pad3)*
X215900000Y-87630000D02*
X213360000Y-87630000D01*
X213360000Y-87630000D02*
X212090000Y-86360000D01*
X212090000Y-86360000D02*
X210820000Y-86360000D01*
G04 #@! TO.N,Net-(A1-Pad4)*
X215900000Y-85090000D02*
X213995000Y-85090000D01*
X213995000Y-85090000D02*
X212725000Y-83820000D01*
X212725000Y-83820000D02*
X210820000Y-83820000D01*
G04 #@! TO.N,Net-(A1-Pad5)*
X215900000Y-82550000D02*
X214630000Y-82550000D01*
X214630000Y-82550000D02*
X213360000Y-81280000D01*
X213360000Y-81280000D02*
X210820000Y-81280000D01*
G04 #@! TO.N,Net-(A1-Pad6)*
X215900000Y-80010000D02*
X214630000Y-78740000D01*
X214630000Y-78740000D02*
X210820000Y-78740000D01*
G04 #@! TO.N,+12V*
X207645000Y-73660000D02*
X210820000Y-73660000D01*
X207645000Y-50800000D02*
X210820000Y-50800000D01*
X187325000Y-88900000D02*
X183515000Y-88900000D01*
X188341000Y-93091000D02*
X188341000Y-89916000D01*
X206375000Y-94615000D02*
X206375000Y-94615000D01*
X189865000Y-94615000D02*
X188341000Y-93091000D01*
X207645000Y-29337000D02*
X207645000Y-93345000D01*
X183515000Y-88900000D02*
X180340000Y-85725000D01*
X209042000Y-27940000D02*
X207645000Y-29337000D01*
X207645000Y-93345000D02*
X206375000Y-94615000D01*
X188341000Y-89916000D02*
X187325000Y-88900000D01*
X210820000Y-27940000D02*
X209042000Y-27940000D01*
X180340000Y-85725000D02*
X180340000Y-83185000D01*
X215900000Y-27940000D02*
X210820000Y-27940000D01*
X215900000Y-50800000D02*
X210820000Y-50800000D01*
X215900000Y-73660000D02*
X210820000Y-73660000D01*
X189865000Y-94615000D02*
X189865000Y-94615000D01*
X206375000Y-94615000D02*
X189865000Y-94615000D01*
D21*
G04 #@! TO.N,V_DIR*
X194818000Y-67183000D02*
X194818000Y-91440000D01*
G04 #@! TO.N,U_STEP*
X178943000Y-66040000D02*
X198120000Y-66040000D01*
X178181000Y-66040000D02*
X178943000Y-66040000D01*
D20*
G04 #@! TO.N,Net-(A2-Pad6)*
X215900000Y-57150000D02*
X214630000Y-55880000D01*
X214630000Y-55880000D02*
X210820000Y-55880000D01*
G04 #@! TO.N,Net-(A2-Pad5)*
X215900000Y-59690000D02*
X214630000Y-59690000D01*
X214630000Y-59690000D02*
X213360000Y-58420000D01*
X213360000Y-58420000D02*
X210820000Y-58420000D01*
G04 #@! TO.N,Net-(A2-Pad4)*
X215900000Y-62230000D02*
X213995000Y-62230000D01*
X213995000Y-62230000D02*
X212725000Y-60960000D01*
X212725000Y-60960000D02*
X210820000Y-60960000D01*
G04 #@! TO.N,Net-(A2-Pad3)*
X215900000Y-64770000D02*
X213360000Y-64770000D01*
X213360000Y-64770000D02*
X212090000Y-63500000D01*
X212090000Y-63500000D02*
X210820000Y-63500000D01*
G04 #@! TO.N,Net-(A3-Pad3)*
X215900000Y-41910000D02*
X213360000Y-41910000D01*
X213360000Y-41910000D02*
X212090000Y-40640000D01*
X212090000Y-40640000D02*
X210820000Y-40640000D01*
G04 #@! TO.N,Net-(A3-Pad4)*
X215900000Y-39370000D02*
X213995000Y-39370000D01*
X213995000Y-39370000D02*
X212725000Y-38100000D01*
X212725000Y-38100000D02*
X210820000Y-38100000D01*
G04 #@! TO.N,Net-(A3-Pad5)*
X215900000Y-36830000D02*
X214630000Y-36830000D01*
X214630000Y-36830000D02*
X213360000Y-35560000D01*
X213360000Y-35560000D02*
X210820000Y-35560000D01*
G04 #@! TO.N,Net-(A3-Pad6)*
X215900000Y-34290000D02*
X214630000Y-33020000D01*
X214630000Y-33020000D02*
X210820000Y-33020000D01*
D21*
G04 #@! TO.N,X_STEP*
X186682999Y-46870001D02*
X190373000Y-43180000D01*
X181729999Y-46870001D02*
X186682999Y-46870001D01*
X190373000Y-43180000D02*
X198120000Y-43180000D01*
X178435000Y-50165000D02*
X181729999Y-46870001D01*
G04 #@! TO.N,X_DIR*
X186944000Y-55499000D02*
X186944000Y-49784000D01*
X191008000Y-45720000D02*
X198120000Y-45720000D01*
X186944000Y-49784000D02*
X191008000Y-45720000D01*
G04 #@! TD*
D22*
G04 #@! TO.N,GND*
G36*
X220245001Y-95785000D02*
X167105000Y-95785000D01*
X167105000Y-92743451D01*
X167442158Y-92743451D01*
X167561594Y-93510527D01*
X167891521Y-94213250D01*
X168405418Y-94795127D01*
X169061972Y-95209382D01*
X169808405Y-95422713D01*
X170584709Y-95417971D01*
X171328479Y-95195536D01*
X171979924Y-94773291D01*
X172486673Y-94185179D01*
X172789054Y-93520126D01*
X185020000Y-93520126D01*
X185020000Y-93931874D01*
X185177569Y-94312280D01*
X185468720Y-94603431D01*
X185849126Y-94761000D01*
X186260874Y-94761000D01*
X186641280Y-94603431D01*
X186932431Y-94312280D01*
X187090000Y-93931874D01*
X187090000Y-93520126D01*
X186932431Y-93139720D01*
X186641280Y-92848569D01*
X186260874Y-92691000D01*
X185849126Y-92691000D01*
X185468720Y-92848569D01*
X185177569Y-93139720D01*
X185020000Y-93520126D01*
X172789054Y-93520126D01*
X172807991Y-93478478D01*
X172918046Y-92710000D01*
X172917229Y-92643104D01*
X172788431Y-91877543D01*
X172449943Y-91178904D01*
X171928976Y-90603349D01*
X171267409Y-90197146D01*
X170518427Y-89992950D01*
X169742238Y-90007175D01*
X169001241Y-90238680D01*
X168355003Y-90668852D01*
X167855476Y-91263112D01*
X167542817Y-91973685D01*
X167442158Y-92743451D01*
X167105000Y-92743451D01*
X167105000Y-87010000D01*
X174942560Y-87010000D01*
X174942560Y-88760000D01*
X175058449Y-89342613D01*
X175388472Y-89836528D01*
X175882387Y-90166551D01*
X176465000Y-90282440D01*
X178215000Y-90282440D01*
X178797613Y-90166551D01*
X179291528Y-89836528D01*
X179621551Y-89342613D01*
X179737440Y-88760000D01*
X179737440Y-87010000D01*
X179667312Y-86657443D01*
X182633389Y-89623521D01*
X182696711Y-89718289D01*
X183020409Y-89934577D01*
X183072145Y-89969146D01*
X183514999Y-90057235D01*
X183626782Y-90035000D01*
X186854869Y-90035000D01*
X187206001Y-90386132D01*
X187206000Y-92979217D01*
X187183765Y-93091000D01*
X187206000Y-93202782D01*
X187271854Y-93533854D01*
X187522711Y-93909289D01*
X187617481Y-93972613D01*
X188983391Y-95338524D01*
X189046711Y-95433289D01*
X189422145Y-95684146D01*
X189753217Y-95750000D01*
X189864999Y-95772235D01*
X189976781Y-95750000D01*
X206263217Y-95750000D01*
X206375000Y-95772235D01*
X206486783Y-95750000D01*
X206817855Y-95684146D01*
X207193289Y-95433289D01*
X207256613Y-95338518D01*
X208368521Y-94226611D01*
X208463289Y-94163289D01*
X208714146Y-93787855D01*
X208762283Y-93545854D01*
X208802235Y-93345001D01*
X208780000Y-93233218D01*
X208780000Y-91725750D01*
X209385000Y-91725750D01*
X209385000Y-92366310D01*
X209481673Y-92599699D01*
X209660302Y-92778327D01*
X209893691Y-92875000D01*
X210534250Y-92875000D01*
X210693000Y-92716250D01*
X210693000Y-91567000D01*
X210947000Y-91567000D01*
X210947000Y-92716250D01*
X211105750Y-92875000D01*
X211746309Y-92875000D01*
X211979698Y-92778327D01*
X212015833Y-92742192D01*
X214535197Y-92742192D01*
X214650137Y-93480399D01*
X214967648Y-94156675D01*
X215462204Y-94716653D01*
X216094049Y-95115318D01*
X216812389Y-95320621D01*
X217559478Y-95316057D01*
X218275256Y-95101994D01*
X218902184Y-94695640D01*
X219389862Y-94129661D01*
X219699087Y-93449557D01*
X219805000Y-92710000D01*
X219804213Y-92645621D01*
X219680263Y-91908873D01*
X219354514Y-91236527D01*
X218853153Y-90682632D01*
X218216485Y-90291717D01*
X217495690Y-90095205D01*
X216748713Y-90108896D01*
X216035603Y-90331688D01*
X215413687Y-90745671D01*
X214932960Y-91317565D01*
X214632067Y-92001396D01*
X214535197Y-92742192D01*
X212015833Y-92742192D01*
X212158327Y-92599699D01*
X212255000Y-92366310D01*
X212255000Y-91725750D01*
X212096250Y-91567000D01*
X210947000Y-91567000D01*
X210693000Y-91567000D01*
X209543750Y-91567000D01*
X209385000Y-91725750D01*
X208780000Y-91725750D01*
X208780000Y-78740000D01*
X209356887Y-78740000D01*
X209468260Y-79299909D01*
X209785423Y-79774577D01*
X210137758Y-80010000D01*
X209785423Y-80245423D01*
X209468260Y-80720091D01*
X209356887Y-81280000D01*
X209468260Y-81839909D01*
X209785423Y-82314577D01*
X210137758Y-82550000D01*
X209785423Y-82785423D01*
X209468260Y-83260091D01*
X209356887Y-83820000D01*
X209468260Y-84379909D01*
X209785423Y-84854577D01*
X210137758Y-85090000D01*
X209785423Y-85325423D01*
X209468260Y-85800091D01*
X209356887Y-86360000D01*
X209468260Y-86919909D01*
X209785423Y-87394577D01*
X210137758Y-87630000D01*
X209785423Y-87865423D01*
X209468260Y-88340091D01*
X209356887Y-88900000D01*
X209468260Y-89459909D01*
X209785423Y-89934577D01*
X209891918Y-90005735D01*
X209660302Y-90101673D01*
X209481673Y-90280301D01*
X209385000Y-90513690D01*
X209385000Y-91154250D01*
X209543750Y-91313000D01*
X210693000Y-91313000D01*
X210693000Y-91293000D01*
X210947000Y-91293000D01*
X210947000Y-91313000D01*
X212096250Y-91313000D01*
X212255000Y-91154250D01*
X212255000Y-90513690D01*
X212158327Y-90280301D01*
X211979698Y-90101673D01*
X211748082Y-90005735D01*
X211854577Y-89934577D01*
X212171740Y-89459909D01*
X212283113Y-88900000D01*
X212171740Y-88340091D01*
X211854577Y-87865423D01*
X211502242Y-87630000D01*
X211653680Y-87528812D01*
X212478389Y-88353521D01*
X212541711Y-88448289D01*
X212917145Y-88699146D01*
X213359999Y-88787235D01*
X213471782Y-88765000D01*
X214476723Y-88765000D01*
X214592191Y-88937809D01*
X214802235Y-89078157D01*
X215050000Y-89127440D01*
X216750000Y-89127440D01*
X216997765Y-89078157D01*
X217207809Y-88937809D01*
X217348157Y-88727765D01*
X217397440Y-88480000D01*
X217397440Y-86780000D01*
X217348157Y-86532235D01*
X217207809Y-86322191D01*
X216997765Y-86181843D01*
X216952381Y-86172816D01*
X216970625Y-86160625D01*
X217298839Y-85669418D01*
X217414092Y-85090000D01*
X217298839Y-84510582D01*
X216970625Y-84019375D01*
X216672239Y-83820000D01*
X216970625Y-83620625D01*
X217298839Y-83129418D01*
X217414092Y-82550000D01*
X217298839Y-81970582D01*
X216970625Y-81479375D01*
X216672239Y-81280000D01*
X216970625Y-81080625D01*
X217298839Y-80589418D01*
X217414092Y-80010000D01*
X217298839Y-79430582D01*
X216970625Y-78939375D01*
X216479418Y-78611161D01*
X216046256Y-78525000D01*
X216020131Y-78525000D01*
X215511613Y-78016482D01*
X215448289Y-77921711D01*
X215072855Y-77670854D01*
X214741783Y-77605000D01*
X214630000Y-77582765D01*
X214518217Y-77605000D01*
X211704283Y-77605000D01*
X211470892Y-77449053D01*
X211675134Y-77352389D01*
X211842398Y-77167745D01*
X215071861Y-77167745D01*
X215145995Y-77413864D01*
X215683223Y-77606965D01*
X216253454Y-77579778D01*
X216654005Y-77413864D01*
X216728139Y-77167745D01*
X215900000Y-76339605D01*
X215071861Y-77167745D01*
X211842398Y-77167745D01*
X212051041Y-76937423D01*
X212211904Y-76549039D01*
X212089915Y-76327000D01*
X210947000Y-76327000D01*
X210947000Y-76347000D01*
X210693000Y-76347000D01*
X210693000Y-76327000D01*
X209550085Y-76327000D01*
X209428096Y-76549039D01*
X209588959Y-76937423D01*
X209964866Y-77352389D01*
X210169108Y-77449053D01*
X209785423Y-77705423D01*
X209468260Y-78180091D01*
X209356887Y-78740000D01*
X208780000Y-78740000D01*
X208780000Y-74795000D01*
X209935717Y-74795000D01*
X210169108Y-74950947D01*
X209964866Y-75047611D01*
X209588959Y-75462577D01*
X209428096Y-75850961D01*
X209550085Y-76073000D01*
X210693000Y-76073000D01*
X210693000Y-76053000D01*
X210947000Y-76053000D01*
X210947000Y-76073000D01*
X212089915Y-76073000D01*
X212161214Y-75943223D01*
X214453035Y-75943223D01*
X214480222Y-76513454D01*
X214646136Y-76914005D01*
X214892255Y-76988139D01*
X215720395Y-76160000D01*
X216079605Y-76160000D01*
X216907745Y-76988139D01*
X217153864Y-76914005D01*
X217346965Y-76376777D01*
X217319778Y-75806546D01*
X217153864Y-75405995D01*
X216907745Y-75331861D01*
X216079605Y-76160000D01*
X215720395Y-76160000D01*
X214892255Y-75331861D01*
X214646136Y-75405995D01*
X214453035Y-75943223D01*
X212161214Y-75943223D01*
X212211904Y-75850961D01*
X212051041Y-75462577D01*
X211675134Y-75047611D01*
X211470892Y-74950947D01*
X211704283Y-74795000D01*
X214560132Y-74795000D01*
X214642191Y-74917809D01*
X214852235Y-75058157D01*
X215086187Y-75104693D01*
X215071861Y-75152255D01*
X215900000Y-75980395D01*
X216728139Y-75152255D01*
X216713813Y-75104693D01*
X216947765Y-75058157D01*
X217157809Y-74917809D01*
X217298157Y-74707765D01*
X217347440Y-74460000D01*
X217347440Y-72860000D01*
X217298157Y-72612235D01*
X217157809Y-72402191D01*
X216947765Y-72261843D01*
X216700000Y-72212560D01*
X215100000Y-72212560D01*
X214852235Y-72261843D01*
X214642191Y-72402191D01*
X214560132Y-72525000D01*
X211704283Y-72525000D01*
X211379909Y-72308260D01*
X210961333Y-72225000D01*
X210678667Y-72225000D01*
X210260091Y-72308260D01*
X209935717Y-72525000D01*
X208780000Y-72525000D01*
X208780000Y-68865750D01*
X209385000Y-68865750D01*
X209385000Y-69506310D01*
X209481673Y-69739699D01*
X209660302Y-69918327D01*
X209893691Y-70015000D01*
X210534250Y-70015000D01*
X210693000Y-69856250D01*
X210693000Y-68707000D01*
X210947000Y-68707000D01*
X210947000Y-69856250D01*
X211105750Y-70015000D01*
X211746309Y-70015000D01*
X211979698Y-69918327D01*
X212158327Y-69739699D01*
X212255000Y-69506310D01*
X212255000Y-68865750D01*
X212096250Y-68707000D01*
X210947000Y-68707000D01*
X210693000Y-68707000D01*
X209543750Y-68707000D01*
X209385000Y-68865750D01*
X208780000Y-68865750D01*
X208780000Y-55880000D01*
X209356887Y-55880000D01*
X209468260Y-56439909D01*
X209785423Y-56914577D01*
X210137758Y-57150000D01*
X209785423Y-57385423D01*
X209468260Y-57860091D01*
X209356887Y-58420000D01*
X209468260Y-58979909D01*
X209785423Y-59454577D01*
X210137758Y-59690000D01*
X209785423Y-59925423D01*
X209468260Y-60400091D01*
X209356887Y-60960000D01*
X209468260Y-61519909D01*
X209785423Y-61994577D01*
X210137758Y-62230000D01*
X209785423Y-62465423D01*
X209468260Y-62940091D01*
X209356887Y-63500000D01*
X209468260Y-64059909D01*
X209785423Y-64534577D01*
X210137758Y-64770000D01*
X209785423Y-65005423D01*
X209468260Y-65480091D01*
X209356887Y-66040000D01*
X209468260Y-66599909D01*
X209785423Y-67074577D01*
X209891918Y-67145735D01*
X209660302Y-67241673D01*
X209481673Y-67420301D01*
X209385000Y-67653690D01*
X209385000Y-68294250D01*
X209543750Y-68453000D01*
X210693000Y-68453000D01*
X210693000Y-68433000D01*
X210947000Y-68433000D01*
X210947000Y-68453000D01*
X212096250Y-68453000D01*
X212255000Y-68294250D01*
X212255000Y-67653690D01*
X212158327Y-67420301D01*
X211979698Y-67241673D01*
X211748082Y-67145735D01*
X211854577Y-67074577D01*
X212171740Y-66599909D01*
X212283113Y-66040000D01*
X212171740Y-65480091D01*
X211854577Y-65005423D01*
X211502242Y-64770000D01*
X211653680Y-64668812D01*
X212478389Y-65493521D01*
X212541711Y-65588289D01*
X212909632Y-65834126D01*
X212917145Y-65839146D01*
X213359999Y-65927235D01*
X213471782Y-65905000D01*
X214476723Y-65905000D01*
X214592191Y-66077809D01*
X214802235Y-66218157D01*
X215050000Y-66267440D01*
X216750000Y-66267440D01*
X216997765Y-66218157D01*
X217207809Y-66077809D01*
X217348157Y-65867765D01*
X217397440Y-65620000D01*
X217397440Y-63920000D01*
X217348157Y-63672235D01*
X217207809Y-63462191D01*
X216997765Y-63321843D01*
X216952381Y-63312816D01*
X216970625Y-63300625D01*
X217298839Y-62809418D01*
X217414092Y-62230000D01*
X217298839Y-61650582D01*
X216970625Y-61159375D01*
X216672239Y-60960000D01*
X216970625Y-60760625D01*
X217298839Y-60269418D01*
X217414092Y-59690000D01*
X217298839Y-59110582D01*
X216970625Y-58619375D01*
X216672239Y-58420000D01*
X216970625Y-58220625D01*
X217298839Y-57729418D01*
X217414092Y-57150000D01*
X217298839Y-56570582D01*
X216970625Y-56079375D01*
X216479418Y-55751161D01*
X216046256Y-55665000D01*
X216020131Y-55665000D01*
X215511613Y-55156482D01*
X215448289Y-55061711D01*
X215072855Y-54810854D01*
X214741783Y-54745000D01*
X214630000Y-54722765D01*
X214518217Y-54745000D01*
X211704283Y-54745000D01*
X211470892Y-54589053D01*
X211675134Y-54492389D01*
X211842398Y-54307745D01*
X215071861Y-54307745D01*
X215145995Y-54553864D01*
X215683223Y-54746965D01*
X216253454Y-54719778D01*
X216654005Y-54553864D01*
X216728139Y-54307745D01*
X215900000Y-53479605D01*
X215071861Y-54307745D01*
X211842398Y-54307745D01*
X212051041Y-54077423D01*
X212211904Y-53689039D01*
X212089915Y-53467000D01*
X210947000Y-53467000D01*
X210947000Y-53487000D01*
X210693000Y-53487000D01*
X210693000Y-53467000D01*
X209550085Y-53467000D01*
X209428096Y-53689039D01*
X209588959Y-54077423D01*
X209964866Y-54492389D01*
X210169108Y-54589053D01*
X209785423Y-54845423D01*
X209468260Y-55320091D01*
X209356887Y-55880000D01*
X208780000Y-55880000D01*
X208780000Y-51935000D01*
X209935717Y-51935000D01*
X210169108Y-52090947D01*
X209964866Y-52187611D01*
X209588959Y-52602577D01*
X209428096Y-52990961D01*
X209550085Y-53213000D01*
X210693000Y-53213000D01*
X210693000Y-53193000D01*
X210947000Y-53193000D01*
X210947000Y-53213000D01*
X212089915Y-53213000D01*
X212161214Y-53083223D01*
X214453035Y-53083223D01*
X214480222Y-53653454D01*
X214646136Y-54054005D01*
X214892255Y-54128139D01*
X215720395Y-53300000D01*
X216079605Y-53300000D01*
X216907745Y-54128139D01*
X217153864Y-54054005D01*
X217346965Y-53516777D01*
X217319778Y-52946546D01*
X217153864Y-52545995D01*
X216907745Y-52471861D01*
X216079605Y-53300000D01*
X215720395Y-53300000D01*
X214892255Y-52471861D01*
X214646136Y-52545995D01*
X214453035Y-53083223D01*
X212161214Y-53083223D01*
X212211904Y-52990961D01*
X212051041Y-52602577D01*
X211675134Y-52187611D01*
X211470892Y-52090947D01*
X211704283Y-51935000D01*
X214560132Y-51935000D01*
X214642191Y-52057809D01*
X214852235Y-52198157D01*
X215086187Y-52244693D01*
X215071861Y-52292255D01*
X215900000Y-53120395D01*
X216728139Y-52292255D01*
X216713813Y-52244693D01*
X216947765Y-52198157D01*
X217157809Y-52057809D01*
X217298157Y-51847765D01*
X217347440Y-51600000D01*
X217347440Y-50000000D01*
X217298157Y-49752235D01*
X217157809Y-49542191D01*
X216947765Y-49401843D01*
X216700000Y-49352560D01*
X215100000Y-49352560D01*
X214852235Y-49401843D01*
X214642191Y-49542191D01*
X214560132Y-49665000D01*
X211704283Y-49665000D01*
X211379909Y-49448260D01*
X210961333Y-49365000D01*
X210678667Y-49365000D01*
X210260091Y-49448260D01*
X209935717Y-49665000D01*
X208780000Y-49665000D01*
X208780000Y-46005750D01*
X209385000Y-46005750D01*
X209385000Y-46646310D01*
X209481673Y-46879699D01*
X209660302Y-47058327D01*
X209893691Y-47155000D01*
X210534250Y-47155000D01*
X210693000Y-46996250D01*
X210693000Y-45847000D01*
X210947000Y-45847000D01*
X210947000Y-46996250D01*
X211105750Y-47155000D01*
X211746309Y-47155000D01*
X211979698Y-47058327D01*
X212158327Y-46879699D01*
X212255000Y-46646310D01*
X212255000Y-46005750D01*
X212096250Y-45847000D01*
X210947000Y-45847000D01*
X210693000Y-45847000D01*
X209543750Y-45847000D01*
X209385000Y-46005750D01*
X208780000Y-46005750D01*
X208780000Y-33020000D01*
X209356887Y-33020000D01*
X209468260Y-33579909D01*
X209785423Y-34054577D01*
X210137758Y-34290000D01*
X209785423Y-34525423D01*
X209468260Y-35000091D01*
X209356887Y-35560000D01*
X209468260Y-36119909D01*
X209785423Y-36594577D01*
X210137758Y-36830000D01*
X209785423Y-37065423D01*
X209468260Y-37540091D01*
X209356887Y-38100000D01*
X209468260Y-38659909D01*
X209785423Y-39134577D01*
X210137758Y-39370000D01*
X209785423Y-39605423D01*
X209468260Y-40080091D01*
X209356887Y-40640000D01*
X209468260Y-41199909D01*
X209785423Y-41674577D01*
X210137758Y-41910000D01*
X209785423Y-42145423D01*
X209468260Y-42620091D01*
X209356887Y-43180000D01*
X209468260Y-43739909D01*
X209785423Y-44214577D01*
X209891918Y-44285735D01*
X209660302Y-44381673D01*
X209481673Y-44560301D01*
X209385000Y-44793690D01*
X209385000Y-45434250D01*
X209543750Y-45593000D01*
X210693000Y-45593000D01*
X210693000Y-45573000D01*
X210947000Y-45573000D01*
X210947000Y-45593000D01*
X212096250Y-45593000D01*
X212255000Y-45434250D01*
X212255000Y-44793690D01*
X212158327Y-44560301D01*
X211979698Y-44381673D01*
X211748082Y-44285735D01*
X211854577Y-44214577D01*
X212171740Y-43739909D01*
X212283113Y-43180000D01*
X212171740Y-42620091D01*
X211854577Y-42145423D01*
X211502242Y-41910000D01*
X211653680Y-41808812D01*
X212478389Y-42633521D01*
X212541711Y-42728289D01*
X212917145Y-42979146D01*
X213359999Y-43067235D01*
X213471782Y-43045000D01*
X214476723Y-43045000D01*
X214592191Y-43217809D01*
X214802235Y-43358157D01*
X215050000Y-43407440D01*
X216750000Y-43407440D01*
X216997765Y-43358157D01*
X217207809Y-43217809D01*
X217348157Y-43007765D01*
X217397440Y-42760000D01*
X217397440Y-41060000D01*
X217348157Y-40812235D01*
X217207809Y-40602191D01*
X216997765Y-40461843D01*
X216952381Y-40452816D01*
X216970625Y-40440625D01*
X217298839Y-39949418D01*
X217414092Y-39370000D01*
X217298839Y-38790582D01*
X216970625Y-38299375D01*
X216672239Y-38100000D01*
X216970625Y-37900625D01*
X217298839Y-37409418D01*
X217414092Y-36830000D01*
X217298839Y-36250582D01*
X216970625Y-35759375D01*
X216672239Y-35560000D01*
X216970625Y-35360625D01*
X217298839Y-34869418D01*
X217414092Y-34290000D01*
X217298839Y-33710582D01*
X216970625Y-33219375D01*
X216479418Y-32891161D01*
X216046256Y-32805000D01*
X216020131Y-32805000D01*
X215511613Y-32296482D01*
X215448289Y-32201711D01*
X215072855Y-31950854D01*
X214741783Y-31885000D01*
X214630000Y-31862765D01*
X214518217Y-31885000D01*
X211704283Y-31885000D01*
X211470892Y-31729053D01*
X211675134Y-31632389D01*
X211842398Y-31447745D01*
X215071861Y-31447745D01*
X215145995Y-31693864D01*
X215683223Y-31886965D01*
X216253454Y-31859778D01*
X216654005Y-31693864D01*
X216728139Y-31447745D01*
X215900000Y-30619605D01*
X215071861Y-31447745D01*
X211842398Y-31447745D01*
X212051041Y-31217423D01*
X212211904Y-30829039D01*
X212089915Y-30607000D01*
X210947000Y-30607000D01*
X210947000Y-30627000D01*
X210693000Y-30627000D01*
X210693000Y-30607000D01*
X209550085Y-30607000D01*
X209428096Y-30829039D01*
X209588959Y-31217423D01*
X209964866Y-31632389D01*
X210169108Y-31729053D01*
X209785423Y-31985423D01*
X209468260Y-32460091D01*
X209356887Y-33020000D01*
X208780000Y-33020000D01*
X208780000Y-29807131D01*
X209512132Y-29075000D01*
X209935717Y-29075000D01*
X210169108Y-29230947D01*
X209964866Y-29327611D01*
X209588959Y-29742577D01*
X209428096Y-30130961D01*
X209550085Y-30353000D01*
X210693000Y-30353000D01*
X210693000Y-30333000D01*
X210947000Y-30333000D01*
X210947000Y-30353000D01*
X212089915Y-30353000D01*
X212161214Y-30223223D01*
X214453035Y-30223223D01*
X214480222Y-30793454D01*
X214646136Y-31194005D01*
X214892255Y-31268139D01*
X215720395Y-30440000D01*
X216079605Y-30440000D01*
X216907745Y-31268139D01*
X217153864Y-31194005D01*
X217346965Y-30656777D01*
X217319778Y-30086546D01*
X217153864Y-29685995D01*
X216907745Y-29611861D01*
X216079605Y-30440000D01*
X215720395Y-30440000D01*
X214892255Y-29611861D01*
X214646136Y-29685995D01*
X214453035Y-30223223D01*
X212161214Y-30223223D01*
X212211904Y-30130961D01*
X212051041Y-29742577D01*
X211675134Y-29327611D01*
X211470892Y-29230947D01*
X211704283Y-29075000D01*
X214560132Y-29075000D01*
X214642191Y-29197809D01*
X214852235Y-29338157D01*
X215086187Y-29384693D01*
X215071861Y-29432255D01*
X215900000Y-30260395D01*
X216728139Y-29432255D01*
X216713813Y-29384693D01*
X216947765Y-29338157D01*
X217157809Y-29197809D01*
X217298157Y-28987765D01*
X217347440Y-28740000D01*
X217347440Y-27140000D01*
X217298157Y-26892235D01*
X217157809Y-26682191D01*
X216947765Y-26541843D01*
X216700000Y-26492560D01*
X215100000Y-26492560D01*
X214852235Y-26541843D01*
X214642191Y-26682191D01*
X214560132Y-26805000D01*
X211704283Y-26805000D01*
X211379909Y-26588260D01*
X210961333Y-26505000D01*
X210678667Y-26505000D01*
X210260091Y-26588260D01*
X209935717Y-26805000D01*
X209153781Y-26805000D01*
X209041999Y-26782765D01*
X208930217Y-26805000D01*
X208599145Y-26870854D01*
X208223711Y-27121711D01*
X208160389Y-27216479D01*
X206921482Y-28455387D01*
X206826711Y-28518711D01*
X206666631Y-28758289D01*
X206575854Y-28894146D01*
X206487765Y-29337000D01*
X206510000Y-29448783D01*
X206510000Y-50688215D01*
X206487765Y-50800000D01*
X206510000Y-50911785D01*
X206510001Y-73548213D01*
X206487765Y-73660000D01*
X206510001Y-73771787D01*
X206510001Y-92874867D01*
X205904869Y-93480000D01*
X190335133Y-93480000D01*
X189476000Y-92620869D01*
X189476000Y-90027783D01*
X189498235Y-89916000D01*
X189410146Y-89473145D01*
X189322927Y-89342613D01*
X189159289Y-89097711D01*
X189064521Y-89034389D01*
X188206613Y-88176481D01*
X188143289Y-88081711D01*
X187767855Y-87830854D01*
X187436783Y-87765000D01*
X187325000Y-87742765D01*
X187213217Y-87765000D01*
X183985132Y-87765000D01*
X181802571Y-85582440D01*
X182090000Y-85582440D01*
X182337765Y-85533157D01*
X182547809Y-85392809D01*
X182688157Y-85182765D01*
X182737440Y-84935000D01*
X182737440Y-83868126D01*
X184004000Y-83868126D01*
X184004000Y-84279874D01*
X184161569Y-84660280D01*
X184452720Y-84951431D01*
X184833126Y-85109000D01*
X185244874Y-85109000D01*
X185547000Y-84983856D01*
X185849126Y-85109000D01*
X186260874Y-85109000D01*
X186563000Y-84983856D01*
X186865126Y-85109000D01*
X187276874Y-85109000D01*
X187657280Y-84951431D01*
X187948431Y-84660280D01*
X188106000Y-84279874D01*
X188106000Y-83868126D01*
X187948431Y-83487720D01*
X187657280Y-83196569D01*
X187276874Y-83039000D01*
X186865126Y-83039000D01*
X186563000Y-83164144D01*
X186260874Y-83039000D01*
X185849126Y-83039000D01*
X185547000Y-83164144D01*
X185244874Y-83039000D01*
X184833126Y-83039000D01*
X184452720Y-83196569D01*
X184161569Y-83487720D01*
X184004000Y-83868126D01*
X182737440Y-83868126D01*
X182737440Y-81435000D01*
X182688157Y-81187235D01*
X182547809Y-80977191D01*
X182337765Y-80836843D01*
X182090000Y-80787560D01*
X178590000Y-80787560D01*
X178342235Y-80836843D01*
X178132191Y-80977191D01*
X177991843Y-81187235D01*
X177942560Y-81435000D01*
X177942560Y-84935000D01*
X177991843Y-85182765D01*
X178132191Y-85392809D01*
X178299001Y-85504269D01*
X178215000Y-85487560D01*
X176465000Y-85487560D01*
X175882387Y-85603449D01*
X175388472Y-85933472D01*
X175058449Y-86427387D01*
X174942560Y-87010000D01*
X167105000Y-87010000D01*
X167105000Y-83470750D01*
X172205000Y-83470750D01*
X172205000Y-85061310D01*
X172301673Y-85294699D01*
X172480302Y-85473327D01*
X172713691Y-85570000D01*
X174054250Y-85570000D01*
X174213000Y-85411250D01*
X174213000Y-83312000D01*
X174467000Y-83312000D01*
X174467000Y-85411250D01*
X174625750Y-85570000D01*
X175966309Y-85570000D01*
X176199698Y-85473327D01*
X176378327Y-85294699D01*
X176475000Y-85061310D01*
X176475000Y-83470750D01*
X176316250Y-83312000D01*
X174467000Y-83312000D01*
X174213000Y-83312000D01*
X172363750Y-83312000D01*
X172205000Y-83470750D01*
X167105000Y-83470750D01*
X167105000Y-81308690D01*
X172205000Y-81308690D01*
X172205000Y-82899250D01*
X172363750Y-83058000D01*
X174213000Y-83058000D01*
X174213000Y-80958750D01*
X174467000Y-80958750D01*
X174467000Y-83058000D01*
X176316250Y-83058000D01*
X176475000Y-82899250D01*
X176475000Y-81308690D01*
X176378327Y-81075301D01*
X176199698Y-80896673D01*
X175966309Y-80800000D01*
X174625750Y-80800000D01*
X174467000Y-80958750D01*
X174213000Y-80958750D01*
X174054250Y-80800000D01*
X172713691Y-80800000D01*
X172480302Y-80896673D01*
X172301673Y-81075301D01*
X172205000Y-81308690D01*
X167105000Y-81308690D01*
X167105000Y-65834126D01*
X177146000Y-65834126D01*
X177146000Y-66245874D01*
X177303569Y-66626280D01*
X177594720Y-66917431D01*
X177975126Y-67075000D01*
X178386874Y-67075000D01*
X178767280Y-66917431D01*
X178859711Y-66825000D01*
X193846013Y-66825000D01*
X193783000Y-66977126D01*
X193783000Y-67388874D01*
X193940569Y-67769280D01*
X194033000Y-67861711D01*
X194033001Y-90761288D01*
X193940569Y-90853720D01*
X193783000Y-91234126D01*
X193783000Y-91645874D01*
X193940569Y-92026280D01*
X194231720Y-92317431D01*
X194612126Y-92475000D01*
X195023874Y-92475000D01*
X195404280Y-92317431D01*
X195695431Y-92026280D01*
X195853000Y-91645874D01*
X195853000Y-91234126D01*
X195695431Y-90853720D01*
X195603000Y-90761289D01*
X195603000Y-73660000D01*
X196656887Y-73660000D01*
X196768260Y-74219909D01*
X197085423Y-74694577D01*
X197437758Y-74930000D01*
X197085423Y-75165423D01*
X196768260Y-75640091D01*
X196656887Y-76200000D01*
X196768260Y-76759909D01*
X197085423Y-77234577D01*
X197437758Y-77470000D01*
X197085423Y-77705423D01*
X196768260Y-78180091D01*
X196656887Y-78740000D01*
X196768260Y-79299909D01*
X197085423Y-79774577D01*
X197437758Y-80010000D01*
X197085423Y-80245423D01*
X196768260Y-80720091D01*
X196656887Y-81280000D01*
X196768260Y-81839909D01*
X197085423Y-82314577D01*
X197437758Y-82550000D01*
X197085423Y-82785423D01*
X196768260Y-83260091D01*
X196656887Y-83820000D01*
X196768260Y-84379909D01*
X197085423Y-84854577D01*
X197437758Y-85090000D01*
X197085423Y-85325423D01*
X196768260Y-85800091D01*
X196656887Y-86360000D01*
X196768260Y-86919909D01*
X197085423Y-87394577D01*
X197437758Y-87630000D01*
X197085423Y-87865423D01*
X196768260Y-88340091D01*
X196656887Y-88900000D01*
X196768260Y-89459909D01*
X197085423Y-89934577D01*
X197437758Y-90170000D01*
X197085423Y-90405423D01*
X196768260Y-90880091D01*
X196656887Y-91440000D01*
X196768260Y-91999909D01*
X197085423Y-92474577D01*
X197560091Y-92791740D01*
X197978667Y-92875000D01*
X198261333Y-92875000D01*
X198679909Y-92791740D01*
X199154577Y-92474577D01*
X199471740Y-91999909D01*
X199583113Y-91440000D01*
X199471740Y-90880091D01*
X199154577Y-90405423D01*
X198802242Y-90170000D01*
X199154577Y-89934577D01*
X199471740Y-89459909D01*
X199583113Y-88900000D01*
X199471740Y-88340091D01*
X199154577Y-87865423D01*
X198802242Y-87630000D01*
X199154577Y-87394577D01*
X199471740Y-86919909D01*
X199583113Y-86360000D01*
X199471740Y-85800091D01*
X199154577Y-85325423D01*
X198802242Y-85090000D01*
X199154577Y-84854577D01*
X199471740Y-84379909D01*
X199583113Y-83820000D01*
X199471740Y-83260091D01*
X199154577Y-82785423D01*
X198802242Y-82550000D01*
X199154577Y-82314577D01*
X199471740Y-81839909D01*
X199583113Y-81280000D01*
X199471740Y-80720091D01*
X199154577Y-80245423D01*
X198802242Y-80010000D01*
X199154577Y-79774577D01*
X199471740Y-79299909D01*
X199583113Y-78740000D01*
X199471740Y-78180091D01*
X199154577Y-77705423D01*
X198802242Y-77470000D01*
X199154577Y-77234577D01*
X199471740Y-76759909D01*
X199583113Y-76200000D01*
X199471740Y-75640091D01*
X199154577Y-75165423D01*
X198802242Y-74930000D01*
X199154577Y-74694577D01*
X199471740Y-74219909D01*
X199583113Y-73660000D01*
X199471740Y-73100091D01*
X199154577Y-72625423D01*
X198679909Y-72308260D01*
X198261333Y-72225000D01*
X197978667Y-72225000D01*
X197560091Y-72308260D01*
X197085423Y-72625423D01*
X196768260Y-73100091D01*
X196656887Y-73660000D01*
X195603000Y-73660000D01*
X195603000Y-67861711D01*
X195695431Y-67769280D01*
X195853000Y-67388874D01*
X195853000Y-66977126D01*
X195789987Y-66825000D01*
X196918661Y-66825000D01*
X197085423Y-67074577D01*
X197437758Y-67310000D01*
X197085423Y-67545423D01*
X196768260Y-68020091D01*
X196656887Y-68580000D01*
X196768260Y-69139909D01*
X197085423Y-69614577D01*
X197560091Y-69931740D01*
X197978667Y-70015000D01*
X198261333Y-70015000D01*
X198679909Y-69931740D01*
X199154577Y-69614577D01*
X199471740Y-69139909D01*
X199583113Y-68580000D01*
X199471740Y-68020091D01*
X199154577Y-67545423D01*
X198802242Y-67310000D01*
X199154577Y-67074577D01*
X199471740Y-66599909D01*
X199583113Y-66040000D01*
X199471740Y-65480091D01*
X199154577Y-65005423D01*
X198802242Y-64770000D01*
X199154577Y-64534577D01*
X199471740Y-64059909D01*
X199583113Y-63500000D01*
X199471740Y-62940091D01*
X199154577Y-62465423D01*
X198802242Y-62230000D01*
X199154577Y-61994577D01*
X199471740Y-61519909D01*
X199583113Y-60960000D01*
X199471740Y-60400091D01*
X199154577Y-59925423D01*
X198802242Y-59690000D01*
X199154577Y-59454577D01*
X199471740Y-58979909D01*
X199583113Y-58420000D01*
X199471740Y-57860091D01*
X199154577Y-57385423D01*
X198802242Y-57150000D01*
X199154577Y-56914577D01*
X199471740Y-56439909D01*
X199583113Y-55880000D01*
X199471740Y-55320091D01*
X199154577Y-54845423D01*
X198802242Y-54610000D01*
X199154577Y-54374577D01*
X199471740Y-53899909D01*
X199583113Y-53340000D01*
X199471740Y-52780091D01*
X199154577Y-52305423D01*
X198802242Y-52070000D01*
X199154577Y-51834577D01*
X199471740Y-51359909D01*
X199583113Y-50800000D01*
X199471740Y-50240091D01*
X199154577Y-49765423D01*
X198679909Y-49448260D01*
X198261333Y-49365000D01*
X197978667Y-49365000D01*
X197560091Y-49448260D01*
X197085423Y-49765423D01*
X196768260Y-50240091D01*
X196656887Y-50800000D01*
X196768260Y-51359909D01*
X197085423Y-51834577D01*
X197437758Y-52070000D01*
X197085423Y-52305423D01*
X196768260Y-52780091D01*
X196656887Y-53340000D01*
X196768260Y-53899909D01*
X197085423Y-54374577D01*
X197437758Y-54610000D01*
X197085423Y-54845423D01*
X196768260Y-55320091D01*
X196656887Y-55880000D01*
X196768260Y-56439909D01*
X197085423Y-56914577D01*
X197437758Y-57150000D01*
X197085423Y-57385423D01*
X196768260Y-57860091D01*
X196656887Y-58420000D01*
X196768260Y-58979909D01*
X197085423Y-59454577D01*
X197437758Y-59690000D01*
X197085423Y-59925423D01*
X196768260Y-60400091D01*
X196656887Y-60960000D01*
X196768260Y-61519909D01*
X197085423Y-61994577D01*
X197437758Y-62230000D01*
X197085423Y-62465423D01*
X196768260Y-62940091D01*
X196656887Y-63500000D01*
X196768260Y-64059909D01*
X197085423Y-64534577D01*
X197437758Y-64770000D01*
X197085423Y-65005423D01*
X196918661Y-65255000D01*
X178859711Y-65255000D01*
X178767280Y-65162569D01*
X178386874Y-65005000D01*
X177975126Y-65005000D01*
X177594720Y-65162569D01*
X177303569Y-65453720D01*
X177146000Y-65834126D01*
X167105000Y-65834126D01*
X167105000Y-48006000D01*
X168792908Y-48006000D01*
X168908161Y-48585418D01*
X169236375Y-49076625D01*
X169534761Y-49276000D01*
X169236375Y-49475375D01*
X168908161Y-49966582D01*
X168792908Y-50546000D01*
X168908161Y-51125418D01*
X169236375Y-51616625D01*
X169534761Y-51816000D01*
X169236375Y-52015375D01*
X168908161Y-52506582D01*
X168792908Y-53086000D01*
X168908161Y-53665418D01*
X169236375Y-54156625D01*
X169534761Y-54356000D01*
X169236375Y-54555375D01*
X168908161Y-55046582D01*
X168792908Y-55626000D01*
X168908161Y-56205418D01*
X169236375Y-56696625D01*
X169254619Y-56708816D01*
X169209235Y-56717843D01*
X168999191Y-56858191D01*
X168858843Y-57068235D01*
X168809560Y-57316000D01*
X168809560Y-59016000D01*
X168858843Y-59263765D01*
X168999191Y-59473809D01*
X169209235Y-59614157D01*
X169457000Y-59663440D01*
X171157000Y-59663440D01*
X171404765Y-59614157D01*
X171614809Y-59473809D01*
X171755157Y-59263765D01*
X171804440Y-59016000D01*
X171804440Y-57316000D01*
X171755157Y-57068235D01*
X171614809Y-56858191D01*
X171404765Y-56717843D01*
X171359381Y-56708816D01*
X171377625Y-56696625D01*
X171705839Y-56205418D01*
X171821092Y-55626000D01*
X171705839Y-55046582D01*
X171700858Y-55039126D01*
X181210000Y-55039126D01*
X181210000Y-55450874D01*
X181367569Y-55831280D01*
X181658720Y-56122431D01*
X182039126Y-56280000D01*
X182450874Y-56280000D01*
X182831280Y-56122431D01*
X183122431Y-55831280D01*
X183280000Y-55450874D01*
X183280000Y-55039126D01*
X183122431Y-54658720D01*
X182831280Y-54367569D01*
X182450874Y-54210000D01*
X182039126Y-54210000D01*
X181658720Y-54367569D01*
X181367569Y-54658720D01*
X181210000Y-55039126D01*
X171700858Y-55039126D01*
X171377625Y-54555375D01*
X171079239Y-54356000D01*
X171377625Y-54156625D01*
X171705839Y-53665418D01*
X171821092Y-53086000D01*
X171705839Y-52506582D01*
X171377625Y-52015375D01*
X171079239Y-51816000D01*
X171377625Y-51616625D01*
X171705839Y-51125418D01*
X171821092Y-50546000D01*
X171705839Y-49966582D01*
X171700858Y-49959126D01*
X177400000Y-49959126D01*
X177400000Y-50370874D01*
X177557569Y-50751280D01*
X177848720Y-51042431D01*
X178229126Y-51200000D01*
X178640874Y-51200000D01*
X179021280Y-51042431D01*
X179312431Y-50751280D01*
X179470000Y-50370874D01*
X179470000Y-50240157D01*
X179751031Y-49959126D01*
X181845000Y-49959126D01*
X181845000Y-50370874D01*
X182002569Y-50751280D01*
X182293720Y-51042431D01*
X182674126Y-51200000D01*
X183085874Y-51200000D01*
X183466280Y-51042431D01*
X183757431Y-50751280D01*
X183915000Y-50370874D01*
X183915000Y-49959126D01*
X183757431Y-49578720D01*
X183466280Y-49287569D01*
X183085874Y-49130000D01*
X182674126Y-49130000D01*
X182293720Y-49287569D01*
X182002569Y-49578720D01*
X181845000Y-49959126D01*
X179751031Y-49959126D01*
X182055157Y-47655001D01*
X186605687Y-47655001D01*
X186682999Y-47670379D01*
X186760311Y-47655001D01*
X186760315Y-47655001D01*
X186989291Y-47609455D01*
X187248952Y-47435954D01*
X187292748Y-47370409D01*
X190698158Y-43965000D01*
X196918661Y-43965000D01*
X197085423Y-44214577D01*
X197437758Y-44450000D01*
X197085423Y-44685423D01*
X196918661Y-44935000D01*
X191085312Y-44935000D01*
X191008000Y-44919622D01*
X190930688Y-44935000D01*
X190930684Y-44935000D01*
X190701708Y-44980546D01*
X190507591Y-45110251D01*
X190507589Y-45110253D01*
X190442047Y-45154047D01*
X190398253Y-45219589D01*
X186443590Y-49174253D01*
X186378048Y-49218047D01*
X186334254Y-49283589D01*
X186334251Y-49283592D01*
X186204546Y-49477709D01*
X186143622Y-49784000D01*
X186159001Y-49861317D01*
X186159000Y-54820289D01*
X186066569Y-54912720D01*
X185909000Y-55293126D01*
X185909000Y-55704874D01*
X186066569Y-56085280D01*
X186357720Y-56376431D01*
X186738126Y-56534000D01*
X187149874Y-56534000D01*
X187530280Y-56376431D01*
X187821431Y-56085280D01*
X187979000Y-55704874D01*
X187979000Y-55293126D01*
X187821431Y-54912720D01*
X187729000Y-54820289D01*
X187729000Y-50109157D01*
X191333158Y-46505000D01*
X196918661Y-46505000D01*
X197085423Y-46754577D01*
X197560091Y-47071740D01*
X197978667Y-47155000D01*
X198261333Y-47155000D01*
X198679909Y-47071740D01*
X199154577Y-46754577D01*
X199471740Y-46279909D01*
X199583113Y-45720000D01*
X199471740Y-45160091D01*
X199154577Y-44685423D01*
X198802242Y-44450000D01*
X199154577Y-44214577D01*
X199471740Y-43739909D01*
X199583113Y-43180000D01*
X199471740Y-42620091D01*
X199154577Y-42145423D01*
X198802242Y-41910000D01*
X199154577Y-41674577D01*
X199471740Y-41199909D01*
X199583113Y-40640000D01*
X199471740Y-40080091D01*
X199154577Y-39605423D01*
X198802242Y-39370000D01*
X199154577Y-39134577D01*
X199471740Y-38659909D01*
X199583113Y-38100000D01*
X199471740Y-37540091D01*
X199154577Y-37065423D01*
X198802242Y-36830000D01*
X199154577Y-36594577D01*
X199471740Y-36119909D01*
X199583113Y-35560000D01*
X199471740Y-35000091D01*
X199154577Y-34525423D01*
X198802242Y-34290000D01*
X199154577Y-34054577D01*
X199471740Y-33579909D01*
X199583113Y-33020000D01*
X199471740Y-32460091D01*
X199154577Y-31985423D01*
X198802242Y-31750000D01*
X199154577Y-31514577D01*
X199471740Y-31039909D01*
X199583113Y-30480000D01*
X199471740Y-29920091D01*
X199154577Y-29445423D01*
X198802242Y-29210000D01*
X199154577Y-28974577D01*
X199471740Y-28499909D01*
X199583113Y-27940000D01*
X199471740Y-27380091D01*
X199154577Y-26905423D01*
X198679909Y-26588260D01*
X198261333Y-26505000D01*
X197978667Y-26505000D01*
X197560091Y-26588260D01*
X197085423Y-26905423D01*
X196768260Y-27380091D01*
X196656887Y-27940000D01*
X196768260Y-28499909D01*
X197085423Y-28974577D01*
X197437758Y-29210000D01*
X197085423Y-29445423D01*
X196768260Y-29920091D01*
X196656887Y-30480000D01*
X196768260Y-31039909D01*
X197085423Y-31514577D01*
X197437758Y-31750000D01*
X197085423Y-31985423D01*
X196768260Y-32460091D01*
X196656887Y-33020000D01*
X196768260Y-33579909D01*
X197085423Y-34054577D01*
X197437758Y-34290000D01*
X197085423Y-34525423D01*
X196768260Y-35000091D01*
X196656887Y-35560000D01*
X196768260Y-36119909D01*
X197085423Y-36594577D01*
X197437758Y-36830000D01*
X197085423Y-37065423D01*
X196768260Y-37540091D01*
X196656887Y-38100000D01*
X196768260Y-38659909D01*
X197085423Y-39134577D01*
X197437758Y-39370000D01*
X197085423Y-39605423D01*
X196768260Y-40080091D01*
X196656887Y-40640000D01*
X196768260Y-41199909D01*
X197085423Y-41674577D01*
X197437758Y-41910000D01*
X197085423Y-42145423D01*
X196918661Y-42395000D01*
X190450310Y-42395000D01*
X190372999Y-42379622D01*
X190295688Y-42395000D01*
X190295684Y-42395000D01*
X190066708Y-42440546D01*
X190066706Y-42440547D01*
X190066707Y-42440547D01*
X189872591Y-42570251D01*
X189872589Y-42570253D01*
X189807047Y-42614047D01*
X189763253Y-42679589D01*
X186357842Y-46085001D01*
X181807309Y-46085001D01*
X181729998Y-46069623D01*
X181652687Y-46085001D01*
X181652683Y-46085001D01*
X181423707Y-46130547D01*
X181304624Y-46210116D01*
X181229590Y-46260252D01*
X181229588Y-46260254D01*
X181164046Y-46304048D01*
X181120252Y-46369590D01*
X178359843Y-49130000D01*
X178229126Y-49130000D01*
X177848720Y-49287569D01*
X177557569Y-49578720D01*
X177400000Y-49959126D01*
X171700858Y-49959126D01*
X171377625Y-49475375D01*
X171079239Y-49276000D01*
X171377625Y-49076625D01*
X171705839Y-48585418D01*
X171821092Y-48006000D01*
X171705839Y-47426582D01*
X171377625Y-46935375D01*
X171058522Y-46722157D01*
X171188358Y-46661183D01*
X171578645Y-46232924D01*
X171748476Y-45822890D01*
X171627155Y-45593000D01*
X170434000Y-45593000D01*
X170434000Y-45613000D01*
X170180000Y-45613000D01*
X170180000Y-45593000D01*
X168986845Y-45593000D01*
X168865524Y-45822890D01*
X169035355Y-46232924D01*
X169425642Y-46661183D01*
X169555478Y-46722157D01*
X169236375Y-46935375D01*
X168908161Y-47426582D01*
X168792908Y-48006000D01*
X167105000Y-48006000D01*
X167105000Y-45109110D01*
X168865524Y-45109110D01*
X168986845Y-45339000D01*
X170180000Y-45339000D01*
X170180000Y-44145181D01*
X170434000Y-44145181D01*
X170434000Y-45339000D01*
X171627155Y-45339000D01*
X171748476Y-45109110D01*
X171578645Y-44699076D01*
X171188358Y-44270817D01*
X170663892Y-44024514D01*
X170434000Y-44145181D01*
X170180000Y-44145181D01*
X169950108Y-44024514D01*
X169425642Y-44270817D01*
X169035355Y-44699076D01*
X168865524Y-45109110D01*
X167105000Y-45109110D01*
X167105000Y-39370000D01*
X168792908Y-39370000D01*
X168908161Y-39949418D01*
X169236375Y-40440625D01*
X169727582Y-40768839D01*
X170160744Y-40855000D01*
X170453256Y-40855000D01*
X170886418Y-40768839D01*
X171377625Y-40440625D01*
X171577000Y-40142239D01*
X171776375Y-40440625D01*
X172267582Y-40768839D01*
X172700744Y-40855000D01*
X172993256Y-40855000D01*
X173426418Y-40768839D01*
X173917625Y-40440625D01*
X173929816Y-40422381D01*
X173938843Y-40467765D01*
X174079191Y-40677809D01*
X174289235Y-40818157D01*
X174537000Y-40867440D01*
X176237000Y-40867440D01*
X176484765Y-40818157D01*
X176694809Y-40677809D01*
X176835157Y-40467765D01*
X176884440Y-40220000D01*
X176884440Y-38520000D01*
X176835157Y-38272235D01*
X176694809Y-38062191D01*
X176484765Y-37921843D01*
X176439381Y-37912816D01*
X176457625Y-37900625D01*
X176785839Y-37409418D01*
X176901092Y-36830000D01*
X176785839Y-36250582D01*
X176520184Y-35853000D01*
X179604560Y-35853000D01*
X179604560Y-37553000D01*
X179653843Y-37800765D01*
X179794191Y-38010809D01*
X180004235Y-38151157D01*
X180252000Y-38200440D01*
X181952000Y-38200440D01*
X182199765Y-38151157D01*
X182409809Y-38010809D01*
X182550157Y-37800765D01*
X182559184Y-37755381D01*
X182571375Y-37773625D01*
X183062582Y-38101839D01*
X183495744Y-38188000D01*
X183788256Y-38188000D01*
X184221418Y-38101839D01*
X184712625Y-37773625D01*
X184925843Y-37454522D01*
X184986817Y-37584358D01*
X185415076Y-37974645D01*
X185825110Y-38144476D01*
X186055000Y-38023155D01*
X186055000Y-36830000D01*
X186309000Y-36830000D01*
X186309000Y-38023155D01*
X186538890Y-38144476D01*
X186948924Y-37974645D01*
X187377183Y-37584358D01*
X187623486Y-37059892D01*
X187502819Y-36830000D01*
X186309000Y-36830000D01*
X186055000Y-36830000D01*
X186035000Y-36830000D01*
X186035000Y-36576000D01*
X186055000Y-36576000D01*
X186055000Y-35382845D01*
X186309000Y-35382845D01*
X186309000Y-36576000D01*
X187502819Y-36576000D01*
X187623486Y-36346108D01*
X187377183Y-35821642D01*
X186948924Y-35431355D01*
X186538890Y-35261524D01*
X186309000Y-35382845D01*
X186055000Y-35382845D01*
X185825110Y-35261524D01*
X185415076Y-35431355D01*
X184986817Y-35821642D01*
X184925843Y-35951478D01*
X184712625Y-35632375D01*
X184221418Y-35304161D01*
X183788256Y-35218000D01*
X183495744Y-35218000D01*
X183062582Y-35304161D01*
X182571375Y-35632375D01*
X182559184Y-35650619D01*
X182550157Y-35605235D01*
X182409809Y-35395191D01*
X182199765Y-35254843D01*
X181952000Y-35205560D01*
X180252000Y-35205560D01*
X180004235Y-35254843D01*
X179794191Y-35395191D01*
X179653843Y-35605235D01*
X179604560Y-35853000D01*
X176520184Y-35853000D01*
X176457625Y-35759375D01*
X175966418Y-35431161D01*
X175533256Y-35345000D01*
X175240744Y-35345000D01*
X174807582Y-35431161D01*
X174316375Y-35759375D01*
X174117000Y-36057761D01*
X173917625Y-35759375D01*
X173426418Y-35431161D01*
X172993256Y-35345000D01*
X172700744Y-35345000D01*
X172267582Y-35431161D01*
X171776375Y-35759375D01*
X171563157Y-36078478D01*
X171502183Y-35948642D01*
X171073924Y-35558355D01*
X170663890Y-35388524D01*
X170434000Y-35509845D01*
X170434000Y-36703000D01*
X170454000Y-36703000D01*
X170454000Y-36957000D01*
X170434000Y-36957000D01*
X170434000Y-36977000D01*
X170180000Y-36977000D01*
X170180000Y-36957000D01*
X168986181Y-36957000D01*
X168865514Y-37186892D01*
X169111817Y-37711358D01*
X169536786Y-38098647D01*
X169236375Y-38299375D01*
X168908161Y-38790582D01*
X168792908Y-39370000D01*
X167105000Y-39370000D01*
X167105000Y-36473108D01*
X168865514Y-36473108D01*
X168986181Y-36703000D01*
X170180000Y-36703000D01*
X170180000Y-35509845D01*
X169950110Y-35388524D01*
X169540076Y-35558355D01*
X169111817Y-35948642D01*
X168865514Y-36473108D01*
X167105000Y-36473108D01*
X167105000Y-27940000D01*
X167160475Y-27940000D01*
X167263363Y-28721511D01*
X167565015Y-29449762D01*
X168044873Y-30075127D01*
X168670237Y-30554985D01*
X169398489Y-30856637D01*
X170180000Y-30959525D01*
X170961511Y-30856637D01*
X171689763Y-30554985D01*
X172315127Y-30075127D01*
X172794985Y-29449762D01*
X173096637Y-28721511D01*
X173199525Y-27940000D01*
X173096637Y-27158489D01*
X172794985Y-26430238D01*
X172315127Y-25804873D01*
X171689763Y-25325015D01*
X170961511Y-25023363D01*
X170180000Y-24920475D01*
X169398489Y-25023363D01*
X168670238Y-25325015D01*
X168044873Y-25804873D01*
X167565015Y-26430238D01*
X167263363Y-27158489D01*
X167160475Y-27940000D01*
X167105000Y-27940000D01*
X167105000Y-24865000D01*
X220245000Y-24865000D01*
X220245001Y-95785000D01*
X220245001Y-95785000D01*
G37*
X220245001Y-95785000D02*
X167105000Y-95785000D01*
X167105000Y-92743451D01*
X167442158Y-92743451D01*
X167561594Y-93510527D01*
X167891521Y-94213250D01*
X168405418Y-94795127D01*
X169061972Y-95209382D01*
X169808405Y-95422713D01*
X170584709Y-95417971D01*
X171328479Y-95195536D01*
X171979924Y-94773291D01*
X172486673Y-94185179D01*
X172789054Y-93520126D01*
X185020000Y-93520126D01*
X185020000Y-93931874D01*
X185177569Y-94312280D01*
X185468720Y-94603431D01*
X185849126Y-94761000D01*
X186260874Y-94761000D01*
X186641280Y-94603431D01*
X186932431Y-94312280D01*
X187090000Y-93931874D01*
X187090000Y-93520126D01*
X186932431Y-93139720D01*
X186641280Y-92848569D01*
X186260874Y-92691000D01*
X185849126Y-92691000D01*
X185468720Y-92848569D01*
X185177569Y-93139720D01*
X185020000Y-93520126D01*
X172789054Y-93520126D01*
X172807991Y-93478478D01*
X172918046Y-92710000D01*
X172917229Y-92643104D01*
X172788431Y-91877543D01*
X172449943Y-91178904D01*
X171928976Y-90603349D01*
X171267409Y-90197146D01*
X170518427Y-89992950D01*
X169742238Y-90007175D01*
X169001241Y-90238680D01*
X168355003Y-90668852D01*
X167855476Y-91263112D01*
X167542817Y-91973685D01*
X167442158Y-92743451D01*
X167105000Y-92743451D01*
X167105000Y-87010000D01*
X174942560Y-87010000D01*
X174942560Y-88760000D01*
X175058449Y-89342613D01*
X175388472Y-89836528D01*
X175882387Y-90166551D01*
X176465000Y-90282440D01*
X178215000Y-90282440D01*
X178797613Y-90166551D01*
X179291528Y-89836528D01*
X179621551Y-89342613D01*
X179737440Y-88760000D01*
X179737440Y-87010000D01*
X179667312Y-86657443D01*
X182633389Y-89623521D01*
X182696711Y-89718289D01*
X183020409Y-89934577D01*
X183072145Y-89969146D01*
X183514999Y-90057235D01*
X183626782Y-90035000D01*
X186854869Y-90035000D01*
X187206001Y-90386132D01*
X187206000Y-92979217D01*
X187183765Y-93091000D01*
X187206000Y-93202782D01*
X187271854Y-93533854D01*
X187522711Y-93909289D01*
X187617481Y-93972613D01*
X188983391Y-95338524D01*
X189046711Y-95433289D01*
X189422145Y-95684146D01*
X189753217Y-95750000D01*
X189864999Y-95772235D01*
X189976781Y-95750000D01*
X206263217Y-95750000D01*
X206375000Y-95772235D01*
X206486783Y-95750000D01*
X206817855Y-95684146D01*
X207193289Y-95433289D01*
X207256613Y-95338518D01*
X208368521Y-94226611D01*
X208463289Y-94163289D01*
X208714146Y-93787855D01*
X208762283Y-93545854D01*
X208802235Y-93345001D01*
X208780000Y-93233218D01*
X208780000Y-91725750D01*
X209385000Y-91725750D01*
X209385000Y-92366310D01*
X209481673Y-92599699D01*
X209660302Y-92778327D01*
X209893691Y-92875000D01*
X210534250Y-92875000D01*
X210693000Y-92716250D01*
X210693000Y-91567000D01*
X210947000Y-91567000D01*
X210947000Y-92716250D01*
X211105750Y-92875000D01*
X211746309Y-92875000D01*
X211979698Y-92778327D01*
X212015833Y-92742192D01*
X214535197Y-92742192D01*
X214650137Y-93480399D01*
X214967648Y-94156675D01*
X215462204Y-94716653D01*
X216094049Y-95115318D01*
X216812389Y-95320621D01*
X217559478Y-95316057D01*
X218275256Y-95101994D01*
X218902184Y-94695640D01*
X219389862Y-94129661D01*
X219699087Y-93449557D01*
X219805000Y-92710000D01*
X219804213Y-92645621D01*
X219680263Y-91908873D01*
X219354514Y-91236527D01*
X218853153Y-90682632D01*
X218216485Y-90291717D01*
X217495690Y-90095205D01*
X216748713Y-90108896D01*
X216035603Y-90331688D01*
X215413687Y-90745671D01*
X214932960Y-91317565D01*
X214632067Y-92001396D01*
X214535197Y-92742192D01*
X212015833Y-92742192D01*
X212158327Y-92599699D01*
X212255000Y-92366310D01*
X212255000Y-91725750D01*
X212096250Y-91567000D01*
X210947000Y-91567000D01*
X210693000Y-91567000D01*
X209543750Y-91567000D01*
X209385000Y-91725750D01*
X208780000Y-91725750D01*
X208780000Y-78740000D01*
X209356887Y-78740000D01*
X209468260Y-79299909D01*
X209785423Y-79774577D01*
X210137758Y-80010000D01*
X209785423Y-80245423D01*
X209468260Y-80720091D01*
X209356887Y-81280000D01*
X209468260Y-81839909D01*
X209785423Y-82314577D01*
X210137758Y-82550000D01*
X209785423Y-82785423D01*
X209468260Y-83260091D01*
X209356887Y-83820000D01*
X209468260Y-84379909D01*
X209785423Y-84854577D01*
X210137758Y-85090000D01*
X209785423Y-85325423D01*
X209468260Y-85800091D01*
X209356887Y-86360000D01*
X209468260Y-86919909D01*
X209785423Y-87394577D01*
X210137758Y-87630000D01*
X209785423Y-87865423D01*
X209468260Y-88340091D01*
X209356887Y-88900000D01*
X209468260Y-89459909D01*
X209785423Y-89934577D01*
X209891918Y-90005735D01*
X209660302Y-90101673D01*
X209481673Y-90280301D01*
X209385000Y-90513690D01*
X209385000Y-91154250D01*
X209543750Y-91313000D01*
X210693000Y-91313000D01*
X210693000Y-91293000D01*
X210947000Y-91293000D01*
X210947000Y-91313000D01*
X212096250Y-91313000D01*
X212255000Y-91154250D01*
X212255000Y-90513690D01*
X212158327Y-90280301D01*
X211979698Y-90101673D01*
X211748082Y-90005735D01*
X211854577Y-89934577D01*
X212171740Y-89459909D01*
X212283113Y-88900000D01*
X212171740Y-88340091D01*
X211854577Y-87865423D01*
X211502242Y-87630000D01*
X211653680Y-87528812D01*
X212478389Y-88353521D01*
X212541711Y-88448289D01*
X212917145Y-88699146D01*
X213359999Y-88787235D01*
X213471782Y-88765000D01*
X214476723Y-88765000D01*
X214592191Y-88937809D01*
X214802235Y-89078157D01*
X215050000Y-89127440D01*
X216750000Y-89127440D01*
X216997765Y-89078157D01*
X217207809Y-88937809D01*
X217348157Y-88727765D01*
X217397440Y-88480000D01*
X217397440Y-86780000D01*
X217348157Y-86532235D01*
X217207809Y-86322191D01*
X216997765Y-86181843D01*
X216952381Y-86172816D01*
X216970625Y-86160625D01*
X217298839Y-85669418D01*
X217414092Y-85090000D01*
X217298839Y-84510582D01*
X216970625Y-84019375D01*
X216672239Y-83820000D01*
X216970625Y-83620625D01*
X217298839Y-83129418D01*
X217414092Y-82550000D01*
X217298839Y-81970582D01*
X216970625Y-81479375D01*
X216672239Y-81280000D01*
X216970625Y-81080625D01*
X217298839Y-80589418D01*
X217414092Y-80010000D01*
X217298839Y-79430582D01*
X216970625Y-78939375D01*
X216479418Y-78611161D01*
X216046256Y-78525000D01*
X216020131Y-78525000D01*
X215511613Y-78016482D01*
X215448289Y-77921711D01*
X215072855Y-77670854D01*
X214741783Y-77605000D01*
X214630000Y-77582765D01*
X214518217Y-77605000D01*
X211704283Y-77605000D01*
X211470892Y-77449053D01*
X211675134Y-77352389D01*
X211842398Y-77167745D01*
X215071861Y-77167745D01*
X215145995Y-77413864D01*
X215683223Y-77606965D01*
X216253454Y-77579778D01*
X216654005Y-77413864D01*
X216728139Y-77167745D01*
X215900000Y-76339605D01*
X215071861Y-77167745D01*
X211842398Y-77167745D01*
X212051041Y-76937423D01*
X212211904Y-76549039D01*
X212089915Y-76327000D01*
X210947000Y-76327000D01*
X210947000Y-76347000D01*
X210693000Y-76347000D01*
X210693000Y-76327000D01*
X209550085Y-76327000D01*
X209428096Y-76549039D01*
X209588959Y-76937423D01*
X209964866Y-77352389D01*
X210169108Y-77449053D01*
X209785423Y-77705423D01*
X209468260Y-78180091D01*
X209356887Y-78740000D01*
X208780000Y-78740000D01*
X208780000Y-74795000D01*
X209935717Y-74795000D01*
X210169108Y-74950947D01*
X209964866Y-75047611D01*
X209588959Y-75462577D01*
X209428096Y-75850961D01*
X209550085Y-76073000D01*
X210693000Y-76073000D01*
X210693000Y-76053000D01*
X210947000Y-76053000D01*
X210947000Y-76073000D01*
X212089915Y-76073000D01*
X212161214Y-75943223D01*
X214453035Y-75943223D01*
X214480222Y-76513454D01*
X214646136Y-76914005D01*
X214892255Y-76988139D01*
X215720395Y-76160000D01*
X216079605Y-76160000D01*
X216907745Y-76988139D01*
X217153864Y-76914005D01*
X217346965Y-76376777D01*
X217319778Y-75806546D01*
X217153864Y-75405995D01*
X216907745Y-75331861D01*
X216079605Y-76160000D01*
X215720395Y-76160000D01*
X214892255Y-75331861D01*
X214646136Y-75405995D01*
X214453035Y-75943223D01*
X212161214Y-75943223D01*
X212211904Y-75850961D01*
X212051041Y-75462577D01*
X211675134Y-75047611D01*
X211470892Y-74950947D01*
X211704283Y-74795000D01*
X214560132Y-74795000D01*
X214642191Y-74917809D01*
X214852235Y-75058157D01*
X215086187Y-75104693D01*
X215071861Y-75152255D01*
X215900000Y-75980395D01*
X216728139Y-75152255D01*
X216713813Y-75104693D01*
X216947765Y-75058157D01*
X217157809Y-74917809D01*
X217298157Y-74707765D01*
X217347440Y-74460000D01*
X217347440Y-72860000D01*
X217298157Y-72612235D01*
X217157809Y-72402191D01*
X216947765Y-72261843D01*
X216700000Y-72212560D01*
X215100000Y-72212560D01*
X214852235Y-72261843D01*
X214642191Y-72402191D01*
X214560132Y-72525000D01*
X211704283Y-72525000D01*
X211379909Y-72308260D01*
X210961333Y-72225000D01*
X210678667Y-72225000D01*
X210260091Y-72308260D01*
X209935717Y-72525000D01*
X208780000Y-72525000D01*
X208780000Y-68865750D01*
X209385000Y-68865750D01*
X209385000Y-69506310D01*
X209481673Y-69739699D01*
X209660302Y-69918327D01*
X209893691Y-70015000D01*
X210534250Y-70015000D01*
X210693000Y-69856250D01*
X210693000Y-68707000D01*
X210947000Y-68707000D01*
X210947000Y-69856250D01*
X211105750Y-70015000D01*
X211746309Y-70015000D01*
X211979698Y-69918327D01*
X212158327Y-69739699D01*
X212255000Y-69506310D01*
X212255000Y-68865750D01*
X212096250Y-68707000D01*
X210947000Y-68707000D01*
X210693000Y-68707000D01*
X209543750Y-68707000D01*
X209385000Y-68865750D01*
X208780000Y-68865750D01*
X208780000Y-55880000D01*
X209356887Y-55880000D01*
X209468260Y-56439909D01*
X209785423Y-56914577D01*
X210137758Y-57150000D01*
X209785423Y-57385423D01*
X209468260Y-57860091D01*
X209356887Y-58420000D01*
X209468260Y-58979909D01*
X209785423Y-59454577D01*
X210137758Y-59690000D01*
X209785423Y-59925423D01*
X209468260Y-60400091D01*
X209356887Y-60960000D01*
X209468260Y-61519909D01*
X209785423Y-61994577D01*
X210137758Y-62230000D01*
X209785423Y-62465423D01*
X209468260Y-62940091D01*
X209356887Y-63500000D01*
X209468260Y-64059909D01*
X209785423Y-64534577D01*
X210137758Y-64770000D01*
X209785423Y-65005423D01*
X209468260Y-65480091D01*
X209356887Y-66040000D01*
X209468260Y-66599909D01*
X209785423Y-67074577D01*
X209891918Y-67145735D01*
X209660302Y-67241673D01*
X209481673Y-67420301D01*
X209385000Y-67653690D01*
X209385000Y-68294250D01*
X209543750Y-68453000D01*
X210693000Y-68453000D01*
X210693000Y-68433000D01*
X210947000Y-68433000D01*
X210947000Y-68453000D01*
X212096250Y-68453000D01*
X212255000Y-68294250D01*
X212255000Y-67653690D01*
X212158327Y-67420301D01*
X211979698Y-67241673D01*
X211748082Y-67145735D01*
X211854577Y-67074577D01*
X212171740Y-66599909D01*
X212283113Y-66040000D01*
X212171740Y-65480091D01*
X211854577Y-65005423D01*
X211502242Y-64770000D01*
X211653680Y-64668812D01*
X212478389Y-65493521D01*
X212541711Y-65588289D01*
X212909632Y-65834126D01*
X212917145Y-65839146D01*
X213359999Y-65927235D01*
X213471782Y-65905000D01*
X214476723Y-65905000D01*
X214592191Y-66077809D01*
X214802235Y-66218157D01*
X215050000Y-66267440D01*
X216750000Y-66267440D01*
X216997765Y-66218157D01*
X217207809Y-66077809D01*
X217348157Y-65867765D01*
X217397440Y-65620000D01*
X217397440Y-63920000D01*
X217348157Y-63672235D01*
X217207809Y-63462191D01*
X216997765Y-63321843D01*
X216952381Y-63312816D01*
X216970625Y-63300625D01*
X217298839Y-62809418D01*
X217414092Y-62230000D01*
X217298839Y-61650582D01*
X216970625Y-61159375D01*
X216672239Y-60960000D01*
X216970625Y-60760625D01*
X217298839Y-60269418D01*
X217414092Y-59690000D01*
X217298839Y-59110582D01*
X216970625Y-58619375D01*
X216672239Y-58420000D01*
X216970625Y-58220625D01*
X217298839Y-57729418D01*
X217414092Y-57150000D01*
X217298839Y-56570582D01*
X216970625Y-56079375D01*
X216479418Y-55751161D01*
X216046256Y-55665000D01*
X216020131Y-55665000D01*
X215511613Y-55156482D01*
X215448289Y-55061711D01*
X215072855Y-54810854D01*
X214741783Y-54745000D01*
X214630000Y-54722765D01*
X214518217Y-54745000D01*
X211704283Y-54745000D01*
X211470892Y-54589053D01*
X211675134Y-54492389D01*
X211842398Y-54307745D01*
X215071861Y-54307745D01*
X215145995Y-54553864D01*
X215683223Y-54746965D01*
X216253454Y-54719778D01*
X216654005Y-54553864D01*
X216728139Y-54307745D01*
X215900000Y-53479605D01*
X215071861Y-54307745D01*
X211842398Y-54307745D01*
X212051041Y-54077423D01*
X212211904Y-53689039D01*
X212089915Y-53467000D01*
X210947000Y-53467000D01*
X210947000Y-53487000D01*
X210693000Y-53487000D01*
X210693000Y-53467000D01*
X209550085Y-53467000D01*
X209428096Y-53689039D01*
X209588959Y-54077423D01*
X209964866Y-54492389D01*
X210169108Y-54589053D01*
X209785423Y-54845423D01*
X209468260Y-55320091D01*
X209356887Y-55880000D01*
X208780000Y-55880000D01*
X208780000Y-51935000D01*
X209935717Y-51935000D01*
X210169108Y-52090947D01*
X209964866Y-52187611D01*
X209588959Y-52602577D01*
X209428096Y-52990961D01*
X209550085Y-53213000D01*
X210693000Y-53213000D01*
X210693000Y-53193000D01*
X210947000Y-53193000D01*
X210947000Y-53213000D01*
X212089915Y-53213000D01*
X212161214Y-53083223D01*
X214453035Y-53083223D01*
X214480222Y-53653454D01*
X214646136Y-54054005D01*
X214892255Y-54128139D01*
X215720395Y-53300000D01*
X216079605Y-53300000D01*
X216907745Y-54128139D01*
X217153864Y-54054005D01*
X217346965Y-53516777D01*
X217319778Y-52946546D01*
X217153864Y-52545995D01*
X216907745Y-52471861D01*
X216079605Y-53300000D01*
X215720395Y-53300000D01*
X214892255Y-52471861D01*
X214646136Y-52545995D01*
X214453035Y-53083223D01*
X212161214Y-53083223D01*
X212211904Y-52990961D01*
X212051041Y-52602577D01*
X211675134Y-52187611D01*
X211470892Y-52090947D01*
X211704283Y-51935000D01*
X214560132Y-51935000D01*
X214642191Y-52057809D01*
X214852235Y-52198157D01*
X215086187Y-52244693D01*
X215071861Y-52292255D01*
X215900000Y-53120395D01*
X216728139Y-52292255D01*
X216713813Y-52244693D01*
X216947765Y-52198157D01*
X217157809Y-52057809D01*
X217298157Y-51847765D01*
X217347440Y-51600000D01*
X217347440Y-50000000D01*
X217298157Y-49752235D01*
X217157809Y-49542191D01*
X216947765Y-49401843D01*
X216700000Y-49352560D01*
X215100000Y-49352560D01*
X214852235Y-49401843D01*
X214642191Y-49542191D01*
X214560132Y-49665000D01*
X211704283Y-49665000D01*
X211379909Y-49448260D01*
X210961333Y-49365000D01*
X210678667Y-49365000D01*
X210260091Y-49448260D01*
X209935717Y-49665000D01*
X208780000Y-49665000D01*
X208780000Y-46005750D01*
X209385000Y-46005750D01*
X209385000Y-46646310D01*
X209481673Y-46879699D01*
X209660302Y-47058327D01*
X209893691Y-47155000D01*
X210534250Y-47155000D01*
X210693000Y-46996250D01*
X210693000Y-45847000D01*
X210947000Y-45847000D01*
X210947000Y-46996250D01*
X211105750Y-47155000D01*
X211746309Y-47155000D01*
X211979698Y-47058327D01*
X212158327Y-46879699D01*
X212255000Y-46646310D01*
X212255000Y-46005750D01*
X212096250Y-45847000D01*
X210947000Y-45847000D01*
X210693000Y-45847000D01*
X209543750Y-45847000D01*
X209385000Y-46005750D01*
X208780000Y-46005750D01*
X208780000Y-33020000D01*
X209356887Y-33020000D01*
X209468260Y-33579909D01*
X209785423Y-34054577D01*
X210137758Y-34290000D01*
X209785423Y-34525423D01*
X209468260Y-35000091D01*
X209356887Y-35560000D01*
X209468260Y-36119909D01*
X209785423Y-36594577D01*
X210137758Y-36830000D01*
X209785423Y-37065423D01*
X209468260Y-37540091D01*
X209356887Y-38100000D01*
X209468260Y-38659909D01*
X209785423Y-39134577D01*
X210137758Y-39370000D01*
X209785423Y-39605423D01*
X209468260Y-40080091D01*
X209356887Y-40640000D01*
X209468260Y-41199909D01*
X209785423Y-41674577D01*
X210137758Y-41910000D01*
X209785423Y-42145423D01*
X209468260Y-42620091D01*
X209356887Y-43180000D01*
X209468260Y-43739909D01*
X209785423Y-44214577D01*
X209891918Y-44285735D01*
X209660302Y-44381673D01*
X209481673Y-44560301D01*
X209385000Y-44793690D01*
X209385000Y-45434250D01*
X209543750Y-45593000D01*
X210693000Y-45593000D01*
X210693000Y-45573000D01*
X210947000Y-45573000D01*
X210947000Y-45593000D01*
X212096250Y-45593000D01*
X212255000Y-45434250D01*
X212255000Y-44793690D01*
X212158327Y-44560301D01*
X211979698Y-44381673D01*
X211748082Y-44285735D01*
X211854577Y-44214577D01*
X212171740Y-43739909D01*
X212283113Y-43180000D01*
X212171740Y-42620091D01*
X211854577Y-42145423D01*
X211502242Y-41910000D01*
X211653680Y-41808812D01*
X212478389Y-42633521D01*
X212541711Y-42728289D01*
X212917145Y-42979146D01*
X213359999Y-43067235D01*
X213471782Y-43045000D01*
X214476723Y-43045000D01*
X214592191Y-43217809D01*
X214802235Y-43358157D01*
X215050000Y-43407440D01*
X216750000Y-43407440D01*
X216997765Y-43358157D01*
X217207809Y-43217809D01*
X217348157Y-43007765D01*
X217397440Y-42760000D01*
X217397440Y-41060000D01*
X217348157Y-40812235D01*
X217207809Y-40602191D01*
X216997765Y-40461843D01*
X216952381Y-40452816D01*
X216970625Y-40440625D01*
X217298839Y-39949418D01*
X217414092Y-39370000D01*
X217298839Y-38790582D01*
X216970625Y-38299375D01*
X216672239Y-38100000D01*
X216970625Y-37900625D01*
X217298839Y-37409418D01*
X217414092Y-36830000D01*
X217298839Y-36250582D01*
X216970625Y-35759375D01*
X216672239Y-35560000D01*
X216970625Y-35360625D01*
X217298839Y-34869418D01*
X217414092Y-34290000D01*
X217298839Y-33710582D01*
X216970625Y-33219375D01*
X216479418Y-32891161D01*
X216046256Y-32805000D01*
X216020131Y-32805000D01*
X215511613Y-32296482D01*
X215448289Y-32201711D01*
X215072855Y-31950854D01*
X214741783Y-31885000D01*
X214630000Y-31862765D01*
X214518217Y-31885000D01*
X211704283Y-31885000D01*
X211470892Y-31729053D01*
X211675134Y-31632389D01*
X211842398Y-31447745D01*
X215071861Y-31447745D01*
X215145995Y-31693864D01*
X215683223Y-31886965D01*
X216253454Y-31859778D01*
X216654005Y-31693864D01*
X216728139Y-31447745D01*
X215900000Y-30619605D01*
X215071861Y-31447745D01*
X211842398Y-31447745D01*
X212051041Y-31217423D01*
X212211904Y-30829039D01*
X212089915Y-30607000D01*
X210947000Y-30607000D01*
X210947000Y-30627000D01*
X210693000Y-30627000D01*
X210693000Y-30607000D01*
X209550085Y-30607000D01*
X209428096Y-30829039D01*
X209588959Y-31217423D01*
X209964866Y-31632389D01*
X210169108Y-31729053D01*
X209785423Y-31985423D01*
X209468260Y-32460091D01*
X209356887Y-33020000D01*
X208780000Y-33020000D01*
X208780000Y-29807131D01*
X209512132Y-29075000D01*
X209935717Y-29075000D01*
X210169108Y-29230947D01*
X209964866Y-29327611D01*
X209588959Y-29742577D01*
X209428096Y-30130961D01*
X209550085Y-30353000D01*
X210693000Y-30353000D01*
X210693000Y-30333000D01*
X210947000Y-30333000D01*
X210947000Y-30353000D01*
X212089915Y-30353000D01*
X212161214Y-30223223D01*
X214453035Y-30223223D01*
X214480222Y-30793454D01*
X214646136Y-31194005D01*
X214892255Y-31268139D01*
X215720395Y-30440000D01*
X216079605Y-30440000D01*
X216907745Y-31268139D01*
X217153864Y-31194005D01*
X217346965Y-30656777D01*
X217319778Y-30086546D01*
X217153864Y-29685995D01*
X216907745Y-29611861D01*
X216079605Y-30440000D01*
X215720395Y-30440000D01*
X214892255Y-29611861D01*
X214646136Y-29685995D01*
X214453035Y-30223223D01*
X212161214Y-30223223D01*
X212211904Y-30130961D01*
X212051041Y-29742577D01*
X211675134Y-29327611D01*
X211470892Y-29230947D01*
X211704283Y-29075000D01*
X214560132Y-29075000D01*
X214642191Y-29197809D01*
X214852235Y-29338157D01*
X215086187Y-29384693D01*
X215071861Y-29432255D01*
X215900000Y-30260395D01*
X216728139Y-29432255D01*
X216713813Y-29384693D01*
X216947765Y-29338157D01*
X217157809Y-29197809D01*
X217298157Y-28987765D01*
X217347440Y-28740000D01*
X217347440Y-27140000D01*
X217298157Y-26892235D01*
X217157809Y-26682191D01*
X216947765Y-26541843D01*
X216700000Y-26492560D01*
X215100000Y-26492560D01*
X214852235Y-26541843D01*
X214642191Y-26682191D01*
X214560132Y-26805000D01*
X211704283Y-26805000D01*
X211379909Y-26588260D01*
X210961333Y-26505000D01*
X210678667Y-26505000D01*
X210260091Y-26588260D01*
X209935717Y-26805000D01*
X209153781Y-26805000D01*
X209041999Y-26782765D01*
X208930217Y-26805000D01*
X208599145Y-26870854D01*
X208223711Y-27121711D01*
X208160389Y-27216479D01*
X206921482Y-28455387D01*
X206826711Y-28518711D01*
X206666631Y-28758289D01*
X206575854Y-28894146D01*
X206487765Y-29337000D01*
X206510000Y-29448783D01*
X206510000Y-50688215D01*
X206487765Y-50800000D01*
X206510000Y-50911785D01*
X206510001Y-73548213D01*
X206487765Y-73660000D01*
X206510001Y-73771787D01*
X206510001Y-92874867D01*
X205904869Y-93480000D01*
X190335133Y-93480000D01*
X189476000Y-92620869D01*
X189476000Y-90027783D01*
X189498235Y-89916000D01*
X189410146Y-89473145D01*
X189322927Y-89342613D01*
X189159289Y-89097711D01*
X189064521Y-89034389D01*
X188206613Y-88176481D01*
X188143289Y-88081711D01*
X187767855Y-87830854D01*
X187436783Y-87765000D01*
X187325000Y-87742765D01*
X187213217Y-87765000D01*
X183985132Y-87765000D01*
X181802571Y-85582440D01*
X182090000Y-85582440D01*
X182337765Y-85533157D01*
X182547809Y-85392809D01*
X182688157Y-85182765D01*
X182737440Y-84935000D01*
X182737440Y-83868126D01*
X184004000Y-83868126D01*
X184004000Y-84279874D01*
X184161569Y-84660280D01*
X184452720Y-84951431D01*
X184833126Y-85109000D01*
X185244874Y-85109000D01*
X185547000Y-84983856D01*
X185849126Y-85109000D01*
X186260874Y-85109000D01*
X186563000Y-84983856D01*
X186865126Y-85109000D01*
X187276874Y-85109000D01*
X187657280Y-84951431D01*
X187948431Y-84660280D01*
X188106000Y-84279874D01*
X188106000Y-83868126D01*
X187948431Y-83487720D01*
X187657280Y-83196569D01*
X187276874Y-83039000D01*
X186865126Y-83039000D01*
X186563000Y-83164144D01*
X186260874Y-83039000D01*
X185849126Y-83039000D01*
X185547000Y-83164144D01*
X185244874Y-83039000D01*
X184833126Y-83039000D01*
X184452720Y-83196569D01*
X184161569Y-83487720D01*
X184004000Y-83868126D01*
X182737440Y-83868126D01*
X182737440Y-81435000D01*
X182688157Y-81187235D01*
X182547809Y-80977191D01*
X182337765Y-80836843D01*
X182090000Y-80787560D01*
X178590000Y-80787560D01*
X178342235Y-80836843D01*
X178132191Y-80977191D01*
X177991843Y-81187235D01*
X177942560Y-81435000D01*
X177942560Y-84935000D01*
X177991843Y-85182765D01*
X178132191Y-85392809D01*
X178299001Y-85504269D01*
X178215000Y-85487560D01*
X176465000Y-85487560D01*
X175882387Y-85603449D01*
X175388472Y-85933472D01*
X175058449Y-86427387D01*
X174942560Y-87010000D01*
X167105000Y-87010000D01*
X167105000Y-83470750D01*
X172205000Y-83470750D01*
X172205000Y-85061310D01*
X172301673Y-85294699D01*
X172480302Y-85473327D01*
X172713691Y-85570000D01*
X174054250Y-85570000D01*
X174213000Y-85411250D01*
X174213000Y-83312000D01*
X174467000Y-83312000D01*
X174467000Y-85411250D01*
X174625750Y-85570000D01*
X175966309Y-85570000D01*
X176199698Y-85473327D01*
X176378327Y-85294699D01*
X176475000Y-85061310D01*
X176475000Y-83470750D01*
X176316250Y-83312000D01*
X174467000Y-83312000D01*
X174213000Y-83312000D01*
X172363750Y-83312000D01*
X172205000Y-83470750D01*
X167105000Y-83470750D01*
X167105000Y-81308690D01*
X172205000Y-81308690D01*
X172205000Y-82899250D01*
X172363750Y-83058000D01*
X174213000Y-83058000D01*
X174213000Y-80958750D01*
X174467000Y-80958750D01*
X174467000Y-83058000D01*
X176316250Y-83058000D01*
X176475000Y-82899250D01*
X176475000Y-81308690D01*
X176378327Y-81075301D01*
X176199698Y-80896673D01*
X175966309Y-80800000D01*
X174625750Y-80800000D01*
X174467000Y-80958750D01*
X174213000Y-80958750D01*
X174054250Y-80800000D01*
X172713691Y-80800000D01*
X172480302Y-80896673D01*
X172301673Y-81075301D01*
X172205000Y-81308690D01*
X167105000Y-81308690D01*
X167105000Y-65834126D01*
X177146000Y-65834126D01*
X177146000Y-66245874D01*
X177303569Y-66626280D01*
X177594720Y-66917431D01*
X177975126Y-67075000D01*
X178386874Y-67075000D01*
X178767280Y-66917431D01*
X178859711Y-66825000D01*
X193846013Y-66825000D01*
X193783000Y-66977126D01*
X193783000Y-67388874D01*
X193940569Y-67769280D01*
X194033000Y-67861711D01*
X194033001Y-90761288D01*
X193940569Y-90853720D01*
X193783000Y-91234126D01*
X193783000Y-91645874D01*
X193940569Y-92026280D01*
X194231720Y-92317431D01*
X194612126Y-92475000D01*
X195023874Y-92475000D01*
X195404280Y-92317431D01*
X195695431Y-92026280D01*
X195853000Y-91645874D01*
X195853000Y-91234126D01*
X195695431Y-90853720D01*
X195603000Y-90761289D01*
X195603000Y-73660000D01*
X196656887Y-73660000D01*
X196768260Y-74219909D01*
X197085423Y-74694577D01*
X197437758Y-74930000D01*
X197085423Y-75165423D01*
X196768260Y-75640091D01*
X196656887Y-76200000D01*
X196768260Y-76759909D01*
X197085423Y-77234577D01*
X197437758Y-77470000D01*
X197085423Y-77705423D01*
X196768260Y-78180091D01*
X196656887Y-78740000D01*
X196768260Y-79299909D01*
X197085423Y-79774577D01*
X197437758Y-80010000D01*
X197085423Y-80245423D01*
X196768260Y-80720091D01*
X196656887Y-81280000D01*
X196768260Y-81839909D01*
X197085423Y-82314577D01*
X197437758Y-82550000D01*
X197085423Y-82785423D01*
X196768260Y-83260091D01*
X196656887Y-83820000D01*
X196768260Y-84379909D01*
X197085423Y-84854577D01*
X197437758Y-85090000D01*
X197085423Y-85325423D01*
X196768260Y-85800091D01*
X196656887Y-86360000D01*
X196768260Y-86919909D01*
X197085423Y-87394577D01*
X197437758Y-87630000D01*
X197085423Y-87865423D01*
X196768260Y-88340091D01*
X196656887Y-88900000D01*
X196768260Y-89459909D01*
X197085423Y-89934577D01*
X197437758Y-90170000D01*
X197085423Y-90405423D01*
X196768260Y-90880091D01*
X196656887Y-91440000D01*
X196768260Y-91999909D01*
X197085423Y-92474577D01*
X197560091Y-92791740D01*
X197978667Y-92875000D01*
X198261333Y-92875000D01*
X198679909Y-92791740D01*
X199154577Y-92474577D01*
X199471740Y-91999909D01*
X199583113Y-91440000D01*
X199471740Y-90880091D01*
X199154577Y-90405423D01*
X198802242Y-90170000D01*
X199154577Y-89934577D01*
X199471740Y-89459909D01*
X199583113Y-88900000D01*
X199471740Y-88340091D01*
X199154577Y-87865423D01*
X198802242Y-87630000D01*
X199154577Y-87394577D01*
X199471740Y-86919909D01*
X199583113Y-86360000D01*
X199471740Y-85800091D01*
X199154577Y-85325423D01*
X198802242Y-85090000D01*
X199154577Y-84854577D01*
X199471740Y-84379909D01*
X199583113Y-83820000D01*
X199471740Y-83260091D01*
X199154577Y-82785423D01*
X198802242Y-82550000D01*
X199154577Y-82314577D01*
X199471740Y-81839909D01*
X199583113Y-81280000D01*
X199471740Y-80720091D01*
X199154577Y-80245423D01*
X198802242Y-80010000D01*
X199154577Y-79774577D01*
X199471740Y-79299909D01*
X199583113Y-78740000D01*
X199471740Y-78180091D01*
X199154577Y-77705423D01*
X198802242Y-77470000D01*
X199154577Y-77234577D01*
X199471740Y-76759909D01*
X199583113Y-76200000D01*
X199471740Y-75640091D01*
X199154577Y-75165423D01*
X198802242Y-74930000D01*
X199154577Y-74694577D01*
X199471740Y-74219909D01*
X199583113Y-73660000D01*
X199471740Y-73100091D01*
X199154577Y-72625423D01*
X198679909Y-72308260D01*
X198261333Y-72225000D01*
X197978667Y-72225000D01*
X197560091Y-72308260D01*
X197085423Y-72625423D01*
X196768260Y-73100091D01*
X196656887Y-73660000D01*
X195603000Y-73660000D01*
X195603000Y-67861711D01*
X195695431Y-67769280D01*
X195853000Y-67388874D01*
X195853000Y-66977126D01*
X195789987Y-66825000D01*
X196918661Y-66825000D01*
X197085423Y-67074577D01*
X197437758Y-67310000D01*
X197085423Y-67545423D01*
X196768260Y-68020091D01*
X196656887Y-68580000D01*
X196768260Y-69139909D01*
X197085423Y-69614577D01*
X197560091Y-69931740D01*
X197978667Y-70015000D01*
X198261333Y-70015000D01*
X198679909Y-69931740D01*
X199154577Y-69614577D01*
X199471740Y-69139909D01*
X199583113Y-68580000D01*
X199471740Y-68020091D01*
X199154577Y-67545423D01*
X198802242Y-67310000D01*
X199154577Y-67074577D01*
X199471740Y-66599909D01*
X199583113Y-66040000D01*
X199471740Y-65480091D01*
X199154577Y-65005423D01*
X198802242Y-64770000D01*
X199154577Y-64534577D01*
X199471740Y-64059909D01*
X199583113Y-63500000D01*
X199471740Y-62940091D01*
X199154577Y-62465423D01*
X198802242Y-62230000D01*
X199154577Y-61994577D01*
X199471740Y-61519909D01*
X199583113Y-60960000D01*
X199471740Y-60400091D01*
X199154577Y-59925423D01*
X198802242Y-59690000D01*
X199154577Y-59454577D01*
X199471740Y-58979909D01*
X199583113Y-58420000D01*
X199471740Y-57860091D01*
X199154577Y-57385423D01*
X198802242Y-57150000D01*
X199154577Y-56914577D01*
X199471740Y-56439909D01*
X199583113Y-55880000D01*
X199471740Y-55320091D01*
X199154577Y-54845423D01*
X198802242Y-54610000D01*
X199154577Y-54374577D01*
X199471740Y-53899909D01*
X199583113Y-53340000D01*
X199471740Y-52780091D01*
X199154577Y-52305423D01*
X198802242Y-52070000D01*
X199154577Y-51834577D01*
X199471740Y-51359909D01*
X199583113Y-50800000D01*
X199471740Y-50240091D01*
X199154577Y-49765423D01*
X198679909Y-49448260D01*
X198261333Y-49365000D01*
X197978667Y-49365000D01*
X197560091Y-49448260D01*
X197085423Y-49765423D01*
X196768260Y-50240091D01*
X196656887Y-50800000D01*
X196768260Y-51359909D01*
X197085423Y-51834577D01*
X197437758Y-52070000D01*
X197085423Y-52305423D01*
X196768260Y-52780091D01*
X196656887Y-53340000D01*
X196768260Y-53899909D01*
X197085423Y-54374577D01*
X197437758Y-54610000D01*
X197085423Y-54845423D01*
X196768260Y-55320091D01*
X196656887Y-55880000D01*
X196768260Y-56439909D01*
X197085423Y-56914577D01*
X197437758Y-57150000D01*
X197085423Y-57385423D01*
X196768260Y-57860091D01*
X196656887Y-58420000D01*
X196768260Y-58979909D01*
X197085423Y-59454577D01*
X197437758Y-59690000D01*
X197085423Y-59925423D01*
X196768260Y-60400091D01*
X196656887Y-60960000D01*
X196768260Y-61519909D01*
X197085423Y-61994577D01*
X197437758Y-62230000D01*
X197085423Y-62465423D01*
X196768260Y-62940091D01*
X196656887Y-63500000D01*
X196768260Y-64059909D01*
X197085423Y-64534577D01*
X197437758Y-64770000D01*
X197085423Y-65005423D01*
X196918661Y-65255000D01*
X178859711Y-65255000D01*
X178767280Y-65162569D01*
X178386874Y-65005000D01*
X177975126Y-65005000D01*
X177594720Y-65162569D01*
X177303569Y-65453720D01*
X177146000Y-65834126D01*
X167105000Y-65834126D01*
X167105000Y-48006000D01*
X168792908Y-48006000D01*
X168908161Y-48585418D01*
X169236375Y-49076625D01*
X169534761Y-49276000D01*
X169236375Y-49475375D01*
X168908161Y-49966582D01*
X168792908Y-50546000D01*
X168908161Y-51125418D01*
X169236375Y-51616625D01*
X169534761Y-51816000D01*
X169236375Y-52015375D01*
X168908161Y-52506582D01*
X168792908Y-53086000D01*
X168908161Y-53665418D01*
X169236375Y-54156625D01*
X169534761Y-54356000D01*
X169236375Y-54555375D01*
X168908161Y-55046582D01*
X168792908Y-55626000D01*
X168908161Y-56205418D01*
X169236375Y-56696625D01*
X169254619Y-56708816D01*
X169209235Y-56717843D01*
X168999191Y-56858191D01*
X168858843Y-57068235D01*
X168809560Y-57316000D01*
X168809560Y-59016000D01*
X168858843Y-59263765D01*
X168999191Y-59473809D01*
X169209235Y-59614157D01*
X169457000Y-59663440D01*
X171157000Y-59663440D01*
X171404765Y-59614157D01*
X171614809Y-59473809D01*
X171755157Y-59263765D01*
X171804440Y-59016000D01*
X171804440Y-57316000D01*
X171755157Y-57068235D01*
X171614809Y-56858191D01*
X171404765Y-56717843D01*
X171359381Y-56708816D01*
X171377625Y-56696625D01*
X171705839Y-56205418D01*
X171821092Y-55626000D01*
X171705839Y-55046582D01*
X171700858Y-55039126D01*
X181210000Y-55039126D01*
X181210000Y-55450874D01*
X181367569Y-55831280D01*
X181658720Y-56122431D01*
X182039126Y-56280000D01*
X182450874Y-56280000D01*
X182831280Y-56122431D01*
X183122431Y-55831280D01*
X183280000Y-55450874D01*
X183280000Y-55039126D01*
X183122431Y-54658720D01*
X182831280Y-54367569D01*
X182450874Y-54210000D01*
X182039126Y-54210000D01*
X181658720Y-54367569D01*
X181367569Y-54658720D01*
X181210000Y-55039126D01*
X171700858Y-55039126D01*
X171377625Y-54555375D01*
X171079239Y-54356000D01*
X171377625Y-54156625D01*
X171705839Y-53665418D01*
X171821092Y-53086000D01*
X171705839Y-52506582D01*
X171377625Y-52015375D01*
X171079239Y-51816000D01*
X171377625Y-51616625D01*
X171705839Y-51125418D01*
X171821092Y-50546000D01*
X171705839Y-49966582D01*
X171700858Y-49959126D01*
X177400000Y-49959126D01*
X177400000Y-50370874D01*
X177557569Y-50751280D01*
X177848720Y-51042431D01*
X178229126Y-51200000D01*
X178640874Y-51200000D01*
X179021280Y-51042431D01*
X179312431Y-50751280D01*
X179470000Y-50370874D01*
X179470000Y-50240157D01*
X179751031Y-49959126D01*
X181845000Y-49959126D01*
X181845000Y-50370874D01*
X182002569Y-50751280D01*
X182293720Y-51042431D01*
X182674126Y-51200000D01*
X183085874Y-51200000D01*
X183466280Y-51042431D01*
X183757431Y-50751280D01*
X183915000Y-50370874D01*
X183915000Y-49959126D01*
X183757431Y-49578720D01*
X183466280Y-49287569D01*
X183085874Y-49130000D01*
X182674126Y-49130000D01*
X182293720Y-49287569D01*
X182002569Y-49578720D01*
X181845000Y-49959126D01*
X179751031Y-49959126D01*
X182055157Y-47655001D01*
X186605687Y-47655001D01*
X186682999Y-47670379D01*
X186760311Y-47655001D01*
X186760315Y-47655001D01*
X186989291Y-47609455D01*
X187248952Y-47435954D01*
X187292748Y-47370409D01*
X190698158Y-43965000D01*
X196918661Y-43965000D01*
X197085423Y-44214577D01*
X197437758Y-44450000D01*
X197085423Y-44685423D01*
X196918661Y-44935000D01*
X191085312Y-44935000D01*
X191008000Y-44919622D01*
X190930688Y-44935000D01*
X190930684Y-44935000D01*
X190701708Y-44980546D01*
X190507591Y-45110251D01*
X190507589Y-45110253D01*
X190442047Y-45154047D01*
X190398253Y-45219589D01*
X186443590Y-49174253D01*
X186378048Y-49218047D01*
X186334254Y-49283589D01*
X186334251Y-49283592D01*
X186204546Y-49477709D01*
X186143622Y-49784000D01*
X186159001Y-49861317D01*
X186159000Y-54820289D01*
X186066569Y-54912720D01*
X185909000Y-55293126D01*
X185909000Y-55704874D01*
X186066569Y-56085280D01*
X186357720Y-56376431D01*
X186738126Y-56534000D01*
X187149874Y-56534000D01*
X187530280Y-56376431D01*
X187821431Y-56085280D01*
X187979000Y-55704874D01*
X187979000Y-55293126D01*
X187821431Y-54912720D01*
X187729000Y-54820289D01*
X187729000Y-50109157D01*
X191333158Y-46505000D01*
X196918661Y-46505000D01*
X197085423Y-46754577D01*
X197560091Y-47071740D01*
X197978667Y-47155000D01*
X198261333Y-47155000D01*
X198679909Y-47071740D01*
X199154577Y-46754577D01*
X199471740Y-46279909D01*
X199583113Y-45720000D01*
X199471740Y-45160091D01*
X199154577Y-44685423D01*
X198802242Y-44450000D01*
X199154577Y-44214577D01*
X199471740Y-43739909D01*
X199583113Y-43180000D01*
X199471740Y-42620091D01*
X199154577Y-42145423D01*
X198802242Y-41910000D01*
X199154577Y-41674577D01*
X199471740Y-41199909D01*
X199583113Y-40640000D01*
X199471740Y-40080091D01*
X199154577Y-39605423D01*
X198802242Y-39370000D01*
X199154577Y-39134577D01*
X199471740Y-38659909D01*
X199583113Y-38100000D01*
X199471740Y-37540091D01*
X199154577Y-37065423D01*
X198802242Y-36830000D01*
X199154577Y-36594577D01*
X199471740Y-36119909D01*
X199583113Y-35560000D01*
X199471740Y-35000091D01*
X199154577Y-34525423D01*
X198802242Y-34290000D01*
X199154577Y-34054577D01*
X199471740Y-33579909D01*
X199583113Y-33020000D01*
X199471740Y-32460091D01*
X199154577Y-31985423D01*
X198802242Y-31750000D01*
X199154577Y-31514577D01*
X199471740Y-31039909D01*
X199583113Y-30480000D01*
X199471740Y-29920091D01*
X199154577Y-29445423D01*
X198802242Y-29210000D01*
X199154577Y-28974577D01*
X199471740Y-28499909D01*
X199583113Y-27940000D01*
X199471740Y-27380091D01*
X199154577Y-26905423D01*
X198679909Y-26588260D01*
X198261333Y-26505000D01*
X197978667Y-26505000D01*
X197560091Y-26588260D01*
X197085423Y-26905423D01*
X196768260Y-27380091D01*
X196656887Y-27940000D01*
X196768260Y-28499909D01*
X197085423Y-28974577D01*
X197437758Y-29210000D01*
X197085423Y-29445423D01*
X196768260Y-29920091D01*
X196656887Y-30480000D01*
X196768260Y-31039909D01*
X197085423Y-31514577D01*
X197437758Y-31750000D01*
X197085423Y-31985423D01*
X196768260Y-32460091D01*
X196656887Y-33020000D01*
X196768260Y-33579909D01*
X197085423Y-34054577D01*
X197437758Y-34290000D01*
X197085423Y-34525423D01*
X196768260Y-35000091D01*
X196656887Y-35560000D01*
X196768260Y-36119909D01*
X197085423Y-36594577D01*
X197437758Y-36830000D01*
X197085423Y-37065423D01*
X196768260Y-37540091D01*
X196656887Y-38100000D01*
X196768260Y-38659909D01*
X197085423Y-39134577D01*
X197437758Y-39370000D01*
X197085423Y-39605423D01*
X196768260Y-40080091D01*
X196656887Y-40640000D01*
X196768260Y-41199909D01*
X197085423Y-41674577D01*
X197437758Y-41910000D01*
X197085423Y-42145423D01*
X196918661Y-42395000D01*
X190450310Y-42395000D01*
X190372999Y-42379622D01*
X190295688Y-42395000D01*
X190295684Y-42395000D01*
X190066708Y-42440546D01*
X190066706Y-42440547D01*
X190066707Y-42440547D01*
X189872591Y-42570251D01*
X189872589Y-42570253D01*
X189807047Y-42614047D01*
X189763253Y-42679589D01*
X186357842Y-46085001D01*
X181807309Y-46085001D01*
X181729998Y-46069623D01*
X181652687Y-46085001D01*
X181652683Y-46085001D01*
X181423707Y-46130547D01*
X181304624Y-46210116D01*
X181229590Y-46260252D01*
X181229588Y-46260254D01*
X181164046Y-46304048D01*
X181120252Y-46369590D01*
X178359843Y-49130000D01*
X178229126Y-49130000D01*
X177848720Y-49287569D01*
X177557569Y-49578720D01*
X177400000Y-49959126D01*
X171700858Y-49959126D01*
X171377625Y-49475375D01*
X171079239Y-49276000D01*
X171377625Y-49076625D01*
X171705839Y-48585418D01*
X171821092Y-48006000D01*
X171705839Y-47426582D01*
X171377625Y-46935375D01*
X171058522Y-46722157D01*
X171188358Y-46661183D01*
X171578645Y-46232924D01*
X171748476Y-45822890D01*
X171627155Y-45593000D01*
X170434000Y-45593000D01*
X170434000Y-45613000D01*
X170180000Y-45613000D01*
X170180000Y-45593000D01*
X168986845Y-45593000D01*
X168865524Y-45822890D01*
X169035355Y-46232924D01*
X169425642Y-46661183D01*
X169555478Y-46722157D01*
X169236375Y-46935375D01*
X168908161Y-47426582D01*
X168792908Y-48006000D01*
X167105000Y-48006000D01*
X167105000Y-45109110D01*
X168865524Y-45109110D01*
X168986845Y-45339000D01*
X170180000Y-45339000D01*
X170180000Y-44145181D01*
X170434000Y-44145181D01*
X170434000Y-45339000D01*
X171627155Y-45339000D01*
X171748476Y-45109110D01*
X171578645Y-44699076D01*
X171188358Y-44270817D01*
X170663892Y-44024514D01*
X170434000Y-44145181D01*
X170180000Y-44145181D01*
X169950108Y-44024514D01*
X169425642Y-44270817D01*
X169035355Y-44699076D01*
X168865524Y-45109110D01*
X167105000Y-45109110D01*
X167105000Y-39370000D01*
X168792908Y-39370000D01*
X168908161Y-39949418D01*
X169236375Y-40440625D01*
X169727582Y-40768839D01*
X170160744Y-40855000D01*
X170453256Y-40855000D01*
X170886418Y-40768839D01*
X171377625Y-40440625D01*
X171577000Y-40142239D01*
X171776375Y-40440625D01*
X172267582Y-40768839D01*
X172700744Y-40855000D01*
X172993256Y-40855000D01*
X173426418Y-40768839D01*
X173917625Y-40440625D01*
X173929816Y-40422381D01*
X173938843Y-40467765D01*
X174079191Y-40677809D01*
X174289235Y-40818157D01*
X174537000Y-40867440D01*
X176237000Y-40867440D01*
X176484765Y-40818157D01*
X176694809Y-40677809D01*
X176835157Y-40467765D01*
X176884440Y-40220000D01*
X176884440Y-38520000D01*
X176835157Y-38272235D01*
X176694809Y-38062191D01*
X176484765Y-37921843D01*
X176439381Y-37912816D01*
X176457625Y-37900625D01*
X176785839Y-37409418D01*
X176901092Y-36830000D01*
X176785839Y-36250582D01*
X176520184Y-35853000D01*
X179604560Y-35853000D01*
X179604560Y-37553000D01*
X179653843Y-37800765D01*
X179794191Y-38010809D01*
X180004235Y-38151157D01*
X180252000Y-38200440D01*
X181952000Y-38200440D01*
X182199765Y-38151157D01*
X182409809Y-38010809D01*
X182550157Y-37800765D01*
X182559184Y-37755381D01*
X182571375Y-37773625D01*
X183062582Y-38101839D01*
X183495744Y-38188000D01*
X183788256Y-38188000D01*
X184221418Y-38101839D01*
X184712625Y-37773625D01*
X184925843Y-37454522D01*
X184986817Y-37584358D01*
X185415076Y-37974645D01*
X185825110Y-38144476D01*
X186055000Y-38023155D01*
X186055000Y-36830000D01*
X186309000Y-36830000D01*
X186309000Y-38023155D01*
X186538890Y-38144476D01*
X186948924Y-37974645D01*
X187377183Y-37584358D01*
X187623486Y-37059892D01*
X187502819Y-36830000D01*
X186309000Y-36830000D01*
X186055000Y-36830000D01*
X186035000Y-36830000D01*
X186035000Y-36576000D01*
X186055000Y-36576000D01*
X186055000Y-35382845D01*
X186309000Y-35382845D01*
X186309000Y-36576000D01*
X187502819Y-36576000D01*
X187623486Y-36346108D01*
X187377183Y-35821642D01*
X186948924Y-35431355D01*
X186538890Y-35261524D01*
X186309000Y-35382845D01*
X186055000Y-35382845D01*
X185825110Y-35261524D01*
X185415076Y-35431355D01*
X184986817Y-35821642D01*
X184925843Y-35951478D01*
X184712625Y-35632375D01*
X184221418Y-35304161D01*
X183788256Y-35218000D01*
X183495744Y-35218000D01*
X183062582Y-35304161D01*
X182571375Y-35632375D01*
X182559184Y-35650619D01*
X182550157Y-35605235D01*
X182409809Y-35395191D01*
X182199765Y-35254843D01*
X181952000Y-35205560D01*
X180252000Y-35205560D01*
X180004235Y-35254843D01*
X179794191Y-35395191D01*
X179653843Y-35605235D01*
X179604560Y-35853000D01*
X176520184Y-35853000D01*
X176457625Y-35759375D01*
X175966418Y-35431161D01*
X175533256Y-35345000D01*
X175240744Y-35345000D01*
X174807582Y-35431161D01*
X174316375Y-35759375D01*
X174117000Y-36057761D01*
X173917625Y-35759375D01*
X173426418Y-35431161D01*
X172993256Y-35345000D01*
X172700744Y-35345000D01*
X172267582Y-35431161D01*
X171776375Y-35759375D01*
X171563157Y-36078478D01*
X171502183Y-35948642D01*
X171073924Y-35558355D01*
X170663890Y-35388524D01*
X170434000Y-35509845D01*
X170434000Y-36703000D01*
X170454000Y-36703000D01*
X170454000Y-36957000D01*
X170434000Y-36957000D01*
X170434000Y-36977000D01*
X170180000Y-36977000D01*
X170180000Y-36957000D01*
X168986181Y-36957000D01*
X168865514Y-37186892D01*
X169111817Y-37711358D01*
X169536786Y-38098647D01*
X169236375Y-38299375D01*
X168908161Y-38790582D01*
X168792908Y-39370000D01*
X167105000Y-39370000D01*
X167105000Y-36473108D01*
X168865514Y-36473108D01*
X168986181Y-36703000D01*
X170180000Y-36703000D01*
X170180000Y-35509845D01*
X169950110Y-35388524D01*
X169540076Y-35558355D01*
X169111817Y-35948642D01*
X168865514Y-36473108D01*
X167105000Y-36473108D01*
X167105000Y-27940000D01*
X167160475Y-27940000D01*
X167263363Y-28721511D01*
X167565015Y-29449762D01*
X168044873Y-30075127D01*
X168670237Y-30554985D01*
X169398489Y-30856637D01*
X170180000Y-30959525D01*
X170961511Y-30856637D01*
X171689763Y-30554985D01*
X172315127Y-30075127D01*
X172794985Y-29449762D01*
X173096637Y-28721511D01*
X173199525Y-27940000D01*
X173096637Y-27158489D01*
X172794985Y-26430238D01*
X172315127Y-25804873D01*
X171689763Y-25325015D01*
X170961511Y-25023363D01*
X170180000Y-24920475D01*
X169398489Y-25023363D01*
X168670238Y-25325015D01*
X168044873Y-25804873D01*
X167565015Y-26430238D01*
X167263363Y-27158489D01*
X167160475Y-27940000D01*
X167105000Y-27940000D01*
X167105000Y-24865000D01*
X220245000Y-24865000D01*
X220245001Y-95785000D01*
G04 #@! TD*
M02*
